<svg width="372" height="213" viewBox="0 0 372 213" fill="none" xmlns="http://www.w3.org/2000/svg">
<path fill-rule="evenodd" clip-rule="evenodd" d="M206.513 1.37621C258.782 10.5441 298.4 54.1087 298.4 106.5C298.4 158.892 258.781 202.456 206.512 211.624C239.927 208.417 269.847 197.487 292.543 181.48C319.794 162.26 336.6 135.744 336.6 106.5C336.6 77.2558 319.794 50.7405 292.543 31.52C269.847 15.5131 239.927 4.58311 206.513 1.37621ZM186.011 0.4C186.999 0.404533 188.038 1.03461 189.111 2.4097C190.182 3.78263 191.232 5.83234 192.243 8.51051C194.263 13.8625 196.089 21.6299 197.626 31.2562C200.698 50.5023 202.6 77.1052 202.6 106.5C202.6 135.895 200.698 162.498 197.626 181.744C196.089 191.37 194.263 199.137 192.243 204.489C191.232 207.168 190.182 209.217 189.111 210.59C188.038 211.966 186.998 212.596 186.009 212.6H186.009L186 212.6C144.375 212.6 106.708 200.7 79.4575 181.48C52.2059 162.26 35.4001 135.744 35.4001 106.5C35.4001 77.2558 52.2059 50.7405 79.4575 31.52C106.708 12.3003 144.375 0.4 186 0.4C186.004 0.4 186.007 0.4 186.011 0.4ZM186 213.4C134.857 213.4 88.5351 201.467 54.9858 182.154C21.4472 162.846 0.600098 136.113 0.600098 106.5C0.600098 76.8868 21.4472 50.1538 54.9858 30.8465C88.5351 11.5329 134.857 -0.4 186 -0.400024C186.032 -0.400024 186.064 -0.400012 186.097 -0.399986C237.202 -0.384958 283.486 11.5451 317.014 30.8465C350.553 50.1538 371.4 76.8868 371.4 106.5C371.4 136.113 350.553 162.846 317.014 182.154C283.465 201.467 237.144 213.4 186 213.4ZM297.6 106.5C297.6 160.87 254.574 205.714 199.094 211.877C215.259 208.075 229.698 197.357 240.771 182.041C254.76 162.693 263.4 135.984 263.4 106.5C263.4 77.016 254.76 50.3068 240.771 30.9587C229.698 15.643 215.259 4.92459 199.095 1.12248C254.574 7.28612 297.6 52.1303 297.6 106.5ZM203.799 8.08657C200.384 4.66819 196.74 2.19439 192.926 0.82815C211.273 3.10714 227.778 14.3532 240.123 31.4275C254.003 50.6248 262.6 77.1656 262.6 106.5C262.6 135.834 254.003 162.375 240.123 181.572C227.778 198.647 211.273 209.893 192.926 212.172C196.74 210.806 200.384 208.332 203.799 204.913C209.231 199.476 214.104 191.628 218.188 181.963C226.357 162.63 231.4 135.949 231.4 106.5C231.4 77.0506 226.357 50.3703 218.188 31.0374C214.104 21.3718 209.231 13.524 203.799 8.08657ZM188.431 212.444C188.883 212.081 189.32 211.623 189.742 211.082C190.884 209.618 191.968 207.483 192.992 204.772C195.039 199.345 196.876 191.516 198.416 181.87C201.497 162.571 203.4 135.924 203.4 106.5C203.4 77.0764 201.497 50.4294 198.416 31.1301C196.876 21.4836 195.039 13.6545 192.992 8.22804C191.968 5.51701 190.884 3.38208 189.742 1.91765C189.32 1.37719 188.883 0.918827 188.431 0.556004C193.629 1.22496 198.615 4.02871 203.233 8.65197C208.569 13.993 213.392 21.7417 217.451 31.3488C225.569 50.5613 230.6 77.131 230.6 106.5C230.6 135.869 225.569 162.439 217.451 181.651C213.392 191.258 208.569 199.007 203.233 204.348C198.615 208.971 193.629 211.775 188.431 212.444ZM55.3849 31.5398C21.9667 50.7779 1.4001 77.2948 1.4001 106.5C1.4001 135.705 21.9667 162.222 55.3849 181.46C81.6569 196.584 115.827 207.179 154.043 211.015C125.09 206.624 99.2059 196.387 78.9964 182.134C51.5967 162.809 34.6001 136.074 34.6001 106.5C34.6001 76.9258 51.5967 50.1912 78.9964 30.8663C99.2058 16.6126 125.09 6.37633 154.043 1.98507C115.827 5.82094 81.6569 16.4156 55.3849 31.5398ZM293.004 182.134C272.794 196.387 246.91 206.624 217.957 211.015C256.173 207.179 290.343 196.584 316.615 181.46C350.034 162.222 370.6 135.705 370.6 106.5C370.6 77.2948 350.034 50.7779 316.615 31.5398C290.343 16.4157 256.173 5.82095 217.957 1.98508C246.91 6.37634 272.794 16.6126 293.004 30.8663C320.403 50.1912 337.4 76.9258 337.4 106.5C337.4 136.074 320.403 162.809 293.004 182.134Z" fill="black"/>
<path fill-rule="evenodd" clip-rule="evenodd" d="M75 106.5C75 165.318 122.682 213 181.5 213V212.916C182.913 212.972 184.333 213 185.76 213V0C184.333 0 182.913 0.0280549 181.5 0.083643V0C122.682 0 75 47.6817 75 106.5Z" fill="url(#paint0_linear_6250_1757)"/>
<path fill-rule="evenodd" clip-rule="evenodd" d="M181.5 213C122.682 213 75 165.318 75 106.5C75 47.6817 122.682 0 181.5 0V0.083643C124.657 2.31973 79.26 49.1084 79.26 106.5C79.26 163.892 124.657 210.68 181.5 212.916V213Z" fill="url(#paint1_linear_6250_1757)"/>
<path fill-rule="evenodd" clip-rule="evenodd" d="M185.76 213C126.941 213 79.2598 165.318 79.2598 106.5C79.2598 47.6817 126.941 0 185.76 0V0.000283515C128.985 0.134302 83 47.7645 83 106.5C83 165.235 128.985 212.866 185.76 213V213Z" fill="url(#paint2_linear_6250_1757)"/>
<mask id="mask0_6250_1757" style="mask-type:alpha" maskUnits="userSpaceOnUse" x="75" y="0" width="111" height="213">
<path fill-rule="evenodd" clip-rule="evenodd" d="M75 106.5C75 165.318 122.682 213 181.5 213V212.916C182.913 212.972 184.333 213 185.76 213V0C184.333 0 182.913 0.0280549 181.5 0.083643V0C122.682 0 75 47.6817 75 106.5Z" fill="url(#paint3_linear_6250_1757)"/>
</mask>
<g mask="url(#mask0_6250_1757)">
<g filter="url(#filter0_f_6250_1757)">
<path d="M185.76 190.517C139.359 190.517 101.744 152.901 101.744 106.5C101.744 60.0989 139.359 22.4834 185.76 22.4834" stroke="#84AEFF" stroke-width="0.8"/>
</g>
<g filter="url(#filter1_f_6250_1757)">
<path d="M185.76 168.033C151.776 168.033 124.227 140.484 124.227 106.5C124.227 72.516 151.776 44.9666 185.76 44.9666" stroke="#84AEFF" stroke-width="0.8"/>
</g>
<g filter="url(#filter2_f_6250_1757)">
<path d="M185.76 145.55C164.193 145.55 146.71 128.067 146.71 106.5C146.71 84.9332 164.193 67.45 185.76 67.45" stroke="#84AEFF" stroke-width="0.8"/>
</g>
</g>
<defs>
<filter id="filter0_f_6250_1757" x="99.3438" y="20.0834" width="88.4165" height="172.833" filterUnits="userSpaceOnUse" color-interpolation-filters="sRGB">
<feFlood flood-opacity="0" result="BackgroundImageFix"/>
<feBlend mode="normal" in="SourceGraphic" in2="BackgroundImageFix" result="shape"/>
<feGaussianBlur stdDeviation="1" result="effect1_foregroundBlur_6250_1757"/>
</filter>
<filter id="filter1_f_6250_1757" x="121.827" y="42.5665" width="65.9333" height="127.867" filterUnits="userSpaceOnUse" color-interpolation-filters="sRGB">
<feFlood flood-opacity="0" result="BackgroundImageFix"/>
<feBlend mode="normal" in="SourceGraphic" in2="BackgroundImageFix" result="shape"/>
<feGaussianBlur stdDeviation="1" result="effect1_foregroundBlur_6250_1757"/>
</filter>
<filter id="filter2_f_6250_1757" x="144.31" y="65.0499" width="43.45" height="82.9" filterUnits="userSpaceOnUse" color-interpolation-filters="sRGB">
<feFlood flood-opacity="0" result="BackgroundImageFix"/>
<feBlend mode="normal" in="SourceGraphic" in2="BackgroundImageFix" result="shape"/>
<feGaussianBlur stdDeviation="1" result="effect1_foregroundBlur_6250_1757"/>
</filter>
<linearGradient id="paint0_linear_6250_1757" x1="133.092" y1="-25.9378" x2="294.809" y2="78.9664" gradientUnits="userSpaceOnUse">
<stop stop-color="#F7F9FF"/>
<stop offset="0.978627" stop-color="#B4CCFF"/>
</linearGradient>
<linearGradient id="paint1_linear_6250_1757" x1="130.858" y1="-25.9378" x2="262.807" y2="85.4663" gradientUnits="userSpaceOnUse">
<stop stop-color="#DCE7FF"/>
<stop offset="0.311165" stop-color="#F0F5FF"/>
<stop offset="1" stop-color="#93ACE5"/>
</linearGradient>
<linearGradient id="paint2_linear_6250_1757" x1="132.51" y1="213" x2="132.51" y2="0" gradientUnits="userSpaceOnUse">
<stop stop-color="white" stop-opacity="0"/>
<stop offset="0.285" stop-color="white"/>
<stop offset="0.72" stop-color="white"/>
<stop offset="1" stop-color="white" stop-opacity="0"/>
</linearGradient>
<linearGradient id="paint3_linear_6250_1757" x1="133.092" y1="-25.9378" x2="294.809" y2="78.9664" gradientUnits="userSpaceOnUse">
<stop stop-color="#F7F9FF"/>
<stop offset="0.978627" stop-color="#B4CCFF"/>
</linearGradient>
</defs>
</svg>
