<svg width="398" height="213" viewBox="0 0 398 213" fill="none" xmlns="http://www.w3.org/2000/svg">
<path fill-rule="evenodd" clip-rule="evenodd" d="M80.3577 43.612C47.6844 46.2641 22.0026 73.4754 22.0026 106.648C22.0026 139.821 47.6844 167.033 80.3577 169.685L80.293 170.482C59.6977 168.81 41.8437 157.501 31.3001 141.095C13.9753 138.829 0.600098 124.208 0.600098 106.5C0.600098 88.7205 14.0831 74.0535 31.5093 71.8782C42.0789 55.6473 59.8333 44.4753 80.293 42.8146L80.3577 43.612ZM30.9445 72.7614C14.2277 75.1732 1.4001 89.3641 1.4001 106.5C1.4001 123.566 14.1236 137.711 30.7406 140.209C24.6921 130.45 21.2026 118.954 21.2026 106.648C21.2026 94.2046 24.7706 82.5902 30.9445 72.7614Z" fill="black"/>
<path fill-rule="evenodd" clip-rule="evenodd" d="M317.647 43.5583C303.693 32.2055 285.891 25.4 266.5 25.4C238.558 25.4 213.916 39.5305 199.331 61.0373L198.669 60.5883C213.397 38.8713 238.282 24.6 266.5 24.6C286.028 24.6 303.96 31.4344 318.033 42.8419C338.355 44.5944 355.977 55.7337 366.491 71.8782C383.917 74.0534 397.4 88.7204 397.4 106.5C397.4 124.208 384.025 138.829 366.7 141.095C356.156 157.501 338.302 168.81 317.707 170.482L317.702 170.425C303.679 181.672 285.875 188.4 266.5 188.4C238.282 188.4 213.397 174.129 198.669 152.412L199.331 151.963C213.916 173.469 238.558 187.6 266.5 187.6C311.29 187.6 347.6 151.29 347.6 106.5C347.6 81.1349 335.955 58.4896 317.72 43.6183C317.694 43.6162 317.668 43.614 317.642 43.6119L317.647 43.5583ZM319.135 43.7506C337.027 58.7743 348.4 81.3089 348.4 106.5C348.4 131.881 336.855 154.565 318.73 169.587C350.884 166.426 375.997 139.452 375.997 106.648C375.997 73.9822 351.094 47.097 319.135 43.7506ZM376.797 106.648C376.797 94.2046 373.229 82.5901 367.055 72.7613C383.772 75.173 396.6 89.364 396.6 106.5C396.6 123.566 383.876 137.711 367.259 140.209C373.308 130.45 376.797 118.954 376.797 106.648Z" fill="black"/>
<circle cx="81.5" cy="81.5" r="81.5" transform="matrix(-1 0 0 1 213 25)" fill="url(#paint0_linear_6214_6264)"/>
<path d="M128 25.071C171.522 26.8699 206.253 62.6387 206.253 106.5C206.253 150.361 171.522 186.13 128 187.929C129.141 187.976 130.288 188 131.441 188C176.559 188 213.134 151.511 213.134 106.5C213.134 61.4888 176.559 25 131.441 25C130.288 25 129.141 25.0238 128 25.071Z" fill="url(#paint1_linear_6214_6264)"/>
<path d="M131.134 187.929C87.612 186.13 52.8815 150.361 52.8815 106.5C52.8815 62.6387 87.612 26.8699 131.134 25.071C129.993 25.0238 128.846 25 127.694 25C82.5755 25 46.0001 61.4888 46.0001 106.5C46.0001 151.511 82.5755 188 127.694 188C128.846 188 129.993 187.976 131.134 187.929Z" fill="url(#paint2_linear_6214_6264)"/>
<path d="M52.8814 106.5C52.8814 150.361 87.6119 186.13 131.134 187.929C130.655 187.949 130.174 187.965 129.693 187.976C85.4991 186.916 50 150.844 50 106.5C50 62.1556 85.4998 26.0829 129.694 25.0239C130.175 25.0355 130.655 25.0511 131.134 25.0709C87.6119 26.8699 52.8814 62.6387 52.8814 106.5Z" fill="url(#paint3_linear_6214_6264)"/>
<mask id="mask0_6214_6264" style="mask-type:alpha" maskUnits="userSpaceOnUse" x="46" y="25" width="167" height="163">
<path d="M46 106.5C46 151.511 83.3842 188 129.5 188C175.616 188 213 151.511 213 106.5C213 61.4888 175.616 25 129.5 25C83.3842 25 46 61.4888 46 106.5Z" fill="url(#paint4_linear_6214_6264)"/>
</mask>
<g mask="url(#mask0_6214_6264)">
<g filter="url(#filter0_f_6214_6264)">
<path d="M199 61C190.163 74.031 185 89.7562 185 106.687C185 123.618 190.163 139.343 199 152.374" stroke="#99BCFF" stroke-width="0.8"/>
</g>
<g filter="url(#filter1_f_6214_6264)">
<path d="M55.227 77.6672C64.7288 83.8362 71 94.4462 71 106.5C71 118.554 64.7288 129.164 55.227 135.333" stroke="#99BCFF" stroke-width="0.8"/>
</g>
<g filter="url(#filter2_f_6214_6264)">
<path d="M80.3253 43.2133C82.0656 43.072 83.8256 43 85.6025 43C120.949 43 149.603 71.4963 149.603 106.648C149.603 141.8 120.949 170.297 85.6025 170.297C83.8256 170.297 82.0656 170.225 80.3253 170.083" stroke="#99BCFF" stroke-width="0.8"/>
</g>
<g filter="url(#filter3_f_6214_6264)">
<path d="M117 26.2603C94.3551 45.6104 80 74.3788 80 106.5C80 138.621 94.3551 167.39 117 186.74" stroke="#84AEFF" stroke-width="0.8"/>
</g>
</g>
<circle cx="105.5" cy="105.5" r="105.5" transform="matrix(-1 0 0 1 304 1)" stroke="black" stroke-width="0.8"/>
<defs>
<filter id="filter0_f_6214_6264" x="180.6" y="56.7755" width="22.731" height="99.8234" filterUnits="userSpaceOnUse" color-interpolation-filters="sRGB">
<feFlood flood-opacity="0" result="BackgroundImageFix"/>
<feBlend mode="normal" in="SourceGraphic" in2="BackgroundImageFix" result="shape"/>
<feGaussianBlur stdDeviation="2" result="effect1_foregroundBlur_6214_6264"/>
</filter>
<filter id="filter1_f_6214_6264" x="51.0093" y="73.3318" width="24.3906" height="66.3364" filterUnits="userSpaceOnUse" color-interpolation-filters="sRGB">
<feFlood flood-opacity="0" result="BackgroundImageFix"/>
<feBlend mode="normal" in="SourceGraphic" in2="BackgroundImageFix" result="shape"/>
<feGaussianBlur stdDeviation="2" result="effect1_foregroundBlur_6214_6264"/>
</filter>
<filter id="filter2_f_6214_6264" x="76.293" y="38.6" width="77.7095" height="136.097" filterUnits="userSpaceOnUse" color-interpolation-filters="sRGB">
<feFlood flood-opacity="0" result="BackgroundImageFix"/>
<feBlend mode="normal" in="SourceGraphic" in2="BackgroundImageFix" result="shape"/>
<feGaussianBlur stdDeviation="2" result="effect1_foregroundBlur_6214_6264"/>
</filter>
<filter id="filter3_f_6214_6264" x="77.6001" y="23.9562" width="41.6597" height="165.088" filterUnits="userSpaceOnUse" color-interpolation-filters="sRGB">
<feFlood flood-opacity="0" result="BackgroundImageFix"/>
<feBlend mode="normal" in="SourceGraphic" in2="BackgroundImageFix" result="shape"/>
<feGaussianBlur stdDeviation="1" result="effect1_foregroundBlur_6214_6264"/>
</filter>
<linearGradient id="paint0_linear_6214_6264" x1="85.4916" y1="-19.8491" x2="217.772" y2="145.169" gradientUnits="userSpaceOnUse">
<stop stop-color="#F7F9FF"/>
<stop offset="0.978627" stop-color="#B4CCFF"/>
</linearGradient>
<linearGradient id="paint1_linear_6214_6264" x1="172.652" y1="5.1509" x2="274.274" y2="94.7758" gradientUnits="userSpaceOnUse">
<stop stop-color="white"/>
<stop offset="0.687277" stop-color="#E0EAFF"/>
<stop offset="1" stop-color="#F6F9FF"/>
</linearGradient>
<linearGradient id="paint2_linear_6214_6264" x1="86.4824" y1="207.849" x2="-15.1392" y2="118.224" gradientUnits="userSpaceOnUse">
<stop stop-color="#93ACE5"/>
<stop offset="0.688835" stop-color="#F0F5FF"/>
<stop offset="1" stop-color="#DCE7FF"/>
</linearGradient>
<linearGradient id="paint3_linear_6214_6264" x1="90.5671" y1="187.976" x2="90.5671" y2="25.0239" gradientUnits="userSpaceOnUse">
<stop stop-color="white" stop-opacity="0"/>
<stop offset="0.285" stop-color="white"/>
<stop offset="0.72" stop-color="white"/>
<stop offset="1" stop-color="white" stop-opacity="0"/>
</linearGradient>
<linearGradient id="paint4_linear_6214_6264" x1="125.41" y1="5.15091" x2="-6.13763" y2="173.282" gradientUnits="userSpaceOnUse">
<stop stop-color="#F7F9FF"/>
<stop offset="0.978627" stop-color="#B4CCFF"/>
</linearGradient>
</defs>
</svg>
