<svg width="489" height="245" viewBox="0 0 489 245" fill="none" xmlns="http://www.w3.org/2000/svg">
<circle cx="366.533" cy="122.975" r="121.597" stroke="#141414" stroke-width="0.871667"/>
<path d="M286.044 122.975C286.044 156.657 283.695 187.139 279.902 209.192C278.005 220.222 275.75 229.122 273.256 235.254C272.008 238.323 270.711 240.673 269.386 242.249C268.058 243.829 266.754 244.573 265.49 244.573C264.225 244.573 262.921 243.829 261.593 242.249C260.269 240.673 258.971 238.323 257.723 235.254C255.229 229.122 252.974 220.222 251.077 209.192C247.284 187.139 244.936 156.657 244.936 122.975C244.936 89.2935 247.284 58.811 251.077 36.7584C252.974 25.7286 255.229 16.8285 257.723 10.696C258.971 7.62769 260.269 5.2774 261.593 3.70152C262.921 2.1217 264.225 1.37764 265.49 1.37764C266.754 1.37764 268.058 2.1217 269.386 3.70152C270.711 5.2774 272.008 7.62769 273.256 10.696C275.75 16.8285 278.005 25.7286 279.902 36.7584C283.695 58.811 286.044 89.2935 286.044 122.975Z" stroke="#141414" stroke-width="0.871667"/>
<path d="M476.58 122.975C476.58 190.152 424.705 244.573 360.758 244.573C296.811 244.573 244.936 190.152 244.936 122.975C244.936 55.7985 296.811 1.37764 360.758 1.37764C424.705 1.37764 476.58 55.7985 476.58 122.975Z" stroke="#141414" stroke-width="0.871667"/>
<path d="M456.177 122.975C456.177 190.191 408.834 244.573 350.556 244.573C292.279 244.573 244.936 190.191 244.936 122.975C244.936 55.7593 292.279 1.37764 350.556 1.37764C408.834 1.37764 456.177 55.7593 456.177 122.975Z" stroke="#141414" stroke-width="0.871667"/>
<path d="M426.922 122.975C426.922 156.589 416.714 187.003 400.23 209.004C383.746 231.006 361.008 244.573 335.929 244.573C310.85 244.573 288.111 231.006 271.628 209.004C255.144 187.003 244.936 156.589 244.936 122.975C244.936 89.3616 255.144 58.9471 271.628 36.9459C288.111 14.9447 310.85 1.37764 335.929 1.37764C361.008 1.37764 383.746 14.9447 400.23 36.9459C416.714 58.9471 426.922 89.3616 426.922 122.975Z" stroke="#141414" stroke-width="0.871667"/>
<path d="M388.814 122.975C388.814 156.609 380.728 187.038 367.677 209.043C354.621 231.058 336.645 244.573 316.875 244.573C297.105 244.573 279.13 231.058 266.073 209.043C253.022 187.038 244.936 156.609 244.936 122.975C244.936 89.3411 253.022 58.9124 266.073 36.9069C279.13 14.8919 297.105 1.37764 316.875 1.37764C336.645 1.37764 354.621 14.8919 367.677 36.9069C380.728 58.9124 388.814 89.3411 388.814 122.975Z" stroke="#141414" stroke-width="0.871667"/>
<path d="M341.855 122.975C341.855 156.632 336.388 187.083 327.565 209.104C323.153 220.115 317.911 228.997 312.111 235.119C306.313 241.24 299.988 244.573 293.395 244.573C286.803 244.573 280.478 241.24 274.68 235.119C268.88 228.997 263.638 220.115 259.226 209.104C250.403 187.083 244.936 156.632 244.936 122.975C244.936 89.3179 250.403 58.8671 259.226 36.8466C263.638 25.8352 268.88 16.9534 274.68 10.8315C280.478 4.71059 286.803 1.37764 293.395 1.37764C299.988 1.37764 306.313 4.71059 312.111 10.8315C317.911 16.9534 323.153 25.8352 327.565 36.8466C336.388 58.8671 341.855 89.3179 341.855 122.975Z" stroke="#141414" stroke-width="0.871667"/>
<circle cx="122.033" cy="122.033" r="121.597" transform="matrix(-1 0 0 1 244.5 0.941803)" stroke="#141414" stroke-width="0.871667"/>
<path d="M12.4201 122.975C12.4201 190.152 64.2951 244.573 128.242 244.573C192.189 244.573 244.064 190.152 244.064 122.975C244.064 55.7985 192.189 1.37764 128.242 1.37764C64.2951 1.37764 12.4201 55.7985 12.4201 122.975Z" stroke="#141414" stroke-width="0.871667"/>
<path d="M32.8231 122.975C32.8231 190.191 80.1665 244.573 138.444 244.573C196.721 244.573 244.064 190.191 244.064 122.975C244.064 55.7593 196.721 1.37764 138.444 1.37764C80.1665 1.37764 32.8231 55.7593 32.8231 122.975Z" stroke="#141414" stroke-width="0.871667"/>
<path d="M62.0783 122.975C62.0783 156.589 72.2865 187.003 88.7701 209.004C105.254 231.006 127.992 244.573 153.071 244.573C178.15 244.573 200.889 231.006 217.372 209.004C233.856 187.003 244.064 156.589 244.064 122.975C244.064 89.3616 233.856 58.9471 217.372 36.9459C200.889 14.9447 178.15 1.37764 153.071 1.37764C127.992 1.37764 105.254 14.9447 88.7701 36.9459C72.2865 58.9471 62.0783 89.3616 62.0783 122.975Z" stroke="#141414" stroke-width="0.871667"/>
<path d="M100.186 122.975C100.186 156.609 108.272 187.038 121.323 209.043C134.379 231.058 152.355 244.573 172.125 244.573C191.895 244.573 209.87 231.058 222.927 209.043C235.978 187.038 244.064 156.609 244.064 122.975C244.064 89.3411 235.978 58.9124 222.927 36.9069C209.87 14.8919 191.895 1.37764 172.125 1.37764C152.355 1.37764 134.379 14.8919 121.323 36.9069C108.272 58.9124 100.186 89.3411 100.186 122.975Z" stroke="#141414" stroke-width="0.871667"/>
<g filter="url(#filter0_bii_2818_10017)">
<ellipse cx="72.3752" cy="122.033" rx="72.3752" ry="122.033" transform="matrix(-1 0 0 1 244.5 0.941803)" fill="url(#paint0_radial_2818_10017)" fill-opacity="0.6"/>
</g>
<g filter="url(#filter1_i_2818_10017)">
<path fill-rule="evenodd" clip-rule="evenodd" d="M168.626 244.859C130.335 241.682 99.8669 188.328 99.8669 122.975C99.8669 57.6223 130.335 4.26798 168.626 1.09146C167.429 0.992099 166.223 0.941833 165.011 0.941833C125.039 0.941833 92.6357 55.578 92.6357 122.975C92.6357 190.372 125.039 245.008 165.011 245.008C166.223 245.008 167.429 244.958 168.626 244.859Z" fill="url(#paint1_radial_2818_10017)"/>
</g>
<g style="mix-blend-mode:color">
<path fill-rule="evenodd" clip-rule="evenodd" d="M168.509 244.859C169.707 244.958 170.912 245.008 172.125 245.008C212.097 245.008 244.5 190.372 244.5 122.975C244.5 55.578 212.097 0.941803 172.125 0.941803C170.912 0.941803 169.707 0.992071 168.509 1.09144C167.311 0.992082 166.106 0.941819 164.894 0.941819C124.922 0.941819 92.5184 55.578 92.5184 122.975C92.5184 190.372 124.922 245.008 164.894 245.008C166.106 245.008 167.311 244.958 168.509 244.859Z" fill="#1960FF"/>
</g>
<mask id="mask0_2818_10017" style="mask-type:alpha" maskUnits="userSpaceOnUse" x="92" y="0" width="153" height="246">
<g style="mix-blend-mode:color">
<path fill-rule="evenodd" clip-rule="evenodd" d="M168.509 244.859C169.707 244.958 170.912 245.008 172.125 245.008C212.097 245.008 244.5 190.372 244.5 122.975C244.5 55.578 212.097 0.941803 172.125 0.941803C170.912 0.941803 169.707 0.992071 168.509 1.09144C167.311 0.992082 166.106 0.941819 164.894 0.941819C124.922 0.941819 92.5184 55.578 92.5184 122.975C92.5184 190.372 124.922 245.008 164.894 245.008C166.106 245.008 167.311 244.958 168.509 244.859Z" fill="#1960FF"/>
</g>
</mask>
<g mask="url(#mask0_2818_10017)">
<g style="mix-blend-mode:color-burn" filter="url(#filter2_f_2818_10017)">
<path d="M121.999 122.975C121.999 155.87 128.868 185.629 139.954 207.149C151.051 228.69 166.304 241.861 183.031 241.861C199.758 241.861 215.011 228.69 226.109 207.149C237.195 185.629 244.064 155.87 244.064 122.975C244.064 90.0802 237.195 60.3211 226.109 38.8017C215.011 17.2598 199.758 4.08947 183.031 4.08947C166.304 4.08947 151.051 17.2598 139.954 38.8017C128.868 60.3211 121.999 90.0802 121.999 122.975Z" stroke="#141414" stroke-opacity="0.3" stroke-width="0.871667"/>
</g>
<g style="mix-blend-mode:color-burn" filter="url(#filter3_f_2818_10017)">
<path d="M154.541 122.975C154.541 155.136 159.594 184.233 167.749 205.273C171.827 215.795 176.673 224.28 182.031 230.127C187.389 235.973 193.226 239.149 199.302 239.149C205.379 239.149 211.216 235.973 216.574 230.127C221.932 224.28 226.777 215.795 230.856 205.273C239.011 184.233 244.064 155.136 244.064 122.975C244.064 90.8141 239.011 61.7175 230.856 40.6772C226.777 30.1556 221.932 21.6707 216.574 15.8237C211.216 9.97699 205.379 6.80131 199.302 6.80131C193.226 6.80131 187.389 9.97699 182.031 15.8237C176.673 21.6707 171.827 30.1556 167.749 40.6772C159.594 61.7175 154.541 90.8141 154.541 122.975Z" stroke="#141414" stroke-opacity="0.3" stroke-width="0.871667"/>
</g>
</g>
<path d="M147.145 122.975C147.145 156.632 152.612 187.083 161.435 209.104C165.847 220.115 171.089 228.997 176.889 235.119C182.687 241.24 189.012 244.573 195.605 244.573C202.197 244.573 208.522 241.24 214.32 235.119C220.12 228.997 225.362 220.115 229.774 209.104C238.597 187.083 244.064 156.632 244.064 122.975C244.064 89.3179 238.597 58.8671 229.774 36.8466C225.362 25.8352 220.12 16.9534 214.32 10.8315C208.522 4.71059 202.197 1.37764 195.605 1.37764C189.012 1.37764 182.687 4.71059 176.889 10.8315C171.089 16.9534 165.847 25.8352 161.435 36.8466C152.612 58.8671 147.145 89.3179 147.145 122.975Z" stroke="#141414" stroke-width="0.871667"/>
<path d="M202.956 122.975C202.956 156.657 205.305 187.139 209.098 209.192C210.995 220.222 213.25 229.122 215.744 235.254C216.992 238.323 218.289 240.673 219.614 242.249C220.942 243.829 222.246 244.573 223.51 244.573C224.775 244.573 226.079 243.829 227.407 242.249C228.731 240.673 230.029 238.323 231.277 235.254C233.771 229.122 236.026 220.222 237.923 209.192C241.716 187.139 244.064 156.657 244.064 122.975C244.064 89.2935 241.716 58.811 237.923 36.7584C236.026 25.7286 233.771 16.8285 231.277 10.696C230.029 7.62769 228.731 5.2774 227.407 3.70152C226.079 2.1217 224.775 1.37764 223.51 1.37764C222.246 1.37764 220.942 2.1217 219.614 3.70152C218.289 5.2774 216.992 7.62769 215.744 10.696C213.25 16.8285 210.995 25.7286 209.098 36.7584C205.305 58.811 202.956 89.2935 202.956 122.975Z" stroke="#141414" stroke-width="0.871667"/>
<defs>
<filter id="filter0_bii_2818_10017" x="92.7762" y="-6.03153" width="158.697" height="258.013" filterUnits="userSpaceOnUse" color-interpolation-filters="sRGB">
<feFlood flood-opacity="0" result="BackgroundImageFix"/>
<feGaussianBlur in="BackgroundImageFix" stdDeviation="3.48667"/>
<feComposite in2="SourceAlpha" operator="in" result="effect1_backgroundBlur_2818_10017"/>
<feBlend mode="normal" in="SourceGraphic" in2="effect1_backgroundBlur_2818_10017" result="shape"/>
<feColorMatrix in="SourceAlpha" type="matrix" values="0 0 0 0 0 0 0 0 0 0 0 0 0 0 0 0 0 0 127 0" result="hardAlpha"/>
<feOffset dx="6.10167" dy="-1.74333"/>
<feGaussianBlur stdDeviation="2.615"/>
<feComposite in2="hardAlpha" operator="arithmetic" k2="-1" k3="1"/>
<feColorMatrix type="matrix" values="0 0 0 0 1 0 0 0 0 0.998303 0 0 0 0 0.998303 0 0 0 0.8 0"/>
<feBlend mode="normal" in2="shape" result="effect2_innerShadow_2818_10017"/>
<feColorMatrix in="SourceAlpha" type="matrix" values="0 0 0 0 0 0 0 0 0 0 0 0 0 0 0 0 0 0 127 0" result="hardAlpha"/>
<feOffset dx="-2.615" dy="3.48667"/>
<feGaussianBlur stdDeviation="2.615"/>
<feComposite in2="hardAlpha" operator="arithmetic" k2="-1" k3="1"/>
<feColorMatrix type="matrix" values="0 0 0 0 1 0 0 0 0 1 0 0 0 0 1 0 0 0 0.5 0"/>
<feBlend mode="normal" in2="effect2_innerShadow_2818_10017" result="effect3_innerShadow_2818_10017"/>
</filter>
<filter id="filter1_i_2818_10017" x="92.6357" y="0.941833" width="75.9907" height="247.553" filterUnits="userSpaceOnUse" color-interpolation-filters="sRGB">
<feFlood flood-opacity="0" result="BackgroundImageFix"/>
<feBlend mode="normal" in="SourceGraphic" in2="BackgroundImageFix" result="shape"/>
<feColorMatrix in="SourceAlpha" type="matrix" values="0 0 0 0 0 0 0 0 0 0 0 0 0 0 0 0 0 0 127 0" result="hardAlpha"/>
<feOffset dy="5.23"/>
<feGaussianBlur stdDeviation="1.74333"/>
<feComposite in2="hardAlpha" operator="arithmetic" k2="-1" k3="1"/>
<feColorMatrix type="matrix" values="0 0 0 0 0.919441 0 0 0 0 0.919441 0 0 0 0 0.919441 0 0 0 0.68 0"/>
<feBlend mode="normal" in2="shape" result="effect1_innerShadow_2818_10017"/>
</filter>
<filter id="filter2_f_2818_10017" x="118.947" y="1.03864" width="128.168" height="243.873" filterUnits="userSpaceOnUse" color-interpolation-filters="sRGB">
<feFlood flood-opacity="0" result="BackgroundImageFix"/>
<feBlend mode="normal" in="SourceGraphic" in2="BackgroundImageFix" result="shape"/>
<feGaussianBlur stdDeviation="1.3075" result="effect1_foregroundBlur_2818_10017"/>
</filter>
<filter id="filter3_f_2818_10017" x="151.49" y="3.75048" width="95.625" height="238.449" filterUnits="userSpaceOnUse" color-interpolation-filters="sRGB">
<feFlood flood-opacity="0" result="BackgroundImageFix"/>
<feBlend mode="normal" in="SourceGraphic" in2="BackgroundImageFix" result="shape"/>
<feGaussianBlur stdDeviation="1.3075" result="effect1_foregroundBlur_2818_10017"/>
</filter>
<radialGradient id="paint0_radial_2818_10017" cx="0" cy="0" r="1" gradientUnits="userSpaceOnUse" gradientTransform="translate(131.525 50.6212) rotate(115.593) scale(333.764 199.783)">
<stop stop-color="#F8F8F9"/>
<stop offset="1" stop-color="#DADADA"/>
</radialGradient>
<radialGradient id="paint1_radial_2818_10017" cx="0" cy="0" r="1" gradientUnits="userSpaceOnUse" gradientTransform="translate(101.223 112.58) rotate(89.8045) scale(132.43 120.318)">
<stop stop-color="#E4E4E4"/>
<stop offset="0.746579" stop-color="#F7F7FA"/>
<stop offset="1" stop-color="#A5A5A7"/>
</radialGradient>
</defs>
</svg>
