<svg width="398" height="199" viewBox="0 0 398 199" fill="none" xmlns="http://www.w3.org/2000/svg">
<path fill-rule="evenodd" clip-rule="evenodd" d="M106.476 197.957C62.0705 194.383 26.8537 151.767 26.8537 99.5C26.8537 47.2333 62.0705 4.6174 106.476 1.04273C108.139 1.15882 109.79 1.31609 111.429 1.51351C76.4676 9.7361 49.9069 50.478 49.9069 99.5C49.9069 148.522 76.4676 189.264 111.429 197.486C109.79 197.684 108.139 197.841 106.476 197.957ZM72.3813 29.6226C83.3691 14.9568 97.7586 4.93729 113.786 1.82625C117.172 2.31721 120.503 2.98012 123.769 3.80584C99.0646 15.688 80.9777 54.0325 80.9777 99.5C80.9777 144.967 99.0646 183.312 123.769 195.194C120.503 196.02 117.172 196.683 113.786 197.174C97.7586 194.063 83.3691 184.043 72.3813 169.377C59.0044 151.523 50.7069 126.82 50.7069 99.5C50.7069 72.18 59.0044 47.4772 72.3813 29.6226ZM126.162 195.388C146.919 189.628 164.949 177.31 177.877 160.804C165.049 177.777 147.016 190.212 126.32 195.453C126.267 195.431 126.214 195.409 126.162 195.388ZM124.986 194.878C167.144 183.642 198.2 145.198 198.2 99.5C198.2 53.8022 167.144 15.358 124.986 4.12187C115.044 8.61925 106.102 17.4907 98.9497 29.551C88.3559 47.4134 81.7777 72.1423 81.7777 99.5C81.7777 126.858 88.3559 151.587 98.9497 169.449C106.102 181.509 115.044 190.381 124.986 194.878ZM124.916 3.27543C124.079 3.05511 123.238 2.84539 122.394 2.64645C123.274 2.82771 124.15 3.02187 125.021 3.22875C124.986 3.24426 124.951 3.25982 124.916 3.27543ZM126.32 3.54732C126.267 3.56888 126.214 3.59058 126.162 3.61239C146.919 9.37163 164.949 21.6904 177.877 38.1963C165.049 21.2227 147.016 8.78849 126.32 3.54732ZM126.261 2.70655C123.705 2.06734 121.109 1.53678 118.477 1.11978C118.63 1.10337 118.783 1.08759 118.936 1.07244C121.789 1.31589 124.604 1.72056 127.374 2.27865C127.002 2.41537 126.63 2.55803 126.261 2.70655ZM128.888 2.60007C128.456 2.74226 128.024 2.89262 127.595 3.05106C154.575 10.2369 176.939 29.5678 189.098 55.1746C177.349 28.2938 155.251 8.47891 128.888 2.60007ZM128.85 1.77009C127.114 1.38861 125.36 1.06682 123.59 0.806641C123.877 0.802218 124.165 0.8 124.453 0.8C126.625 0.8 128.776 0.925846 130.901 1.17252C130.214 1.3518 129.53 1.55111 128.85 1.77009ZM133.143 1.47868C132.229 1.66094 131.321 1.87927 130.421 2.13285C159.009 9.05424 182.397 32.2248 192.948 62.8578C189.19 50.2957 183.56 39.0122 176.526 29.6226C165.087 14.3557 149.963 4.12375 133.143 1.47868ZM133.125 0.665931C130.28 0.226092 127.387 0 124.453 0C122.596 0 120.755 0.0906468 118.932 0.268807C116.817 0.0906469 114.681 0 112.527 0C111.197 0 109.874 0.034545 108.559 0.102898C107.117 0.034545 105.667 0 104.209 0C103.441 0 102.675 0.00958675 101.912 0.0286525C101.11 0.00958676 100.306 0 99.5 0C44.5477 0 0 44.5477 0 99.5C0 154.452 44.5477 199 99.5 199C100.306 199 101.11 198.99 101.912 198.971C102.675 198.99 103.441 199 104.209 199C105.667 199 107.117 198.965 108.559 198.897C109.874 198.965 111.197 199 112.527 199C114.681 199 116.817 198.909 118.932 198.731C120.755 198.909 122.596 199 124.453 199C127.387 199 130.28 198.774 133.125 198.334C135.377 198.774 137.667 199 139.989 199C172.58 199 199 154.452 199 99.5C199 44.5477 172.58 0 139.989 0C137.667 0 135.377 0.226092 133.125 0.665931ZM195.084 67.5921C192.159 53.093 187.296 40.12 181.028 29.551C170.424 11.6711 155.888 0.8 139.989 0.8C138.485 0.8 136.994 0.897202 135.517 1.08834C163.412 6.62788 186.263 32.7938 195.084 67.5921ZM195.084 131.408C192.159 145.907 187.296 158.88 181.028 169.449C170.424 187.329 155.888 198.2 139.989 198.2C138.485 198.2 136.994 198.103 135.517 197.912C163.412 192.372 186.263 166.206 195.084 131.408ZM133.143 197.521C149.963 194.876 165.087 184.644 176.526 169.377C183.56 159.988 189.19 148.704 192.948 136.142C182.397 166.775 159.009 189.946 130.421 196.867C131.321 197.121 132.229 197.339 133.143 197.521ZM130.901 197.827C128.776 198.074 126.625 198.2 124.453 198.2C124.165 198.2 123.877 198.198 123.59 198.193C125.36 197.933 127.114 197.611 128.85 197.23C129.53 197.449 130.214 197.648 130.901 197.827ZM127.374 196.721C124.604 197.279 121.789 197.684 118.936 197.928C118.783 197.912 118.63 197.897 118.477 197.88C121.109 197.463 123.705 196.933 126.261 196.293C126.63 196.442 127.002 196.585 127.374 196.721ZM127.595 195.949C154.574 188.763 176.939 169.432 189.098 143.825C177.349 170.706 155.251 190.521 128.888 196.4C128.456 196.258 128.024 196.107 127.595 195.949ZM125.021 195.771C124.15 195.978 123.274 196.172 122.394 196.354C123.238 196.155 124.079 195.945 124.916 195.725C124.951 195.74 124.986 195.756 125.021 195.771ZM101.168 198.149C50.6994 196.464 10.218 152.978 10.218 99.5C10.218 46.0224 50.6994 2.53598 101.168 0.850701C58.7783 7.25035 26.0537 48.9778 26.0537 99.5C26.0537 150.022 58.7783 191.75 101.168 198.149ZM0.800003 99.5C0.800003 150.047 38.7976 191.72 87.7874 197.512C43.2628 189.349 9.41805 148.574 9.41805 99.5C9.41805 50.4265 43.2628 9.65052 87.7874 1.48771C38.7977 7.27997 0.800003 48.9526 0.800003 99.5Z" fill="#141414"/>
<ellipse cx="59.0112" cy="99.5" rx="59.0112" ry="99.5" transform="matrix(-1 0 0 1 199 0)" fill="url(#paint0_linear_6230_1845)"/>
<path d="M137.35 198.895C106.029 196.486 81.0739 152.907 81.0739 99.5C81.0739 46.0933 106.029 2.51421 137.35 0.104969C136.405 0.0352429 135.455 0 134.5 0C100.534 0 72.9998 44.5477 72.9998 99.5C72.9998 154.452 100.534 199 134.5 199C135.455 199 136.405 198.965 137.35 198.895Z" fill="url(#paint1_linear_6230_1845)"/>
<path fill-rule="evenodd" clip-rule="evenodd" d="M135.689 0.0314941C103.791 1.37338 78.1775 45.3932 78.1775 99.5C78.1775 153.607 103.791 197.627 135.689 198.968C136.173 198.948 136.656 198.918 137.137 198.878C105.916 196.288 81.0742 152.785 81.0742 99.5C81.0742 46.2146 105.916 2.71226 137.137 0.122003C136.656 0.0820732 136.173 0.0518657 135.689 0.0314941Z" fill="url(#paint2_linear_6230_1845)"/>
<mask id="mask0_6230_1845" style="mask-type:alpha" maskUnits="userSpaceOnUse" x="81" y="0" width="119" height="199">
<ellipse cx="59.0112" cy="99.5" rx="59.0112" ry="99.5" transform="matrix(-1 0 0 1 199.022 0)" fill="url(#paint3_radial_6230_1845)" fill-opacity="0.6"/>
</mask>
<g mask="url(#mask0_6230_1845)">
<g filter="url(#filter0_f_6230_1845)">
<path d="M124.023 195.194L123.925 194.806L122.855 195.077L123.849 195.555L124.023 195.194ZM124.023 3.80584L123.849 3.44537L122.855 3.92334L123.925 4.19363L124.023 3.80584ZM125.169 3.27543L125.271 2.88863L125.135 2.85284L125.007 2.90987L125.169 3.27543ZM178.131 38.1963L177.816 38.443L178.45 37.9551L178.131 38.1963ZM125.275 3.22875L125.114 2.86273L124.024 3.34292L125.183 3.61793L125.275 3.22875ZM126.515 2.70655L126.612 2.3185L126.486 2.28703L126.366 2.33538L126.515 2.70655ZM189.352 55.1746L188.99 55.3462L189.718 55.0144L189.352 55.1746ZM127.628 2.27864L127.49 1.90316L126.161 2.39113L127.549 2.67076L127.628 2.27864ZM129.104 1.77009L129.19 1.37941L129.084 1.3562L128.981 1.38935L129.104 1.77009ZM193.202 62.8578L192.823 62.9881L193.585 62.7432L193.202 62.8578ZM176.779 29.6226L177.1 29.3827L176.779 29.6226ZM131.155 1.17252L131.055 0.785449L131.109 1.56985L131.155 1.17252ZM133.379 0.665931L133.44 0.270628L133.371 0.259938L133.302 0.27335L133.379 0.665931ZM133.379 198.334L133.302 198.727L133.371 198.74L133.44 198.729L133.379 198.334ZM131.155 197.827L131.109 197.43L131.055 198.215L131.155 197.827ZM176.779 169.377L177.1 169.617L176.779 169.377ZM193.202 136.142L193.585 136.257L192.823 136.012L193.202 136.142ZM129.104 197.23L128.981 197.611L129.084 197.644L129.19 197.621L129.104 197.23ZM127.628 196.721L127.549 196.329L126.161 196.609L127.49 197.097L127.628 196.721ZM189.352 143.825L189.718 143.986L188.99 143.654L189.352 143.825ZM126.515 196.293L126.366 196.665L126.486 196.713L126.612 196.682L126.515 196.293ZM125.275 195.771L125.182 195.382L124.024 195.657L125.114 196.137L125.275 195.771ZM178.131 160.804L178.45 161.045L177.816 160.557L178.131 160.804ZM125.169 195.725L125.007 196.09L125.135 196.147L125.271 196.111L125.169 195.725ZM124.121 195.582C167.07 184.723 198.854 145.824 198.854 99.5H198.054C198.054 145.449 166.527 184.035 123.925 194.806L124.121 195.582ZM198.854 99.5C198.854 53.1761 167.07 14.2767 124.121 3.41804L123.925 4.19363C166.527 14.9646 198.054 53.5511 198.054 99.5H198.854ZM125.007 2.90987C124.62 3.082 124.234 3.26052 123.849 3.44537L124.196 4.16631C124.573 3.98493 124.952 3.80981 125.332 3.64099L125.007 2.90987ZM125.068 3.66224C146.263 9.24563 164.682 21.6747 177.816 38.443L178.446 37.9497C165.207 21.0473 146.64 8.51756 125.271 2.88863L125.068 3.66224ZM178.45 37.9551C165.302 20.5576 146.703 7.90525 125.367 2.83957L125.183 3.61793C146.327 8.63821 164.769 21.1797 177.812 38.4375L178.45 37.9551ZM126.366 2.33538C125.946 2.50375 125.529 2.67957 125.114 2.86273L125.436 3.59477C125.844 3.41513 126.253 3.24276 126.664 3.07772L126.366 2.33538ZM126.418 3.0946C153.87 9.96033 176.68 29.4198 188.99 55.3462L189.713 55.0031C177.306 28.8739 154.31 9.24575 126.612 2.3185L126.418 3.0946ZM189.718 55.0144C177.701 27.52 154.884 7.36242 127.707 1.88653L127.549 2.67076C154.431 8.08735 177.056 28.0412 188.985 55.3348L189.718 55.0144ZM128.981 1.38935C128.482 1.55019 127.985 1.72151 127.49 1.90316L127.766 2.65413C128.25 2.47615 128.737 2.30833 129.226 2.15082L128.981 1.38935ZM129.018 2.16076C158.162 8.56683 182.118 31.9057 192.823 62.9881L193.58 62.7275C182.799 31.4255 158.648 7.85468 129.19 1.37941L129.018 2.16076ZM193.585 62.7432C189.815 50.1396 184.165 38.813 177.1 29.3827L176.459 29.8624C183.464 39.2114 189.074 50.4518 192.818 62.9724L193.585 62.7432ZM177.1 29.3827C165.105 13.3732 149.05 2.8467 131.201 0.775187L131.109 1.56985C148.694 3.61074 164.566 13.988 176.459 29.8624L177.1 29.3827ZM133.302 0.27335C132.548 0.420544 131.799 0.591399 131.055 0.785449L131.256 1.55959C131.985 1.36967 132.718 1.2025 133.455 1.05851L133.302 0.27335ZM199.654 99.5C199.654 48.3529 170.796 6.04658 133.44 0.270628L133.317 1.06123C170.133 6.75352 198.854 48.5722 198.854 99.5H199.654ZM133.44 198.729C170.796 192.953 199.654 150.647 199.654 99.5H198.854C198.854 150.428 170.133 192.246 133.317 197.939L133.44 198.729ZM131.055 198.215C131.799 198.409 132.548 198.579 133.302 198.727L133.455 197.941C132.718 197.798 131.985 197.63 131.256 197.44L131.055 198.215ZM176.459 169.138C164.566 185.012 148.694 195.389 131.109 197.43L131.201 198.225C149.05 196.153 165.105 185.627 177.1 169.617L176.459 169.138ZM192.818 136.028C189.073 148.548 183.464 159.789 176.459 169.138L177.1 169.617C184.165 160.187 189.815 148.86 193.585 136.257L192.818 136.028ZM129.19 197.621C158.648 191.145 182.799 167.575 193.58 136.272L192.823 136.012C182.118 167.094 158.162 190.433 129.018 196.839L129.19 197.621ZM127.49 197.097C127.985 197.279 128.482 197.45 128.981 197.611L129.226 196.849C128.737 196.692 128.25 196.524 127.766 196.346L127.49 197.097ZM127.707 197.113C154.884 191.638 177.701 171.48 189.718 143.986L188.985 143.665C177.056 170.959 154.431 190.913 127.549 196.329L127.707 197.113ZM188.99 143.654C176.68 169.58 153.87 189.04 126.418 195.905L126.612 196.682C154.31 189.754 177.306 170.126 189.713 143.997L188.99 143.654ZM125.114 196.137C125.529 196.32 125.946 196.496 126.366 196.665L126.664 195.922C126.253 195.757 125.844 195.585 125.436 195.405L125.114 196.137ZM125.367 196.16C146.703 191.095 165.302 178.442 178.45 161.045L177.812 160.562C164.769 177.82 146.327 190.362 125.182 195.382L125.367 196.16ZM177.816 160.557C164.682 177.325 146.263 189.754 125.068 195.338L125.271 196.111C146.64 190.482 165.207 177.953 178.446 161.05L177.816 160.557ZM123.849 195.555C124.234 195.739 124.62 195.918 125.007 196.09L125.332 195.359C124.952 195.19 124.573 195.015 124.196 194.834L123.849 195.555Z" fill="#82ABFA"/>
</g>
<g filter="url(#filter1_f_6230_1845)">
<path d="M158.61 4.45387L158.704 4.84262L159.947 4.54135L158.754 4.08069L158.61 4.45387ZM113.843 30.8896L113.487 30.7064L113.843 30.8896ZM113.843 168.11L113.487 168.294L113.843 168.11ZM158.61 194.546L158.754 194.919L159.947 194.459L158.704 194.157L158.61 194.546ZM147.554 187.376L147.259 187.647L147.554 187.376ZM135.762 166.875L136.135 166.73L135.762 166.875ZM135.762 32.1253L135.389 31.9807L135.762 32.1253ZM147.554 11.6237L147.849 11.8939L147.554 11.6237ZM160.044 4.17682L159.885 4.54389L159.989 4.58889L160.101 4.57271L160.044 4.17682ZM113.132 30.5232L112.776 30.34L113.132 30.5232ZM113.132 168.477L112.776 168.66L113.132 168.477ZM160.044 194.823L160.101 194.427L159.989 194.411L159.885 194.456L160.044 194.823ZM162.193 194.978V195.378H162.593V194.978H162.193ZM162.193 194.178H162.593V193.778H162.193V194.178ZM161.478 194.16L161.301 193.801L159.92 194.481L161.457 194.559L161.478 194.16ZM164.759 192.309L164.974 192.647L165.312 192.432L165.097 192.095L164.759 192.309ZM164.33 191.634L164.668 191.42L164.453 191.082L164.115 191.297L164.33 191.634ZM159.936 193.997L159.873 194.392L159.99 194.411L160.098 194.363L159.936 193.997ZM148.143 186.836L148.438 186.566L148.143 186.836ZM136.508 166.586L136.881 166.441L136.508 166.586ZM136.508 32.4144L136.881 32.559L136.508 32.4144ZM148.143 12.1641L147.849 11.8939L148.143 12.1641ZM159.936 5.00273L160.098 4.63686L159.989 4.58905L159.873 4.60778L159.936 5.00273ZM164.33 7.36567L164.115 7.70318L164.453 7.91786L164.668 7.58035L164.33 7.36567ZM164.759 6.69065L165.097 6.90532L165.312 6.56781L164.974 6.35313L164.759 6.69065ZM161.477 4.84031L161.457 4.44082L159.92 4.51857L161.3 5.19908L161.477 4.84031ZM162.193 4.82222V5.22222H162.593V4.82222H162.193ZM162.193 4.02222H162.593V3.62222H162.193V4.02222ZM148.926 3.01116C152.184 3.01116 155.373 3.63368 158.466 4.82704L158.754 4.08069C155.575 2.85389 152.288 2.21116 148.926 2.21116V3.01116ZM114.198 31.0728C123.22 13.5607 135.54 3.01116 148.926 3.01116V2.21116C135.086 2.21116 122.557 13.1005 113.487 30.7064L114.198 31.0728ZM99.6077 99.5C99.6077 72.7351 105.198 48.5437 114.198 31.0728L113.487 30.7064C104.417 48.3122 98.8077 72.6345 98.8077 99.5H99.6077ZM114.198 167.927C105.198 150.456 99.6077 126.265 99.6077 99.5H98.8077C98.8077 126.366 104.417 150.688 113.487 168.294L114.198 167.927ZM148.926 195.989C135.54 195.989 123.22 185.439 114.198 167.927L113.487 168.294C122.557 185.9 135.086 196.789 148.926 196.789V195.989ZM158.466 194.173C155.373 195.366 152.184 195.989 148.926 195.989V196.789C152.288 196.789 155.575 196.146 158.754 194.919L158.466 194.173ZM147.259 187.647C150.719 191.422 154.5 193.962 158.516 194.935L158.704 194.157C154.888 193.233 151.238 190.805 147.849 187.106L147.259 187.647ZM135.389 167.019C138.744 175.676 142.759 182.737 147.259 187.647L147.849 187.106C143.44 182.295 139.469 175.333 136.135 166.73L135.389 167.019ZM124.541 99.5C124.541 125.828 128.676 149.7 135.389 167.019L136.135 166.73C129.466 149.524 125.341 125.755 125.341 99.5H124.541ZM135.389 31.9807C128.676 49.2999 124.541 73.1718 124.541 99.5H125.341C125.341 73.245 129.466 49.4755 136.135 32.2698L135.389 31.9807ZM147.259 11.3534C142.759 16.2633 138.744 23.3237 135.389 31.9807L136.135 32.2698C139.469 23.667 143.44 16.7051 147.849 11.8939L147.259 11.3534ZM158.515 4.06511C154.5 5.03799 150.719 7.57774 147.259 11.3534L147.849 11.8939C151.238 8.19514 154.888 5.76705 158.704 4.84262L158.515 4.06511ZM160.203 3.80974C156.583 2.24268 152.809 1.41116 148.926 1.41116V2.21116C152.692 2.21116 156.359 3.01714 159.885 4.54389L160.203 3.80974ZM148.926 1.41116C134.633 1.41116 121.894 12.6407 112.776 30.34L113.487 30.7064C122.557 13.1005 135.086 2.21116 148.926 2.21116V1.41116ZM112.776 30.34C103.637 48.0808 98.0077 72.5338 98.0077 99.5H98.8077C98.8077 72.6345 104.417 48.3122 113.487 30.7064L112.776 30.34ZM98.0077 99.5C98.0077 126.466 103.637 150.919 112.776 168.66L113.487 168.294C104.417 150.688 98.8077 126.366 98.8077 99.5H98.0077ZM112.776 168.66C121.894 186.359 134.633 197.589 148.926 197.589V196.789C135.086 196.789 122.557 185.9 113.487 168.294L112.776 168.66ZM148.926 197.589C152.809 197.589 156.584 196.757 160.203 195.19L159.885 194.456C156.359 195.983 152.692 196.789 148.926 196.789V197.589ZM159.987 195.219C160.716 195.324 161.452 195.378 162.193 195.378V194.578C161.49 194.578 160.793 194.527 160.101 194.427L159.987 195.219ZM162.593 194.978V194.178H161.793V194.978H162.593ZM162.193 193.778C161.961 193.778 161.729 193.772 161.498 193.76L161.457 194.559C161.702 194.572 161.947 194.578 162.193 194.578V193.778ZM161.654 194.518C162.778 193.965 163.885 193.34 164.974 192.647L164.545 191.972C163.479 192.65 162.397 193.261 161.301 193.801L161.654 194.518ZM165.097 192.095L164.668 191.42L163.993 191.849L164.422 192.524L165.097 192.095ZM164.115 191.297C162.693 192.201 161.245 192.981 159.774 193.631L160.098 194.363C161.607 193.696 163.091 192.897 164.545 191.972L164.115 191.297ZM159.999 193.602C155.989 192.959 152.094 190.555 148.438 186.566L147.849 187.106C151.582 191.18 155.628 193.712 159.873 194.392L159.999 193.602ZM148.438 186.566C144.12 181.853 140.194 174.99 136.881 166.441L136.135 166.73C139.469 175.333 143.44 182.295 147.849 187.106L148.438 186.566ZM136.881 166.441C130.256 149.349 126.141 125.682 126.141 99.5H125.341C125.341 125.755 129.466 149.524 136.135 166.73L136.881 166.441ZM126.141 99.5C126.141 73.3181 130.256 49.6512 136.881 32.559L136.135 32.2698C129.466 49.4755 125.341 73.245 125.341 99.5H126.141ZM136.881 32.559C140.194 24.0103 144.12 17.1469 148.438 12.4344L147.849 11.8939C143.44 16.7051 139.469 23.667 136.135 32.2698L136.881 32.559ZM148.438 12.4344C152.094 8.44491 155.988 6.04089 159.999 5.39769L159.873 4.60778C155.628 5.2885 151.582 7.82025 147.849 11.8939L148.438 12.4344ZM159.774 5.3686C161.245 6.01856 162.693 6.79858 164.115 7.70318L164.545 7.02816C163.091 6.10334 161.607 5.304 160.098 4.63686L159.774 5.3686ZM164.668 7.58035L165.097 6.90532L164.422 6.47597L163.993 7.151L164.668 7.58035ZM164.974 6.35313C163.885 5.66014 162.777 5.03525 161.654 4.48153L161.3 5.19908C162.397 5.73944 163.479 6.34999 164.545 7.02816L164.974 6.35313ZM161.498 5.2398C161.729 5.22809 161.961 5.22222 162.193 5.22222V4.42222C161.947 4.42222 161.702 4.42843 161.457 4.44082L161.498 5.2398ZM162.593 4.82222V4.02222H161.793V4.82222H162.593ZM162.193 3.62222C161.452 3.62222 160.716 3.67569 159.987 3.78092L160.101 4.57271C160.793 4.4729 161.49 4.42222 162.193 4.42222V3.62222Z" fill="#84AEFF"/>
</g>
</g>
<path fill-rule="evenodd" clip-rule="evenodd" d="M397.2 99.5C397.2 150.047 359.202 191.72 310.213 197.512C354.737 189.349 388.582 148.574 388.582 99.5C388.582 50.4265 354.737 9.65052 310.213 1.48771C359.202 7.27997 397.2 48.9526 397.2 99.5ZM296.832 198.149C339.222 191.75 371.946 150.022 371.946 99.5C371.946 48.9778 339.222 7.25035 296.832 0.850701C347.301 2.53598 387.782 46.0224 387.782 99.5C387.782 152.978 347.301 196.464 296.832 198.149ZM289.441 198.897C290.883 198.965 292.333 199 293.791 199C294.559 199 295.325 198.99 296.088 198.971C296.89 198.99 297.694 199 298.5 199C353.452 199 398 154.452 398 99.5C398 44.5477 353.452 0 298.5 0C297.694 0 296.89 0.00958676 296.088 0.0286525C295.325 0.00958661 294.559 0 293.791 0C292.333 0 290.883 0.034545 289.441 0.102898C288.126 0.0345448 286.803 0 285.473 0C283.319 0 281.183 0.0906469 279.068 0.268807C277.245 0.090647 275.404 0 273.547 0C270.613 0 267.72 0.226092 264.875 0.665931C262.623 0.226092 260.333 0 258.011 0C254.102 0 250.282 0.640816 246.586 1.86354C244.089 0.640816 241.508 0 238.867 0C233.208 0 227.824 2.943 222.948 8.24923C220.855 2.943 218.543 0 216.114 0C206.662 0 199 44.5477 199 99.5C199 154.452 206.662 199 216.114 199C218.543 199 220.855 196.057 222.948 190.751C227.824 196.057 233.208 199 238.867 199C241.508 199 244.089 198.359 246.586 197.136C250.282 198.359 254.102 199 258.011 199C260.333 199 262.623 198.774 264.875 198.334C267.72 198.774 270.613 199 273.547 199C275.404 199 277.245 198.909 279.068 198.731C281.183 198.909 283.319 199 285.473 199C286.803 199 288.126 198.965 289.441 198.897ZM199 99.5C199 44.5477 191.338 0 181.886 0C179.457 0 177.145 2.943 175.052 8.24923C170.176 2.943 164.792 0 159.133 0C137.115 0 119.266 44.5477 119.266 99.5C119.266 154.452 137.115 199 159.133 199C164.792 199 170.176 196.057 175.052 190.751C177.145 196.057 179.457 199 181.886 199C191.338 199 199 154.452 199 99.5ZM238.867 0.8C241.114 0.8 243.33 1.28922 245.499 2.24102C238.26 4.87605 231.516 9.75027 225.533 16.4123C224.814 13.6525 224.058 11.1996 223.269 9.08547C223.488 8.84177 223.708 8.60305 223.93 8.36938C228.605 3.43407 233.653 0.8 238.867 0.8ZM222.034 8.12056C222.14 8.37948 222.245 8.64457 222.349 8.91577C211.685 21.0474 203.539 44.5628 200.403 73.2385C201.197 56.3588 202.737 41.2808 204.801 29.2785C206.346 20.2976 208.178 13.0772 210.194 8.12056C211.203 5.63857 212.24 3.77041 213.277 2.53624C214.321 1.29483 215.271 0.8 216.114 0.8C216.957 0.8 217.907 1.29483 218.951 2.53624C219.988 3.77041 221.025 5.63857 222.034 8.12056ZM211.419 29.4404C206.859 40.8222 203.398 54.9886 201.484 70.8455C205.424 48.7157 213.81 29.8289 224.893 17.135C224.185 14.3605 223.441 11.8948 222.668 9.76826C218.487 14.6249 214.679 21.305 211.419 29.4404ZM227.676 30.7565C210.423 48.5288 199.8 72.7739 199.8 99.5C199.8 126.226 210.423 150.471 227.676 168.243C230.617 150.422 232.428 126.2 232.428 99.5C232.428 72.8005 230.617 48.5783 227.676 30.7565ZM250.115 5.0147C248.937 4.11041 247.74 3.34674 246.527 2.72846C239.004 5.28965 231.979 10.3222 225.772 17.3457C226.137 18.8014 226.493 20.3374 226.837 21.9494C233.702 14.5745 241.565 8.78986 250.115 5.0147ZM247.584 2.3858C248.726 3.02124 249.849 3.77884 250.951 4.6528C254.676 3.07304 258.529 1.8735 262.483 1.08834C261.006 0.897201 259.515 0.8 258.011 0.8C254.458 0.8 250.973 1.34297 247.584 2.3858ZM227.039 22.9092C234.031 15.294 242.074 9.36915 250.824 5.57796C251.488 6.1234 252.147 6.71386 252.798 7.34847C243.463 11.7355 234.943 17.9462 227.573 25.5956C227.398 24.6793 227.22 23.7836 227.039 22.9092ZM251.652 5.22652C252.3 5.77395 252.941 6.36186 253.574 6.98905C258.069 4.93488 262.75 3.30203 267.579 2.13285C266.679 1.87927 265.771 1.66094 264.857 1.47868C260.319 2.19235 255.904 3.45834 251.652 5.22652ZM227.755 26.5635C235.22 18.7216 243.89 12.3814 253.403 7.95292C253.537 8.08987 253.671 8.22869 253.804 8.36938C253.995 8.57053 254.185 8.77543 254.374 8.98402C244.567 13.6971 235.659 20.1145 227.993 27.8751C227.915 27.4336 227.835 26.9963 227.755 26.5635ZM254.175 7.59896C254.495 7.93119 254.812 8.27353 255.128 8.6258C260.015 6.33119 265.122 4.45825 270.405 3.05106C269.975 2.89262 269.544 2.74226 269.112 2.60007C263.954 3.75016 258.96 5.4336 254.175 7.59896ZM228.164 28.8436C235.909 20.9105 244.953 14.3705 254.927 9.60756C255.012 9.70439 255.096 9.80196 255.179 9.90026C245.129 14.7686 236.021 21.2783 228.205 29.081L228.164 28.8436ZM255.678 9.25307C255.761 9.34895 255.843 9.44552 255.925 9.54277C261.008 7.13315 266.327 5.14155 271.838 3.61239C271.786 3.59058 271.733 3.56888 271.68 3.54731C266.139 4.95058 260.789 6.86948 255.678 9.25307ZM273.014 4.12187C267.271 5.65262 261.734 7.68835 256.453 10.1786C269.652 26.3963 278.734 60.301 278.734 99.5C278.734 138.699 269.652 172.604 256.453 188.821C261.734 191.312 267.271 193.347 273.014 194.878C282.956 190.381 291.898 181.509 299.05 169.449C309.644 151.587 316.222 126.858 316.222 99.5C316.222 72.1423 309.644 47.4134 299.05 29.551C291.898 17.4907 282.956 8.61925 273.014 4.12187ZM266.315 29.4404C263.223 21.724 259.637 15.3168 255.709 10.533C245.495 15.4547 236.258 22.0836 228.369 30.0494C231.376 47.9792 233.228 72.482 233.228 99.5C233.228 126.518 231.376 151.021 228.369 168.951C236.258 176.916 245.495 183.545 255.709 188.467C259.637 183.683 263.223 177.276 266.315 169.56C273.483 151.67 277.934 126.9 277.934 99.5C277.934 72.0997 273.483 47.3302 266.315 29.4404ZM228.205 169.919C236.021 177.722 245.129 184.231 255.179 189.1C255.096 189.198 255.012 189.296 254.927 189.392C244.953 184.629 235.909 178.089 228.164 170.156L228.205 169.919ZM227.993 171.125C235.659 178.886 244.567 185.303 254.374 190.016C254.185 190.225 253.995 190.429 253.804 190.631C253.671 190.771 253.537 190.91 253.403 191.047C243.89 186.619 235.22 180.278 227.755 172.437C227.835 172.004 227.915 171.566 227.993 171.125ZM255.128 190.374C254.812 190.726 254.495 191.069 254.175 191.401C258.96 193.566 263.954 195.25 269.112 196.4C269.544 196.258 269.975 196.107 270.405 195.949C265.122 194.542 260.015 192.669 255.128 190.374ZM227.573 173.404C234.943 181.054 243.463 187.264 252.798 191.652C252.147 192.286 251.488 192.877 250.824 193.422C242.074 189.631 234.031 183.706 227.039 176.091C227.22 175.216 227.398 174.321 227.573 173.404ZM253.574 192.011C252.941 192.638 252.3 193.226 251.652 193.773C255.904 195.542 260.319 196.808 264.857 197.521C265.771 197.339 266.679 197.121 267.579 196.867C262.75 195.698 258.069 194.065 253.574 192.011ZM226.837 177.051C233.702 184.426 241.565 190.21 250.115 193.985C248.937 194.89 247.74 195.653 246.527 196.272C239.004 193.71 231.979 188.678 225.772 181.654C226.137 180.199 226.493 178.663 226.837 177.051ZM250.951 194.347C249.849 195.221 248.726 195.979 247.584 196.614C250.973 197.657 254.458 198.2 258.011 198.2C259.515 198.2 261.006 198.103 262.483 197.912C258.529 197.127 254.676 195.927 250.951 194.347ZM225.533 182.588C231.516 189.25 238.26 194.124 245.499 196.759C243.33 197.711 241.114 198.2 238.867 198.2C233.653 198.2 228.605 195.566 223.93 190.631C223.708 190.397 223.488 190.158 223.269 189.915C224.058 187.8 224.814 185.347 225.533 182.588ZM224.893 181.865C224.185 184.64 223.441 187.105 222.668 189.232C218.487 184.375 214.679 177.695 211.419 169.56C206.859 158.178 203.398 144.011 201.484 128.154C205.424 150.284 213.81 169.171 224.893 181.865ZM200.403 125.761C203.539 154.437 211.685 177.953 222.349 190.084C222.245 190.355 222.14 190.621 222.034 190.879C221.025 193.361 219.988 195.23 218.951 196.464C217.907 197.705 216.957 198.2 216.114 198.2C215.271 198.2 214.321 197.705 213.277 196.464C212.24 195.23 211.203 193.361 210.194 190.879C208.178 185.923 206.346 178.702 204.801 169.722C202.737 157.719 201.197 142.641 200.403 125.761ZM255.804 189.6C255.762 189.649 255.72 189.698 255.678 189.747C260.789 192.131 266.139 194.049 271.68 195.453C271.733 195.431 271.786 195.409 271.838 195.388C266.327 193.858 261.008 191.867 255.925 189.457C255.885 189.505 255.844 189.553 255.804 189.6ZM267.099 197.827C269.224 198.074 271.375 198.2 273.547 198.2C273.835 198.2 274.123 198.198 274.41 198.193C272.64 197.933 270.886 197.611 269.15 197.23C268.47 197.449 267.786 197.648 267.099 197.827ZM270.626 196.721C273.396 197.279 276.211 197.684 279.064 197.928C279.217 197.912 279.37 197.897 279.523 197.88C276.891 197.463 274.295 196.933 271.739 196.293C271.37 196.442 270.998 196.585 270.626 196.721ZM272.979 195.771C273.85 195.978 274.726 196.172 275.606 196.354C274.762 196.155 273.921 195.945 273.084 195.725L272.979 195.771ZM274.231 195.194C298.935 183.312 317.022 144.967 317.022 99.5C317.022 54.0325 298.935 15.688 274.231 3.80584C277.497 2.98012 280.828 2.31721 284.214 1.82625C300.241 4.9373 314.631 14.9568 325.619 29.6226C338.996 47.4772 347.293 72.18 347.293 99.5C347.293 126.82 338.996 151.523 325.619 169.377C314.631 184.043 300.241 194.063 284.214 197.174C280.828 196.683 277.497 196.02 274.231 195.194ZM273.084 3.27543C273.921 3.0551 274.762 2.84539 275.606 2.64645C274.726 2.82771 273.85 3.02187 272.979 3.22875L273.084 3.27543ZM271.739 2.70655C274.295 2.06734 276.891 1.53678 279.523 1.11978C279.37 1.10337 279.217 1.08759 279.064 1.07244C276.211 1.31589 273.396 1.72056 270.626 2.27865C270.998 2.41537 271.37 2.55803 271.739 2.70655ZM269.15 1.77009C270.886 1.38861 272.64 1.06682 274.41 0.806641C274.123 0.802218 273.835 0.8 273.547 0.8C271.375 0.8 269.224 0.925846 267.099 1.17252C267.786 1.3518 268.47 1.55111 269.15 1.77009ZM202.916 67.5921C205.841 53.093 210.704 40.12 216.972 29.551C219.483 25.318 222.213 21.4779 225.13 18.0818C225.488 19.5336 225.835 21.065 226.173 22.672C215.565 34.3382 207.415 49.8422 202.916 67.5921ZM225.13 180.918C225.488 179.466 225.835 177.935 226.173 176.328C215.565 164.662 207.415 149.158 202.916 131.408C205.841 145.907 210.704 158.88 216.972 169.449C219.483 173.682 222.213 177.522 225.13 180.918ZM291.524 1.04273C289.861 1.15882 288.21 1.31609 286.571 1.51351C321.532 9.7361 348.093 50.478 348.093 99.5C348.093 148.522 321.532 189.264 286.571 197.486C288.21 197.684 289.861 197.841 291.524 197.957C335.93 194.383 371.146 151.767 371.146 99.5C371.146 47.2333 335.93 4.6174 291.524 1.04273ZM221.474 29.6226C214.44 39.0122 208.81 50.2957 205.052 62.8579C209.885 48.828 217.41 36.3634 226.894 26.3084C226.723 25.3994 226.55 24.5108 226.373 23.6432C224.675 25.5376 223.04 27.5329 221.474 29.6226ZM226.894 172.692C226.723 173.601 226.55 174.489 226.373 175.357C224.675 173.462 223.04 171.467 221.474 169.377C214.44 159.988 208.81 148.704 205.052 136.142C209.885 150.172 217.41 162.637 226.894 172.692ZM208.902 55.1747C213.498 44.6605 219.676 35.2273 227.074 27.2862C227.152 27.7128 227.229 28.1436 227.305 28.5787C219.856 36.2744 213.613 45.2535 208.902 55.1747ZM227.074 171.714C227.152 171.287 227.229 170.856 227.305 170.421C219.856 162.726 213.613 153.747 208.902 143.825C213.498 154.34 219.676 163.773 227.074 171.714ZM227.475 29.5566C224.868 32.2819 222.412 35.1668 220.123 38.1963C222.428 35.2529 224.896 32.4426 227.512 29.7789L227.475 29.5566ZM227.475 169.443C224.868 166.718 222.412 163.833 220.123 160.803C222.428 163.747 224.896 166.557 227.512 169.221L227.475 169.443ZM131.685 169.56C124.517 151.67 120.066 126.9 120.066 99.5C120.066 72.0997 124.517 47.3302 131.685 29.4404C135.27 20.4933 139.519 13.3064 144.196 8.36938C148.871 3.43407 153.919 0.8 159.133 0.8C164.347 0.8 169.395 3.43407 174.07 8.36938C174.292 8.60305 174.512 8.84177 174.731 9.08547C168.853 24.8361 164.772 59.3975 164.772 99.5C164.772 139.603 168.853 174.164 174.731 189.915C174.512 190.158 174.292 190.397 174.07 190.631C169.395 195.566 164.347 198.2 159.133 198.2C153.919 198.2 148.871 195.566 144.196 190.631C139.519 185.694 135.27 178.507 131.685 169.56ZM170.573 29.2785C171.954 21.2472 173.566 14.6239 175.332 9.76826C179.513 14.6249 183.321 21.305 186.581 29.4404C193.749 47.3302 198.2 72.0997 198.2 99.5C198.2 126.9 193.749 151.67 186.581 169.56C183.321 177.695 179.513 184.375 175.332 189.232C173.566 184.376 171.954 177.753 170.573 169.722C167.486 151.773 165.572 126.945 165.572 99.5C165.572 72.0549 167.486 47.2274 170.573 29.2785ZM193.199 29.2785C195.263 41.2808 196.803 56.3588 197.597 73.2385C194.461 44.5628 186.315 21.0474 175.651 8.91577C175.755 8.64457 175.86 8.37948 175.966 8.12056C176.975 5.63857 178.012 3.77041 179.049 2.53624C180.093 1.29483 181.043 0.8 181.886 0.8C182.729 0.8 183.679 1.29483 184.723 2.53624C185.76 3.77041 186.797 5.63857 187.806 8.12056C189.822 13.0772 191.654 20.2976 193.199 29.2785ZM193.199 169.722C195.263 157.719 196.803 142.641 197.597 125.762C194.461 154.437 186.315 177.953 175.651 190.084C175.755 190.355 175.86 190.621 175.966 190.879C176.975 193.361 178.012 195.23 179.049 196.464C180.093 197.705 181.043 198.2 181.886 198.2C182.729 198.2 183.679 197.705 184.723 196.464C185.76 195.23 186.797 193.361 187.806 190.879C189.822 185.923 191.654 178.702 193.199 169.722Z" fill="#141414"/>
<defs>
<filter id="filter0_f_6230_1845" x="119.855" y="-2.74005" width="82.7983" height="204.48" filterUnits="userSpaceOnUse" color-interpolation-filters="sRGB">
<feFlood flood-opacity="0" result="BackgroundImageFix"/>
<feBlend mode="normal" in="SourceGraphic" in2="BackgroundImageFix" result="shape"/>
<feGaussianBlur stdDeviation="1.5" result="effect1_foregroundBlur_6230_1845"/>
</filter>
<filter id="filter1_f_6230_1845" x="96.0078" y="-0.588867" width="71.3037" height="200.178" filterUnits="userSpaceOnUse" color-interpolation-filters="sRGB">
<feFlood flood-opacity="0" result="BackgroundImageFix"/>
<feBlend mode="normal" in="SourceGraphic" in2="BackgroundImageFix" result="shape"/>
<feGaussianBlur stdDeviation="1" result="effect1_foregroundBlur_6230_1845"/>
</filter>
<linearGradient id="paint0_linear_6230_1845" x1="-98" y1="100" x2="11.2369" y2="-56.2503" gradientUnits="userSpaceOnUse">
<stop offset="0.0213727" stop-color="#B4CCFF"/>
<stop offset="0.781652" stop-color="#F7F9FF"/>
</linearGradient>
<linearGradient id="paint1_linear_6230_1845" x1="104.64" y1="-24.233" x2="-23.5559" y2="43.166" gradientUnits="userSpaceOnUse">
<stop stop-color="#DCE7FF"/>
<stop offset="0.479831" stop-color="#F0F5FF"/>
<stop offset="1" stop-color="#93ACE5"/>
</linearGradient>
<linearGradient id="paint2_linear_6230_1845" x1="107.657" y1="198.968" x2="107.657" y2="0.0314941" gradientUnits="userSpaceOnUse">
<stop stop-color="white" stop-opacity="0"/>
<stop offset="0.285" stop-color="white"/>
<stop offset="0.72" stop-color="white"/>
<stop offset="1" stop-color="white" stop-opacity="0"/>
</linearGradient>
<radialGradient id="paint3_radial_6230_1845" cx="0" cy="0" r="1" gradientUnits="userSpaceOnUse" gradientTransform="translate(107.239 41.2741) rotate(115.593) scale(272.135 162.894)">
<stop stop-color="#F8F8F9"/>
<stop offset="1" stop-color="#DADADA"/>
</radialGradient>
</defs>
</svg>
