<svg width="371" height="213" viewBox="0 0 371 213" fill="none" xmlns="http://www.w3.org/2000/svg">
<path d="M319.588 191.7C319.588 192.987 318.764 194.319 317.011 195.676C315.265 197.027 312.665 198.348 309.279 199.616C302.51 202.151 292.693 204.441 280.533 206.366C256.221 210.217 222.619 212.6 185.494 212.6C148.369 212.6 114.767 210.217 90.4548 206.366C78.2955 204.441 68.478 202.151 61.7092 199.616C58.3227 198.348 55.7229 197.027 53.977 195.676C52.2236 194.319 51.3998 192.987 51.3998 191.7C51.3998 190.413 52.2236 189.081 53.977 187.724C55.7229 186.372 58.3227 185.052 61.7092 183.784C68.478 181.249 78.2955 178.959 90.4548 177.034C114.767 173.183 148.369 170.8 185.494 170.8C222.619 170.8 256.221 173.183 280.533 177.034C292.693 178.959 302.51 181.249 309.279 183.784C312.665 185.052 315.265 186.372 317.011 187.724C318.764 189.081 319.588 190.413 319.588 191.7Z" stroke="black" stroke-width="0.8"/>
<ellipse cx="29" cy="185.5" rx="29" ry="185.5" transform="matrix(-7.14938e-08 1 1 2.67252e-08 -0.000244141 122)" fill="url(#paint0_linear_6250_1778)"/>
<path d="M185.5 187C287.949 187 371 172.462 371 154.529V151C371 166.984 287.949 179.941 185.5 179.941C83.0509 179.941 -0.000226492 166.984 -0.000243927 151L-0.000244141 154.529C-0.000245225 172.462 83.0509 187 185.5 187Z" fill="url(#paint1_linear_6250_1778)"/>
<path d="M185.5 122C287.949 122 371 134.922 371 150.863V154C371 139.792 287.949 128.275 185.5 128.275C83.0509 128.275 -0.000226492 139.792 -0.000243927 154L-0.000244141 150.863C-0.000245225 134.922 83.0509 122 185.5 122Z" fill="url(#paint2_linear_6250_1778)"/>
<path d="M371 151C371 167.016 287.949 180 185.5 180C83.0509 180 -0.000244839 167.016 -0.000244141 151C-0.000244133 150.83 0.00910551 150.66 0.0277288 150.491C1.76432 165.728 84.1379 178 185.5 178C286.862 178 369.235 165.728 370.972 150.491C370.99 150.66 371 150.83 371 151Z" fill="url(#paint3_linear_6250_1778)"/>
<mask id="mask0_6250_1778" style="mask-type:alpha" maskUnits="userSpaceOnUse" x="0" y="121" width="371" height="67">
<g style="mix-blend-mode:color">
<path d="M370.746 154.466C370.746 172.476 287.767 187.076 185.408 187.076C83.0494 187.076 0.0710434 172.476 0.0710449 154.466C0.071045 153.837 0.172269 153.212 0.372007 152.592C0.172269 152.039 0.0710452 151.482 0.0710452 150.922C0.0710466 134.87 83.0494 121.857 185.408 121.857C287.767 121.857 370.746 134.87 370.746 150.922C370.746 151.482 370.645 152.039 370.445 152.592C370.645 153.212 370.746 153.837 370.746 154.466Z" fill="#1960FF"/>
</g>
</mask>
<g mask="url(#mask0_6250_1778)">
<g filter="url(#filter0_f_6250_1778)">
<ellipse cx="26.2295" cy="134.372" rx="26.2295" ry="134.372" transform="matrix(-4.36076e-08 1 1 4.38155e-08 51.0598 114.768)" stroke="#84AEFF" stroke-width="0.8"/>
</g>
</g>
<path fill-rule="evenodd" clip-rule="evenodd" d="M319.188 42.6C319.188 48.1137 315.659 53.5092 308.94 58.5415C307.322 59.7526 305.528 60.9366 303.565 62.09C280.734 50.4762 236.419 42.6 185.494 42.6C134.569 42.6 90.2543 50.4762 67.4227 62.09C65.4603 60.9366 63.6658 59.7526 62.0485 58.5415C55.3286 53.5092 51.7998 48.1137 51.7998 42.6C51.7998 37.0863 55.3286 31.6908 62.0485 26.6585C68.7543 21.6368 78.5086 17.0805 90.6338 13.2399C114.875 5.56172 148.413 0.8 185.494 0.8C222.575 0.8 256.113 5.56172 280.354 13.2399C292.48 17.0805 302.234 21.6368 308.94 26.6585C315.659 31.6908 319.188 37.0863 319.188 42.6ZM68.2499 62.5688C74.2876 59.5497 81.8258 56.7764 90.6067 54.3328C114.858 47.5843 148.406 43.4 185.494 43.4C222.582 43.4 256.13 47.5843 280.381 54.3328C289.162 56.7764 296.7 59.5497 302.738 62.5688C296.697 66.0121 289.149 69.1744 280.354 71.9601C256.113 79.6383 222.575 84.4 185.494 84.4C148.413 84.4 114.875 79.6383 90.6338 71.9601C81.8389 69.1744 74.2914 66.0121 68.2499 62.5688ZM66.5844 62.5232C56.6351 56.578 50.9998 49.7975 50.9998 42.6C50.9998 19.0727 111.215 0 185.494 0C259.773 0 319.988 19.0727 319.988 42.6C319.988 49.7975 314.353 56.578 304.404 62.5232C314.353 67.7464 319.988 73.7036 319.988 80.0271C319.988 87.3936 312.341 94.2629 299.135 100.054C312.341 104.998 319.988 110.862 319.988 117.15C319.988 134.796 259.773 149.1 185.494 149.1C111.215 149.1 50.9998 134.796 50.9998 117.15C50.9998 110.862 58.6473 104.998 71.8535 100.054C58.6473 94.2629 50.9998 87.3936 50.9998 80.0271C50.9998 73.7036 56.6351 67.7464 66.5844 62.5232ZM303.59 63.0017C305.559 64.0176 307.358 65.0604 308.979 66.1271C315.719 70.5616 319.188 75.2755 319.188 80.0271C319.188 84.7788 315.719 89.4927 308.979 93.9271C305.94 95.9265 302.275 97.8422 298.047 99.6535C274.021 90.949 232.583 85.2001 185.494 85.2001C138.405 85.2001 96.9676 90.949 72.9411 99.6535C68.7128 97.8422 65.0476 95.9265 62.0087 93.9271C55.2687 89.4927 51.7998 84.7788 51.7998 80.0271C51.7998 75.2755 55.2687 70.5616 62.0087 66.1271C63.63 65.0604 65.4295 64.0176 67.3977 63.0017C90.222 76.2286 134.55 85.2 185.494 85.2C236.438 85.2 280.766 76.2286 303.59 63.0017ZM90.5771 95.3363C84.4225 96.7984 78.8775 98.3989 74.0312 100.113C78.8836 102.126 84.4386 104.005 90.6067 105.721C114.858 112.47 148.406 116.654 185.494 116.654C222.582 116.654 256.13 112.47 280.381 105.721C286.55 104.005 292.104 102.126 296.957 100.113C292.111 98.3989 286.566 96.7984 280.411 95.3363C256.149 89.5727 222.59 86.0001 185.494 86.0001C148.398 86.0001 114.839 89.5727 90.5771 95.3363ZM309.027 105.411C305.982 103.701 302.309 102.062 298.07 100.513C274.047 110.715 232.599 117.454 185.494 117.454C138.389 117.454 96.9408 110.715 72.9179 100.513C68.6795 102.062 65.0059 103.701 61.9607 105.411C55.1823 109.218 51.7998 113.216 51.7998 117.15C51.7998 121.084 55.1823 125.082 61.9607 128.889C68.6734 132.659 78.4397 136.08 90.5771 138.964C114.839 144.727 148.398 148.3 185.494 148.3C222.59 148.3 256.149 144.727 280.411 138.964C292.548 136.08 302.315 132.659 309.027 128.889C315.806 125.082 319.188 121.084 319.188 117.15C319.188 113.216 315.806 109.218 309.027 105.411Z" fill="black"/>
<defs>
<filter id="filter0_f_6250_1778" x="48.6599" y="112.368" width="273.544" height="57.259" filterUnits="userSpaceOnUse" color-interpolation-filters="sRGB">
<feFlood flood-opacity="0" result="BackgroundImageFix"/>
<feBlend mode="normal" in="SourceGraphic" in2="BackgroundImageFix" result="shape"/>
<feGaussianBlur stdDeviation="1" result="effect1_foregroundBlur_6250_1778"/>
</filter>
<linearGradient id="paint0_linear_6250_1778" x1="30.4203" y1="-45.178" x2="146.33" y2="-22.5728" gradientUnits="userSpaceOnUse">
<stop stop-color="#F7F9FF"/>
<stop offset="0.978627" stop-color="#B4CCFF"/>
</linearGradient>
<linearGradient id="paint1_linear_6250_1778" x1="374.5" y1="166.5" x2="0.716832" y2="178.979" gradientUnits="userSpaceOnUse">
<stop stop-color="#93ACE5"/>
<stop offset="0.241972" stop-color="#F0F5FF"/>
<stop offset="0.677152" stop-color="#DCE7FF"/>
<stop offset="0.991511" stop-color="#96B6FF"/>
</linearGradient>
<linearGradient id="paint2_linear_6250_1778" x1="195.5" y1="188" x2="194.585" y2="117.681" gradientUnits="userSpaceOnUse">
<stop stop-color="white"/>
<stop offset="0.687277" stop-color="#E0EAFF"/>
<stop offset="1" stop-color="#F6F9FF"/>
</linearGradient>
<linearGradient id="paint3_linear_6250_1778" x1="185.5" y1="180" x2="185.5" y2="150.491" gradientUnits="userSpaceOnUse">
<stop stop-color="white" stop-opacity="0"/>
<stop offset="0.285" stop-color="white"/>
<stop offset="0.72" stop-color="white"/>
<stop offset="1" stop-color="white" stop-opacity="0"/>
</linearGradient>
</defs>
</svg>
