<svg width="523" height="340" viewBox="0 0 523 340" fill="none" xmlns="http://www.w3.org/2000/svg">
<rect width="523" height="339.95" fill="white"/>
<path d="M444.114 286.021C444.114 287.821 442.961 289.662 440.565 291.515C438.176 293.363 434.626 295.164 430.012 296.89C420.79 300.341 407.42 303.457 390.868 306.077C357.771 311.315 312.033 314.557 261.5 314.557C210.968 314.557 165.229 311.315 132.132 306.077C115.581 303.457 102.21 300.341 92.9879 296.89C88.3742 295.164 84.8243 293.363 82.4358 291.515C80.0389 289.662 78.886 287.821 78.886 286.021C78.886 284.222 80.0389 282.381 82.4358 280.527C84.8243 278.68 88.3742 276.879 92.9879 275.153C102.21 271.702 115.581 268.586 132.132 265.966C165.229 260.728 210.968 257.486 261.5 257.486C312.033 257.486 357.771 260.728 390.868 265.966C407.42 268.586 420.79 271.702 430.012 275.153C434.626 276.879 438.176 278.68 440.565 280.527C442.961 282.381 444.114 284.222 444.114 286.021Z" stroke="black" stroke-width="0.871667"/>
<path d="M444.114 83.2213C444.114 91.0208 439.12 98.5291 429.904 105.426C420.696 112.318 407.343 118.542 390.805 123.778C357.732 134.246 312.016 140.728 261.5 140.728C210.984 140.728 165.268 134.246 132.196 123.778C115.657 118.542 102.305 112.318 93.0963 105.426C83.8802 98.5291 78.886 91.0208 78.886 83.2213C78.886 75.4217 83.8802 67.9134 93.0963 61.0162C102.305 54.1248 115.657 47.9002 132.196 42.665C165.268 32.1962 210.984 25.7142 261.5 25.7142C312.016 25.7142 357.732 32.1962 390.805 42.665C407.343 47.9002 420.696 54.1248 429.904 61.0162C439.12 67.9134 444.114 75.4217 444.114 83.2213Z" stroke="black" stroke-width="0.871667"/>
<path d="M444.114 235.321C444.114 237.661 442.918 239.996 440.528 242.307C438.138 244.617 434.59 246.867 429.981 249.023C420.764 253.334 407.4 257.227 390.852 260.501C357.761 267.048 312.029 271.1 261.5 271.1C210.972 271.1 165.239 267.048 132.149 260.501C115.6 257.227 102.236 253.334 93.0198 249.023C88.4105 246.867 84.862 244.617 82.4721 242.307C80.0826 239.996 78.886 237.661 78.886 235.321C78.886 232.982 80.0826 230.647 82.4721 228.336C84.862 226.026 88.4105 223.776 93.0198 221.62C102.236 217.309 115.6 213.416 132.149 210.142C165.239 203.595 210.972 199.543 261.5 199.543C312.029 199.543 357.761 203.595 390.852 210.142C407.4 213.416 420.764 217.309 429.981 221.62C434.59 223.776 438.138 226.026 440.528 228.336C442.918 230.647 444.114 232.982 444.114 235.321Z" stroke="black" stroke-width="0.871667"/>
<g filter="url(#filter0_ii_2818_10000)">
<path d="M261.416 279.7C362.465 279.7 444.381 259.82 444.381 235.297V230.471C444.381 252.328 362.465 270.047 261.416 270.047C160.367 270.047 78.4507 252.328 78.4507 230.471L78.4507 235.297C78.4507 259.82 160.367 279.7 261.416 279.7Z" fill="url(#paint0_radial_2818_10000)"/>
</g>
<g filter="url(#filter1_bii_2818_10000)">
<ellipse cx="39.576" cy="182.965" rx="39.576" ry="182.965" transform="matrix(-5.1834e-08 1 1 3.68616e-08 78.4507 190.895)" fill="url(#paint1_radial_2818_10000)" fill-opacity="0.6"/>
</g>
<g style="mix-blend-mode:color">
<path d="M444.381 235.297C444.381 259.82 362.465 279.7 261.416 279.7C160.367 279.7 78.4507 259.82 78.4507 235.297C78.4507 234.441 78.5506 233.59 78.7478 232.746C78.5506 231.993 78.4507 231.234 78.4507 230.471C78.4507 208.614 160.367 190.895 261.416 190.895C362.465 190.895 444.381 208.614 444.381 230.471C444.381 231.234 444.281 231.993 444.084 232.746C444.281 233.59 444.381 234.441 444.381 235.297Z" fill="#1960FF"/>
<path d="M78.4507 235.297C78.4507 234.441 78.5506 233.59 78.7478 232.746C78.5506 231.993 78.4507 231.234 78.4507 230.471L78.4507 235.297Z" fill="#1960FF"/>
<path d="M444.381 230.471C444.381 231.234 444.281 231.993 444.084 232.746C444.281 233.59 444.381 234.441 444.381 235.297V230.471Z" fill="#1960FF"/>
</g>
<mask id="mask0_2818_10000" style="mask-type:alpha" maskUnits="userSpaceOnUse" x="78" y="190" width="367" height="90">
<g style="mix-blend-mode:color">
<path fill-rule="evenodd" clip-rule="evenodd" d="M444.381 235.297C444.381 259.82 362.465 279.7 261.416 279.7C160.367 279.7 78.4502 259.82 78.4502 235.297C78.4502 234.441 78.5501 233.59 78.7473 232.746C78.5501 231.993 78.4502 231.235 78.4502 230.471C78.4502 208.614 160.367 190.895 261.416 190.895C362.465 190.895 444.381 208.614 444.381 230.471C444.381 231.235 444.281 231.993 444.084 232.746C444.281 233.59 444.381 234.441 444.381 235.297Z" fill="#1960FF"/>
</g>
</mask>
<g mask="url(#mask0_2818_10000)">
<g style="mix-blend-mode:color-burn" filter="url(#filter2_f_2818_10000)">
<path d="M261.416 252.237C311.921 252.237 357.633 248.24 390.708 241.784C407.249 238.555 420.608 234.715 429.82 230.464C434.427 228.337 437.974 226.118 440.363 223.84C442.751 221.561 443.945 219.261 443.945 216.957C443.945 214.654 442.751 212.353 440.363 210.075C437.974 207.796 434.427 205.578 429.82 203.451C420.608 199.2 407.249 195.36 390.708 192.131C357.633 185.675 311.921 181.678 261.416 181.678C210.91 181.678 165.198 185.675 132.123 192.131C115.582 195.36 102.224 199.2 93.0111 203.451C88.4037 205.578 84.8569 207.796 82.4682 210.075C80.0798 212.353 78.886 214.654 78.886 216.957C78.886 219.261 80.0798 221.561 82.4682 223.84C84.8569 226.118 88.4037 228.337 93.0111 230.464C102.224 234.715 115.582 238.555 132.123 241.784C165.198 248.24 210.91 252.237 261.416 252.237Z" stroke="#141414" stroke-opacity="0.3" stroke-width="0.871667"/>
</g>
</g>
<path d="M444.114 184.621C444.114 190.361 439.2 195.966 429.952 201.157C420.74 206.327 407.381 210.998 390.835 214.926C357.752 222.78 312.024 227.643 261.5 227.643C210.976 227.643 165.249 222.78 132.165 214.926C115.62 210.998 102.261 206.327 93.0485 201.157C83.8005 195.966 78.886 190.361 78.886 184.621C78.886 178.881 83.8005 173.277 93.0485 168.086C102.261 162.915 115.62 158.244 132.165 154.316C165.249 146.462 210.976 141.6 261.5 141.6C312.024 141.6 357.752 146.462 390.835 154.316C407.381 158.244 420.74 162.915 429.952 168.086C439.2 173.277 444.114 178.881 444.114 184.621Z" stroke="black" stroke-width="0.871667"/>
<path d="M444.114 133.921C444.114 140.694 439.154 147.249 429.926 153.291C420.717 159.322 407.362 164.77 390.82 169.352C357.742 178.513 312.02 184.185 261.5 184.185C210.98 184.185 165.259 178.513 132.181 169.352C115.639 164.77 102.283 159.322 93.0739 153.291C83.8464 147.249 78.886 140.694 78.886 133.921C78.886 127.149 83.8464 120.594 93.0739 114.551C102.283 108.52 115.639 103.073 132.181 98.491C165.259 89.3293 210.98 83.6571 261.5 83.6571C312.02 83.6571 357.742 89.3293 390.82 98.491C407.362 103.073 420.717 108.52 429.926 114.551C439.154 120.594 444.114 127.149 444.114 133.921Z" stroke="black" stroke-width="0.871667"/>
<defs>
<filter id="filter0_ii_2818_10000" x="78.4507" y="226.984" width="365.931" height="56.202" filterUnits="userSpaceOnUse" color-interpolation-filters="sRGB">
<feFlood flood-opacity="0" result="BackgroundImageFix"/>
<feBlend mode="normal" in="SourceGraphic" in2="BackgroundImageFix" result="shape"/>
<feColorMatrix in="SourceAlpha" type="matrix" values="0 0 0 0 0 0 0 0 0 0 0 0 0 0 0 0 0 0 127 0" result="hardAlpha"/>
<feOffset dy="-6.97333"/>
<feGaussianBlur stdDeviation="1.74333"/>
<feComposite in2="hardAlpha" operator="arithmetic" k2="-1" k3="1"/>
<feColorMatrix type="matrix" values="0 0 0 0 0.919441 0 0 0 0 0.919441 0 0 0 0 0.919441 0 0 0 0.68 0"/>
<feBlend mode="normal" in2="shape" result="effect1_innerShadow_2818_10000"/>
<feColorMatrix in="SourceAlpha" type="matrix" values="0 0 0 0 0 0 0 0 0 0 0 0 0 0 0 0 0 0 127 0" result="hardAlpha"/>
<feOffset dy="3.48667"/>
<feGaussianBlur stdDeviation="1.74333"/>
<feComposite in2="hardAlpha" operator="arithmetic" k2="-1" k3="1"/>
<feColorMatrix type="matrix" values="0 0 0 0 0 0 0 0 0 0 0 0 0 0 0 0 0 0 0.05 0"/>
<feBlend mode="normal" in2="effect1_innerShadow_2818_10000" result="effect2_innerShadow_2818_10000"/>
</filter>
<filter id="filter1_bii_2818_10000" x="71.4774" y="183.922" width="379.878" height="93.0987" filterUnits="userSpaceOnUse" color-interpolation-filters="sRGB">
<feFlood flood-opacity="0" result="BackgroundImageFix"/>
<feGaussianBlur in="BackgroundImageFix" stdDeviation="3.48667"/>
<feComposite in2="SourceAlpha" operator="in" result="effect1_backgroundBlur_2818_10000"/>
<feBlend mode="normal" in="SourceGraphic" in2="effect1_backgroundBlur_2818_10000" result="shape"/>
<feColorMatrix in="SourceAlpha" type="matrix" values="0 0 0 0 0 0 0 0 0 0 0 0 0 0 0 0 0 0 127 0" result="hardAlpha"/>
<feOffset dx="6.10167" dy="-1.74333"/>
<feGaussianBlur stdDeviation="2.615"/>
<feComposite in2="hardAlpha" operator="arithmetic" k2="-1" k3="1"/>
<feColorMatrix type="matrix" values="0 0 0 0 1 0 0 0 0 0.998303 0 0 0 0 0.998303 0 0 0 0.8 0"/>
<feBlend mode="normal" in2="shape" result="effect2_innerShadow_2818_10000"/>
<feColorMatrix in="SourceAlpha" type="matrix" values="0 0 0 0 0 0 0 0 0 0 0 0 0 0 0 0 0 0 127 0" result="hardAlpha"/>
<feOffset dx="-2.615" dy="3.48667"/>
<feGaussianBlur stdDeviation="2.615"/>
<feComposite in2="hardAlpha" operator="arithmetic" k2="-1" k3="1"/>
<feColorMatrix type="matrix" values="0 0 0 0 1 0 0 0 0 1 0 0 0 0 1 0 0 0 0.5 0"/>
<feBlend mode="normal" in2="effect2_innerShadow_2818_10000" result="effect3_innerShadow_2818_10000"/>
</filter>
<filter id="filter2_f_2818_10000" x="75.8352" y="178.627" width="371.161" height="76.6599" filterUnits="userSpaceOnUse" color-interpolation-filters="sRGB">
<feFlood flood-opacity="0" result="BackgroundImageFix"/>
<feBlend mode="normal" in="SourceGraphic" in2="BackgroundImageFix" result="shape"/>
<feGaussianBlur stdDeviation="1.3075" result="effect1_foregroundBlur_2818_10000"/>
</filter>
<radialGradient id="paint0_radial_2818_10000" cx="0" cy="0" r="1" gradientUnits="userSpaceOnUse" gradientTransform="translate(256.601 284.526) rotate(-1.4723) scale(187.842 87.719)">
<stop stop-color="#E4E4E4"/>
<stop offset="0.689118" stop-color="#F7F7FA"/>
<stop offset="1" stop-color="#A5A5A7"/>
</radialGradient>
<radialGradient id="paint1_radial_2818_10000" cx="0" cy="0" r="1" gradientUnits="userSpaceOnUse" gradientTransform="translate(71.9201 75.8967) rotate(99.909) scale(458.149 119.323)">
<stop stop-color="#F8F8F9"/>
<stop offset="1" stop-color="#DADADA"/>
</radialGradient>
</defs>
</svg>
