<svg width="684" height="289" viewBox="0 0 684 289" fill="none" xmlns="http://www.w3.org/2000/svg">
<mask id="path-1-inside-1" fill="white">
<path d="M0 217.273H134.292V284.62H172.375V217.273H213.264V181.996H172.375V4.00872H134.292L0 180.794V217.273ZM134.292 97.813V181.996H39.2855V179.591L70.9545 139.905L133.891 55.7213H136.698L134.292 97.813Z"/>
<path d="M339.592 0C268.638 0.400868 234.564 64.5405 235.766 143.913C235.766 198.833 248.995 241.726 280.664 268.585C296.699 281.814 316.342 288.228 339.592 288.228C374.468 288.228 400.525 274.999 417.763 248.14C435.401 221.282 444.22 186.406 444.22 143.913C444.22 88.9938 430.991 46.1004 398.922 20.0436C382.887 6.81485 363.244 0 339.592 0ZM339.592 33.2724C382.486 33.2724 404.133 70.1527 404.133 143.913C404.133 218.075 382.486 254.955 339.592 254.955C297.1 254.955 275.854 218.075 275.854 143.913C275.854 70.1527 297.1 33.2724 339.592 33.2724Z"/>
<path d="M469.773 217.273H604.065V284.62H642.148V217.273H683.037V181.996H642.148V4.00872H604.065L469.773 180.794V217.273ZM604.065 97.813V181.996H509.058V179.591L540.727 139.905L603.664 55.7213H606.47L604.065 97.813Z"/>
</mask>
<path d="M0 217.273H-85.9276C-85.9276 264.73 -47.4565 303.201 0 303.201L0 217.273ZM134.292 217.273H220.22C220.22 169.817 181.749 131.345 134.292 131.345V217.273ZM134.292 284.62H48.3648C48.3648 332.076 86.8359 370.547 134.292 370.547V284.62ZM172.375 284.62V370.547C219.832 370.547 258.303 332.076 258.303 284.62H172.375ZM172.375 217.273V131.345C124.919 131.345 86.4477 169.817 86.4477 217.273H172.375ZM213.264 217.273V303.201C260.721 303.201 299.192 264.73 299.192 217.273H213.264ZM213.264 181.996H299.192C299.192 134.54 260.721 96.0687 213.264 96.0687V181.996ZM172.375 181.996H86.4477C86.4477 229.453 124.919 267.924 172.375 267.924V181.996ZM172.375 4.00872H258.303C258.303 -43.4478 219.832 -81.9189 172.375 -81.9189V4.00872ZM134.292 4.00872V-81.9189C107.432 -81.9189 82.1162 -69.3581 65.8681 -47.9689L134.292 4.00872ZM0 180.794L-68.4242 128.816C-79.7798 143.765 -85.9276 162.021 -85.9276 180.794H0ZM134.292 97.813L48.5047 92.9108C48.4115 94.5432 48.3648 96.1779 48.3648 97.813H134.292ZM134.292 181.996V267.924C181.749 267.924 220.22 229.453 220.22 181.996H134.292ZM39.2855 181.996H-46.642C-46.642 229.453 -8.17096 267.924 39.2855 267.924V181.996ZM39.2855 179.591L-27.8788 125.995C-40.0262 141.218 -46.642 160.116 -46.642 179.591H39.2855ZM70.9545 139.905L138.119 193.5C138.682 192.794 139.234 192.08 139.775 191.356L70.9545 139.905ZM133.891 55.7213V-30.2063C106.799 -30.2063 81.2933 -17.4291 65.0709 4.2697L133.891 55.7213ZM136.698 55.7213L222.485 60.6234C223.834 37.0215 215.399 13.9065 199.167 -3.28005C182.934 -20.4666 160.338 -30.2063 136.698 -30.2063V55.7213ZM339.592 0V-85.9276C339.431 -85.9276 339.269 -85.9271 339.107 -85.9262L339.592 0ZM235.766 143.913H321.694C321.694 143.479 321.691 143.045 321.684 142.612L235.766 143.913ZM280.664 268.585L225.086 334.118C225.382 334.369 225.681 334.619 225.981 334.867L280.664 268.585ZM417.763 248.14L345.938 200.972C345.773 201.223 345.61 201.476 345.447 201.729L417.763 248.14ZM398.922 20.0436L344.239 86.3259C344.404 86.4623 344.57 86.5981 344.736 86.7332L398.922 20.0436ZM469.773 217.273H383.845C383.845 264.73 422.316 303.201 469.773 303.201V217.273ZM604.065 217.273H689.993C689.993 169.817 651.522 131.345 604.065 131.345V217.273ZM604.065 284.62H518.138C518.138 332.076 556.609 370.547 604.065 370.547V284.62ZM642.148 284.62V370.547C689.605 370.547 728.076 332.076 728.076 284.62H642.148ZM642.148 217.273V131.345C594.692 131.345 556.221 169.817 556.221 217.273H642.148ZM683.037 217.273V303.201C730.494 303.201 768.965 264.73 768.965 217.273H683.037ZM683.037 181.996H768.965C768.965 134.54 730.494 96.0687 683.037 96.0687V181.996ZM642.148 181.996H556.221C556.221 229.453 594.692 267.924 642.148 267.924V181.996ZM642.148 4.00872H728.076C728.076 -43.4478 689.605 -81.9189 642.148 -81.9189V4.00872ZM604.065 4.00872V-81.9189C577.204 -81.9189 551.889 -69.3581 535.641 -47.9689L604.065 4.00872ZM469.773 180.794L401.349 128.816C389.993 143.765 383.845 162.021 383.845 180.794H469.773ZM604.065 97.813L518.278 92.9107C518.184 94.5431 518.138 96.1779 518.138 97.813H604.065ZM604.065 181.996V267.924C651.522 267.924 689.993 229.453 689.993 181.996H604.065ZM509.058 181.996H423.131C423.131 229.453 461.602 267.924 509.058 267.924V181.996ZM509.058 179.591L441.894 125.995C429.747 141.218 423.131 160.116 423.131 179.591H509.058ZM540.727 139.905L607.892 193.5C608.455 192.794 609.007 192.08 609.548 191.356L540.727 139.905ZM603.664 55.7213V-30.2063C576.572 -30.2063 551.066 -17.4291 534.844 4.2697L603.664 55.7213ZM606.47 55.7213L692.258 60.6235C693.607 37.0216 685.172 13.9065 668.94 -3.28001C652.707 -20.4666 630.111 -30.2063 606.47 -30.2063V55.7213ZM0 303.201H134.292V131.345H0V303.201ZM48.3648 217.273V284.62H220.22V217.273H48.3648ZM134.292 370.547H172.375V198.692H134.292V370.547ZM258.303 284.62V217.273H86.4477V284.62H258.303ZM172.375 303.201H213.264V131.345H172.375V303.201ZM299.192 217.273V181.996H127.337V217.273H299.192ZM213.264 96.0687H172.375V267.924H213.264V96.0687ZM258.303 181.996V4.00872H86.4477V181.996H258.303ZM172.375 -81.9189H134.292V89.9363H172.375V-81.9189ZM65.8681 -47.9689L-68.4242 128.816L68.4242 232.771L202.717 55.9863L65.8681 -47.9689ZM-85.9276 180.794V217.273H85.9276V180.794H-85.9276ZM48.3648 97.813V181.996H220.22V97.813H48.3648ZM134.292 96.0687H39.2855V267.924H134.292V96.0687ZM125.213 181.996V179.591H-46.642V181.996H125.213ZM106.45 233.187L138.119 193.5L3.79019 86.3088L-27.8788 125.995L106.45 233.187ZM139.775 191.356L202.712 107.173L65.0709 4.2697L2.13385 88.453L139.775 191.356ZM133.891 141.649H136.698V-30.2063H133.891V141.649ZM50.91 50.8192L48.5047 92.9108L220.08 102.715L222.485 60.6234L50.91 50.8192ZM339.107 -85.9262C273.493 -85.5555 221.212 -53.7332 188.997 -5.13061C159.199 39.8269 149.081 94.535 149.849 145.215L321.684 142.612C321.249 113.919 327.567 96.8707 332.244 89.815C333.26 88.2811 334.043 87.4443 334.456 87.0517C334.666 86.8521 334.809 86.7397 334.882 86.6854C334.954 86.6322 334.992 86.6106 335.006 86.6029C335.019 86.5957 335.057 86.575 335.141 86.5416C335.226 86.5081 335.411 86.4407 335.726 86.3614C336.323 86.2108 337.696 85.9397 340.078 85.9262L339.107 -85.9262ZM149.839 143.913C149.839 210.138 165.607 283.673 225.086 334.118L336.243 203.052C332.384 199.779 321.694 187.528 321.694 143.913H149.839ZM225.981 334.867C259.647 362.642 299.494 374.155 339.592 374.155V202.3C337.728 202.3 336.438 202.171 335.636 202.05C334.846 201.931 334.492 201.814 334.47 201.807C334.459 201.804 334.63 201.862 334.89 202.006C335.152 202.151 335.316 202.277 335.347 202.303L225.981 334.867ZM339.592 374.155C400.081 374.155 455.161 348.957 490.078 294.552L345.447 201.729C344.745 202.823 344.459 203.001 344.762 202.721C345.095 202.412 345.614 202.035 346.159 201.756C346.676 201.492 346.672 201.594 345.799 201.784C344.873 201.986 342.896 202.3 339.592 202.3V374.155ZM489.587 295.308C518.999 250.522 530.148 197.77 530.148 143.913H358.293C358.293 175.042 351.803 192.041 345.938 200.972L489.587 295.308ZM530.148 143.913C530.148 78.149 514.571 3.29327 453.107 -46.6459L344.736 86.7332C347.412 88.9075 358.293 99.8385 358.293 143.913H530.148ZM453.604 -46.2386C420.611 -73.4579 381.072 -85.9276 339.592 -85.9276V85.9276C341.376 85.9276 342.594 86.0556 343.335 86.1713C344.065 86.2852 344.402 86.3976 344.446 86.4124C344.481 86.4246 344.39 86.394 344.251 86.3158C344.113 86.2388 344.102 86.2126 344.239 86.3259L453.604 -46.2386ZM339.592 119.2C337.7 119.2 331.94 118.682 325.116 114.779C318.269 110.864 314.815 106.094 313.755 104.279C313.006 102.999 314.34 104.775 315.745 111.97C317.121 119.024 318.205 129.424 318.205 143.913H490.061C490.061 101.414 484.316 55.5412 462.141 17.5861C435.858 -27.3999 391.376 -52.6551 339.592 -52.6551V119.2ZM318.205 143.913C318.205 158.526 317.118 169.023 315.732 176.153C314.318 183.426 312.97 185.245 313.703 183.986C314.751 182.188 318.202 177.401 325.072 173.467C331.92 169.546 337.701 169.027 339.592 169.027V340.883C391.411 340.883 435.922 315.59 462.192 270.504C484.332 232.505 490.061 186.552 490.061 143.913H318.205ZM339.592 169.027C341.721 169.027 347.749 169.608 354.785 173.684C361.814 177.757 365.279 182.671 366.295 184.439C367.002 185.67 365.646 183.785 364.235 176.409C362.854 169.188 361.781 158.604 361.781 143.913H189.926C189.926 186.368 195.51 232.154 217.282 270.051C243.199 315.161 287.519 340.883 339.592 340.883V169.027ZM361.781 143.913C361.781 129.346 362.851 118.858 364.223 111.712C365.624 104.415 366.966 102.574 366.245 103.826C365.216 105.612 361.747 110.508 354.741 114.562C347.728 118.62 341.722 119.2 339.592 119.2V-52.6551C287.555 -52.6551 243.263 -26.972 217.332 18.0394C195.525 55.893 189.926 101.599 189.926 143.913H361.781ZM469.773 303.201H604.065V131.345H469.773V303.201ZM518.138 217.273V284.62H689.993V217.273H518.138ZM604.065 370.547H642.148V198.692H604.065V370.547ZM728.076 284.62V217.273H556.221V284.62H728.076ZM642.148 303.201H683.037V131.345H642.148V303.201ZM768.965 217.273V181.996H597.11V217.273H768.965ZM683.037 96.0687H642.148V267.924H683.037V96.0687ZM728.076 181.996V4.00872H556.221V181.996H728.076ZM642.148 -81.9189H604.065V89.9363H642.148V-81.9189ZM535.641 -47.9689L401.349 128.816L538.197 232.771L672.489 55.9863L535.641 -47.9689ZM383.845 180.794V217.273H555.7V180.794H383.845ZM518.138 97.813V181.996H689.993V97.813H518.138ZM604.065 96.0687H509.058V267.924H604.065V96.0687ZM594.986 181.996V179.591H423.131V181.996H594.986ZM576.223 233.187L607.892 193.5L473.563 86.3088L441.894 125.995L576.223 233.187ZM609.548 191.356L672.485 107.173L534.844 4.2697L471.907 88.453L609.548 191.356ZM603.664 141.649H606.47V-30.2063H603.664V141.649ZM520.683 50.8191L518.278 92.9107L689.853 102.715L692.258 60.6235L520.683 50.8191Z" fill="white" mask="url(#path-1-inside-1)"/>
<path d="M0 217.273H-85.9276C-85.9276 264.73 -47.4565 303.201 0 303.201L0 217.273ZM134.292 217.273H220.22C220.22 169.817 181.749 131.345 134.292 131.345V217.273ZM134.292 284.62H48.3648C48.3648 332.076 86.8359 370.547 134.292 370.547V284.62ZM172.375 284.62V370.547C219.832 370.547 258.303 332.076 258.303 284.62H172.375ZM172.375 217.273V131.345C124.919 131.345 86.4477 169.817 86.4477 217.273H172.375ZM213.264 217.273V303.201C260.721 303.201 299.192 264.73 299.192 217.273H213.264ZM213.264 181.996H299.192C299.192 134.54 260.721 96.0687 213.264 96.0687V181.996ZM172.375 181.996H86.4477C86.4477 229.453 124.919 267.924 172.375 267.924V181.996ZM172.375 4.00872H258.303C258.303 -43.4478 219.832 -81.9189 172.375 -81.9189V4.00872ZM134.292 4.00872V-81.9189C107.432 -81.9189 82.1162 -69.3581 65.8681 -47.9689L134.292 4.00872ZM0 180.794L-68.4242 128.816C-79.7798 143.765 -85.9276 162.021 -85.9276 180.794H0ZM134.292 97.813L48.5047 92.9108C48.4115 94.5432 48.3648 96.1779 48.3648 97.813H134.292ZM134.292 181.996V267.924C181.749 267.924 220.22 229.453 220.22 181.996H134.292ZM39.2855 181.996H-46.642C-46.642 229.453 -8.17096 267.924 39.2855 267.924V181.996ZM39.2855 179.591L-27.8788 125.995C-40.0262 141.218 -46.642 160.116 -46.642 179.591H39.2855ZM70.9545 139.905L138.119 193.5C138.682 192.794 139.234 192.08 139.775 191.356L70.9545 139.905ZM133.891 55.7213V-30.2063C106.799 -30.2063 81.2933 -17.4291 65.0709 4.2697L133.891 55.7213ZM136.698 55.7213L222.485 60.6234C223.834 37.0215 215.399 13.9065 199.167 -3.28005C182.934 -20.4666 160.338 -30.2063 136.698 -30.2063V55.7213ZM339.592 0V-85.9276C339.431 -85.9276 339.269 -85.9271 339.107 -85.9262L339.592 0ZM235.766 143.913H321.694C321.694 143.479 321.691 143.045 321.684 142.612L235.766 143.913ZM280.664 268.585L225.086 334.118C225.382 334.369 225.681 334.619 225.981 334.867L280.664 268.585ZM417.763 248.14L345.938 200.972C345.773 201.223 345.61 201.476 345.447 201.729L417.763 248.14ZM398.922 20.0436L344.239 86.3259C344.404 86.4623 344.57 86.5981 344.736 86.7332L398.922 20.0436ZM469.773 217.273H383.845C383.845 264.73 422.316 303.201 469.773 303.201V217.273ZM604.065 217.273H689.993C689.993 169.817 651.522 131.345 604.065 131.345V217.273ZM604.065 284.62H518.138C518.138 332.076 556.609 370.547 604.065 370.547V284.62ZM642.148 284.62V370.547C689.605 370.547 728.076 332.076 728.076 284.62H642.148ZM642.148 217.273V131.345C594.692 131.345 556.221 169.817 556.221 217.273H642.148ZM683.037 217.273V303.201C730.494 303.201 768.965 264.73 768.965 217.273H683.037ZM683.037 181.996H768.965C768.965 134.54 730.494 96.0687 683.037 96.0687V181.996ZM642.148 181.996H556.221C556.221 229.453 594.692 267.924 642.148 267.924V181.996ZM642.148 4.00872H728.076C728.076 -43.4478 689.605 -81.9189 642.148 -81.9189V4.00872ZM604.065 4.00872V-81.9189C577.204 -81.9189 551.889 -69.3581 535.641 -47.9689L604.065 4.00872ZM469.773 180.794L401.349 128.816C389.993 143.765 383.845 162.021 383.845 180.794H469.773ZM604.065 97.813L518.278 92.9107C518.184 94.5431 518.138 96.1779 518.138 97.813H604.065ZM604.065 181.996V267.924C651.522 267.924 689.993 229.453 689.993 181.996H604.065ZM509.058 181.996H423.131C423.131 229.453 461.602 267.924 509.058 267.924V181.996ZM509.058 179.591L441.894 125.995C429.747 141.218 423.131 160.116 423.131 179.591H509.058ZM540.727 139.905L607.892 193.5C608.455 192.794 609.007 192.08 609.548 191.356L540.727 139.905ZM603.664 55.7213V-30.2063C576.572 -30.2063 551.066 -17.4291 534.844 4.2697L603.664 55.7213ZM606.47 55.7213L692.258 60.6235C693.607 37.0216 685.172 13.9065 668.94 -3.28001C652.707 -20.4666 630.111 -30.2063 606.47 -30.2063V55.7213ZM0 303.201H134.292V131.345H0V303.201ZM48.3648 217.273V284.62H220.22V217.273H48.3648ZM134.292 370.547H172.375V198.692H134.292V370.547ZM258.303 284.62V217.273H86.4477V284.62H258.303ZM172.375 303.201H213.264V131.345H172.375V303.201ZM299.192 217.273V181.996H127.337V217.273H299.192ZM213.264 96.0687H172.375V267.924H213.264V96.0687ZM258.303 181.996V4.00872H86.4477V181.996H258.303ZM172.375 -81.9189H134.292V89.9363H172.375V-81.9189ZM65.8681 -47.9689L-68.4242 128.816L68.4242 232.771L202.717 55.9863L65.8681 -47.9689ZM-85.9276 180.794V217.273H85.9276V180.794H-85.9276ZM48.3648 97.813V181.996H220.22V97.813H48.3648ZM134.292 96.0687H39.2855V267.924H134.292V96.0687ZM125.213 181.996V179.591H-46.642V181.996H125.213ZM106.45 233.187L138.119 193.5L3.79019 86.3088L-27.8788 125.995L106.45 233.187ZM139.775 191.356L202.712 107.173L65.0709 4.2697L2.13385 88.453L139.775 191.356ZM133.891 141.649H136.698V-30.2063H133.891V141.649ZM50.91 50.8192L48.5047 92.9108L220.08 102.715L222.485 60.6234L50.91 50.8192ZM339.107 -85.9262C273.493 -85.5555 221.212 -53.7332 188.997 -5.13061C159.199 39.8269 149.081 94.535 149.849 145.215L321.684 142.612C321.249 113.919 327.567 96.8707 332.244 89.815C333.26 88.2811 334.043 87.4443 334.456 87.0517C334.666 86.8521 334.809 86.7397 334.882 86.6854C334.954 86.6322 334.992 86.6106 335.006 86.6029C335.019 86.5957 335.057 86.575 335.141 86.5416C335.226 86.5081 335.411 86.4407 335.726 86.3614C336.323 86.2108 337.696 85.9397 340.078 85.9262L339.107 -85.9262ZM149.839 143.913C149.839 210.138 165.607 283.673 225.086 334.118L336.243 203.052C332.384 199.779 321.694 187.528 321.694 143.913H149.839ZM225.981 334.867C259.647 362.642 299.494 374.155 339.592 374.155V202.3C337.728 202.3 336.438 202.171 335.636 202.05C334.846 201.931 334.492 201.814 334.47 201.807C334.459 201.804 334.63 201.862 334.89 202.006C335.152 202.151 335.316 202.277 335.347 202.303L225.981 334.867ZM339.592 374.155C400.081 374.155 455.161 348.957 490.078 294.552L345.447 201.729C344.745 202.823 344.459 203.001 344.762 202.721C345.095 202.412 345.614 202.035 346.159 201.756C346.676 201.492 346.672 201.594 345.799 201.784C344.873 201.986 342.896 202.3 339.592 202.3V374.155ZM489.587 295.308C518.999 250.522 530.148 197.77 530.148 143.913H358.293C358.293 175.042 351.803 192.041 345.938 200.972L489.587 295.308ZM530.148 143.913C530.148 78.149 514.571 3.29327 453.107 -46.6459L344.736 86.7332C347.412 88.9075 358.293 99.8385 358.293 143.913H530.148ZM453.604 -46.2386C420.611 -73.4579 381.072 -85.9276 339.592 -85.9276V85.9276C341.376 85.9276 342.594 86.0556 343.335 86.1713C344.065 86.2852 344.402 86.3976 344.446 86.4124C344.481 86.4246 344.39 86.394 344.251 86.3158C344.113 86.2388 344.102 86.2126 344.239 86.3259L453.604 -46.2386ZM339.592 119.2C337.7 119.2 331.94 118.682 325.116 114.779C318.269 110.864 314.815 106.094 313.755 104.279C313.006 102.999 314.34 104.775 315.745 111.97C317.121 119.024 318.205 129.424 318.205 143.913H490.061C490.061 101.414 484.316 55.5412 462.141 17.5861C435.858 -27.3999 391.376 -52.6551 339.592 -52.6551V119.2ZM318.205 143.913C318.205 158.526 317.118 169.023 315.732 176.153C314.318 183.426 312.97 185.245 313.703 183.986C314.751 182.188 318.202 177.401 325.072 173.467C331.92 169.546 337.701 169.027 339.592 169.027V340.883C391.411 340.883 435.922 315.59 462.192 270.504C484.332 232.505 490.061 186.552 490.061 143.913H318.205ZM339.592 169.027C341.721 169.027 347.749 169.608 354.785 173.684C361.814 177.757 365.279 182.671 366.295 184.439C367.002 185.67 365.646 183.785 364.235 176.409C362.854 169.188 361.781 158.604 361.781 143.913H189.926C189.926 186.368 195.51 232.154 217.282 270.051C243.199 315.161 287.519 340.883 339.592 340.883V169.027ZM361.781 143.913C361.781 129.346 362.851 118.858 364.223 111.712C365.624 104.415 366.966 102.574 366.245 103.826C365.216 105.612 361.747 110.508 354.741 114.562C347.728 118.62 341.722 119.2 339.592 119.2V-52.6551C287.555 -52.6551 243.263 -26.972 217.332 18.0394C195.525 55.893 189.926 101.599 189.926 143.913H361.781ZM469.773 303.201H604.065V131.345H469.773V303.201ZM518.138 217.273V284.62H689.993V217.273H518.138ZM604.065 370.547H642.148V198.692H604.065V370.547ZM728.076 284.62V217.273H556.221V284.62H728.076ZM642.148 303.201H683.037V131.345H642.148V303.201ZM768.965 217.273V181.996H597.11V217.273H768.965ZM683.037 96.0687H642.148V267.924H683.037V96.0687ZM728.076 181.996V4.00872H556.221V181.996H728.076ZM642.148 -81.9189H604.065V89.9363H642.148V-81.9189ZM535.641 -47.9689L401.349 128.816L538.197 232.771L672.489 55.9863L535.641 -47.9689ZM383.845 180.794V217.273H555.7V180.794H383.845ZM518.138 97.813V181.996H689.993V97.813H518.138ZM604.065 96.0687H509.058V267.924H604.065V96.0687ZM594.986 181.996V179.591H423.131V181.996H594.986ZM576.223 233.187L607.892 193.5L473.563 86.3088L441.894 125.995L576.223 233.187ZM609.548 191.356L672.485 107.173L534.844 4.2697L471.907 88.453L609.548 191.356ZM603.664 141.649H606.47V-30.2063H603.664V141.649ZM520.683 50.8191L518.278 92.9107L689.853 102.715L692.258 60.6235L520.683 50.8191Z" fill="url(#paint0_angular)" mask="url(#path-1-inside-1)"/>
<defs>
<radialGradient id="paint0_angular" cx="0" cy="0" r="1" gradientUnits="userSpaceOnUse" gradientTransform="translate(341.519 144.114) rotate(90) scale(144.114 341.519)">
<stop stop-color="#1E2738"/>
<stop offset="1" stop-color="#84AEFF"/>
</radialGradient>
</defs>
</svg>
