<svg width="32" height="20" viewBox="0 0 32 20" fill="none" xmlns="http://www.w3.org/2000/svg">
<path d="M24.2727 8.13636L25.3693 9.15984L24.2727 8.13636ZM16 17L17.0966 18.0235L16 19.1984L14.9034 18.0235L16 17ZM9 9.5L10.0966 8.47652L10.0966 8.47652L9 9.5ZM0.903418 3.02349C0.338166 2.41786 0.370896 1.46868 0.976522 0.903426C1.58215 0.338175 2.53133 0.370905 3.09658 0.97653L0.903418 3.02349ZM28.9034 0.976519C29.4687 0.370893 30.4179 0.338162 31.0235 0.903413C31.6291 1.46866 31.6618 2.41785 31.0966 3.02347L28.9034 0.976519ZM25.3693 9.15984L17.0966 18.0235L14.9034 15.9765L23.1762 7.11288L25.3693 9.15984ZM14.9034 18.0235L7.90342 10.5235L10.0966 8.47652L17.0966 15.9765L14.9034 18.0235ZM7.90342 10.5235L0.903418 3.02349L3.09658 0.97653L10.0966 8.47652L7.90342 10.5235ZM31.0966 3.02347L25.3693 9.15984L23.1762 7.11288L28.9034 0.976519L31.0966 3.02347Z" fill="#1E2738"/>
</svg>
