<svg width="18" height="18" viewBox="0 0 18 18" fill="none" xmlns="http://www.w3.org/2000/svg">
<path d="M8.73686 17.801C9.01401 18.0708 9.45808 18.0656 9.72872 17.7893C9.99936 17.513 9.9941 17.0702 9.71695 16.8004L2.39737 9.67381L17.2986 9.67381C17.686 9.67381 18 9.36072 18 8.97451C18 8.58829 17.686 8.2752 17.2986 8.2752L2.44974 8.2752L9.71695 1.19962C9.99409 0.929786 9.99936 0.487042 9.72872 0.210724C9.45808 -0.065593 9.01401 -0.0708462 8.73686 0.19899L0.211358 8.49968C0.0762015 8.63127 -1.6515e-08 8.81166 0 9C1.65149e-08 9.18834 0.0762015 9.36873 0.211358 9.50032L8.73686 17.801Z" fill="#141414"/>
</svg>
