<?xml version="1.0" encoding="UTF-8"?>
<svg width="210px" height="301px" viewBox="0 0 210 301" version="1.1" xmlns="http://www.w3.org/2000/svg" xmlns:xlink="http://www.w3.org/1999/xlink">
    <title>Yota</title>
    <g id="Page-1" stroke="none" stroke-width="1" fill="none" fill-rule="evenodd">
        <g id="Yota" transform="translate(0.072668, 0.690000)" fill="#00AEEF" fill-rule="nonzero">
            <circle id="Oval" cx="106.567332" cy="168.2" r="23.02"></circle>
            <path d="M163.817332,24.22 L163.817332,11.31 C163.635428,5.19183695 158.623199,0.326414922 152.502332,0.326414922 C146.381466,0.326414922 141.369236,5.19183695 141.187332,11.31 L141.187332,24.22 C141.187332,43.3842808 125.651613,58.92 106.487332,58.92 C87.3230514,58.92 71.7873322,43.3842808 71.7873322,24.22 L71.7873322,11.31 C71.7873322,5.06365948 66.7236727,0 60.4773322,0 C54.2309917,0 49.1673322,5.06365948 49.1673322,11.31 L49.1673322,24.22 C49.1980993,51.5040482 68.4275513,74.9974222 95.1673322,80.42 L95.1673322,112.25 C68.4312283,117.671826 49.2028481,141.159711 49.1673322,168.44 L49.1673322,181.31 C49.1673322,187.556341 54.2309917,192.62 60.4773322,192.62 C66.7236727,192.62 71.7873322,187.556341 71.7873322,181.31 L71.7873322,168.44 C71.7873322,149.275719 87.3230514,133.74 106.487332,133.74 C125.651613,133.74 141.187332,149.275719 141.187332,168.44 L141.187332,181.31 C141.369236,187.428163 146.381466,192.293585 152.502332,192.293585 C158.623199,192.293585 163.635428,187.428163 163.817332,181.31 L163.817332,168.44 C163.777939,141.161098 144.55131,117.675353 117.817332,112.25 L117.817332,80.42 C144.554987,74.9938946 163.782687,51.5026608 163.817332,24.22 L163.817332,24.22 Z" id="Path"></path>
            <path d="M82.8173322,238.15 L81.2773322,238.15 C66.8032795,238.166532 55.0738646,249.895947 55.0573322,264.37 L55.0573322,273.75 C55.0738646,288.224053 66.8032795,299.953468 81.2773322,299.97 L82.8173322,299.97 C97.2913849,299.953468 109.0208,288.224053 109.037332,273.75 L109.037332,264.37 C109.0208,249.895947 97.2913849,238.166532 82.8173322,238.15 L82.8173322,238.15 Z M98.0373322,273.75 C98.0263142,282.151206 91.2185381,288.958982 82.8173322,288.97 L81.2773322,288.97 C72.8761264,288.958982 66.0683502,282.151206 66.0573322,273.75 L66.0573322,264.37 C66.0628481,255.966512 72.8738441,249.155516 81.2773322,249.15 L82.8173322,249.15 C91.2208203,249.155516 98.0318163,255.966512 98.0373322,264.37 L98.0373322,273.75 Z" id="Shape"></path>
            <path d="M154.507332,238.15 L118.267332,238.15 C115.229766,238.15 112.767332,240.612434 112.767332,243.65 C112.767332,246.687566 115.229766,249.15 118.267332,249.15 L130.927332,249.15 L130.927332,293.76 C130.927332,296.797566 133.389766,299.26 136.427332,299.26 C139.464898,299.26 141.927332,296.797566 141.927332,293.76 L141.927332,249.15 L154.547332,249.15 C157.584898,249.15 160.047332,246.687566 160.047332,243.65 C160.047332,240.612434 157.584898,238.15 154.547332,238.15 L154.507332,238.15 Z" id="Path"></path>
            <path d="M47.0673322,238.93 C44.4625766,237.36918 41.0860082,238.209968 39.5173322,240.81 L24.9273322,265.14 L10.2973322,240.81 C9.3165614,239.060846 7.46151693,237.984129 5.45622526,237.999916 C3.45093359,238.016054 1.61326502,239.122167 0.660464173,240.886712 C-0.292336678,242.651257 -0.20923588,244.794527 0.87733221,246.48 L19.4073322,277.31 L19.4073322,293.72 C19.4073322,296.757566 21.8697661,299.22 24.9073322,299.22 C27.9448983,299.22 30.4073322,296.757566 30.4073322,293.72 L30.4073322,277.31 L48.9273322,246.48 C50.4975646,243.881345 49.6650027,240.50186 47.0673322,238.93 Z" id="Path"></path>
            <path d="M209.487332,291.71 L189.287332,241.59 C188.44777,239.51059 186.429833,238.149126 184.187332,238.149126 C181.944831,238.149126 179.926894,239.51059 179.087332,241.59 L158.927332,291.71 C158.137687,293.543191 158.403209,295.66031 159.621104,297.241721 C160.838998,298.823132 162.81808,299.620586 164.792153,299.32535 C166.766226,299.030114 168.4254,297.688534 169.127332,295.82 L172.927332,286.31 L195.477332,286.31 L199.287332,295.78 C200.021513,297.603841 201.672931,298.897459 203.619514,299.17356 C205.566097,299.449661 207.512113,298.6663 208.724515,297.11856 C209.936917,295.57082 210.231513,293.493841 209.497332,291.67 L209.487332,291.71 Z M177.157332,275.82 L184.157332,258.37 L191.157332,275.82 L177.157332,275.82 Z" id="Shape"></path>
        </g>
    </g>
</svg>