<svg width="649" height="315" viewBox="0 0 649 315" fill="none" xmlns="http://www.w3.org/2000/svg">
<rect width="649" height="315" rx="42" fill="#00BA64"/>
<path fill-rule="evenodd" clip-rule="evenodd" d="M482 52C424.102 52 377 99.1017 377 157C377 214.898 424.102 262 482 262C539.894 262 587 214.898 587 157C587 99.1017 539.894 52 482 52Z" fill="white"/>
<path d="M543.221 88.2828C531.367 114.104 504.949 116.69 482.303 116.69C477.331 116.69 472.568 116.57 468.158 116.543L462.454 138.85C491.664 115.036 530.293 138.645 526.163 174.58C523.38 198.781 506.126 214.608 487.873 219.157C467.988 224.116 445.958 216.695 436.08 196.431C435.032 194.291 433.208 190.001 432.513 187.708L453.481 182.321C453.851 183.53 454.48 184.698 455.14 185.764C469.179 208.405 497.626 197.082 500.837 173.594C504.106 149.7 470.579 136.972 455.301 164.898L436.704 156.973L436.383 156.831L445.352 120.829C445.905 118.269 447.769 111.12 448.09 109.947C458.226 72.6744 491.017 72.0858 517.32 71.9877C506.443 67.4612 494.518 64.955 482 64.955C431.161 64.955 389.955 106.161 389.955 157C389.955 207.839 431.161 249.045 482 249.045C532.839 249.045 574.045 207.839 574.045 157C574.045 129.672 562.129 105.14 543.221 88.2828Z" fill="#EB2316"/>
<path d="M536.054 81C528.04 101.554 509.796 105.831 483.369 105.831C480.533 105.831 477.723 105.786 475.012 105.746C472.39 105.71 469.91 105.67 467.48 105.67C465.321 105.67 463.145 105.697 461 105.791C464.701 96.7021 470.61 90.5256 479.021 86.7796C490.745 81.5619 505.988 81.5084 519.438 81.4683C525.298 81.446 530.908 81.4237 536.054 81Z" fill="#008F32"/>
</svg>
