<?xml version="1.0" encoding="UTF-8"?>
<svg width="620px" height="228px" viewBox="0 0 620 228" version="1.1" xmlns="http://www.w3.org/2000/svg" xmlns:xlink="http://www.w3.org/1999/xlink">
    <title>Group 5 Copy</title>
    <g id="Page-1" stroke="none" stroke-width="1" fill="none" fill-rule="evenodd">
        <g id="Group-5-Copy" transform="translate(0.560662, 0.561015)" fill-rule="nonzero">
            <g id="Group">
                <path d="M424.691583,-5.68434189e-14 C470.855557,-5.68434189e-14 500.254496,27.9475717 500.254496,61.9366478 C500.254496,79.6470703 492.275188,93.6278746 478.09494,102.958237 C477.589866,103.296527 477.135725,103.560422 477.135725,104.130322 C477.135725,104.705837 477.642213,104.979558 478.09494,105.2238 C498.975543,115.702386 510.961482,133.377715 510.961482,156.561146 C510.961482,195.359282 477.394628,227.398625 424.691583,227.398625 C380.846418,227.398625 350.246339,205.227259 341.198879,175.438039 C341.198879,175.438039 340.877726,174.400709 340.091114,174.400709 C339.315819,174.400709 338.970615,175.446461 338.970615,175.446461 C329.92457,205.228663 299.33015,227.398625 255.483571,227.398625 C211.634162,227.398625 181.034082,205.227259 171.986622,175.435232 C171.986622,175.435232 171.658396,174.400709 170.883101,174.400709 C170.11488,174.400709 169.769677,175.435232 169.769677,175.435232 C160.727876,205.227259 130.122137,227.398625 86.2840468,227.398625 C33.5682688,227.398625 0,195.359282 0,156.561146 C0,133.377715 11.9887684,115.702386 32.8679572,105.2238 C33.3277577,104.979558 33.8328309,104.705837 33.8328309,104.130322 C33.8328309,103.560422 33.3730303,103.296527 32.8679572,102.958237 C18.6877086,93.6278746 10.7084008,79.6470703 10.7084008,61.9366478 C10.7084008,27.9475717 40.1073398,-5.68434189e-14 86.2840468,-5.68434189e-14 C132.44802,-5.68434189e-14 161.848374,27.9475717 161.848374,61.9366478 C161.848374,79.6470703 153.866237,93.6278746 139.687403,102.958237 C139.180915,103.296527 138.728188,103.560422 138.728188,104.130322 C138.728188,104.705837 139.233262,104.979558 139.687403,105.2238 C154.68256,112.749011 165.091029,123.986995 169.764017,138.308897 C169.764017,138.308897 170.039898,139.340613 170.883101,139.340613 C171.72206,139.340613 171.997941,138.308897 171.997941,138.308897 C176.669514,123.986995 187.073739,112.749011 202.074555,105.2238 C202.528696,104.979558 203.03377,104.705837 203.03377,104.130322 C203.03377,103.560422 202.581043,103.296527 202.074555,102.958237 C187.894307,93.6278746 179.907925,79.6470703 179.907925,61.9366478 C179.907925,27.9475717 209.315352,-5.68434189e-14 255.483571,-5.68434189e-14 C301.660277,-5.68434189e-14 331.053557,27.9475717 331.053557,61.9366478 C331.053557,79.6470703 323.062931,93.6278746 308.892586,102.958237 C308.394587,103.296527 307.929127,103.560422 307.929127,104.130322 C307.929127,104.705837 308.4342,104.979558 308.892586,105.2238 C323.894816,112.753222 334.303286,123.99682 338.970615,138.322934 C338.970615,138.322934 339.298842,139.340613 340.072721,139.340613 C340.848016,139.340613 341.198879,138.311704 341.198879,138.311704 C345.871867,123.986995 356.280337,112.749011 371.275494,105.2238 C371.729635,104.979558 372.234708,104.705837 372.234708,104.130322 C372.234708,103.560422 371.780567,103.296527 371.275494,102.958237 C357.102319,93.6278746 349.115937,79.6470703 349.115937,61.9366478 C349.115937,27.9475717 378.514876,-5.68434189e-14 424.691583,-5.68434189e-14 Z M255.483995,124.359956 C233.47299,124.359956 219.45261,136.572105 219.45261,153.617176 C219.45261,170.653824 233.47299,182.864569 255.483995,182.864569 C277.502074,182.864569 291.509721,170.653824 291.509721,153.617176 C291.509721,136.572105 277.502074,124.359956 255.483995,124.359956 Z M86.271031,40.35722 C67.9172078,40.35722 56.2354449,50.5424325 56.2354449,64.7450207 C56.2354449,78.9532239 67.9172078,89.134225 86.271031,89.134225 C104.631927,89.134225 116.326424,78.9532239 116.326424,64.7450207 C116.326424,50.5424325 104.631927,40.35722 86.271031,40.35722 Z M424.678992,40.35722 C406.330828,40.35722 394.643405,50.5424325 394.643405,64.7450207 C394.643405,78.9532239 406.330828,89.134225 424.678992,89.134225 C443.044132,89.134225 454.728725,78.9532239 454.728725,64.7450207 C454.728725,50.5424325 443.044132,40.35722 424.678992,40.35722 Z" id="Combined-Shape" fill="#000000" style="mix-blend-mode: hard-light;"></path>
                <path d="M568.756525,0.972520553 C596.512252,0.972520553 619.015665,23.2604698 619.015665,50.7565358 C619.015665,78.2516194 596.512252,100.544479 568.756525,100.544479 C540.99287,100.544479 518.493421,78.2516194 518.493421,50.7565358 C518.493421,23.2604698 540.99287,0.972520553 568.756525,0.972520553 Z M577.400999,34.3637852 L566.502021,34.3637852 L566.502021,51.9484214 C566.502021,62.0975211 571.222269,67.7966911 582.733571,67.7966911 C592.177037,67.7966911 598.208132,62.9971315 598.208132,62.9971315 L598.208132,62.9971315 L598.208132,34.3637852 L587.309158,34.3637852 L587.309158,56.6890546 C587.309158,56.6890546 586.048839,57.7654446 582.730597,57.7654446 C579.06854,57.7654446 577.400999,56.3217463 577.400999,52.0485965 L577.400999,52.0485965 L577.400999,34.3637852 Z M554.709331,33.8615354 C549.59573,33.8615354 537.768359,35.2482713 537.768359,50.3128193 L537.768359,50.3128193 L537.768359,66.7739244 L548.667335,66.7739244 L548.667335,50.3953164 C548.667335,45.7774465 552.155998,44.4673152 555.089805,44.4673152 C558.54478,44.4673152 560.557127,45.4828142 560.557127,45.4828142 L560.557127,45.4828142 L560.557127,34.9015873 C560.557127,34.9015873 558.304011,33.8615354 554.709331,33.8615354 Z" id="Combined-Shape" fill="#000000" style="mix-blend-mode: hard-light;"></path>
                <path d="M50.2523789,153.616754 C50.2523789,170.654807 64.2656847,182.864148 86.2837636,182.864148 C108.287695,182.864148 122.309489,170.654807 122.309489,153.616754 C122.309489,136.571684 108.287695,124.360939 86.2837636,124.360939 C64.2656847,124.360939 50.2523789,136.571684 50.2523789,153.616754" id="Fill-7" fill="#94D60A"></path>
                <path d="M225.441477,64.7450207 C225.441477,50.5424325 237.124655,40.35722 255.478477,40.35722 C273.839374,40.35722 285.526796,50.5424325 285.526796,64.7450207 C285.526796,78.9532239 273.839374,89.134225 255.478477,89.134225 C237.124655,89.134225 225.441477,78.9532239 225.441477,64.7450207 Z" id="Fill-11" fill="#E31D1A"></path>
            </g>
            <path d="M387.991375,153.430868 C387.991375,170.388681 402.0462,182.540524 424.111284,182.540524 C446.176368,182.540524 460.231194,170.388681 460.231194,153.430868 C460.231194,136.466071 446.176368,124.312831 424.111284,124.312831 C402.0462,124.312831 387.991375,136.466071 387.991375,153.430868" id="Fill-9" fill="#FFE130"></path>
        </g>
    </g>
</svg>