<?xml version="1.0" encoding="UTF-8"?>
<svg width="43px" height="49px" viewBox="0 0 43 49" version="1.1" xmlns="http://www.w3.org/2000/svg" xmlns:xlink="http://www.w3.org/1999/xlink">
    <title>shell</title>
    <g id="Page-1" stroke="none" stroke-width="1" fill="none" fill-rule="evenodd">
        <g id="shell" fill-rule="nonzero">
            <path d="M8.2530326,37.9823649 L7.27719719,30.2015723 C4.69355099,28.3929735 2.70310124,26.9043988 0.310926009,25.1900476 C-0.818510321,16.9940885 1.26767492,12.5477509 4.32969557,8.32748811 C8.13821061,3.56082807 14.2622519,0 21.5920756,0 C28.9222022,0.07515945 35.06533,3.71144522 38.682677,8.47810526 C42.0697742,12.9999006 43.8881424,18.6896499 42.5672351,25.4161224 L35.9648194,30.2015723 L34.988378,37.9823649 L24.5204907,37.9823649 C23.8697318,38.4914807 22.9896318,38.962122 21.5920756,39 C20.2142117,38.962122 19.3528953,38.4914807 18.6448769,37.9823649 L8.2530326,37.9823649 Z" id="Path" fill="#CC2229"></path>
            <path d="M21.0543624,26.7684863 C20.4979683,19.4319778 20.3445954,10.3805706 19.8841733,3.12068199 C19.0975681,2.93003714 17.9847799,2.98735126 17.0639355,3.13968615 C16.1430912,3.42565342 15.4715915,3.67331073 14.6849863,4.11161289 C16.1239575,11.0858359 17.7931398,19.9656024 19.2129773,26.8828129 C17.2753167,20.1562472 14.6849863,11.733787 12.766763,5.02622553 C11.8459187,5.21687038 10.9442079,5.73118915 10.2921457,6.26481374 C9.60151238,6.79843833 9.19849112,7.19873218 8.56525876,8.15135312 C11.3469255,14.0586286 14.6849863,21.5854803 17.4863941,27.4544458 C14.2436978,22.1188032 10.3106719,15.0875678 7.04914561,9.79023519 C6.41621696,10.3428639 5.93635742,10.7431578 5.30312507,11.8101053 C4.76586462,12.6677055 4.49738624,13.6776405 4.3822807,14.6495673 C7.95085633,18.9752748 12.2097615,24.1582808 15.7974708,28.4643808 C12.0566924,24.8819469 7.45186316,20.2705738 3.74935205,16.6881399 C3.38490177,17.4121077 3.15469068,18.0220505 3.03958513,19.2223288 C2.90534595,20.3845987 3.13555704,21.7755218 3.38490177,22.6141178 L10.6177212,27.9497604 L11.3851928,33.87604 L19.3472165,33.9330525 C19.9227442,34.6000078 20.1143844,34.9429875 21.0546661,35 C21.9560731,34.9429875 22.4745036,34.3903588 22.7047147,33.9330525 L30.6469974,33.9330525 L31.4524325,27.9877687 L38.6281547,22.6901345 C38.8963294,21.8138318 39.0688359,20.4606153 38.9734714,19.2983454 C38.8583658,18.040753 38.6281547,17.411806 38.3211054,16.7448507 C34.5994606,20.3082805 29.9754977,24.9199552 26.2729866,28.5020875 C29.8795258,24.2336941 34.1004675,19.0313823 37.7070067,14.6679681 C37.5153666,13.696343 37.2851555,12.7051105 36.709324,11.847812 C36.0378244,10.7805628 35.6539368,10.3805706 35.0401418,9.80893769 C31.7597856,15.0872661 27.769055,22.1761173 24.5266624,27.4731483 C27.4049084,21.5851786 30.666131,14.0583269 33.4866725,8.22767139 C32.8728774,7.29375295 32.4312852,6.81744248 31.8174902,6.32212786 C31.0885896,5.76949912 30.1868789,5.25518034 29.3043018,5.04553133 C27.2898029,11.733787 24.8151855,20.2325655 22.8580875,26.901817 C24.2199167,19.9846065 25.92767,11.1811583 27.2898029,4.22624113 C26.5994733,3.73062485 25.9279737,3.48296754 25.0256556,3.21630607 C23.9900093,3.02566122 22.9731931,2.98765291 22.1671505,3.12098364 C21.6301938,10.4378847 21.6104527,19.4702878 21.0543624,26.7684863 L21.0543624,26.7684863 Z" id="Path" fill="#F6D330"></path>
            <path d="M0,46.3287743 L3.66681279,46.3287743 C3.61026219,47.1322416 4.00731324,47.31884 4.19641366,47.4498434 C4.40406507,47.5243644 5.93541945,47.5988855 6.69122272,47.4681779 C6.99372356,47.4122871 7.27707498,47.3002098 7.27707498,46.3846651 C7.27707498,45.9925423 7.18252477,45.5628633 6.72892312,45.4691205 C5.12216795,45.3387086 3.55341238,45.5066768 1.94695641,45.3570432 C0.340201236,45.0024766 0.0948494211,44.5911321 0,43.3396512 C0.113400412,41.6023047 0.737252282,41.0981046 2.53280867,41.0419181 C4.40363783,40.9860273 6.27574872,40.9860273 8.14657788,41.0419181 C10.0555347,41.0419181 10.6413869,41.7708643 10.6413869,43.3585772 L7.27707498,43.3585772 C7.27707498,42.5737402 7.12597417,42.2750644 6.72892312,42.2375082 C5.91086311,42.1816154 5.08987448,42.1816154 4.27181446,42.2375082 C3.96931363,42.2375082 3.57256179,42.3871418 3.57256179,43.0968663 C3.57256179,43.7690345 3.7425128,43.9372984 4.19641366,43.9937806 C5.5760688,44.0493757 6.97487336,44.0683017 8.3356783,44.1611573 C10.6036865,44.2921607 10.6793866,45.2822264 10.7547874,46.3281829 C10.7924878,47.8230402 10.2443359,48.3455748 9.84758406,48.5889512 C9.46968242,48.7569194 7.63612642,48.9627395 7.27707498,48.9627395 L3.6482618,48.9627395 C2.83530951,48.9627395 1.8147058,48.8692924 0.926352705,48.6075815 C0.0945502115,48.3837225 0,47.2815795 0,46.3287743 L0,46.3287743 Z M34.4569695,49 L37.6698814,49 L37.6698814,41.07977 L34.4569695,41.07977 L34.4569695,49 L34.4569695,49 Z M39.8244893,49 L43,49 L43,41.07977 L39.8244893,41.07977 L39.8244893,49 L39.8244893,49 Z M32.5857131,44.852843 C32.5272197,44.6051067 32.4512338,44.3617257 32.3583138,44.1244882 C31.810162,43.2464999 29.9203546,43.2464999 28.0870978,43.2089436 C26.7074427,43.2089436 24.647385,43.2464999 24.0423834,43.8252211 C23.7964331,44.086932 23.6641825,44.4604245 23.5887817,44.852843 C23.4942315,45.3200783 23.5127825,45.8053525 23.5127825,46.0298029 C23.5127825,46.4405559 23.5507821,48.0282688 24.3257348,48.4393176 C25.0438377,48.9065529 27.2172957,48.9627395 28.048799,48.9627395 C28.9371521,48.9627395 31.39456,48.8692924 31.7539106,48.4579479 C32.3960143,48.2337932 32.5474143,47.4495476 32.6796649,46.8332702 L29.5233036,46.8332702 C29.5233036,47.4495476 29.0317023,47.8233359 28.048799,47.7665579 C27.1604459,47.8230402 26.6502936,47.6175158 26.6502936,46.5156684 L32.6793657,46.534003 C32.6796649,45.9925423 32.6991135,45.4132297 32.5857131,44.852843 L32.5857131,44.852843 Z M29.5233036,45.3945994 L26.6502936,45.3945994 C26.6502936,45.1704448 26.6882933,44.9832549 26.7448439,44.852843 C26.9521961,44.3486429 27.4817969,44.3300126 28.0484998,44.2924564 C28.9180027,44.2924564 29.2962035,44.4979808 29.4476035,44.852843 C29.5233036,45.0024766 29.5421538,45.189075 29.5233036,45.3945994 Z M12.644894,49 L15.7824051,49 L15.7824051,45.6373844 C15.8581051,45.1707405 15.9715055,44.7969522 17.1243598,44.7969522 C18.2203643,44.7786177 18.5228652,45.0769977 18.5228652,45.6373844 L18.5228652,49 L21.6603763,49 L21.6603763,45.6373844 C21.6603763,44.5352413 21.6418253,43.9375941 20.9234232,43.6205838 C20.2807212,43.2092393 19.3543685,43.2654258 18.4851648,43.2654258 C17.5779615,43.2654258 16.5573578,43.3775032 15.7824051,43.7512914 L15.7824051,41.0800658 L12.644894,41.0800658 L12.644894,49 L12.644894,49 Z" id="Shape" fill="#CC2229"></path>
        </g>
    </g>
</svg>