<svg xmlns="http://www.w3.org/2000/svg" viewBox="0 0 300.61 92.01"><defs><style>.cls-1{fill:#232886;}.cls-1,.cls-2{fill-rule:evenodd;}.cls-2{fill:#fff;}</style></defs><title>Asset 1</title><g id="Layer_2" data-name="Layer 2"><g id="Слой_1" data-name="Слой 1"><polygon class="cls-1" points="94.98 76.6 84.11 76.6 89.06 67.86 76.75 45.93 87.78 45.93 94.18 58.96 100.58 45.93 111.45 45.93 94.98 76.6 94.98 76.6"/><path class="cls-1" d="M232.33,76.6H218.74c-7.51,0-13.43-6.2-13.43-14.94,0-9.85,5.92-15.73,13.43-15.73h13.59v7.62h-8.79c-5.28,0-8.32,1.59-8.32,8,0,6.2,3,7.47,8.32,7.47h8.79V76.6Z"/><polygon class="cls-1" points="267.99 76.6 257.92 76.6 257.92 54.98 246.4 76.6 234.41 76.6 234.41 45.93 244.33 45.93 244.33 66.9 255.84 45.93 267.99 45.93 267.99 76.6 267.99 76.6"/><polygon class="cls-1" points="138.31 76.6 151.26 45.93 162.46 45.93 173.17 71.35 183.88 45.93 194.92 45.93 207.87 76.6 197.31 76.6 189.48 54.51 181.49 76.6 175.25 76.6 170.93 76.6 164.86 76.6 162.46 70.24 151.26 70.24 148.87 76.6 138.31 76.6 138.31 76.6"/><polygon class="cls-2" points="156.86 54.51 153.66 63.25 160.06 63.25 156.86 54.51 156.86 54.51"/><path class="cls-1" d="M122.16,76.6h-9.91V45.93h20.63c10.39,0,10.39,8.58,10.39,10.49s0,11.28-10.39,11.28H122.16v8.9Z"/><path class="cls-2" d="M122.16,60.07h7.2c1.12,0,4,0,4-3.34,0-3.18-2.88-3.18-4-3.18h-7.2v6.52Z"/><path class="cls-1" d="M299.17,45.93v7.62H280v4h10.08c10.55,0,10.55,6,10.55,9.37,0,3.5,0,9.7-10.39,9.7H269.91V45.93Z"/><path class="cls-2" d="M280,64.68v4.77h8.48c2.24,0,2.24-1.75,2.24-2.55,0-.63,0-2.22-2.24-2.22Z"/><path class="cls-1" d="M32,30.67a5.09,5.09,0,0,1,2.24.32l-.16-20.82h2.56s-.32,5.72.8,21.29a30.38,30.38,0,0,1,9.91,55.47c-.16-.16-.48-.64-.8-1h0c-9.11-11.6-11.35-28.92-12-44a32,32,0,0,0,3.84.64A64.4,64.4,0,0,0,54.85,76.91a20.44,20.44,0,0,0-1.28-27.33,30.45,30.45,0,0,0-14.71-8.74,34,34,0,0,0-8.16-1,35.91,35.91,0,0,0-8.15,1C10.71,43.86,1.92,53.08,1.92,64A22,22,0,0,0,6.4,76.91,63.33,63.33,0,0,0,22.86,42.59c1.29-.16,2.56-.32,4-.64-.64,15.1-2.88,32.26-12,43.86v-.15a9.33,9.33,0,0,1-1,1.27A30.53,30.53,0,0,1,24.15,31.46c.79-15.57.63-21.29.63-21.29h2.56L27.18,31a4.73,4.73,0,0,1,2.08-.32V0H32V30.67Zm.16,11.12c.32,14.47,1.28,32.58,6.08,44.82a42.38,42.38,0,0,0,1.92,4A37.44,37.44,0,0,1,30.7,92a35.27,35.27,0,0,1-9.43-1.43c.8-1.59,1.43-3,2.08-4.45,4.47-12.08,5.75-30,5.91-44.34h2.88Z"/></g></g></svg>