<svg xmlns="http://www.w3.org/2000/svg" viewBox="0 0 344.84 129.8"><defs><style>.cls-1{fill:#141414;}</style></defs><title>Asset 9</title><g id="Layer_2" data-name="Layer 2"><g id="Layer_1-2" data-name="Layer 1"><polygon class="cls-1" points="15.72 65.6 15.72 129.8 34.07 129.8 34.07 64.33 15.72 65.6"/><polygon class="cls-1" points="57.6 129.8 77.02 129.8 77.02 34.8 57.6 37.57 57.6 129.8"/><polygon class="cls-1" points="115.95 129.8 138.46 129.8 138.46 26.03 115.95 29.24 115.95 129.8"/><polygon class="cls-1" points="182.07 129.8 207.49 129.8 207.49 16.18 182.07 19.8 182.07 129.8"/><polygon class="cls-1" points="0 63.43 50.83 57.89 50.83 38.53 0 45.79 0 63.43"/><polygon class="cls-1" points="250.29 10.06 211.72 15.57 211.72 40.34 250.29 36.13 250.29 10.06"/><polygon class="cls-1" points="108.95 30.24 80.19 34.34 80.19 54.69 108.95 51.55 108.95 30.24"/><polygon class="cls-1" points="80.19 129.8 108.95 129.8 108.95 107.53 80.19 108.32 80.19 129.8"/><polygon class="cls-1" points="142.78 129.8 174.65 129.8 174.65 105.72 142.78 106.6 142.78 129.8"/><polygon class="cls-1" points="211.72 129.8 250.29 129.8 250.29 103.63 211.72 104.7 211.72 129.8"/><polygon class="cls-1" points="258.07 129.8 344.84 129.8 344.84 101.03 258.07 103.42 258.07 129.8"/><polygon class="cls-1" points="99.01 70.31 80.19 71.91 80.19 92.41 99.01 91.39 99.01 70.31"/><polygon class="cls-1" points="236.66 58.6 211.72 60.72 211.72 85.3 236.66 83.96 236.66 58.6"/><path class="cls-1" d="M294.78,29V1c-15.39,3-36.55,14.22-35.53,54.71l26.35-2.86C285.6,36.54,290.55,30.94,294.78,29Z"/><path class="cls-1" d="M343.25,31.91C340.9.15,312.39-.58,301.46.15L300,.27v27.8c3.9,0,12.71.48,12.71,11.84,0,17.89-48.47,58.36-48.47,58.36l41.65-.94S345.6,63.68,343.25,31.91Z"/></g></g></svg>