<svg width="222" height="51" viewBox="0 0 222 51" fill="none" xmlns="http://www.w3.org/2000/svg">
<path d="M50.9599 25.492C50.861 39.8024 39.4972 50.9824 25.1549 50.8795C11.1057 50.7788 -0.103172 39.3731 0.000221282 25.2831C0.104443 11.0809 11.514 -0.128093 25.7343 0.0011484C39.7547 0.128567 51.0563 11.549 50.9599 25.492ZM29.3443 29.9005C29.288 29.8929 29.2316 29.8852 29.1753 29.8776C29.1753 29.4364 29.1909 28.9943 29.1728 28.5537C29.032 25.1141 26.8534 22.7496 23.4312 22.4486C20.5789 22.1975 17.7611 22.5471 14.9955 23.2654C13.6532 23.614 12.5388 24.3699 11.621 25.4072C10.3395 26.8554 10.2487 28.4208 11.3503 30.0118C12.1728 31.2 13.3008 31.9761 14.7056 32.2557C17.2433 32.7607 18.7198 34.276 19.2542 36.7755C19.5688 38.2477 20.3811 39.3971 21.611 40.2466C23.0269 41.2247 24.4411 41.2159 25.8309 40.1994C27.2527 39.1595 28.1361 37.7226 28.457 36.0232C28.8393 33.9989 29.0558 31.9428 29.3443 29.9005ZM36.8255 26.1765C38.0636 26.0773 39.3515 25.1847 40.5136 24.1895C42.0343 22.8871 42.1526 20.8332 40.9747 19.2704C39.7981 17.7095 37.8414 17.2955 36.1127 18.259C35.4872 18.6076 34.8566 18.9579 34.2753 19.3733C32.9259 20.3378 32.3702 21.9757 32.8371 23.4614C33.3239 25.01 34.8566 26.1677 36.8255 26.1765ZM33.8286 13.5871C33.8237 11.9957 32.7758 10.5799 31.206 10.043C29.7514 9.54546 28.1052 10.0316 27.1551 11.3273C26.6203 12.0566 26.1351 12.8393 25.7461 13.6545C25.0893 15.0309 25.3252 16.3651 26.2939 17.5092C27.2514 18.6404 28.4966 19.1544 29.9883 18.7917C31.8511 18.3387 33.8351 15.623 33.8286 13.5871ZM18.797 19.427C18.8249 19.4896 18.8527 19.5521 18.8806 19.6147C19.6164 19.2838 20.4016 19.0313 21.0768 18.6043C22.148 17.9269 22.5026 16.7354 22.8449 15.6094C23.3379 13.9887 22.5641 12.2859 21.0344 11.3797C19.6207 10.5423 17.8468 10.786 16.6233 11.9697C15.8169 12.75 15.4407 13.7581 15.1735 14.7968C14.5763 17.1185 16.4021 19.4225 18.797 19.427ZM36.3558 36.5218C36.8356 36.3476 37.766 36.1001 38.6119 35.682C39.95 35.0206 40.7092 33.8597 40.7132 32.3721C40.7172 30.8807 39.9341 29.7553 38.6202 29.0495C36.9821 28.1695 34.3121 28.8359 33.0207 30.429C32.0478 31.6293 31.8014 32.9547 32.5221 34.3547C33.2151 35.7004 34.3121 36.4855 36.3558 36.5218Z" fill="#00AC6D"/>
<path d="M129.772 18.9256C129.772 19.6389 129.772 20.2322 129.772 20.9499C128.805 21.1505 127.826 21.3538 126.721 21.5831C126.852 21.9203 126.94 22.1937 127.062 22.4504C127.658 23.7017 127.708 25.0259 127.456 26.3417C126.987 28.8013 125.044 30.5419 122.392 30.8773C121.143 31.0352 119.875 31.0388 118.615 31.1124C118.602 31.0567 118.588 31.001 118.574 30.9454C118.336 31.1253 118.076 31.2835 117.862 31.4895C117.362 31.971 116.995 32.538 117.266 33.2574C117.521 33.9355 118.125 34.1577 118.798 34.1805C120.588 34.2413 122.381 34.2574 124.17 34.3505C124.932 34.3903 125.71 34.4998 126.442 34.7127C128.293 35.2514 129.432 36.7561 129.543 38.6771C129.741 42.0691 128.19 44.2723 124.736 45.2373C121.773 46.0651 118.737 46.1513 115.738 45.4524C113.895 45.0229 112.349 44.0877 111.859 42.0361C111.282 39.6194 112.303 37.6139 114.593 36.6837C114.892 36.5625 115.194 36.453 115.675 36.2693C114.641 35.3657 113.882 34.4584 114.052 33.1025C114.217 31.7763 115.3 31.1634 116.216 30.3018C115.942 30.1028 115.73 29.9452 115.514 29.7931C114.068 28.7721 113.271 27.3798 113.202 25.6103C113.172 24.8422 113.148 24.0497 113.297 23.3029C113.809 20.7258 115.757 19.1115 118.519 18.7458C120.045 18.5437 121.533 18.6489 123.04 18.8737C123.771 18.9827 124.528 18.9213 125.273 18.9241C126.734 18.9292 128.194 18.9256 129.772 18.9256ZM120.523 37.3519C119.662 37.4175 118.751 37.4419 117.854 37.5655C116.274 37.783 115.078 39.0319 115.01 40.4552C114.951 41.6964 115.975 42.8147 117.602 43.1181C119.545 43.4803 121.506 43.4584 123.395 42.8392C124.102 42.6074 124.79 42.169 125.349 41.6704C126.121 40.9816 126.366 40.0428 126.006 39.0261C125.64 37.9903 124.746 37.6803 123.788 37.5706C122.722 37.4488 121.646 37.423 120.523 37.3519ZM124.033 24.9075C123.961 24.4468 123.918 23.9789 123.81 23.5267C123.422 21.9086 122.262 20.9653 120.499 20.9785C118.502 20.9934 117.42 21.7816 116.983 23.3738C116.791 24.075 116.732 24.8523 116.801 25.5772C116.925 26.8898 117.544 27.9407 118.85 28.4401C121.618 29.498 123.973 27.8759 124.033 24.9075Z" fill="#00AC6D"/>
<path d="M204.399 28.1557C204.418 26.1009 204.727 24.1411 205.808 22.3524C207.047 20.3028 208.904 19.1839 211.214 18.7763C212.66 18.5209 214.108 18.5302 215.559 18.8619C218.554 19.5468 220.465 21.4067 221.377 24.274C222.209 26.8875 222.198 29.5552 221.403 32.1778C220.516 35.1061 218.593 36.9688 215.544 37.6197C213.579 38.039 211.646 37.986 209.77 37.2807C206.877 36.1922 205.308 33.9704 204.706 31.0234C204.515 30.0859 204.497 29.1128 204.399 28.1557ZM218.115 28.416C218.1 26.7785 217.952 25.2987 217.234 23.9476C216.347 22.2784 214.844 21.6083 213.047 21.6555C211.175 21.7049 209.659 22.4744 208.982 24.3496C208.675 25.1974 208.43 26.0935 208.335 26.9867C208.138 28.8429 208.257 30.6831 209.106 32.4036C209.965 34.1426 211.463 34.8421 213.299 34.8174C215.11 34.7931 216.545 34.0261 217.343 32.3088C217.937 31.032 218.084 29.667 218.115 28.416Z" fill="#00AC6D"/>
<path d="M157.478 22.6976C157.135 21.9333 156.768 21.1151 156.375 20.239C157.385 19.5773 158.441 19.307 159.507 19.057C161.374 18.619 163.253 18.4767 165.158 18.7756C168.268 19.2638 169.975 21.0622 170.062 24.3535C170.173 28.6 170.09 32.8515 170.087 37.1009C170.087 37.2056 170.041 37.3101 170.002 37.4777C169.182 37.4777 168.37 37.4777 167.466 37.4777C167.199 36.6987 166.919 35.8834 166.587 34.9184C166.279 35.1874 166.056 35.3329 165.895 35.5291C164.145 37.6657 161.779 38.0299 159.236 37.8125C158.588 37.757 157.924 37.5834 157.322 37.3333C155.845 36.7206 154.878 35.6032 154.637 34.0138C154.487 33.0183 154.399 31.9634 154.559 30.9803C154.969 28.4659 156.834 27.3198 159.095 26.896C161.006 26.5377 162.979 26.5074 164.924 26.3344C165.38 26.2938 165.836 26.2632 166.251 26.231C167.014 23.1654 164.932 20.9399 161.906 21.5213C160.458 21.7997 159.048 22.2738 157.478 22.6976ZM166.149 28.6213C165.363 28.6213 164.539 28.5632 163.727 28.6344C162.36 28.7542 160.973 28.8447 159.758 29.6112C158.603 30.3399 158.068 31.7152 158.426 33.0634C158.74 34.2455 159.652 34.975 161.084 34.9823C161.92 34.9866 162.799 34.8741 163.586 34.6044C165.938 33.7994 166.833 31.0718 166.149 28.6213Z" fill="#00AC6D"/>
<path d="M200.972 28.9869C196.706 28.9869 192.618 28.9869 188.374 28.9869C188.429 29.6085 188.433 30.062 188.513 30.5021C189.015 33.2788 190.887 34.8151 193.691 34.8662C195.619 34.9013 197.473 34.6155 199.26 33.8874C199.432 33.8172 199.62 33.7857 199.888 33.7123C199.888 34.7013 199.888 35.6211 199.888 36.6285C199.007 37.1821 197.972 37.4333 196.915 37.6051C194.973 37.9206 193.035 38.0286 191.088 37.588C187.592 36.7972 185.513 34.6302 184.789 31.1546C184.231 28.4759 184.363 25.8241 185.446 23.2901C186.575 20.646 188.606 19.1464 191.474 18.7291C192.754 18.5428 193.996 18.5839 195.24 18.883C198.277 19.6134 200.355 21.8796 200.734 24.9742C200.889 26.2453 200.891 27.5352 200.972 28.9869ZM197.041 26.2625C197.39 24.877 196.658 23.0679 195.456 22.171C194.254 21.2736 192.106 21.1916 190.751 21.9916C189.379 22.802 188.389 24.7111 188.605 26.2625C191.395 26.2625 194.2 26.2625 197.041 26.2625Z" fill="#00AC6D"/>
<path d="M146.051 18.9592C147.307 18.9592 148.432 18.9592 149.643 18.9592C149.643 25.1205 149.643 31.2522 149.643 37.4656C148.738 37.4656 147.822 37.4656 146.83 37.4656C146.634 36.7127 146.437 35.9531 146.203 35.0498C145.943 35.2388 145.753 35.3275 145.632 35.4736C143.884 37.5842 141.536 38.0836 138.99 37.8034C137.923 37.686 136.818 37.3435 135.871 36.8381C134.145 35.9167 133.523 34.18 133.48 32.3746C133.378 28.045 133.443 23.7115 133.443 19.3796C133.443 19.2742 133.485 19.1688 133.521 18.9966C134.694 18.9966 135.86 18.9966 137.111 18.9966C137.134 19.3333 137.173 19.653 137.174 19.9728C137.178 23.339 137.176 26.7052 137.175 30.0716C137.175 30.2923 137.17 30.5132 137.177 30.7338C137.246 33.1381 138.306 34.5815 140.345 34.8017C142.722 35.0585 144.731 34.24 145.461 31.8736C145.79 30.809 145.948 29.6577 145.976 28.5406C146.046 25.7003 145.997 22.8572 146.001 20.0152C146.001 19.6924 146.031 19.3693 146.051 18.9592Z" fill="#00AC6D"/>
<path d="M95.9149 37.4971C94.6165 37.4971 93.4711 37.4971 92.2554 37.4971C92.2554 31.3251 92.2554 25.192 92.2554 18.9919C93.1804 18.9919 94.0729 18.9919 95.0319 18.9919C95.2538 19.7666 95.4763 20.5429 95.7305 21.4305C95.984 21.2365 96.151 21.1512 96.2609 21.0185C98.0293 18.8817 100.395 18.4678 102.978 18.6812C103.306 18.7083 103.637 18.7489 103.958 18.8199C106.737 19.4321 108.304 21.1769 108.408 24.3033C108.551 28.5758 108.455 32.856 108.457 37.133C108.457 37.2361 108.406 37.3392 108.367 37.4906C107.203 37.4906 106.058 37.4906 104.818 37.4906C104.79 37.1353 104.738 36.7904 104.737 36.4452C104.731 33.0787 104.741 29.7121 104.727 26.3455C104.725 25.7696 104.691 25.1835 104.58 24.6198C104.144 22.395 102.716 21.5018 100.492 21.6787C97.8181 21.8915 96.4998 23.2422 96.1068 25.9097C95.9906 26.6981 95.932 27.5014 95.9253 28.2984C95.903 31.0025 95.9156 33.7068 95.9149 36.4111C95.9147 36.7375 95.9149 37.0639 95.9149 37.4971Z" fill="#00AC6D"/>
<path d="M67.7379 34.2647C71.3532 34.2647 74.7578 34.2647 78.2309 34.2647C78.2309 35.4048 78.2309 36.4058 78.2309 37.4772C73.5057 37.4772 68.8106 37.4772 64.0454 37.4772C64.0454 29.3186 64.0454 21.1997 64.0454 13.0072C65.2535 13.0072 66.4196 13.0072 67.7379 13.0072C67.7379 20.0462 67.7379 27.059 67.7379 34.2647Z" fill="#00AC6D"/>
<path d="M175.927 11.3734C177.153 11.3734 178.296 11.3734 179.501 11.3734C179.501 20.0816 179.501 28.7297 179.501 37.4631C178.332 37.4631 177.168 37.4631 175.927 37.4631C175.927 28.7953 175.927 20.1267 175.927 11.3734Z" fill="#00AC6D"/>
<path d="M86.0433 37.4937C84.8203 37.4937 83.6754 37.4937 82.4678 37.4937C82.4678 31.3057 82.4678 25.1716 82.4678 18.9816C83.6707 18.9816 84.8153 18.9816 86.0433 18.9816C86.0433 25.1386 86.0433 31.2713 86.0433 37.4937Z" fill="#00AC6D"/>
<path d="M86.329 13.8504C86.3256 15.3322 85.6782 15.985 84.2232 15.9734C82.867 15.9626 82.1848 15.2424 82.1959 13.8333C82.207 12.4274 82.8839 11.7552 84.285 11.7583C85.7022 11.7616 86.3324 12.4065 86.329 13.8504Z" fill="#00AC6D"/>
</svg>
