<?xml version="1.0" encoding="utf-8"?>
<!-- Generator: Adobe Illustrator 24.0.3, SVG Export Plug-In . SVG Version: 6.00 Build 0)  -->
<svg version="1.1" id="Layer_1" xmlns="http://www.w3.org/2000/svg" xmlns:xlink="http://www.w3.org/1999/xlink" x="0px" y="0px"
	 viewBox="0 0 101 102.4" style="enable-background:new 0 0 101 102.4;" xml:space="preserve">
<style type="text/css">
	.st0{fill:#209F38;}
	.st1{fill:url(#SVGID_1_);}
	.st2{fill:url(#SVGID_2_);}
	.st3{fill:url(#SVGID_3_);}
	.st4{fill:url(#SVGID_4_);}
	.st5{fill:url(#SVGID_5_);}
	.st6{fill:url(#SVGID_6_);}
</style>
<title>Asset 16</title>
<g id="Layer_2_1_">
	<g id="Layer_1-2">
		<path class="st0" d="M90.5,19.9c2.4,3.1,4.4,6.6,6.1,10.2l-46,34.4L31.3,52.3V37.5l19.2,12.2L90.5,19.9z"/>
		
			<linearGradient id="SVGID_1_" gradientUnits="userSpaceOnUse" x1="17.2724" y1="1612.9882" x2="4.2232" y2="1575.7471" gradientTransform="matrix(1 0 0 1 0 -1527.1398)">
			<stop  offset="0.14" style="stop-color:#EEE320"/>
			<stop  offset="0.3" style="stop-color:#E2DF24"/>
			<stop  offset="0.58" style="stop-color:#C6D32F"/>
			<stop  offset="0.89" style="stop-color:#A1C63E"/>
		</linearGradient>
		<path class="st1" d="M11.7,51.2c0-0.7,0-1.4,0-2L0.1,48.7c0,0.8,0,1.7,0,2.6c0,13.5,5.3,26.5,14.7,36.1l8.3-8.4
			C15.7,71.6,11.6,61.6,11.7,51.2z"/>
		
			<linearGradient id="SVGID_2_" gradientUnits="userSpaceOnUse" x1="18.0944" y1="1544.1407" x2="51.0353" y2="1531.7542" gradientTransform="matrix(1 0 0 1 0 -1527.1398)">
			<stop  offset="6.000000e-02" style="stop-color:#18A6DE"/>
			<stop  offset="0.54" style="stop-color:#3E8DCC"/>
			<stop  offset="0.92" style="stop-color:#3488C8"/>
		</linearGradient>
		<path class="st2" d="M50.5,11.8c0.6,0,1.4,0,1.9,0L53,0.1C52.2,0,51.4,0,50.5,0C37.1,0,24.2,5.4,14.8,15l8.3,8.4
			C30.3,16,40.2,11.8,50.5,11.8z"/>
		
			<linearGradient id="SVGID_3_" gradientUnits="userSpaceOnUse" x1="47.1843" y1="1622.2487" x2="84.3577" y2="1613.9594" gradientTransform="matrix(1 0 0 1 0 -1527.1398)">
			<stop  offset="0.12" style="stop-color:#A1C63E"/>
			<stop  offset="0.28" style="stop-color:#86BD3E"/>
			<stop  offset="0.87" style="stop-color:#1E9E38"/>
		</linearGradient>
		<path class="st3" d="M50.5,90.6c-0.6,0-1.4,0-1.9,0L48,102.4c0.8,0,1.7,0,2.5,0c13.4,0,26.3-5.4,35.7-15L77.9,79
			c-3.6,3.7-7.9,6.6-12.6,8.5C60.7,89.5,55.6,90.6,50.5,90.6z"/>
		
			<linearGradient id="SVGID_4_" gradientUnits="userSpaceOnUse" x1="48.0202" y1="1531.2587" x2="79.8252" y2="1540.9409" gradientTransform="matrix(1 0 0 1 0 -1527.1398)">
			<stop  offset="6.000000e-02" style="stop-color:#3488C8"/>
			<stop  offset="0.79" style="stop-color:#1288C9"/>
		</linearGradient>
		<path class="st4" d="M72.4,18.7l9.8-7.3C73.3,4,62.1,0,50.5,0v11.8C58.3,11.8,66,14.2,72.4,18.7z"/>
		<path class="st0" d="M101,51.2c0-3.1-0.3-6.1-0.8-9.2l-10.8,8.1v1.1c0,5.5-1.1,10.9-3.3,16c-2.2,5-5.4,9.5-9.5,13.2l7.8,8.8
			c5.2-4.8,9.4-10.7,12.2-17.2C99.5,65.4,101,58.3,101,51.2z"/>
		
			<linearGradient id="SVGID_5_" gradientUnits="userSpaceOnUse" x1="15.9315" y1="1611.3491" x2="50.5897" y2="1624.1279" gradientTransform="matrix(1 0 0 1 0 -1527.1398)">
			<stop  offset="0.13" style="stop-color:#EEE320"/>
			<stop  offset="0.3" style="stop-color:#E7E022"/>
			<stop  offset="0.53" style="stop-color:#D5D92A"/>
			<stop  offset="0.8" style="stop-color:#B8CE34"/>
			<stop  offset="0.98" style="stop-color:#A1C63E"/>
		</linearGradient>
		<path class="st5" d="M50.5,90.6c-5.4,0-10.8-1.1-15.8-3.4c-5-2.2-9.4-5.5-13-9.6L13,85.5c4.7,5.3,10.5,9.5,17,12.5
			c6.4,2.9,13.4,4.4,20.5,4.4V90.6z"/>
		
			<linearGradient id="SVGID_6_" gradientUnits="userSpaceOnUse" x1="4.1202" y1="1579.6595" x2="18.3188" y2="1543.23" gradientTransform="matrix(1 0 0 1 0 -1527.1398)">
			<stop  offset="7.000000e-02" style="stop-color:#A1C63E"/>
			<stop  offset="0.26" style="stop-color:#81BD60"/>
			<stop  offset="0.92" style="stop-color:#18A6DE"/>
		</linearGradient>
		<path class="st6" d="M24.5,22l-7.8-8.8C6,23,0,36.8,0,51.2h11.7c0-5.5,1.1-11,3.3-16C17.2,30.2,20.4,25.7,24.5,22z"/>
	</g>
</g>
</svg>
