<svg xmlns="http://www.w3.org/2000/svg" viewBox="0 0 377.75 115.98"><defs><style>.cls-1{fill:#fefefe;}.cls-2{fill:#00985f;}.cls-3{fill:#dc000f;}</style></defs><title>Слой_1</title><g id="Layer_2" data-name="Layer 2"><g id="Layer_1-2" data-name="Layer 1"><g id="Слой_1"><g id="_2853363558880" data-name=" 2853363558880"><path class="cls-1" d="M93,30.32a2.33,2.33,0,1,0,3.29,0A2.16,2.16,0,0,0,93,30.32Z"/><path class="cls-2" d="M116.23,28.8H106.12l-2.52,3c-.51.5-.26.76.25,1l3.28,1.51,9.35-4.29A.65.65,0,0,0,116.23,28.8ZM78.58,78.33H66.2a44.6,44.6,0,0,1-8.59,4.29.48.48,0,0,0-.25.76l11.11,31.08h6.32L64.68,85.91c6.57,0,22.49-1.77,31.08-15.67C93,74.29,86.67,78.33,78.58,78.33ZM96.27,33.61A2.33,2.33,0,0,1,93,30.32a2.16,2.16,0,0,1,3.29,0,4.89,4.89,0,0,0-7.08,0,5.13,5.13,0,0,0,0,7.08,4.89,4.89,0,0,0,7.08,0,5.12,5.12,0,0,0,0-7.08A2.66,2.66,0,0,1,96.27,33.61ZM71.76,90.21l8.59,24.25h6.32l-9.1-25.52C76.06,89.45,74,89.7,71.76,90.21Zm8.59-30.33a37.69,37.69,0,0,0,2-3.28c-.25-.25-.5,0-.76.25C68.73,70.5,56.35,72.27,46.74,72.27H32.09c-.51,0-.76-.51-.51-1a206.7,206.7,0,0,1,33.1-35.88L40.18,55.84a11.68,11.68,0,0,1-7.33,2.53H2c-.76,0-.5.76-.5,1.26,2,6.57,8.08,12.64,18.19,12.64l-7.33,7.32a.61.61,0,0,0,.51,1H40.43C60.14,80.6,72.52,72,80.35,59.88Z"/><path class="cls-3" d="M355.26,114.46h22.49V45H355.26V70.5H334V45H311.55v69.48H334V88.18h21.22ZM89.19,37.4a5,5,0,1,1,7.08-7.08,5.12,5.12,0,0,1,0,7.08A4.89,4.89,0,0,1,89.19,37.4Zm6.32,32.84c8.59-13.89,11.62-35.88,11.62-35.88l-3.28-1.51c-.51-.25-.51-.51-.25-1l2.52-3c-1.51-3-7.07-8.08-15.16-8.08a22.66,22.66,0,0,0-12.88,3.79,160.89,160.89,0,0,0-13.4,10.61A216.39,216.39,0,0,0,31.58,71c-.25.51,0,1,.51,1H46.74c9.61,0,22-1.77,34.87-15.41a1,1,0,0,1,.76-.25.92.92,0,0,1,.25.75c-2,5.06-7.07,14.91-16.42,21H78.58c8.34,0,14.4-3.79,16.93-7.84ZM82.88,86.92l9.6,27.29h27.29c-5.56-16.93-11.63-32.6-17.44-47C97.79,77.07,93.49,81.87,82.88,86.92ZM0,114.46H27.54L36.89,85.4H10.11C6.82,94,3.54,103.6,0,114.46ZM37.14,52.05,51,40.68c3-8.08,6.06-16.17,9.1-23,1.51,3.53,3,7.32,4.54,11.11,7.59-6.31,12.39-10.1,18.7-11.87C79.59,8.59,76.81,2.53,75.55,0H44.72c-2.52,5.56-12.38,26-24,53.57H31.84C34.11,53.57,35.88,53.31,37.14,52.05Zm170.31,54.58,1.51,7.58h18.2V45H204.67V93.24c-2,2.27-5.81,4.8-9.35,4.8-6.32,0-9.6-3.54-9.6-10.11V45H163.23V93.24c-2,2.27-6.32,4.8-10.11,4.8-5.81,0-9.1-3.54-9.1-10.11V45H121.54V91c0,16.68,7.32,25,22.48,25,10.87,0,17.44-4,22.49-9.35,3.54,6.32,9.86,9.35,19.21,9.35C196.58,115.73,202.65,111.94,207.45,106.63ZM279,93a13.77,13.77,0,0,1-10.86,4.81c-6.07,0-9.35-5.56-9.35-16.43,0-13.39,3.54-20,10.86-20a32.93,32.93,0,0,1,9.35,1V93Zm-18.69,22.75H261c10.11,0,16.93-3.54,20.72-9.1l1.27,7.58h18.44V47.76c-7.33-2.28-15.92-4.3-31.58-4.3-22.49,0-34.62,13.64-34.62,38.91,0,23.25,8.59,33.36,25,33.36Z"/></g></g></g></g></svg>