<svg xmlns="http://www.w3.org/2000/svg" viewBox="0 0 209.22 141.89"><defs><style>.cls-1{fill:#c74a1b;}.cls-2{fill:#f47920;}.cls-3{fill:#00ab4e;}</style></defs><title>Asset 10</title><g id="Layer_2" data-name="Layer 2"><g id="Layer_1-2" data-name="Layer 1"><path class="cls-1" d="M59,31.24a5.58,5.58,0,0,0-4.91-2.33c-1.9.09-3.78.2-5.68.31a.88.88,0,0,0-.79.71c-4.2,23.38-7.27,44.44-9.39,64.38a8.22,8.22,0,0,0,1.59,6,6.7,6.7,0,0,0,5,2.73l5.68.34h.05a.87.87,0,0,0,.85-.8c2-19.94,4.91-41.28,8.83-65.28A7.76,7.76,0,0,0,59,31.24m-.46,5.81c-3.89,23.7-6.75,44.81-8.74,64.55-1.64-.11-3.26-.2-4.88-.28a5.06,5.06,0,0,1-3.74-2.07A6.58,6.58,0,0,1,40,94.51C42.05,74.79,45.08,54,49.2,30.93l5.25-.29a3.77,3.77,0,0,1,3.2,1.65,6.15,6.15,0,0,1,.91,4.76m149.1,10.33a8.73,8.73,0,0,0-5.28-3.09c-3.46-.48-13-1.08-19.46-1.19a8,8,0,0,0-7.66,7.32c-.11,1.08-2.58,16.71-3.18,22.24C171.57,77.51,175,80,178.72,80c0,0,8.71,0,12.09-.08-.4,2.27-1,5.59-1.31,7.35l-6.21.34a9.81,9.81,0,0,0,.11-1.08A4.29,4.29,0,0,0,179.26,82l-8.34.25a.92.92,0,0,0-.85.77c-.63,3.8-1.28,7.6-1.93,11.43a7.54,7.54,0,0,0,1.19,5.91A5.65,5.65,0,0,0,174,102.6c.12,0,11-.57,20.18-1.59,3.6-.4,7.29-4,8.37-8.09A130.09,130.09,0,0,0,206,73.23c.29-2.47-.08-4.06-1.39-5.65a6.31,6.31,0,0,0-5-2.29H187.23c.17-.94,1.11-6.56,1.28-7.66,1.59,0,6.07.14,6.07.14a4,4,0,0,0-.08,1.08,4.66,4.66,0,0,0,4.39,4.51l7.92.08a.87.87,0,0,0,.88-.76c.51-3.21,1-6.56,1.47-10a7,7,0,0,0-1.5-5.34m-.25,5.11c-.43,3.09-.88,6.16-1.34,9.14l-7.18-.09a2.82,2.82,0,0,1-2.64-2.75,6.84,6.84,0,0,1,.35-1.65,1,1,0,0,0-.15-.79.87.87,0,0,0-.71-.37s-6.12-.14-8-.2a.87.87,0,0,0-.88.8c-.14.9-1.39,8.45-1.56,9.5a1,1,0,0,0,.2.74.91.91,0,0,0,.68.31h13.45a4.52,4.52,0,0,1,3.6,1.67c.86,1,1.25,2,1,4.23a128.12,128.12,0,0,1-3.49,19.44c-.88,3.34-4,6.41-6.84,6.72-9.11,1-19.69,1.59-19.69,1.59a3.94,3.94,0,0,1-3.52-1.56,5.77,5.77,0,0,1-.85-4.43c.62-3.57,1.22-7.15,1.82-10.69l7.54-.26a2.54,2.54,0,0,1,2.39,2.67,14.54,14.54,0,0,1-.26,1.9,1,1,0,0,0,.23.77.83.83,0,0,0,.71.28l8-.43a.91.91,0,0,0,.82-.73c.31-1.62,1.22-6.78,1.65-9.2a1,1,0,0,0-.2-.76,1,1,0,0,0-.71-.31c-2.38.08-13.14.11-13.14.11a4.67,4.67,0,0,1-4.88-5.36c.57-5.45,3.07-21.06,3.18-22.16a6.22,6.22,0,0,1,5.9-5.71,185.8,185.8,0,0,1,19.24,1.2,6.84,6.84,0,0,1,4.06,2.32,5.1,5.1,0,0,1,1.25,4.06m-35.3-9.59a1,1,0,0,0-.62-.31L165,42.33c-3.78,0-7,3.21-7.55,7.49-1.53,12.37-3.35,25.08-5.56,38.9l-6,.17c2.13-13.65,3.92-26.21,5.45-38.41a8.4,8.4,0,0,0-1.47-6.16,6.53,6.53,0,0,0-5-2.67c-1.93,0-3.83-.08-5.73-.14a.89.89,0,0,0-.88.77c-1.93,15.88-4.25,32.88-7.4,53.48a8.29,8.29,0,0,0,1.27,6.07,5.8,5.8,0,0,0,4.8,2.5h.23c6.52-.23,13.1-.51,19.6-.85,3.75-.23,7.26-3.72,8-8C168,77,170.46,60,172.34,43.55a1.22,1.22,0,0,0-.23-.65M163,95.25c-.6,3.4-3.46,6.32-6.41,6.49-6.47.35-13.05.63-19.55.86l-.17,0a4.11,4.11,0,0,1-3.41-1.78,6.43,6.43,0,0,1-.93-4.74C135.62,75.81,138,59,139.85,43.35c1.65,0,3.29.09,5,.12a4.62,4.62,0,0,1,3.66,2,6.63,6.63,0,0,1,1.14,4.86c-1.56,12.48-3.41,25.36-5.59,39.41a.79.79,0,0,0,.2.71.91.91,0,0,0,.65.31c2.61-.09,5.22-.14,7.8-.23a.91.91,0,0,0,.83-.74c2.27-14.1,4.11-27.06,5.67-39.66.43-3.38,2.92-5.93,5.85-5.93l5.5.23c-1.87,16-4.31,32.74-7.49,50.87M30,63.36l8.17-.06a.87.87,0,0,0,.85-.77c.57-3.77,1.2-7.57,1.82-11.37a7.88,7.88,0,0,0-1.31-6.1,5.88,5.88,0,0,0-5-2.33c-5,0-13.48.34-20.09,1-3.72.37-8.42,3.89-9.16,8C2.58,66.68,0,87.16,0,92.15c0,1.22.17,4.23,1.76,6.16,1.33,1.62,3.46,2.16,5.33,2.5a155.25,155.25,0,0,0,19.78,1.76h.34c4.23-.06,6.58-2.3,7.38-7,1-6.27,3.06-23.35,3.23-24.71A4.84,4.84,0,0,0,37,67a4.52,4.52,0,0,0-3.69-1.39l-12.91,0a.9.9,0,0,0-.88.76s-.82,5.39-1.19,7.92a5.13,5.13,0,0,0,1.08,3.86,4.15,4.15,0,0,0,2.95,1.56l.62,0c-.14.85-1.08,6-1.45,8.08-1.44,0-6.38-.37-7.26-.42.51-5.14,3.43-25.34,4.2-29.6,1.33,0,6.21,0,7.18-.08-.09.59-.12,1.11-.12,1.11A4.55,4.55,0,0,0,30,63.36M17.79,56a.83.83,0,0,0-.82.71c-.51,2.1-4.29,28.32-4.43,31.52a.9.9,0,0,0,.82,1c1.11,0,7.3.45,9,.54a.93.93,0,0,0,.91-.74c.45-2.55,1.56-8.74,1.73-10a.88.88,0,0,0-.85-1l-1.65-.06A2.32,2.32,0,0,1,20.8,77a3.2,3.2,0,0,1-.68-2.41c.34-2.44.71-4.68,1.07-7.12l12.18,0a2.93,2.93,0,0,1,2.32.77,3.17,3.17,0,0,1,.4,2.41c-.17,1.39-2.18,18.44-3.23,24.66-.66,3.88-2.3,5.5-5.68,5.53h-.31A155.57,155.57,0,0,1,7.41,99.08c-1.68-.29-3.35-.71-4.32-1.9a8.46,8.46,0,0,1-1.33-5C1.76,87.76,4.11,68,7,52.15c.59-3.29,4.59-6.19,7.6-6.5,6.56-.65,15-1,19.92-1a4.37,4.37,0,0,1,3.6,1.62,6.08,6.08,0,0,1,.94,4.68q-.9,5.32-1.7,10.61H29.93a2.74,2.74,0,0,1-2.58-2.81c0-.25.46-2.86.46-2.86s-8.49,0-10,.08m64.09-1.22c-2.75,0-5.5,0-8.28.06a.84.84,0,0,0-.82.71c-.43,2.32-4.29,31-4.6,34.5a1,1,0,0,0,.2.68A.8.8,0,0,0,69,91c2.75.09,5.48.12,8.23.17h0a.84.84,0,0,0,.85-.79c.2-2.3,4-31,4.63-34.56a.85.85,0,0,0-.2-.71.65.65,0,0,0-.63-.34M76.52,89.35,70,89.2c.65-5.56,3.66-28,4.37-32.65,2.18,0,4.36-.06,6.55-.06-.88,5.82-3.83,28-4.4,32.86m17.76-45.6a6,6,0,0,0-5-2.55c-6.53,0-13.2.17-19.72.34-3.83.08-7.35,3.6-8,8-2.5,16.46-4.48,31.38-6.1,45.65a8.55,8.55,0,0,0,1.53,6,6.61,6.61,0,0,0,5,2.76c6.64.31,13.22.51,19.58.65h.14c3.69,0,7-3.41,7.58-7.78,2-16,4.2-32,6.24-46.84a8.27,8.27,0,0,0-1.31-6.27m-.34,6c-2.07,14.84-4.25,30.82-6.24,46.85-.45,3.49-3,6.24-5.9,6.24h-.11c-6.36-.14-12.91-.37-19.55-.65a4.93,4.93,0,0,1-3.78-2.1,6.64,6.64,0,0,1-1.19-4.71c1.59-14.27,3.58-29.2,6.07-45.6.57-3.57,3.35-6.44,6.39-6.49,6.52-.15,13.16-.26,19.74-.35a4.34,4.34,0,0,1,3.55,1.85,6.82,6.82,0,0,1,1,5M132,43.92a6.17,6.17,0,0,0-5-2.64c-4.2-.05-8.39-.11-12.59-.14.17-1.25.62-4.65.62-4.65a8.9,8.9,0,0,0-1.42-6.3,6.09,6.09,0,0,0-4.94-2.64h-5.67a.9.9,0,0,0-.85.77c-1,7.37-7.15,52.46-9.11,67.69a8.81,8.81,0,0,0,1.39,6.16,6.19,6.19,0,0,0,5,2.67c1.62,0,14.73,0,19.55-.09,3.75,0,7.21-3.57,7.86-8,2.67-18,4.74-32.8,6.53-46.62A8.38,8.38,0,0,0,132,43.92m-.26,6c-1.76,13.82-3.83,28.6-6.49,46.59-.54,3.61-3.27,6.44-6.22,6.5-6.35.11-13,.14-19.52.11a4.49,4.49,0,0,1-3.66-2,6.86,6.86,0,0,1-1.08-4.94c1.93-15.15,8-59.73,9-66.85h4.91a4.31,4.31,0,0,1,3.57,1.93,7,7,0,0,1,1.08,5s-.54,4-.74,5.64a1,1,0,0,0,.2.71.83.83,0,0,0,.62.31c4.52,0,9.06.06,13.57.15a4.54,4.54,0,0,1,3.63,1.92A6.4,6.4,0,0,1,131.76,50M120,54.7l-8.28,0a.89.89,0,0,0-.86.77c-.19,1.56-4.76,34.93-4.76,34.93a1,1,0,0,0,.2.71.83.83,0,0,0,.65.31c2.75,0,5.47,0,8.23,0a.91.91,0,0,0,.85-.77c.31-2,4.37-31.43,4.79-34.89a.91.91,0,0,0-.2-.71.8.8,0,0,0-.62-.29m-5.53,34.87-6.5,0s4.06-29.76,4.51-33.17l6.56,0c-.77,5.73-3.92,28.4-4.57,33.11"/><path class="cls-2" d="M58.56,37.05c-3.86,23.7-6.75,44.81-8.74,64.55-1.64-.11-3.26-.2-4.88-.28a5.11,5.11,0,0,1-3.74-2.07A6.44,6.44,0,0,1,40,94.51C42.05,74.79,45.08,54,49.2,30.93l5.25-.29a3.77,3.77,0,0,1,3.2,1.65,6.37,6.37,0,0,1,.91,4.76M207.41,52.49c-.43,3.09-.88,6.16-1.34,9.14l-7.18-.09a2.82,2.82,0,0,1-2.64-2.75,6.84,6.84,0,0,1,.35-1.65,1,1,0,0,0-.15-.79.87.87,0,0,0-.71-.37s-6.12-.14-8-.2a.87.87,0,0,0-.88.8c-.11.9-1.39,8.45-1.56,9.5a.89.89,0,0,0,.88,1h13.45a4.52,4.52,0,0,1,3.6,1.67c.86,1,1.28,2,1,4.23a128.12,128.12,0,0,1-3.49,19.44c-.85,3.34-4,6.41-6.84,6.72-9.11,1-19.69,1.59-19.69,1.59a3.94,3.94,0,0,1-3.52-1.56,5.77,5.77,0,0,1-.85-4.43c.62-3.57,1.22-7.15,1.82-10.69l7.54-.26a2.53,2.53,0,0,1,2.39,2.67,14.54,14.54,0,0,1-.26,1.9,1.08,1.08,0,0,0,.23.77.83.83,0,0,0,.71.28l8-.43a.91.91,0,0,0,.82-.73c.31-1.62,1.22-6.78,1.65-9.2a1,1,0,0,0-.2-.76,1,1,0,0,0-.71-.31c-2.38.08-13.14.11-13.14.11a4.67,4.67,0,0,1-4.88-5.36c.57-5.45,3.07-21.06,3.18-22.16a6.19,6.19,0,0,1,5.9-5.71c8.68.17,15.69.71,19.24,1.17a6.9,6.9,0,0,1,4.06,2.32,5.34,5.34,0,0,1,1.25,4.09M163,95.25c-.6,3.4-3.49,6.32-6.41,6.49-6.47.35-13.05.63-19.55.86l-.17,0a4.07,4.07,0,0,1-3.41-1.78,6.43,6.43,0,0,1-.93-4.74C135.62,75.84,138,59,139.85,43.35c1.65,0,3.29.09,5,.12a4.68,4.68,0,0,1,3.69,2,6.63,6.63,0,0,1,1.14,4.86c-1.56,12.48-3.41,25.36-5.59,39.41a.79.79,0,0,0,.2.71.86.86,0,0,0,.65.31c2.61-.09,5.22-.14,7.8-.23a.94.94,0,0,0,.83-.74c2.26-14.1,4.14-27.06,5.67-39.66.43-3.38,3-5.93,5.84-5.93l5.51.23c-1.9,16-4.34,32.74-7.52,50.87M17.79,56a.83.83,0,0,0-.82.68c-.51,2.1-4.29,28.32-4.46,31.52a.9.9,0,0,0,.83,1c1.1.06,7.29.45,9,.51a.92.92,0,0,0,.91-.74c.45-2.55,1.56-8.74,1.73-10a.82.82,0,0,0-.2-.71.83.83,0,0,0-.65-.31l-1.65-.06a2.31,2.31,0,0,1-1.67-.9,3.08,3.08,0,0,1-.68-2.41c.34-2.44.71-4.69,1.08-7.13l12.17,0a2.93,2.93,0,0,1,2.32.76,3.18,3.18,0,0,1,.4,2.41C35.89,72,33.88,89,32.83,95.22c-.66,3.89-2.3,5.5-5.68,5.53h-.31A153.7,153.7,0,0,1,7.38,99c-1.68-.31-3.35-.74-4.32-1.9a8.46,8.46,0,0,1-1.33-5C1.73,87.7,4.09,68,7,52.09c.6-3.29,4.6-6.18,7.6-6.49,6.56-.66,15-1,19.92-1a4.4,4.4,0,0,1,3.6,1.62A6.09,6.09,0,0,1,39,50.87c-.57,3.55-1.16,7.1-1.7,10.61l-7.41.06a2.74,2.74,0,0,1-2.58-2.81c0-.25.46-2.86.46-2.86s-8.52,0-10,.08m64.09-1.22c-2.75,0-5.5,0-8.28.06a.84.84,0,0,0-.82.71c-.43,2.32-4.29,31-4.6,34.5a.89.89,0,0,0,.2.65.8.8,0,0,0,.62.28c2.73.09,5.48.12,8.23.18h0a.85.85,0,0,0,.85-.8c.2-2.3,4-31,4.63-34.59a.92.92,0,0,0-.2-.71.73.73,0,0,0-.63-.28m12.06-4.94c-2.07,14.84-4.25,30.82-6.24,46.85-.45,3.49-3,6.24-5.87,6.24h-.12c-6.35-.14-12.91-.37-19.55-.65a4.88,4.88,0,0,1-3.74-2.07,6.49,6.49,0,0,1-1.19-4.71c1.59-14.28,3.57-29.2,6.07-45.6.57-3.57,3.35-6.44,6.38-6.5,6.53-.14,13.17-.25,19.75-.34A4.34,4.34,0,0,1,93,44.86a7.15,7.15,0,0,1,1,4.93m37.82.17c-1.76,13.82-3.83,28.6-6.49,46.59-.54,3.61-3.27,6.44-6.22,6.47-6.35.12-13,.14-19.52.12a4.52,4.52,0,0,1-3.66-2,6.86,6.86,0,0,1-1.08-4.94c2-15.15,8-59.72,9-66.85h4.91a4.34,4.34,0,0,1,3.57,1.93,7,7,0,0,1,1.08,5s-.54,4-.74,5.64a.91.91,0,0,0,.2.71.84.84,0,0,0,.65.31c4.51,0,9,.06,13.56.15a4.58,4.58,0,0,1,3.64,1.93,6.59,6.59,0,0,1,1.1,4.9M120,54.7l-8.28,0a.89.89,0,0,0-.86.77c-.19,1.56-4.76,34.93-4.76,34.93a1,1,0,0,0,.2.71.79.79,0,0,0,.65.31c2.72,0,5.47,0,8.23,0a.91.91,0,0,0,.85-.77c.31-2,4.37-31.43,4.79-34.89a.91.91,0,0,0-.2-.71.8.8,0,0,0-.62-.29"/><path class="cls-3" d="M82,12.51a92.66,92.66,0,0,0-12.2,4A51.89,51.89,0,0,0,77,19.35c1.9-2.78,3.63-5.11,5-6.84m62.47,4.26a91.42,91.42,0,0,0-13.22-4.37c1.39,1.73,3.27,4.23,5.39,7.32a55.93,55.93,0,0,0,7.83-2.95m-9.95,3.57a105.48,105.48,0,0,0-6.67-8.71A102.21,102.21,0,0,0,108,9.48V20a15,15,0,0,1,9.37,3.34,100.48,100.48,0,0,0,17.11-2.95M79.1,20a95.89,95.89,0,0,0,17.82,3.24c2.56-3.32,7-3.32,8.77-3.32H106V9.48a100.62,100.62,0,0,0-20.6,2.27C84,13.31,81.77,16.14,79.1,20M94.4,33.39c.22-1.56.54-3.71.73-5.41a12.63,12.63,0,0,1,.57-2.53,94,94,0,0,1-18-3.46,124.37,124.37,0,0,0-7,11.8c7-.11,18.83-.34,23.69-.4m46,78.68c-3.41.12-6.73.23-9.85.29-6.75.11-14.5.25-22.53.28v3.75A105.87,105.87,0,0,1,135.48,120c1.59-2.36,3.26-5,4.94-8m-21-86.68a15.88,15.88,0,0,1,3.06,7.83c1.79.06,4.46.15,7.35.2,3.69.12,8.15.23,12.83.37-2.24-4.31-4.63-8.17-6.78-11.46a93.62,93.62,0,0,1-16.46,3.06m25.62,8.49c9.53.28,19.63.62,26.13,1a76.51,76.51,0,0,0-24-16.88A56.2,56.2,0,0,1,138,21.73a124.73,124.73,0,0,1,7.06,12.15m-13.85,95.61a93.32,93.32,0,0,0,12.6-4.11,51.33,51.33,0,0,0-7.49-2.84c-2,2.87-3.74,5.22-5.11,7M67.78,33.82h.57a130,130,0,0,1,7.32-12.48,53.59,53.59,0,0,1-8.57-3.66,77.18,77.18,0,0,0-8.25,4.25,11.84,11.84,0,0,1,4.9,3,15.48,15.48,0,0,1,4,8.91m69.83,86.82a57.33,57.33,0,0,1,8.82,3.6,78.81,78.81,0,0,0,21.08-13.59c-7.88.49-16.48,1-24.62,1.31-1.76,3.21-3.58,6.1-5.28,8.68m-61.06-8.43c-1.25,0-2.5-.08-3.69-.14,1.7,3,3.41,5.71,5,8.09A104,104,0,0,1,106,116.39v-3.75h-3.46c-9.53,0-18-.11-26-.43m31.52,6.39v13.84a101.65,101.65,0,0,0,19.78-2.15c1.22-1.45,3.54-4.34,6.35-8.34a103,103,0,0,0-26.13-3.35M70.36,112c-11.49-.46-20.57-.88-24-1A79,79,0,0,0,67.27,124.3a55.08,55.08,0,0,1,8.46-3.52c-1.71-2.58-3.55-5.53-5.37-8.79m-.42,13.45a95.14,95.14,0,0,0,12,3.94c-1.33-1.67-3-3.92-4.94-6.7a55.19,55.19,0,0,0-7.09,2.76m15.43,4.73a100.85,100.85,0,0,0,20.6,2.27V118.6a103.39,103.39,0,0,0-26.78,3.49c2.72,3.86,5,6.67,6.18,8.08"/><path class="cls-3" d="M107,3.29c30.45,0,57.2,12.8,72.21,32,1.45.08,2.84.14,4.2.19C168.17,14.3,139.62,0,107,0,74.65,0,46.28,14.1,30.93,35l4.17-.17C50.19,15.92,76.78,3.29,107,3.29m0,135.28c-28.37,0-53.51-11.12-69-28.14-1.56-.12-3.07-.2-4.54-.29,15.83,19.1,42.87,31.75,73.51,31.75,30.82,0,58-12.77,73.77-32.09-1.45.12-2.95.2-4.51.31-15.43,17.23-40.71,28.46-69.26,28.46"/></g></g></svg>