<?xml version="1.0" encoding="UTF-8"?>
<svg width="73px" height="26px" viewBox="0 0 73 26" version="1.1" xmlns="http://www.w3.org/2000/svg" xmlns:xlink="http://www.w3.org/1999/xlink">
    <title>Mail</title>
    <g id="Page-1" stroke="none" stroke-width="1" fill="none" fill-rule="evenodd">
        <g id="Mail" transform="translate(0.913043, 0.956522)">
            <g id="Group" transform="translate(0.000000, -0.000000)">
                <rect id="Rectangle" fill="#005FF9" x="69.2869565" y="2.25217391" width="2.30782609" height="15.6686957"></rect>
                <path d="M66.7930435,17.9208696 L64.4852174,17.9208696 L64.4852174,6.8173913 L66.7930435,6.8173913 L66.7930435,17.9208696 Z M65.6391304,1.8626087 C66.4991304,1.8626087 67.1973913,2.56086957 67.1973913,3.42086957 C67.1973913,4.28086957 66.4991304,4.97913043 65.6391304,4.97913043 C64.7791304,4.97913043 64.0808696,4.28086957 64.0808696,3.42086957 C64.0808696,2.56086957 64.7791304,1.8626087 65.6391304,1.8626087 Z" id="Shape" fill="#005FF9"></path>
                <path d="M61.9913043,17.9208696 L59.7234783,17.9208696 L59.7234783,16.706087 C58.9104348,17.6269565 57.4782609,18.206087 56.1313043,18.206087 C52.9104348,18.206087 50.2947826,15.5904348 50.2947826,12.3686957 C50.2947826,9.14782609 52.9104348,6.53217391 56.1313043,6.53217391 C57.4782609,6.53217391 58.8347826,7.04 59.7234783,7.93652174 L59.7234783,6.8173913 L61.9913043,6.8173913 L61.9913043,17.9208696 Z M56.2052174,8.86521739 C58.1913043,8.86521739 59.753913,10.286087 59.753913,12.3686957 C59.753913,14.4513043 58.1913043,15.8852174 56.2052174,15.8852174 C54.2191304,15.8852174 52.7095652,14.3556522 52.7095652,12.3686957 C52.7095652,10.3826087 54.2191304,8.86521739 56.2052174,8.86521739 Z" id="Shape" fill="#005FF9"></path>
                <path d="M33.3573913,17.9208696 L31.0886957,17.9208696 L31.0886957,6.8173913 L33.3573913,6.8173913 L33.3573913,7.59304348 C33.8608696,7.11913043 34.8052174,6.53391304 36.1147826,6.53217391 C37.7252174,6.53217391 38.9252174,7.20956522 39.7469565,8.29913043 C40.646087,7.22 42.1286957,6.53217391 43.6391304,6.53217391 C46.473913,6.53217391 48.406087,8.44608696 48.406087,11.4286957 L48.406087,17.9208696 L46.1373913,17.9208696 L46.1373913,11.4286957 C46.1373913,9.98 44.9582609,8.80086957 43.5095652,8.80086957 C42.06,8.80086957 40.8817391,9.98 40.8817391,11.4286957 L40.8817391,17.9208696 L38.6130435,17.9208696 L38.6130435,11.4286957 C38.6130435,9.98 37.433913,8.80086957 35.9852174,8.80086957 C34.5365217,8.80086957 33.3573913,9.98 33.3573913,11.4286957 L33.3573913,17.9208696 L33.3573913,17.9208696 Z" id="Path" fill="#005FF9"></path>
                <path d="M15.8356522,12.173913 C15.8356522,14.1930435 14.1930435,15.8356522 12.173913,15.8356522 C10.1547826,15.8356522 8.51217391,14.1930435 8.51217391,12.173913 C8.51217391,10.1547826 10.1547826,8.51217391 12.173913,8.51217391 C14.1930435,8.51217391 15.8356522,10.1547826 15.8356522,12.173913 M12.173913,0 C5.46086957,0 0,5.46086957 0,12.173913 C0,18.8869565 5.46086957,24.3478261 12.173913,24.3478261 C14.6330435,24.3478261 17.0043478,23.6156522 19.0313043,22.2304348 L19.066087,22.206087 L17.426087,20.3 L17.3982609,20.3173913 C15.8382609,21.3217391 14.0313043,21.8521739 12.173913,21.8521739 C6.8373913,21.8521739 2.49565217,17.5104348 2.49565217,12.173913 C2.49565217,6.8373913 6.8373913,2.49565217 12.173913,2.49565217 C17.5104348,2.49565217 21.8521739,6.8373913 21.8521739,12.173913 C21.8521739,12.8652174 21.7747826,13.5652174 21.6243478,14.253913 C21.3182609,15.5104348 20.4382609,15.8947826 19.7782609,15.8443478 C19.113913,15.7904348 18.3365217,15.3173913 18.3313043,14.1591304 L18.3313043,13.2765217 L18.3313043,12.173913 C18.3313043,8.77826087 15.5695652,6.01652174 12.173913,6.01652174 C8.77826087,6.01652174 6.01652174,8.77826087 6.01652174,12.173913 C6.01652174,15.5695652 8.77826087,18.3313043 12.173913,18.3313043 C13.8234783,18.3313043 15.3704348,17.6869565 16.5365217,16.513913 C17.2147826,17.5695652 18.32,18.2313043 19.5782609,18.3321739 C19.686087,18.3408696 19.7965217,18.3452174 19.9052174,18.3452174 C20.7913043,18.3452174 21.6686957,18.0486957 22.3765217,17.5121739 C23.106087,16.9573913 23.6513043,16.1565217 23.9521739,15.193913 C24,15.0382609 24.0886957,14.6826087 24.0886957,14.68 L24.0913043,14.6669565 C24.2686957,13.8947826 24.3478261,13.1252174 24.3478261,12.173913 C24.3478261,5.46086957 18.8869565,0 12.173913,0" id="Shape" fill="#FF9E00" fill-rule="nonzero"></path>
            </g>
        </g>
    </g>
</svg>