<svg width="114" height="114" viewBox="0 0 114 114" fill="none" xmlns="http://www.w3.org/2000/svg">
<mask id="mask0_2_456" style="mask-type:alpha" maskUnits="userSpaceOnUse" x="0" y="0" width="114" height="114">
<rect width="114" height="114" rx="26" fill="#C4C4C4"/>
</mask>
<g mask="url(#mask0_2_456)">
<rect x="-3" y="-3" width="120" height="120" fill="#00BA64"/>
</g>
<path fill-rule="evenodd" clip-rule="evenodd" d="M57 15C33.8407 15 15 33.8407 15 57C15 80.1593 33.8407 99 57 99C80.1575 99 99 80.1593 99 57C99 33.8407 80.1575 15 57 15Z" fill="white"/>
<path d="M78.1955 26.875C74.99 35.0966 67.6924 36.8073 57.1215 36.8073C55.987 36.8073 54.8631 36.7895 53.7786 36.7734C52.7297 36.7591 51.7379 36.7431 50.7657 36.7431C49.9023 36.7431 49.0318 36.7538 48.1738 36.7912C49.6544 33.1558 52.018 30.6852 55.3822 29.1868C60.0719 27.0998 66.169 27.0784 71.549 27.0623C73.8929 27.0534 76.137 27.0445 78.1955 26.875Z" fill="#008F32"/>
<path d="M81.4879 29.5133C76.7465 39.8416 66.1792 40.8762 57.121 40.8762C55.132 40.8762 53.2269 40.828 51.4627 40.8173L49.1812 49.74C60.8652 40.2144 76.3166 49.6579 74.6648 64.032C73.5517 73.7127 66.6501 80.0435 59.3489 81.863C51.3949 83.8466 42.5828 80.8783 38.6317 72.7727C38.2125 71.9164 37.4829 70.2004 37.2046 69.2835L45.5921 67.1287C45.7402 67.6121 45.9917 68.0794 46.2557 68.5058C51.8712 77.5622 63.2502 73.0331 64.5345 63.6377C65.842 54.08 52.4313 48.989 46.3199 60.1593L38.8814 56.9894L38.753 56.9324L42.3402 42.5316C42.5614 41.5077 43.3071 38.6482 43.4355 38.1791C47.4901 23.2699 60.6065 23.0345 71.1275 22.9952C66.7768 21.1846 62.0068 20.1821 56.9997 20.1821C36.6641 20.1821 20.1816 36.6646 20.1816 57.0001C20.1816 77.3357 36.6641 93.8182 56.9997 93.8182C77.3352 93.8182 93.8177 77.3357 93.8177 57.0001C93.8177 46.0689 89.0513 36.2561 81.4879 29.5133Z" fill="#EB2316"/>
</svg>
