<?xml version="1.0" encoding="utf-8"?>
<!-- Generator: Adobe Illustrator 24.0.3, SVG Export Plug-In . SVG Version: 6.00 Build 0)  -->
<svg version="1.1" id="Layer_1" xmlns="http://www.w3.org/2000/svg" xmlns:xlink="http://www.w3.org/1999/xlink" x="0px" y="0px"
	 viewBox="0 0 251.5 98.6" style="enable-background:new 0 0 251.5 98.6;" xml:space="preserve">
<style type="text/css">
	.st0{fill-rule:evenodd;clip-rule:evenodd;fill:url(#SVGID_1_);}
	.st1{fill-rule:evenodd;clip-rule:evenodd;fill:url(#SVGID_2_);}
	.st2{fill-rule:evenodd;clip-rule:evenodd;fill:url(#SVGID_3_);}
	.st3{fill:url(#SVGID_4_);}
	.st4{fill:url(#SVGID_5_);}
	.st5{fill:url(#SVGID_6_);}
	.st6{fill:url(#sport_1_);}
</style>
<title>Asset 2</title>
<g id="Layer_2_1_">
	<g id="Layer_1-2">
		<linearGradient id="SVGID_1_" gradientUnits="userSpaceOnUse" x1="97.4399" y1="-21.0619" x2="97.4399" y2="122.9447">
			<stop  offset="0" style="stop-color:#FF0A0A"/>
			<stop  offset="0.62" style="stop-color:#FB6813"/>
			<stop  offset="1" style="stop-color:#F6CA1D"/>
			<stop  offset="1" style="stop-color:#F8A519"/>
		</linearGradient>
		<path class="st0" d="M67.6,59.3l4.5-16h20.5c4.2,0,7.8-2.9,8.8-6.9l5.4-21.6H94.7L98.3,0h28.9l-10,40.3c-2.8,11.2-12.8,19-24.3,19
			H67.6z"/>
		<linearGradient id="SVGID_2_" gradientUnits="userSpaceOnUse" x1="153.86" y1="-21.0619" x2="153.86" y2="122.9447">
			<stop  offset="0" style="stop-color:#FF0A0A"/>
			<stop  offset="0.62" style="stop-color:#FB6813"/>
			<stop  offset="1" style="stop-color:#F6CA1D"/>
			<stop  offset="1" style="stop-color:#F8A519"/>
		</linearGradient>
		<path class="st1" d="M145.1,24h16.4l-2.8,11.4h-16.4l-2.3,9.1h35.7L172,59.3h-52.5l12.6-50.6c1.3-5.1,5.8-8.6,11.1-8.7h45
			l-3.6,14.8l0,0l-1.1,4.6h-15l1.1-4.6h-22.2L145.1,24z"/>
		<linearGradient id="SVGID_3_" gradientUnits="userSpaceOnUse" x1="220.2249" y1="-21.0619" x2="220.2249" y2="122.9447">
			<stop  offset="0" style="stop-color:#FF0A0A"/>
			<stop  offset="0.62" style="stop-color:#FB6813"/>
			<stop  offset="1" style="stop-color:#F6CA1D"/>
			<stop  offset="1" style="stop-color:#F8A519"/>
		</linearGradient>
		<polygon class="st2" points="251.5,0.1 247.8,14.9 217.1,14.9 209.5,44.5 220,44.5 216.4,59.3 189,59.3 200.4,14.9 190.1,14.9 
			193.8,0.1 		"/>
		<g>
			<linearGradient id="SVGID_4_" gradientUnits="userSpaceOnUse" x1="28.3689" y1="-21.0619" x2="28.3689" y2="122.9447">
				<stop  offset="0" style="stop-color:#FF0A0A"/>
				<stop  offset="0.62" style="stop-color:#FB6813"/>
				<stop  offset="1" style="stop-color:#F6CA1D"/>
				<stop  offset="1" style="stop-color:#F8A519"/>
			</linearGradient>
			<path class="st3" d="M47.8,31.8c-3.3-0.6-6.6-0.1-10,0c0.4-4.9,0.5-9.8,0.1-14.8c-0.1-1.3-3.1-1.3-3-0.1c0,0.9,0.1,1.7,0.1,2.6
				c0,2.3-1.1,5.9-3.6,6.5c-0.1,0-0.2,0-0.3,0C31,26,31,26,30.9,25.9c-0.5-1-0.8-2.1-0.9-3.2c-0.2-1.8-0.2-3.6-0.1-5.4
				c0-0.8-0.9-1.2-1.6-1.2c-0.8,0-1.4,0.6-1.5,1.3c0,1.6,0.4,4.2,0.1,5.8c-0.2,1.8-2.5,5.2-3.5,5.2s-0.5-4.4-0.7-5.2
				c-0.1-0.5-0.3-0.9-0.6-1.3c-0.7-0.7-1.7-0.8-2.5-0.4c-0.8,0.4-1.5,1-2.1,1.7c0-1.6-1.8-2.7-3.3-2.5c-1.5,0.4-2.8,1.4-3.6,2.8
				c0.1-0.8,0-1.6-0.2-2.4c-0.3-0.8-1.1-1.2-1.9-1c-0.9,0.4-1,1.6-0.9,2.6l0.8,9.1c0,0.3,0.1,0.6,0.2,0.9c0.4,0.6,1.3,0.7,1.9,0.3
				c0,0,0.1-0.1,0.1-0.1c0.5-0.6,0.8-1.4,0.7-2.1c0-0.8-0.2-1.6-0.3-2.3c-0.1-1.2,0.3-2.4,0.9-3.4c0.3-0.5,0.8-0.9,1.3-1.1
				c0.6-0.2,1.2,0,1.6,0.5c0.2,0.3,0.3,0.6,0.3,0.9c0.1,1.1,0.2,2.2,0.2,3.4c0,0.6-0.8,2.8-0.1,3.2c0.1,0,0.2,0.1,0.3,0.1
				c0.9,0,1.7-0.6,2.1-1.3c0.4-1,0.7-2,0.7-3.1c0-1.1,0.3-2.1,0.9-3c0.1-0.1,0.2-0.2,0.4-0.3c0.5-0.1,0.8,0.5,0.9,0.9
				c0.2,1.1,0.3,2.2,0.2,3.3c0,0.8,0,2,0.9,2.2c0.3,0,0.6,0,0.8-0.2c1.2-0.5,2.3-1.3,3.2-2.2c0.8-0.8,1.5-1.7,2-2.7
				c0.1,0.3,0.2,0.5,0.3,0.8c0.3,1.1,1,2,1.9,2.7c1.3,0.6,2.3-0.2,3.2-1c0.7-0.7,1.4-1.4,1.9-2.2l0.1-0.2c0,1.8-0.1,3.6-0.3,5.4
				c0,0.3,0,0.5-0.1,0.8c-1.5,0.1-3,0.3-4.6,0.5c-2.4,0.2-4.6,1-6.6,2.3c-1.9,1.5-3,3.7-3.1,6.1c-0.2,2.3,0.4,4.7,2.4,6.1
				c1.8,1.1,4,1.5,6.1,0.9c4.8-1.1,7.2-5.9,8.1-10.4c0.2-1.2,0.4-2.5,0.6-3.7c3.2-0.1,6.3,0.2,9.4,0.7c0.6,0.1,1.6,0.1,1.9-0.6
				S48.3,31.9,47.8,31.8 M23.4,41.1c-0.1-1.2,0.2-2.5,0.9-3.6c1.5-2.3,4.1-3,6.6-3.4c1.2-0.2,2.4-0.3,3.6-0.4
				c-0.2,3.2-1.4,6.6-3.8,8.8c-1.4,1.2-3.6,2.2-5.4,1.3C24.2,43.4,23.5,42.3,23.4,41.1"/>
			<linearGradient id="SVGID_5_" gradientUnits="userSpaceOnUse" x1="29.0145" y1="-21.0619" x2="29.0145" y2="122.9447">
				<stop  offset="0" style="stop-color:#FF0A0A"/>
				<stop  offset="0.62" style="stop-color:#FB6813"/>
				<stop  offset="1" style="stop-color:#F6CA1D"/>
				<stop  offset="1" style="stop-color:#F8A519"/>
			</linearGradient>
			<path class="st4" d="M22.4,6c14.5-1.9,27.8,8.2,29.9,22.6c0.2,1.2,1.2,0.8,1.4-0.2c0.2-2.5,0-5-0.6-7.4C49.8,6.8,35.7-2.2,21.4,1
				c-7.1,1.6-13.3,6.1-17,12.4c-0.3,0.5-0.1,1.2,0.4,1.5C4.9,15,5,15.1,5.1,15.1c0.4,0.1,0.8,0,1.1-0.3C10.4,10,16.1,6.9,22.4,6"/>
			<linearGradient id="SVGID_6_" gradientUnits="userSpaceOnUse" x1="24.7312" y1="-21.0619" x2="24.7312" y2="122.9447">
				<stop  offset="0" style="stop-color:#FF0A0A"/>
				<stop  offset="0.62" style="stop-color:#FB6813"/>
				<stop  offset="1" style="stop-color:#F6CA1D"/>
				<stop  offset="1" style="stop-color:#F8A519"/>
			</linearGradient>
			<path class="st5" d="M31.5,53.5C17.2,55.7,3.9,45.6,1.4,30.9c-0.2-1.2-1.2-0.8-1.4,0.2c-0.2,2.5,0.1,5.1,0.8,7.5
				C3.7,51,14.9,59.5,27.5,59.2c9.1-0.4,17.4-5.4,21.8-13.4c0.3-0.6,0.1-1.3-0.4-1.6c-0.1,0-0.2-0.1-0.3-0.1
				c-0.4-0.1-0.8,0.1-1.1,0.4C43.5,49.3,37.8,52.5,31.5,53.5"/>
		</g>
		<linearGradient id="sport_1_" gradientUnits="userSpaceOnUse" x1="202.325" y1="-21.0619" x2="202.325" y2="122.9447">
			<stop  offset="0" style="stop-color:#FF0A0A"/>
			<stop  offset="0.62" style="stop-color:#FB6813"/>
			<stop  offset="1" style="stop-color:#F6CA1D"/>
			<stop  offset="1" style="stop-color:#F8A519"/>
		</linearGradient>
		<path id="sport" class="st6" d="M163.7,90.4c2.2,0.1,4.3-0.4,6.2-1.6c1.5-1,2.5-2.7,2.4-4.5c0.1-1.4-0.5-2.7-1.5-3.7
			c-1.4-1-2.9-1.7-4.6-2.1c-1-0.2-2-0.5-2.9-0.9c-0.6-0.2-1-0.9-0.8-1.5c0.1-0.4,0.4-0.7,0.8-0.8c0.6-0.3,1.3-0.4,1.9-0.4
			c0.8,0,1.5,0.2,2.2,0.5c0.6,0.4,1,1,1.2,1.6h3.8l1.3-5.4h-4l-0.2,1c-1.3-0.8-2.8-1.2-4.3-1.2c-2-0.1-4,0.4-5.6,1.6
			c-1.4,1-2.2,2.5-2.1,4.2c-0.1,1.3,0.4,2.6,1.4,3.6c1.3,1,2.8,1.7,4.4,2c1.1,0.2,2.2,0.6,3.3,1c0.5,0.2,0.9,0.7,0.9,1.2
			c0,1.2-1.2,1.9-3.6,1.9s-3.8-1-4.3-3.1h-3.6l-1.5,6.4h4l0.2-1C160.2,90,162,90.5,163.7,90.4z M181.9,98.6l0.9-3.9h-3l1.6-7
			c1.1,1.9,3.1,3.1,5.3,3c1.8,0,3.6-0.6,5.1-1.7c1.5-1.2,2.6-2.7,3.3-4.4c0.8-1.8,1.2-3.6,1.2-5.6c0-1.3-0.2-2.6-0.7-3.8
			c-0.4-1.1-1.2-2-2.2-2.7c-1-0.7-2.2-1-3.4-1c-2.2,0.1-4.2,1.1-5.5,2.8l0,0l-0.1-0.1l0.6-2.5h-8.2l-0.9,4h2.6l-4.3,19h-2.6
			l-0.9,3.9L181.9,98.6z M185.8,86.4c-0.9,0-1.7-0.3-2.2-1c-0.6-0.7-0.9-1.6-0.8-2.5c0-1.1,0.2-2.1,0.6-3.1c0.4-1,1-2,1.8-2.8
			c0.7-0.7,1.6-1.1,2.6-1.1c0.8,0,1.6,0.3,2.1,0.9c0.5,0.7,0.8,1.6,0.8,2.4c0,1.1-0.2,2.2-0.5,3.2c-0.3,1-0.9,2-1.6,2.8
			C187.8,86,186.8,86.4,185.8,86.4L185.8,86.4z M206.4,90.8c4,0,7.7-2.1,9.7-5.6c1-1.8,1.5-3.8,1.5-5.8c0-1.5-0.3-2.9-1-4.2
			c-0.7-1.2-1.6-2.2-2.8-2.9c-1.3-0.7-2.7-1-4.1-1c-2.1,0-4.1,0.5-5.8,1.6c-1.7,1.1-3.1,2.5-4,4.3c-0.9,1.8-1.4,3.8-1.4,5.8
			c0,1.4,0.3,2.8,1,4.1c0.7,1.1,1.7,2.1,2.8,2.7C203.6,90.5,205,90.8,206.4,90.8L206.4,90.8z M206.8,86.6c-0.8,0-1.5-0.3-2-0.9
			c-0.5-0.7-0.8-1.6-0.7-2.4c0-1.2,0.2-2.3,0.6-3.4c0.3-1.1,0.9-2.2,1.7-3.1c0.7-0.8,1.7-1.3,2.8-1.3c0.8,0,1.6,0.3,2.1,1
			c0.5,0.7,0.8,1.6,0.7,2.5c0,1.2-0.2,2.3-0.6,3.4c-0.3,1.1-0.9,2.1-1.7,3C208.9,86.1,207.9,86.6,206.8,86.6z M229.1,90.2l0.9-3.9
			h-2.9l0.9-3.8c0.8-4,2.8-6,5.9-6c0.6,0,1.2,0.1,1.7,0.2l0,0l1.1-5c-0.5-0.1-1-0.2-1.6-0.2c-1.2,0-2.5,0.4-3.4,1.2
			c-1.3,1.3-2.3,2.8-3.1,4.4l0,0l-0.1-0.1l1.3-5.4h-7.5l-0.9,4h2.5l-2.4,10.6h-2.2l-0.9,3.9L229.1,90.2z M241.8,90.7
			c1.6,0,3.2-0.4,4.7-1.1l0,0l1-4.2c-0.8,0.5-1.7,0.8-2.7,0.9c-0.8,0-1.1-0.3-1.1-1c0-0.1,0-0.5,0.1-1l0,0l2-8.6h3.6l0.9-4h-3.6
			l1.7-7.4l-6.7,4.7l-0.6,2.7h-2.1l-0.9,4h2.1l-1.9,8.2c-0.3,1-0.4,2.1-0.4,3.1c0,1,0.4,2,1.1,2.7C239.7,90.5,240.7,90.8,241.8,90.7
			L241.8,90.7z"/>
	</g>
</g>
</svg>
