<svg xmlns="http://www.w3.org/2000/svg" viewBox="0 0 291.66 358.38"><defs><style>.cls-1{fill:#010102;}</style></defs><title>Asset 6</title><g id="Layer_2" data-name="Layer 2"><g id="Layer_1-2" data-name="Layer 1"><path class="cls-1" d="M189.21,117.49a311.39,311.39,0,0,1-35.81,0V88.4a4,4,0,0,1,3.79-4s2.46-.2,3.82-.2,1.43-1.37,0-1.37c-4.08.12-15,.43-19.31.43-5.3,0-27.37-2.55-28.89,15.29-1.36,15.92,11.85,22.61,24.17,22.19.23,0,.71-.19.71-.61a.71.71,0,0,0-.71-.69c-2.95-.21-14.34-2-13.95-17.84.38-15.53,15.4-15.34,18.67-14.52V147.7a4.9,4.9,0,0,1-4.91,4.9H132.1s-.66,0-.66.58.69.57.69.57H153.4v-34.1h3.41a8.25,8.25,0,0,1,8.25,8.24v33.35a3.94,3.94,0,0,1-3.43,3.9c-56.44,7.4-62.87-33.83-63.24-47.73C97.94,100.84,103.17,68,141.7,68c33,0,36.69,18.33,37.07,23.62a1.52,1.52,0,0,0,3-.15,156.23,156.23,0,0,1,1.4-26.33c-5.66-.4-23.57-5.54-43-4.2-27.09,1.86-56.73,17.19-56.73,55,0,69.34,81.57,62.65,95.13,50.43l.47-38.38a8.25,8.25,0,0,1,8.24-8.14h1.95a1.18,1.18,0,1,0-.07-2.35Z"/><path class="cls-1" d="M194.35,61.4a99.11,99.11,0,0,1,17.14-24,94.84,94.84,0,0,1,12.94-11.27,8.12,8.12,0,0,0-.8-.65,8.63,8.63,0,0,0-13.34,4.61,7,7,0,1,0-8.23,10.17c-5.09,4.68-10.7,6.76-17.12,3.33-6.57-3.24-6.09-10.4-5.43-13.8a7,7,0,1,0-1.82-.95c-2.6,3.23-9.53,10.08-19.24,6.21-9.48-3.77-9.93-13.63-9.6-18.16.12-.08.29.32.29.62a7,7,0,1,0,3.29-5.92A9.35,9.35,0,1,0,134,9.36a9.74,9.74,0,0,0,.28,2.24,7,7,0,1,0,3.33,5.94c0-.29.18-.68.29-.6.33,4.55-.14,14.38-9.6,18.14-9.71,3.87-16.64-3-19.24-6.21a7.07,7.07,0,1,0-1.81.95c.66,3.4,1.14,10.56-5.43,13.8-6.43,3.43-12,1.35-17.12-3.33a7,7,0,1,0-8.24-10.17,8.63,8.63,0,0,0-13.34-4.61,8,8,0,0,0-.79.65A95.45,95.45,0,0,1,75.27,37.43,99.74,99.74,0,0,1,92.13,60.86c13.14-8.7,31-14.06,50.7-14.06C162.94,46.8,181.15,52.38,194.35,61.4Z"/><path d="M229.43,266.33l-1.37,11.86c3.72.63,6.06-1.24,7.42-4.35,2.36-5.38,4.51-10.85,6.7-16.3,4.82-12,9.59-24.08,14.46-36.08a14.73,14.73,0,0,1,2.2-3,13.3,13.3,0,0,1,2.26,2.9q9.6,23.58,19.07,47.21c.61,1.51,1.31,3,2,4.45,1.61,3.21,3.85,5.54,7.79,5.48a2,2,0,0,1,1.66,1.17H271.75c0-1.86.38-3.53-.07-4.94-1.4-4.35-3.18-8.57-4.69-12.88-.62-1.76-1.45-2.63-3.51-2.55-4.57.17-9.15,0-13.72.12a3.59,3.59,0,0,0-2.75,1.46c-1.74,4.1-3.33,8.28-4.7,12.52-1.29,3.95-.76,4.53,3.55,5.18.39.05.75.26,1,1.09H180.49l35.37-55c-2,0-3.45,0-4.88,0-5.66.11-11.33.11-17,.38-4.9.24-8.13,2.76-9.21,7.73a2.46,2.46,0,0,1-.45.82c0,.06-.2.05-.89.18a32.7,32.7,0,0,1,0-4.21c.42-3.12,0-7.3,1.81-9,1.61-1.52,5.81-.3,8.86-.3q15.53,0,31.06.06c1.26,0,2.52.16,4.67.31L194.67,275.3c3.51,0,6.38,0,9.26,0,4.57-.05,9.14-.05,13.71-.22,5.1-.19,8.77-2.35,9.85-7.75a4.53,4.53,0,0,1,.81-1.3Zm19.69-11.13h15.24c-2.47-6.8-4.84-13.33-7.53-20.72C254.1,241.81,251.7,248.28,249.12,255.2Z"/><path d="M109.63,279.08a5.89,5.89,0,0,1,1.08-.45c5.55-1.11,5.81-1.23,5.92-6.89.32-16.24.51-32.48.78-48.72,0-1.42.28-2.84.43-4.26l.93-.25,44.73,46.1c0-4.51,0-8.34,0-12.17-.11-7.3-.27-14.6-.43-21.9,0-1.2-.19-2.39-.23-3.59-.11-3.42-1.76-5.25-5.28-5.28a3.11,3.11,0,0,1-2.43-1.07H176c-.26.37-.38.76-.58.81-5.47,1.43-5.66,1.42-5.82,7-.39,13.95-.61,27.9-.86,41.84-.07,3.47,0,6.93,0,10.4l-1.07.59a24.58,24.58,0,0,1-3.63-2.6q-20-20.42-40-40.91c-.29-.3-.62-.55-1.31-1.17,0,4.92-.06,9.42,0,13.91.12,6.43.34,12.85.54,19.28.2,6.64.41,6.88,7.84,9.84H109.77Z"/><path d="M39.38,250.63H63.2c-.35.6-.41.89-.56,1-5.48,1.93-5.56,1.92-5.71,7.82-.12,4.9-.12,9.82,0,14.72.06,2.28-.6,3.68-2.89,4.39-13.43,4.17-26.71,4.19-39.35-2.38C3.49,270.3-1.52,258.72.4,245,2.15,232.52,11.27,222.79,24,220c8.55-1.85,17.12-1.06,25.66.25,2.25.34,4.49.71,7,1.11-.26,5.19-.51,10.22-.77,15.24l-.69.17c-.34-.56-.91-1.09-1-1.68-.59-4.95-3.87-7.57-8-9.49a29.6,29.6,0,0,0-17.92-2.09C19.59,225.09,14,230.3,12.09,239a34.59,34.59,0,0,0,2.12,22.68,26.63,26.63,0,0,0,28.5,15.19c2.75-.41,4.24-1.62,4.1-4.74-.2-4.68,0-9.37-.06-14.07,0-4.86-.7-5.59-5.53-6.12a11.74,11.74,0,0,1-2-.6Z"/><path d="M65.31,311.61c7.2,6.92,10.78,17.3,21.75,20-7.77,2.28-13.74.53-18.38-5.4a71.05,71.05,0,0,1-6.32-8.72c-2.06-3.69-4.93-4.45-8.74-3.68,0,4.63,0,9.27,0,13.91,0,3.78,3.48,2.77,5.5,4.13H41.24c4.4-.47,4.75-3.58,4.76-6.94,0-9.7.08-19.4.1-29.09,0-6.42,0-6.42-6-8.09.69-.29,1.1-.63,1.5-.62,6.74,0,13.49,0,20.22.21,4.62.16,8.6,1.86,10.44,6.49s.81,8.81-2.14,12.58C68.75,308.12,67.16,309.61,65.31,311.61Zm-12-11.54c0,2.61-.12,5.24.07,7.84a3.18,3.18,0,0,0,1.43,2.37c5.58,2,10-.87,10.91-6.75,1.15-7.91-2.72-13.41-9.35-13.54-2.47-.06-3.29.8-3.1,3.21S53.3,297.78,53.3,300.07Z"/><path d="M74.89,220.47H98.27c-.58.63-.75,1-1,1.06-5.39,1.52-5.64,1.51-5.68,7q-.18,21.9.08,43.8c.06,5.26.5,5.43,5.88,6.09a3.52,3.52,0,0,1,2.39,1.21H74.68c.45-.49.64-.88.84-.89,4.91-.06,5.61-.93,5.72-7.09.26-14.6.15-29.21.15-43.82,0-3.66-.64-6.45-5.55-6.24-.35,0-.72-.3-1.08-.46Z"/><path d="M4.44,287.72c.15-.14.3-.41.46-.41,7.81.08,15.69-.42,23.4.47,7.19.84,10.26,7.32,8,14.63-2.07,6.77-9.66,11.2-15,9.34,2.18-1.65,5.52-3,6.84-5.48s1.57-6.34,1-9.32c-1-5.32-5.27-7.56-11.28-6.64v32.16c0,7.1,0,7.1,7.05,9.48H5.55c4.73-.51,4.59-4,4.6-7.29q.06-13.89.09-27.78C10.25,289.92,10.24,289.92,4.44,287.72Z"/><path d="M239.76,321.54a89.42,89.42,0,0,1-1.83,9c-.24.81-1.83,1.51-2.9,1.71-7.82,1.5-15.6,1.51-23.1-1.56a22.37,22.37,0,0,1-13.77-23.91c1.53-11.14,8.84-18.53,19.6-20.05,7.24-1,14.27-.11,21,1.33v11.66l-.81,0a13.52,13.52,0,0,0-.82-3c-.87-1.58-1.67-3.44-3-4.47a17.09,17.09,0,0,0-27.16,11.49c-1.4,11.29,2.52,19.8,11.06,24,4.42,2.18,9,2.15,13.7,1.12,4-.89,5.65-4.07,6.92-7.59Z"/><path d="M185.72,314.7c-2.45-5.19-4.57-6-13.25-4.66,0,5-.07,10.1,0,15.18a3.43,3.43,0,0,0,3.46,3.62c1.19.11,2.38.34,3.57.33,4.14,0,8.16-.35,8.23-6.54l1.35.82c-.43,2.73-.8,5.47-1.35,8.17-.08.37-1.06.79-1.62.79-8.58-.07-17.16-.2-25.75-.34-.14,0-.27-.28-.8-.87,5.14.4,5-3,5-6.28,0-9.69,0-19.39,0-29.08,0-6.36,0-6.36-5.55-8.52H187.4c-.22,2.42-.48,5.28-.79,8.63-1.34-2-2.06-4.29-3.29-4.6-3.1-.78-6.43-.72-9.67-.84-.38,0-1.13,1-1.14,1.56-.1,4.66-.06,9.32-.06,14.64l13.93-.84C186.19,308.36,186,311.53,185.72,314.7Z"/><path d="M131.12,357.6c8.78-4.43,8.79-12.44,8.82-20.37.05-13.52,0-27.05,0-40.57,0-6.84,0-6.84-6.71-9.24h19.13c-6,.6-4.87,5.11-4.87,8.83,0,13.41-.05,26.82.12,40.23.12,9.72-4.55,16.29-12.8,20.74a25.09,25.09,0,0,1-2.88,1.16Z"/><path d="M260.73,290.38c-5.67,1.67-12.49-2.77-16.09,5.12L244,295l1.34-8.13h38.81v8.73c-3.35-7.61-10-3.89-15.64-5.14V298c0,8.17,0,16.34,0,24.52,0,7.18.06,7.18,7.28,9.47H256c4.63-.33,4.69-3.62,4.7-6.92C260.74,313.71,260.73,302.4,260.73,290.38Z"/><path d="M107.27,286.22c-14.52,0-24.63,9.68-24.64,23.53s9.87,23.36,24,23.37c14.69,0,24.86-10,24.85-24.51C131.45,294.84,122.1,286.19,107.27,286.22Zm12.61,37.86c-4.85,7.74-16.84,7.89-23.36.21-4.08-4.79-5.55-10.5-5.58-16.72.24-2.05.33-4.12.73-6.14,1.17-5.88,4.13-10.33,10.35-11.7a15.38,15.38,0,0,1,15.84,5.33C123.79,302,124.73,316.35,119.88,324.08Z"/></g></g></svg>