<?xml version="1.0" encoding="UTF-8"?>
<svg width="364px" height="363px" viewBox="0 0 364 363" version="1.1" xmlns="http://www.w3.org/2000/svg" xmlns:xlink="http://www.w3.org/1999/xlink">
    <title>Group 4 Copy</title>
    <g id="Tagline-2021" stroke="none" stroke-width="1" fill="none" fill-rule="evenodd">
        <g id="Group-4-Copy">
            <path d="M182,0 C81.6429815,0 0,81.4186876 0,181.5 C0,281.581312 81.6429815,363 182,363 C282.349289,363 364,281.581312 364,181.5 C364,81.4186876 282.349289,0 182,0" id="Path" fill="#FFFFFF"></path>
            <path d="M273.846422,51.3164366 C259.955829,86.8455723 228.332894,94.238161 182.525632,94.238161 C177.609429,94.238161 172.739605,94.1610745 168.039839,94.0916968 C163.49467,94.0300276 159.196857,93.9606498 154.984073,93.9606498 C151.242812,93.9606498 147.470631,94.0069017 143.752559,94.1687832 C150.168358,78.4585687 160.410448,67.7820981 174.989,61.306838 C195.310852,52.2877256 221.731578,52.1952219 245.044893,52.1258441 C255.201954,52.0873009 264.926141,52.0487577 273.846422,51.3164366" id="Path" fill="#008F32" fill-rule="nonzero"></path>
            <path d="M288.115778,62.7175196 C267.56976,107.350563 221.777957,111.821576 182.525632,111.821576 C173.906817,111.821576 165.651306,111.613442 158.006456,111.56719 L148.119941,150.125823 C198.750648,108.961669 265.706859,149.771225 258.548991,211.887471 C253.725547,253.722276 223.818645,281.080251 192.180251,288.943066 C157.71272,297.515078 119.527118,284.687896 102.405436,249.659822 C100.588915,245.959673 97.4273944,238.543958 96.2215332,234.581716 L132.567424,225.269675 C133.209004,227.358717 134.298917,229.378382 135.442939,231.220748 C159.776598,270.357528 209.085496,250.785283 214.651009,210.183861 C220.31701,168.880951 162.20378,146.880484 135.721215,195.152007 L103.487619,181.453748 L102.931068,181.207072 L118.475855,118.975196 C119.43436,114.550435 122.665449,102.193481 123.222,100.166107 C140.792015,35.7372691 197.629815,34.7197282 243.220641,34.550138 C224.367467,26.7258654 203.69777,22.393608 182,22.393608 C93.8793799,22.393608 22.4552984,93.6214695 22.4552984,181.5 C22.4552984,269.37853 93.8793799,340.606392 182,340.606392 C270.12062,340.606392 341.544702,269.37853 341.544702,181.5 C341.544702,134.261436 320.890465,91.8561903 288.115778,62.7175196" id="Path" fill="#EB2316" fill-rule="nonzero"></path>
        </g>
    </g>
</svg>