<?xml version="1.0" encoding="utf-8"?>
<svg version="1.1" id="Layer_1" xmlns="http://www.w3.org/2000/svg" xmlns:xlink="http://www.w3.org/1999/xlink" x="0px" y="0px"
	 viewBox="0 0 150 111" style="enable-background:new 0 0 150 111;" xml:space="preserve">
<style type="text/css">
	.st0{fill:#FF3495;}
	.st1{fill:#141414;}
</style>
<path class="st0" d="M22.4,25.7H0v22.6h22.4V25.7z"/>
<path class="st1" d="M50.9,86.1V73.7c0,0,0-0.1,0-0.1V48.2h22.4V25.7H50.9V0.1H28.3v73.5c0,19.3,15.7,35,35,35h18.5V86.1H50.9
	L50.9,86.1z"/>
<path class="st1" d="M148,86.1H87.7v22.6H148V86.1z"/>
<path class="st1" d="M149.8,48.2c0-19.4-15.8-35.3-35.3-35.3c-19.4,0-35.3,15.8-35.3,35.3h22.6c0-7,5.7-12.7,12.7-12.7
	c7,0,12.7,5.7,12.7,12.7c0,7-5.7,12.7-12.7,12.7H87.7v22.6h17.8l10.9-0.1C135,82.5,149.8,67.1,149.8,48.2L149.8,48.2z"/>
</svg>
