<svg xmlns="http://www.w3.org/2000/svg" viewBox="0 0 313.93 135.04"><defs><style>.cls-1{fill:#0d8bff;}</style></defs><title>layer1</title><g id="Layer_2" data-name="Layer 2"><g id="Layer_1-2" data-name="Layer 1"><g id="layer1"><g id="g380"><path id="path359" class="cls-1" d="M313.91,52a6.18,6.18,0,0,0-2.27-4.2A12.24,12.24,0,0,0,306,45.18c-1.31-.28-2.62-.38-3.93-.58-.15,1.58-.28,3-.43,4.48h-.15a27.33,27.33,0,0,0-13.19-3.65,6.77,6.77,0,0,0-3.07.63,14.21,14.21,0,0,0-5,4.45A52.68,52.68,0,0,0,274,61.59c-1.34,3.1-2.37,6.32-4.13,9.24-3.15,5.21-6.08,10.52-9.63,15.45a38.34,38.34,0,0,1-3.08,3.65,1.37,1.37,0,0,1-2.25-.42,3.44,3.44,0,0,1-.3-1.57,40.72,40.72,0,0,1,.63-4.43c.76-3.37,1.64-6.72,2.45-10.09s1.64-6.75,2.37-10.14c.4-1.89.6-3.83.86-5.77a15.48,15.48,0,0,0,.1-4.56,8.3,8.3,0,0,0-4.54-6.31,9.05,9.05,0,0,0-3.25-.93,8.76,8.76,0,0,0-3,.07,11.27,11.27,0,0,0-5.06,2.92,36.55,36.55,0,0,0-5.58,6.57,99,99,0,0,0-7.59,13.52c-.08.15-.15.31-.22.48q.55-3,1.31-5.9a38.78,38.78,0,0,0,1.38-10.09,6.87,6.87,0,0,0-.93-3.3,8.6,8.6,0,0,0-5-3.85,17.22,17.22,0,0,0-5-.73c-.83,0-1.67.13-2.5.2,0,.16,0,.21,0,.23a21.89,21.89,0,0,1-.13,5.24c-.38,2.44-.71,4.9-1.24,7.32-.75,3.55-1.64,7.07-2.52,10.62a15.91,15.91,0,0,1-1,3.3c-1,2.07-2.17,4-3.35,6a61.27,61.27,0,0,1-8.05,10.9,13,13,0,0,1-2.37,2A1.48,1.48,0,0,1,200,90.16a11.41,11.41,0,0,1,.13-3.45q.82-4.11,1.89-8.16c1.69-6.39,3.48-12.76,5.17-19.15a14.46,14.46,0,0,0,.51-6.45,8.35,8.35,0,0,0-1.92-4,9.75,9.75,0,0,0-5.45-3.05,41.17,41.17,0,0,0-4.28-.6c-.88-.07-1.77,0-2.58,0-.17,1.89-.3,3.7-.53,5.51-.25,2.1-.52,4.16-1,6.22q-1.11,5.18-2.37,10.3a33.39,33.39,0,0,1-2.88,8.51c-2.62,4.75-5.09,9.59-8.62,13.79A8,8,0,0,1,175,92a1.47,1.47,0,0,1-1.84-.37,13.58,13.58,0,0,1-1.38-2,112.81,112.81,0,0,1-5.75-13.87c-.1-.28,0-.33.25-.43,1.23-.53,2.49-1,3.68-1.61a29.91,29.91,0,0,0,8-6.27,28.89,28.89,0,0,0,4.84-6.9,14.17,14.17,0,0,0,1.58-9,6.28,6.28,0,0,0-2.27-4.08A9.23,9.23,0,0,0,174.83,46a15.45,15.45,0,0,0-6.23,2.54,53,53,0,0,0-11.42,10.8l-1.51,1.89a.29.29,0,0,1,0-.23c1.39-5.16,2.83-10.29,4.19-15.45,2.09-7.86,4.41-15.69,6-23.67a12.29,12.29,0,0,0,.1-5.33c-.88-3.7-3.33-5.82-6.84-6.92a22.51,22.51,0,0,0-4.89-.81c-.78-.07-1.58,0-2.44,0,0,.23.05.38.07.55a20.88,20.88,0,0,1,.23,2.22c0,1.68-.05,3.4-.2,5.08-.2,2.17-.43,4.33-.83,6.47q-1,5.52-2.25,11-1.94,8.39-4,16.74c-1.56,6.29-3.18,12.59-4.74,18.88a11,11,0,0,1-1.69,4c-.45.61-.83,1.29-1.23,1.91A146.68,146.68,0,0,1,127.1,90a22.38,22.38,0,0,1-2.82,2.77,1.33,1.33,0,0,1-2-.51,4.2,4.2,0,0,1-.35-1.83,19.51,19.51,0,0,1,.53-3.63c1-3.87,2-7.75,3.07-11.6,1.37-4.94,2.83-9.82,4.16-14.75a17.05,17.05,0,0,0,.78-7.13,8.18,8.18,0,0,0-2.21-4.65,10.33,10.33,0,0,0-5.58-2.8c-1.41-.27-2.87-.4-4.31-.53-.7-.07-1.43,0-2.16,0,0,.23,0,.33,0,.43-.18,1.84-.28,3.7-.53,5.52-.35,2.49-.78,5-1.21,7.47a4.45,4.45,0,0,1-.51,1.76c-5.7,8.43-11.37,16.89-17.87,24.75q-.67.82-1.44,1.68a.64.64,0,0,0,0-.12c0-.15.1-.28.15-.43a101.56,101.56,0,0,0,6.6-25.83,31.45,31.45,0,0,0,.1-6.36A12.46,12.46,0,0,0,99.8,49a7.76,7.76,0,0,0-6.27-4,6.48,6.48,0,0,0-4.32,1.14,24.15,24.15,0,0,0-5.77,5.73,87.61,87.61,0,0,0-7.39,11.73,2.33,2.33,0,0,1-.22.36c.23-1.67.48-3.25.68-4.84a17.19,17.19,0,0,0-.28-6.74,7.83,7.83,0,0,0-3.12-4.69,13.7,13.7,0,0,0-6.43-2c-1.14-.12-2.3-.07-3.43-.1-.6,0-1.21.06-1.69.07,0,1.56.13,3.05.07,4.53q-.16,3.2-.48,6.37c-.27,2.62-.55,5.26-.93,7.85-.46,3.13-1,6.26-1.54,9.37s-1.16,6.39-1.79,9.56c-1.33,6.6-2.87,13.12-4.76,19.56A89.24,89.24,0,0,1,46.91,117a18.61,18.61,0,0,1-3.78,5.61A3.82,3.82,0,0,1,40,123.91c-.73-.1-1.49-.23-2.25-.33a1.25,1.25,0,0,1,.06.18,22,22,0,0,0,4.34,7.14,11.05,11.05,0,0,0,5.67,3.68A3.88,3.88,0,0,0,52,133.45a20.08,20.08,0,0,0,1.82-2.39,56,56,0,0,0,4.24-9c2.42-6.22,4.36-12.61,6.35-19q.33-1,.63-2c1.54.63,3,1.26,4.51,1.81a31.09,31.09,0,0,0,9.63,2,7.6,7.6,0,0,0,5.37-2c2.14-1.85,4.25-3.75,6.3-5.69a98.85,98.85,0,0,0,10.79-11.63c2.85-3.65,5.5-7.48,8.22-11.23.36-.47.68-1,1-1.46-.15,1-.43,1.86-.63,2.77-.83,3.78-1.66,7.55-2.42,11.35-.35,1.79-.5,3.6-.73,5.42-.08.68-.14,1.37-.18,2.06a8.06,8.06,0,0,0,.63,4.46,11.13,11.13,0,0,0,5.68,4.93,9.18,9.18,0,0,0,4,.78,8.82,8.82,0,0,0,4.49-1.61,27.41,27.41,0,0,0,6.35-6.32c2.37-3.12,4.59-6.37,6.86-9.56.53-.74,1-1.51,1.49-2.27a1.26,1.26,0,0,1,0,.58,60,60,0,0,0-1,9,7.74,7.74,0,0,0,2.34,5.67,13.36,13.36,0,0,0,6.66,3.72,9.89,9.89,0,0,0,3.48.3c-.07-.75-.2-1.46-.2-2.19,0-1.08,0-2.14.1-3.22.13-1.69.28-3.37.53-5,.38-2.54.75-5,1.26-7.57.91-4.41,1.94-8.81,2.92-13.19a7.83,7.83,0,0,1,.66-2.27A53.34,53.34,0,0,1,158.8,63a45.31,45.31,0,0,1,6.1-5.89,20.58,20.58,0,0,1,3.36-2.06A1.17,1.17,0,0,1,170,56.27a16.13,16.13,0,0,1-.28,2.67,17.73,17.73,0,0,1-3.18,6.42,39.78,39.78,0,0,1-6.35,6.87,28.89,28.89,0,0,1-5.59,3.93c-.81.42-.81.4-.66,1.28a97,97,0,0,0,2.8,11.45,40.2,40.2,0,0,0,5,11,11.63,11.63,0,0,0,4.59,4.18,5.22,5.22,0,0,0,5.72-.48,28.21,28.21,0,0,0,4.29-4.1,81.35,81.35,0,0,0,6.6-9c.61-1,1.24-1.92,1.84-2.87a21.24,21.24,0,0,1-.17,2.16,30.45,30.45,0,0,0-.28,3.15,13,13,0,0,0,.23,3.6,11.34,11.34,0,0,0,6.48,7.2,9.72,9.72,0,0,0,3,.7,4.81,4.81,0,0,0,2.62-.7,23.78,23.78,0,0,0,6.1-4.84,65.88,65.88,0,0,0,8.52-11.07c.63-1,1.26-2,1.86-3-.07.85-.25,1.68-.37,2.51-.28,1.72-.53,3.43-.78,5.16-.16,1-.21,2.09-.31,3.15A5,5,0,0,0,213,99.92a12,12,0,0,0,10.16,3.8c1-.1,1.06-.1,1.26-1.11l2.5-12.33a19.69,19.69,0,0,1,.81-3.45c2-4.88,4.36-9.64,6.83-14.3a120.22,120.22,0,0,1,7.81-13.16,28.06,28.06,0,0,1,2.6-3,1.05,1.05,0,0,1,1.76.62,7.86,7.86,0,0,1,0,2.22c-.33,2.06-.71,4.1-1.14,6.14-.86,4.13-1.81,8.26-2.64,12.41-.94,4.61-1.79,9.24-2.65,13.87a21.28,21.28,0,0,0-.43,5.09,7.26,7.26,0,0,0,3.68,6.06,10.17,10.17,0,0,0,4.46,1.41,5.27,5.27,0,0,0,3.71-.88,25.49,25.49,0,0,0,4.91-4.71,109.67,109.67,0,0,0,8.22-11.5c.71-1.13,1.44-2.26,2.15-3.37-.18,1.41-.43,2.77-.63,4.18-.23,1.66-.48,3.32-.58,5a27.37,27.37,0,0,0,.1,4.15,8.64,8.64,0,0,0,1.46,4.11c1.89,2.87,5.95,3.65,8.92,2.82a14.57,14.57,0,0,0,5.8-3.63,38.36,38.36,0,0,0,4.84-5.51,100,100,0,0,0,7.87-12.71,5,5,0,0,1,.27-.46,1.68,1.68,0,0,1,0,.28c-.48,1.94-.93,3.88-1.43,5.82-1.72,6.77-3.51,13.54-5.75,20.16a103.6,103.6,0,0,1-5.95,14.77,24,24,0,0,1-5,7.08A4.93,4.93,0,0,1,272,131a6.63,6.63,0,0,1-4.36-4.25,16.58,16.58,0,0,1-1.19-7.91,13,13,0,0,1,1.37-4.9,1.63,1.63,0,0,1,.17-.38,8.32,8.32,0,0,0-3.78-.07,9.13,9.13,0,0,0-5.52,3.29,8.28,8.28,0,0,0-1.54,6.7,12.8,12.8,0,0,0,3.2,6.75,15.19,15.19,0,0,0,9.76,4.63c.55.07,1.13.15,1.69.2h2.09c.61-.07,1.24-.15,1.84-.2a18.64,18.64,0,0,0,7.21-2.29,26.11,26.11,0,0,0,9-8.81,56.31,56.31,0,0,0,4.94-9.69,263.91,263.91,0,0,0,11-32.8c1.56-5.82,2.92-11.71,4.28-17.57.58-2.45.93-5,1.36-7.45.13-.76.15-1.51.23-2.27a1.39,1.39,0,0,1,.1-.33V52.17c.1,0,.05-.05.05-.15ZM88.2,63.05A89.87,89.87,0,0,1,79.76,88.5a32.75,32.75,0,0,1-4.51,7,11.18,11.18,0,0,1-3.73,3,5.93,5.93,0,0,1-3.51.25c-.65-.1-1.31-.27-2-.43.38-1.23.73-2.44,1.08-3.62,1.59-5.09,3.15-10.17,4.79-15.23a17.21,17.21,0,0,1,1.49-2.89c2.75-4.89,5.57-9.75,8.7-14.38a28,28,0,0,1,3.9-4.88,4.29,4.29,0,0,1,1-.68,1,1,0,0,1,1.37.53,2.55,2.55,0,0,1,.22,1.06,31.51,31.51,0,0,1-.27,4.83ZM301,53.08c-.73,4-1.42,7.88-2.15,11.83a3.36,3.36,0,0,1-.27.83,169.61,169.61,0,0,1-12.76,22,29.72,29.72,0,0,1-4.29,5.13,5.91,5.91,0,0,1-1.33.88.63.63,0,0,1-.91-.25,10.3,10.3,0,0,1-.63-1.71,4.46,4.46,0,0,1-.05-.83,41.14,41.14,0,0,1,1.58-9.64,90.23,90.23,0,0,1,7.29-18.93,34.9,34.9,0,0,1,4.56-6.87,11.43,11.43,0,0,1,3.76-3,6.38,6.38,0,0,1,3.15-.27,10.61,10.61,0,0,1,1.61.27c.36,0,.48.18.43.58Z"/><path id="path361" class="cls-1" d="M50.9,87.67A34.32,34.32,0,0,0,53,70.28a41.36,41.36,0,0,0-1.34-6.38,73.09,73.09,0,0,0-4.71-11c-2.88-5.79-5.89-11.53-8.68-17.37A36.53,36.53,0,0,1,34.42,20.2a24.79,24.79,0,0,1,.28-4.72,12.81,12.81,0,0,1,2.78-6.3A9.87,9.87,0,0,1,47.23,6C51,6.68,53,9.73,53.43,13.2a17.24,17.24,0,0,1-.51,6.14,12.83,12.83,0,0,1-3.16,6.07c-.56.59-1.22,1.09-1.82,1.65a8.7,8.7,0,0,0,10.32,6.27,9.71,9.71,0,0,0,6.33-4.5,17.4,17.4,0,0,0,2.81-8,16.37,16.37,0,0,0-.26-5.58,18.2,18.2,0,0,0-4.88-8.78A22.35,22.35,0,0,0,48.57.2C48,.12,47.34.06,46.72,0H44c-.64.07-1.27.15-1.9.2a25.49,25.49,0,0,0-14.2,5.39,22.43,22.43,0,0,0-8,13.4,26.35,26.35,0,0,0-.61,6.8,36.27,36.27,0,0,0,2.86,12.87Q25.11,45.37,28.24,52c2.56,5.43,5.3,10.79,7.37,16.43a35.42,35.42,0,0,1,1.8,7,32,32,0,0,1,.28,6.7,23.77,23.77,0,0,1-3.32,11.2,11,11,0,0,1-5.14,4.58,7.84,7.84,0,0,1-9.13-2.43,19.18,19.18,0,0,1-3.47-7.51,25.79,25.79,0,0,1-.81-8.34c.4-6,1.82-11.56,5.26-16.54a10.89,10.89,0,0,1,3.65-3.52A9.73,9.73,0,0,0,21.79,57a13.83,13.83,0,0,0-5.69-1.77A11.33,11.33,0,0,0,7.49,58C4,60.82,2.08,64.58,1,68.81A24.13,24.13,0,0,0,.1,74.52,2.36,2.36,0,0,1,0,75v2.73c0,.18.07.38.1.55.1,1.14.15,2.28.33,3.42a30.4,30.4,0,0,0,2,7,26.42,26.42,0,0,0,9,11.66,25,25,0,0,0,14.7,4.88,22.21,22.21,0,0,0,5.09-.43A25.65,25.65,0,0,0,44.09,98,30.17,30.17,0,0,0,50.9,87.67ZM192.68,30.74a3.72,3.72,0,0,0,3.72,2.85,10.4,10.4,0,0,1,2.31.35c2.77.71,5.55,1.47,8.29,2.2a12.15,12.15,0,0,0,3.59.69,13.24,13.24,0,0,1-.41-1.34,13.7,13.7,0,0,1,0-4.65c.18-1.42.41-2.81.69-4.2.53-2.73,1.09-5.43,1.63-8.16a20.47,20.47,0,0,0,.53-3.21,4,4,0,0,0-4.2-3.86A4,4,0,0,0,205,14.54a1.18,1.18,0,0,1-.5.65,9.29,9.29,0,0,0-3.49,3.52,18.67,18.67,0,0,0-1.45,3.23,3.61,3.61,0,0,1-2.29,2.45c-.17.06-.33.13-.48.2-1.3.64-2.62,1.27-3.9,1.92a1.47,1.47,0,0,0-.88,1.45,17.12,17.12,0,0,0,.63,2.77Zm-82-7.66c1,1.23,2,2.38,3,3.63a23.35,23.35,0,0,1,3.53,7.54c.07.25.12.51.45.61,2.75.9,5.47,1.85,8.22,2.74a2,2,0,0,0,2.59-1.29v0a7,7,0,0,0,.37-1.78,4.2,4.2,0,0,0-.52-2.82c-1-1.53-1.88-3.14-2.78-4.75a1.44,1.44,0,0,1,0-.66,4.52,4.52,0,0,0,.08-1.54c-.43-1.28-1-2.5-1.48-3.83a5,5,0,0,0,2.23-3.07,13.79,13.79,0,0,0,.32-1.63,11.15,11.15,0,0,0-.35-4.38c0-.17-.3-.3-.45-.43-.12.18-.35.33-.4.51a4,4,0,0,1-1.4,2.68,6.51,6.51,0,0,1-5.45,1.18,16.91,16.91,0,0,0-3.75-.56,7.5,7.5,0,0,0-4.37,1.15,3.35,3.35,0,0,0-1.1,5,17.9,17.9,0,0,0,1.3,1.71Z"/></g></g></g></g></svg>