<svg xmlns="http://www.w3.org/2000/svg" viewBox="0 0 487.98 133.05"><defs><style>.cls-1{fill:#f9e925;}</style></defs><title>Asset 15</title><g id="Layer_2" data-name="Layer 2"><g id="Layer_1-2" data-name="Layer 1"><rect width="133.05" height="133.05"/><rect class="cls-1" x="3.69" y="3.69" width="125.67" height="125.68"/><path d="M12.82,102.32l15.68,16L65.22,81l38,38,15.91-15.75L81.5,65.76l7.23-7V43.86L93.26,40V51.7l5.84,4.76L116.54,39l5.61,4.3c3.3-12.21-15.83-39.94-31.66-24.58L72.05,37l3.77,4.54L66.45,50.7l-9.07-8.91,4.77-4.31L41.94,18C26.73,5.45,11.13,24.5,10.6,43.09l5.53-4.61,17,18.29,6.07-5.07V40.48l3.76,2.84V58l7.38,7.37Z"/><path d="M162.86,40.87l11.53,16.28h16l-14.21-20c16.44-8,10.29-29.81-7-30H149.34V57.15h13.52Zm0-22.82h4.77c4.76.46,6.53,9.83,0,11.06h-4.77Z"/><path d="M209,58.15A17.31,17.31,0,0,0,219,55l-.08,2.15h13.37l-.08-34.8H219v1.92A17.38,17.38,0,0,0,209,21c-9.83,0-17.9,8.38-17.9,18.6S199.2,58.15,209,58.15Zm2.85-26a7.82,7.82,0,0,1,8.06,7.53,8,8,0,0,1-16.05,0A7.8,7.8,0,0,1,211.88,32.11Z"/><path d="M330,58.15c12.07-.08,16.52-5.07,19.13-12.37H337c-5.53,7.07-13.6,1.92-13.21-3.84h25.81c0-14.13-7.53-20.82-19.51-20.82s-19.52,8.45-19.52,18.75S319.28,58.23,330,58.15Zm5.46-24.43h-10C325.65,29.49,334.87,29.49,335.49,33.72Z"/><rect x="239.3" y="22.35" width="14.06" height="34.8"/><path d="M184.91,102c10.22-9.45,5-23.66-6-23.82l-21.82.23-8.76,51.63h24.82C190,130.06,196.9,109.16,184.91,102Zm-14.83-11.3h2.31c6.38,0,3.3,7.3-2,7l-1.76-.07Zm1.08,27.05H165.4l1.76-8.53h6C176.92,109.24,177.69,118.07,171.16,117.77Z"/><path d="M260.81,57.15h13.6V33.41h12.76V57.15h14.06V33.26H310V22.5h-9.14V14.75c-.23-2.85,6.45-4,8.76-1.69V1.68c-12.91-4.07-23.35,3.23-23.28,14.52v6.15h-12v-7.6c-.15-2.85,5.69-4,9.07-1.69V1.68c-11.22-3.3-23.2,2.15-23.12,14.45v6.14l-4.31.08V33.41h4.84Z"/><path d="M246.37,17.36a7.46,7.46,0,1,0-7.45-7.46A7.45,7.45,0,0,0,246.37,17.36Z"/><path d="M445.27,41.94c0-14.13-7.45-20.82-19.51-20.82s-19.51,8.45-19.51,18.75S415,58.23,425.76,58.15c12.13-.08,16.59-5.07,19.2-12.37H432.67c-5.53,7.07-13.6,1.92-13.21-3.84Zm-14.06-8.22h-10C421.38,29.49,430.6,29.49,431.21,33.72Z"/><path d="M463.25,25V22.35h-12.6v34.8h13.14V35.87c.38-5.3,10.83-6.22,10.91,0V57.15H488V35.33C487.68,23.12,474.85,17.2,463.25,25Z"/><path d="M395.72,35.33c-8.14-1.15-7.3-2.76-7.45-3.68-.16-1.46,4.91-1.77,10.14-.16L402.56,23a38.11,38.11,0,0,0-14.06-2c-12.83.16-17.29,15.14-9.45,20,4.38,3.3,11.6,1.92,11.06,5.84-.46,3.15-6.6,1.3-13-1.85l-4.53,9.07a30.77,30.77,0,0,0,13.9,4.07C406.86,59.84,407.85,37.25,395.72,35.33Z"/><polygon points="289.01 110.77 269.11 78.27 254.74 78.27 248.37 130.29 262.27 130.29 265.81 97.95 285.7 130.13 300.61 130.13 306.83 78.43 292.93 78.43 289.01 110.77"/><path d="M360.07,2.45a7.46,7.46,0,1,0,7.45,7.45A7.44,7.44,0,0,0,360.07,2.45Z"/><path d="M217.33,78.74l-26.81,51.4h15.06l4.53-9.07h17l2.54,9.22h13.9L231.54,78.74Zm-2.3,31.5,6.38-13.6,3,13.6Z"/><polygon points="344.63 78.2 328.19 96.48 330.8 78.2 316.82 78.28 307.06 130.13 321.74 130.13 325.65 110.77 338.79 130.13 358.07 130.13 339.25 102.94 363.3 78.2 344.63 78.2"/><rect x="353.08" y="22.35" width="14.06" height="34.8"/></g></g></svg>