<?xml version="1.0" encoding="utf-8"?>
<!-- Generator: Adobe Illustrator 24.0.3, SVG Export Plug-In . SVG Version: 6.00 Build 0)  -->
<svg version="1.1" id="Layer_1" xmlns="http://www.w3.org/2000/svg" xmlns:xlink="http://www.w3.org/1999/xlink" x="0px" y="0px"
	 viewBox="0 0 205.3 78.6" style="enable-background:new 0 0 205.3 78.6;" xml:space="preserve">
<style type="text/css">
	.st0{fill:#FF0000;}
</style>
<g>
	<path class="st0" d="M26.6,42.6V69H34V0H22.9C12,0,2.8,7.3,2.8,21.7c0,10.3,4.1,15.9,10.1,19L0,69h8.6l11.8-26.4H26.6z M26.6,36.4
		h-4c-6.5,0-11.8-3.6-11.8-14.7c0-11.5,5.8-15.4,11.8-15.4h4V36.4z"/>
	<path d="M108.5,62.9h-3.8V20.4H82.1v4.1c0,12.9-0.5,28-4.9,38.4h-3v15.7h6.8V69h20.9v9.6h6.7V62.9z M141.3,65.8l-1.7-5.8
		c-1.9,1.3-5.3,3.3-9.6,3.3c-6,0-9.1-5.8-9.1-16.8h20.3v-4.2c0-16.5-5.3-22.6-13.4-22.6c-10.3,0-14.7,11.4-14.7,27
		c0,15,6.2,23,16.2,23C134.2,69.7,138.2,68.2,141.3,65.8z M62.4,20.4V41H51.2V20.4h-7.5V69h7.5V47.2h11.2V69h7.4V20.4L62.4,20.4z
		 M169.3,69h8.2l-13.8-25.8l12.1-22.9h-7.6l-11.7,22.5V20.4h-7.5V69h7.5V44.8L169.3,69z M195.2,69.7c4.4,0,7.5-1.5,10.1-3.7
		l-1.7-5.6c-1.7,1.6-4.5,3-8.2,3c-6.1,0-9-7-9-19.1c0-12.3,3.9-18.3,9.3-18.3c3.1,0,6,1.6,8,3.4l1.1-7.2c-2.1-1.3-4.6-2.5-9-2.5
		c-11.4,0-17.3,9.7-17.3,25C178.5,61.3,184.8,69.7,195.2,69.7z M97.3,62.9H84.3c4.1-10.4,4.5-25.3,4.5-35.6v-0.9h8.4V62.9z
		 M127.8,25.9c4.4,0,5.7,6.1,5.7,14.4H121C121.5,31.6,123.1,25.9,127.8,25.9z"/>
</g>
</svg>
