<?xml version="1.0" encoding="UTF-8"?>
<svg width="1177px" height="277px" viewBox="0 0 1177 277" version="1.1" xmlns="http://www.w3.org/2000/svg" xmlns:xlink="http://www.w3.org/1999/xlink">
    <title>download copy</title>
    <g id="Tagline-2021" stroke="none" stroke-width="1" fill="none" fill-rule="evenodd">
        <g id="download-copy" fill="#8FBC62" fill-rule="nonzero">
            <path d="M937.729505,277 C932.491013,277 927.473477,275.050582 923.772468,271.58092 C920.080666,268.112142 918,263.406285 918,258.499558 C918,253.593715 920.080666,248.887858 923.772468,245.418195 C927.473477,241.949418 932.491013,240 937.729505,240 L940.270495,240 C945.499781,240 950.526523,241.949418 954.218325,245.418195 C957.919334,248.887858 960,253.593715 960,258.499558 C960,263.406285 957.919334,268.112142 954.218325,271.58092 C950.526523,275.050582 945.499781,277 940.270495,277 L937.729505,277 Z" id="Path"></path>
            <path d="M1177,236.963134 C1177,249.986457 1172.8048,259.915028 1164.39728,266.748844 C1155.99846,273.583523 1144.05733,277 1128.57391,277 C1113.09049,277 1101.10585,273.583523 1092.61129,266.748844 C1084.20376,259.915028 1080,249.986457 1080,236.963134 L1080,180.025013 L1095.57046,180.025013 C1099.75681,180.050027 1103.7691,181.682794 1106.71957,184.565365 C1109.67003,187.447937 1111.31499,191.34398 1111.29758,195.398728 L1111.29758,236.526694 C1111.29758,241.882998 1112.75976,246.18098 1115.69282,249.421501 C1118.61717,252.561969 1122.86445,254.132634 1128.43466,254.132634 C1133.99616,254.132634 1138.25214,252.515392 1141.1765,249.282634 C1144.19659,246.049013 1145.71099,241.800196 1145.71099,236.537044 L1145.71099,180 L1161.26404,180 C1165.4591,180.025013 1169.47139,181.657781 1172.42185,184.540352 C1175.37232,187.422924 1177.01727,191.318967 1177,195.373715 L1177,236.963134 Z" id="Path"></path>
            <path d="M180.928496,70.8616866 L180.928496,277 L136.451219,277 C111.613293,277 91.4751558,256.970578 91.4751558,232.26488 L91.4751558,70.8616866 L44.9752627,70.8616866 C20.1374262,70.8616866 0,50.832354 0,26.1262086 L0,0 L227.024826,0 C251.862752,0 272,20.0293326 272,44.7354781 L272,70.8616866 L180.928496,70.8616866 Z" id="Path"></path>
            <path d="M314,0 L510.933141,0 C535.907489,0 556.149978,20.0274565 556.149978,44.7570557 L556.149978,66.4512972 L389.344111,66.4512972 L389.344111,82.3324146 C389.344111,94.6790066 399.465802,104.695464 411.952976,104.695464 L488.951853,104.695464 C513.925307,104.695464 534.173159,124.72301 534.173159,149.426393 L534.173159,168.301532 L389.344111,168.301532 L389.344111,188.205606 C389.344111,200.552824 399.465802,210.573755 411.952976,210.573755 L513.777799,210.573755 C538.752147,210.573755 559,230.601301 559,255.30558 L559,277 L381.831066,277 C344.369544,277 314,246.961365 314,209.900026 L314,0 Z" id="Path"></path>
            <path d="M829.126512,276.979419 C809.041125,276.979419 791.337699,263.999291 785.581817,245.081198 L783.416397,237.94508 L684.834111,237.94508 L672.972824,277 L645.489071,277 C613.927859,277 591.978055,246.130811 602.790775,216.933129 L683.197916,0 L740.633642,0 C769.276479,0 794.865266,17.6215 804.683331,44.102715 L891,277 L829.126512,276.979419 Z M712.355602,147.166506 C708.013082,161.511221 718.927335,175.922152 734.135587,175.922152 L764.600611,175.922152 L735.152705,77.2620833 L733.516511,77.2620833 L712.355602,147.166506 Z" id="Shape"></path>
            <path d="M1036.84708,180.005268 L1026.78077,180.005268 C1005.36946,180.005268 988,197.54274 988,219.173313 L988,261.351044 C987.982971,265.478386 989.60491,269.444181 992.514101,272.37836 C995.423292,275.31254 999.379448,276.974539 1003.51582,277 L1018.85987,277 L1018.85987,217.810702 C1018.85987,211.126708 1024.30066,203.171413 1034.53861,203.171413 L1050.1916,203.171413 C1053.29817,203.188972 1056.29318,201.971226 1058.50725,199.785956 C1060.72133,197.601564 1061.97425,194.627876 1062,191.519858 L1062,180 L1036.84708,180.005268 Z" id="Path"></path>
        </g>
    </g>
</svg>