<?xml version="1.0" encoding="UTF-8"?>
<svg width="646px" height="134px" viewBox="0 0 646 134" version="1.1" xmlns="http://www.w3.org/2000/svg" xmlns:xlink="http://www.w3.org/1999/xlink">
    <title>download (2) copy</title>
    <g id="Golden-App-" stroke="none" stroke-width="1" fill="none" fill-rule="evenodd">
        <g id="download-(2)-copy" fill="#8CB85A" fill-rule="nonzero">
            <path d="M158,125.904849 C158,129.270988 155.279381,132 151.923117,132 L125.97884,132 C122.622837,132 119.901957,129.270988 119.901957,125.904849 L119.901957,50.0016327 C119.901957,48.7913796 118.40369,48.2318367 117.615512,49.1476898 L84.7478682,87.3376653 C81.6287348,90.9618939 76.028715,90.9558857 72.9173904,87.3248653 L40.2152949,49.1615347 C39.4281582,48.2428082 37.927028,48.8015673 37.927028,50.0131265 L37.927028,125.904849 C37.927028,129.270988 35.2064086,132 31.850145,132 L6.07690906,132 C2.72072356,132 0,129.270988 0,125.904849 L0,10.0952294 C0,6.72893388 2.72072356,4 6.07693509,4 L31.0211005,4 C32.1627611,4 33.2474168,4.50155102 33.9892619,5.3726302 L77.6724876,56.6678204 C78.1894366,57.2749061 79.1233806,57.278302 79.6447545,56.6751347 L124.0123,5.35066122 C124.753885,4.49277388 125.82969,4 126.96146,4 L151.923117,4 C155.279381,4 158,6.72893388 158,10.0952294 L158,125.904849 Z" id="Path"></path>
            <path d="M387,79.3933061 L387,125.904849 C387,129.270988 384.250911,132 380.857914,132 L354.242209,132 C350.849212,132 348.097495,129.270988 348.097495,125.904849 L348.097495,79.4045388 L305.962313,13.3554678 C303.373543,9.29708408 306.311862,4 311.152993,4 L333.124682,4 C335.200954,4 337.137932,5.04158041 338.270683,6.76858776 L367.572401,51.4106776 L387,79.3933061 Z" id="Path"></path>
            <path d="M385.552742,17 C395.838626,8.59155897 419.877187,5 419.877187,5 C419.877187,5 422.428022,38.1752413 404.279281,50.0000288 C395.018524,56.0316801 376.174828,56 376.174828,56 C376.174828,56 370.106609,29.6250143 385.552742,17 Z" id="Path"></path>
            <path d="M241.916377,5 C258.159672,5 270.567332,8.41339642 279.139878,15.2402149 C287.712424,21.9783491 292,31.4206362 292,43.5668966 L292,104.343336 L292,129.576813 C292,132.086799 289.457671,133.823298 287.074237,132.932865 C279.697315,130.177189 265.97499,125.026678 259.64782,122.496175 C246.924713,131.362296 234.155761,134 221.341485,134 C212.227391,134 203.33471,133.597612 193.773364,128.229622 C184.744709,123.160666 178.925224,117.056632 175.409465,109.263801 C168.79993,94.6126839 172.125536,77.9303936 182.57305,68.7306163 C199.223743,54.0684712 229.067977,53.9402406 229.067977,53.9402406 L258.837713,53.9402406 L258.837713,48.221668 C258.837713,36.0751511 249.128413,30.7743539 234.148468,30.7743539 C221.818693,30.7743539 202.810875,34.9721113 193.526164,37.2174294 C190.36831,37.9809145 187.098708,36.4021392 185.961954,33.402825 C184.656405,29.9580378 183.025772,25.2870324 181.967163,20.9352187 C181.361276,18.4447237 182.566017,15.9028082 184.941636,14.8598573 C198.332365,8.98104771 224.787435,5 241.916377,5 Z M206.928354,98.3518887 C208.434736,104.854207 212.201343,108.164095 218.129189,111.39166 C224.583996,114.906461 229.571494,114.137078 236.908041,113.386672 C246.033856,112.452897 251.526954,111.645044 258.837713,105.084252 L258.837713,70.830008 C258.837713,70.830008 237.780143,67.7381113 225.943726,72.7057654 C218.817911,75.6963598 213.485011,77.2279463 209.663442,83.861829 C206.779357,88.8682087 205.628276,92.7405169 206.928354,98.3518887 Z" id="Shape"></path>
            <path d="M531,122.60119 C531,126.135125 528.117538,129 524.565933,129 L434,129 L434,126.521101 C437.747201,122.909613 441.859857,118.594256 446.343115,113.57503 C450.826373,108.555804 456.599018,101.914607 463.661051,93.6511845 C466.916689,89.9173512 469.956142,86.2449464 472.781985,82.6334583 C475.66702,79.0219702 478.124834,75.5330833 480.150279,72.1665417 C482.178297,68.7388274 483.897479,64.9742798 485.310401,60.8734107 C486.720748,56.7722857 487.428496,52.5792738 487.428496,48.294631 C487.428496,42.4184762 485.709313,37.6746548 482.268374,34.0634226 C478.891775,30.3907619 474.562934,28.5545595 469.281852,28.5545595 C460.397692,28.5545595 451.557283,32.4552738 442.760626,40.2567024 C441.028575,41.7947202 438.146113,40.6257857 438.146113,38.3153036 L438.146113,18.1761 C438.146113,16.0030387 439.252773,13.9758446 441.09549,12.807678 C443.419475,11.3342625 445.414036,10.0949411 447.081746,9.0896881 C449.413452,7.68184762 452.084877,6.30461905 455.09602,4.95800238 C458.166357,3.61138571 461.78745,2.44839952 465.964447,1.46903869 C470.141443,0.489680417 474.655585,0 479.506872,0 C487.304962,0 494.397877,1.59145815 500.78562,4.77438214 C507.170788,7.89607976 512.176492,12.4562298 515.800159,18.4548065 C519.485593,24.3921595 521.325736,31.3395774 521.325736,39.296881 C521.325736,44.9280893 520.497028,50.1922619 518.839613,55.0888869 C517.182197,59.9857679 515.463014,63.9338333 513.682064,66.9330833 C511.901114,69.9323333 509.535951,73.6357083 506.589148,78.0426964 C501.995224,84.8546131 497.125922,91.3890774 491.976094,97.6458333 C491.654391,98.0379524 491.005837,98.8186071 491.005837,98.8186071 C491.005837,98.8186071 512.397824,99.0359107 524.331733,98.9952143 C527.978562,98.9826726 531,101.924333 531,105.551946 L531,122.60119 Z" id="Path"></path>
            <path d="M646,98.9817577 C646,101.847765 643.69571,104.17098 640.850748,104.17098 L630.886946,104.17098 L630.886946,125.513472 C630.886946,129.095852 628.005939,132 624.450381,132 L601.773076,132 C598.220092,132 595.336511,129.095852 595.336511,125.513472 L595.336511,104.17098 L551.436565,104.17098 C547.881006,104.17098 545,101.266832 545,97.6844522 L545,80.9240429 C545,80.0652267 545.283209,79.2305403 545.803283,78.5499738 L602.74371,4.01183086 C603.232889,3.373816 603.98468,3 604.785388,3 L624.450381,3 C628.005939,3 630.886946,5.90410667 630.886946,9.48653809 L630.886946,82.0194877 L640.850748,82.0194877 C643.69571,82.0194877 646,84.3427025 646,87.2087099 L646,98.9817577 Z M595.336511,82.0194877 L595.336511,42.2516242 L565.182493,82.0194877 L595.336511,82.0194877 Z" id="Shape"></path>
        </g>
    </g>
</svg>