<?xml version="1.0" encoding="UTF-8"?>
<svg width="222px" height="70px" viewBox="0 0 222 70" version="1.1" xmlns="http://www.w3.org/2000/svg" xmlns:xlink="http://www.w3.org/1999/xlink">
    <title>MEL_logotype_science_black_1l.c6d90beb4d38</title>
    <g id="Page-1" stroke="none" stroke-width="1" fill="none" fill-rule="evenodd">
        <g id="MEL_logotype_science_black_1l.c6d90beb4d38" fill="#000000" fill-rule="nonzero">
            <path d="M101.169811,59 C102.641509,60.5555556 104.90566,61.7777778 107.283019,61.7777778 C109.54717,61.7777778 111.018868,60.4444444 111.018868,58.5555556 C111.018868,55.3333333 106.264151,54.8888889 102.754717,52.8888889 C100.716981,51.7777778 99.1320755,50 99.1320755,47.1111111 C99.1320755,42.5555556 103.320755,40 107.622642,40 C110.226415,40 112.716981,40.6666667 115.09434,42.3333333 L112.490566,46 C111.471698,45.1111111 109.773585,44.3333333 108.075472,44.3333333 C106.150943,44.3333333 104.113208,45.1111111 104.113208,47.1111111 C104.113208,51.2222222 116,49.8888889 116,58.4444444 C116,62.8888889 111.924528,66 107.283019,66 C103.773585,66 100.603774,64.5555556 98,62.2222222 L101.169811,59 L101.169811,59 Z M135,62.1585366 C132.942675,64.902439 130.452229,66 127.203822,66 C121.898089,66 118,62.0487805 118,57 C118,51.9512195 122.006369,48 127.203822,48 C130.127389,48 132.834395,49.4268293 134.350318,51.5121951 L131.101911,54.3658537 C130.235669,53.1585366 128.828025,52.2804878 127.203822,52.2804878 C124.605096,52.2804878 122.547771,54.3658537 122.547771,57 C122.547771,59.7439024 124.496815,61.7195122 127.312102,61.7195122 C129.152866,61.7195122 130.66879,60.6219512 131.426752,59.4146341 L135,62.1585366 Z M140,39 C141.607143,39 143,40.3333333 143,42 C143,43.6666667 141.714286,45 140,45 C138.392857,45 137,43.6666667 137,42 C137,40.2222222 138.392857,39 140,39 Z M143,65 L138,65 L138,48 L143,48 L143,65 Z M161.552632,62.9268293 C159.875,64.902439 157.078947,66 154.282895,66 C149.026316,66 145,62.3780488 145,57 C145,52.1707317 148.355263,48 153.611842,48 C158.532895,48 162,52.0609756 162,56.8902439 C162,57.3292683 162,57.7682927 161.888158,58.2073171 L149.697368,58.2073171 C149.921053,60.6219512 151.934211,62.2682927 154.506579,62.2682927 C156.519737,62.2682927 158.085526,61.1707317 158.980263,60.2926829 L161.552632,62.9268293 Z M157,55 C156.892308,53.5 155.492308,52 153.661538,52 C151.723077,52 150.215385,53.3928571 150,55 L157,55 L157,55 Z M166,65 L166,47.3375 L170.43949,47.3375 L170.43949,48.8 C171.738854,47.675 173.363057,47 175.312102,47 C177.694268,47 179.859873,48.125 181.267516,49.8125 C182.350318,51.1625 183,52.9625 183,56 L183,65 L178.452229,65 L178.452229,55.55 C178.452229,53.75 178.019108,52.85 177.477707,52.175 C176.828025,51.5 175.961783,51.1625 174.878981,51.1625 C172.929936,51.1625 171.305732,52.4 170.764331,53.4125 L170.764331,65 L166,65 L166,65 Z M203,62.1585366 C200.942675,64.902439 198.452229,66 195.203822,66 C189.898089,66 186,62.0487805 186,57 C186,51.9512195 190.006369,48 195.203822,48 C198.127389,48 200.834395,49.4268293 202.350318,51.5121951 L199.101911,54.3658537 C198.235669,53.1585366 196.828025,52.2804878 195.203822,52.2804878 C192.605096,52.2804878 190.547771,54.3658537 190.547771,57 C190.547771,59.7439024 192.496815,61.7195122 195.312102,61.7195122 C197.152866,61.7195122 198.66879,60.6219512 199.426752,59.4146341 L203,62.1585366 L203,62.1585366 Z M221.552632,62.9268293 C219.875,64.902439 217.078947,66 214.282895,66 C209.026316,66 205,62.3780488 205,57 C205,52.1707317 208.355263,48 213.611842,48 C218.532895,48 222,52.0609756 222,56.8902439 C222,57.3292683 222,57.7682927 221.888158,58.2073171 L209.697368,58.2073171 C209.921053,60.6219512 211.934211,62.2682927 214.506579,62.2682927 C216.519737,62.2682927 218.085526,61.1707317 218.980263,60.2926829 L221.552632,62.9268293 Z M217,55 C216.892308,53.5 215.492308,52 213.661538,52 C211.723077,52 210.215385,53.3928571 210,55 L217,55 L217,55 Z" id="Shape"></path>
            <path d="M113.554585,18.9122807 L122.615721,4 L126,4 L126,29 L121.196507,29 L121.196507,15.0745614 L115.19214,24.8333333 L111.80786,24.8333333 L105.803493,15.0745614 L105.803493,29 L101,29 L101,4 L104.384279,4 L113.554585,18.9122807 Z M135.028571,8.29515419 L135.028571,13.4713656 L143.028571,13.4713656 L143.028571,17.7665198 L135.028571,17.7665198 L135.028571,24.7048458 L146,24.7048458 L146,29 L130,29 L130,4 L145.657143,4 L145.657143,8.29515419 L135.028571,8.29515419 Z M149,4 L154.028571,4 L154.028571,24.7236842 L165,24.7236842 L165,29 L149,29 L149,4 Z" id="Combined-Shape"></path>
            <g id="Group" transform="translate(0.000000, 0.000000)">
                <path d="M57.6123348,41.0044053 C54.2907489,41.0044053 51.4801762,38.1938326 51.4801762,34.8722467 C51.4801762,31.5506608 54.2907489,28.7400881 57.6123348,28.7400881 L64,28.7400881 L64,41.0044053 L57.6123348,41.0044053 Z M12.3876652,41.0044053 C15.7092511,41.0044053 18.5198238,38.1938326 18.5198238,34.8722467 C18.5198238,31.5506608 15.7092511,28.7400881 12.3876652,28.7400881 L6,28.7400881 L6,41.0044053 L12.3876652,41.0044053 Z M41.0044053,12.3876652 C41.0044053,15.7092511 38.1938326,18.5198238 34.8722467,18.5198238 C31.5506608,18.5198238 28.7400881,15.7092511 28.7400881,12.3876652 L28.7400881,6 L41.0044053,6 L41.0044053,12.3876652 Z M41.0044053,57.6123348 C41.0044053,54.2907489 38.1938326,51.4801762 34.8722467,51.4801762 C31.5506608,51.4801762 28.7400881,54.2907489 28.7400881,57.6123348 L28.7400881,64 L41.0044053,64 L41.0044053,57.6123348 Z" id="Shape" opacity="0.3"></path>
                <circle id="Oval" cx="35" cy="35" r="6"></circle>
                <circle id="Oval" cx="35" cy="6" r="6"></circle>
                <circle id="Oval" cx="35" cy="64" r="6"></circle>
                <circle id="Oval" cx="64" cy="35" r="6"></circle>
                <path d="M54.7532468,63.5844156 C52.4155844,61.2467532 52.4155844,57.3506494 54.7532468,54.7532468 C57.0909091,52.4155844 60.987013,52.4155844 63.5844156,54.7532468 L68,59.1688312 L59.1688312,68 L54.7532468,63.5844156 Z" id="Path" opacity="0.3"></path>
                <circle id="Oval" cx="64" cy="64" r="6"></circle>
                <path d="M15.2467532,6.3867249 C17.5844156,8.70910867 17.5844156,12.5797483 15.2467532,15.1601747 C12.9090909,17.7406011 9.01298701,17.4825585 6.41558442,15.1601747 L2,10.7734498 L10.8311688,2 L15.2467532,6.3867249 Z" id="Path" opacity="0.3"></path>
                <circle id="Oval" cx="6" cy="6" r="6"></circle>
                <path d="M63.5844156,15.2467532 C61.2467532,17.5844156 57.3506494,17.5844156 54.7532468,15.2467532 C52.4155844,12.9090909 52.4155844,9.01298701 54.7532468,6.41558442 L59.1688312,2 L68,10.8311688 L63.5844156,15.2467532 L63.5844156,15.2467532 Z" id="Path" opacity="0.3"></path>
                <circle id="Oval" cx="64" cy="6" r="6"></circle>
                <g transform="translate(0.000000, 54.000000)">
                    <path d="M5.93050193,1.66795367 C8.15444015,-0.555984556 11.8610039,-0.555984556 14.3320463,1.66795367 C16.5559846,3.89189189 16.5559846,7.5984556 14.3320463,10.0694981 L10.1312741,14.2702703 L1.72972973,5.86872587 L5.93050193,1.66795367 Z" id="Path" opacity="0.3"></path>
                    <circle id="Oval" cx="5.93050193" cy="10.0694981" r="5.93050193"></circle>
                </g>
                <circle id="Oval" cx="6" cy="35" r="6"></circle>
            </g>
        </g>
    </g>
</svg>