<svg width="80" height="80" viewBox="0 0 80 80" fill="none" xmlns="http://www.w3.org/2000/svg">
<g clip-path="url(#clip0_2451_6587)">
<path d="M77.7474 34.4591L75.2388 31.7591C73.5971 29.9922 72.8308 27.5357 73.1611 25.102L73.6662 21.3825C74.2445 17.1265 71.4765 13.1597 67.4102 12.4174L63.8565 11.7682C61.5314 11.3437 59.5239 9.82538 58.4177 7.65395L56.7262 4.33567C54.7914 0.538525 50.3125 -0.976332 46.6034 0.911096L43.3616 2.56081C41.2405 3.64024 38.7599 3.64024 36.6388 2.56081L33.3971 0.911096C29.6879 -0.976332 25.2091 0.538525 23.2742 4.33567L21.5828 7.65395C20.4765 9.82538 18.4691 11.3437 16.1439 11.7682L12.5902 12.4174C8.52394 13.1602 5.75594 17.1265 6.33365 21.3825L6.83879 25.102C7.16965 27.5357 6.40279 29.9922 4.76108 31.7591L2.25251 34.4591C-0.618349 37.5482 -0.618349 42.4517 2.25251 45.5408L4.76108 48.2408C6.40279 50.0077 7.16908 52.4637 6.83879 54.8979L6.33365 58.6174C5.75536 62.8734 8.52337 66.8402 12.5902 67.5825L16.1439 68.2317C18.4691 68.6562 20.4765 70.1745 21.5828 72.346L23.2742 75.6642C25.2091 79.4614 29.6879 80.9762 33.3971 79.0888L36.6388 77.4391C38.7599 76.3597 41.2405 76.3597 43.3616 77.4391L46.6034 79.0888C50.3125 80.9768 54.7914 79.4614 56.7262 75.6642L58.4177 72.346C59.5239 70.1745 61.5314 68.6562 63.8565 68.2317L67.4102 67.5825C71.4765 66.8397 74.2445 62.8734 73.6662 58.6174L73.1611 54.8979C72.8302 52.4642 73.5971 50.0077 75.2388 48.2408L77.7474 45.5408C80.6176 42.4517 80.6176 37.5488 77.7474 34.4591ZM12.6622 63.5242C11.1599 63.5242 9.94222 62.2562 9.94222 60.6922C9.94222 59.1282 11.1599 57.8602 12.6622 57.8602C14.1645 57.8602 15.3822 59.1282 15.3822 60.6922C15.3822 62.2562 14.1645 63.5242 12.6622 63.5242Z" fill="url(#paint0_angular_2451_6587)"/>
<path d="M77.7474 34.4591L75.2388 31.7591C73.5971 29.9922 72.8308 27.5357 73.1611 25.102L73.6662 21.3825C74.2445 17.1265 71.4765 13.1597 67.4102 12.4174L63.8565 11.7682C61.5314 11.3437 59.5239 9.82538 58.4177 7.65395L56.7262 4.33567C54.7914 0.538525 50.3125 -0.976332 46.6034 0.911096L43.3616 2.56081C41.2405 3.64024 38.7599 3.64024 36.6388 2.56081L33.3971 0.911096C29.6879 -0.976332 25.2091 0.538525 23.2742 4.33567L21.5828 7.65395C20.4765 9.82538 18.4691 11.3437 16.1439 11.7682L12.5902 12.4174C8.52394 13.1602 5.75594 17.1265 6.33365 21.3825L6.83879 25.102C7.16965 27.5357 6.40279 29.9922 4.76108 31.7591L2.25251 34.4591C-0.618349 37.5482 -0.618349 42.4517 2.25251 45.5408L4.76108 48.2408C6.40279 50.0077 7.16908 52.4637 6.83879 54.8979L6.33365 58.6174C5.75536 62.8734 8.52337 66.8402 12.5902 67.5825L16.1439 68.2317C18.4691 68.6562 20.4765 70.1745 21.5828 72.346L23.2742 75.6642C25.2091 79.4614 29.6879 80.9762 33.3971 79.0888L36.6388 77.4391C38.7599 76.3597 41.2405 76.3597 43.3616 77.4391L46.6034 79.0888C50.3125 80.9768 54.7914 79.4614 56.7262 75.6642L58.4177 72.346C59.5239 70.1745 61.5314 68.6562 63.8565 68.2317L67.4102 67.5825C71.4765 66.8397 74.2445 62.8734 73.6662 58.6174L73.1611 54.8979C72.8302 52.4642 73.5971 50.0077 75.2388 48.2408L77.7474 45.5408C80.6176 42.4517 80.6176 37.5488 77.7474 34.4591ZM12.6622 63.5242C11.1599 63.5242 9.94222 62.2562 9.94222 60.6922C9.94222 59.1282 11.1599 57.8602 12.6622 57.8602C14.1645 57.8602 15.3822 59.1282 15.3822 60.6922C15.3822 62.2562 14.1645 63.5242 12.6622 63.5242Z" fill="#7B2917" style="mix-blend-mode:color"/>
<path d="M77.7474 34.4591L75.2388 31.7591C73.5971 29.9922 72.8308 27.5357 73.1611 25.102L73.6662 21.3825C74.2445 17.1265 71.4765 13.1597 67.4102 12.4174L63.8565 11.7682C61.5314 11.3437 59.5239 9.82538 58.4177 7.65395L56.7262 4.33567C54.7914 0.538525 50.3125 -0.976332 46.6034 0.911096L43.3616 2.56081C41.2405 3.64024 38.7599 3.64024 36.6388 2.56081L33.3971 0.911096C29.6879 -0.976332 25.2091 0.538525 23.2742 4.33567L21.5828 7.65395C20.4765 9.82538 18.4691 11.3437 16.1439 11.7682L12.5902 12.4174C8.52394 13.1602 5.75594 17.1265 6.33365 21.3825L6.83879 25.102C7.16965 27.5357 6.40279 29.9922 4.76108 31.7591L2.25251 34.4591C-0.618349 37.5482 -0.618349 42.4517 2.25251 45.5408L4.76108 48.2408C6.40279 50.0077 7.16908 52.4637 6.83879 54.8979L6.33365 58.6174C5.75536 62.8734 8.52337 66.8402 12.5902 67.5825L16.1439 68.2317C18.4691 68.6562 20.4765 70.1745 21.5828 72.346L23.2742 75.6642C25.2091 79.4614 29.6879 80.9762 33.3971 79.0888L36.6388 77.4391C38.7599 76.3597 41.2405 76.3597 43.3616 77.4391L46.6034 79.0888C50.3125 80.9768 54.7914 79.4614 56.7262 75.6642L58.4177 72.346C59.5239 70.1745 61.5314 68.6562 63.8565 68.2317L67.4102 67.5825C71.4765 66.8397 74.2445 62.8734 73.6662 58.6174L73.1611 54.8979C72.8302 52.4642 73.5971 50.0077 75.2388 48.2408L77.7474 45.5408C80.6176 42.4517 80.6176 37.5488 77.7474 34.4591ZM12.6622 63.5242C11.1599 63.5242 9.94222 62.2562 9.94222 60.6922C9.94222 59.1282 11.1599 57.8602 12.6622 57.8602C14.1645 57.8602 15.3822 59.1282 15.3822 60.6922C15.3822 62.2562 14.1645 63.5242 12.6622 63.5242Z" fill="url(#paint1_linear_2451_6587)" fill-opacity="0.2"/>
<path d="M20.6245 43.4144V36.1333H23.2622C24.2062 36.1333 24.9251 36.3047 25.4177 36.6482C25.9097 36.9916 26.1565 37.4899 26.1565 38.143C26.1565 38.5202 26.0691 38.8419 25.8942 39.1082C25.7194 39.375 25.4622 39.5716 25.1222 39.6984C25.5057 39.7984 25.7999 39.9853 26.0051 40.2584C26.2097 40.5322 26.3125 40.8653 26.3125 41.2584C26.3125 41.9716 26.0851 42.5082 25.6291 42.8659C25.1737 43.2242 24.4988 43.4064 23.6045 43.4133H20.6245V43.4144ZM22.3942 39.1687H23.3171C23.7039 39.1659 23.9794 39.0956 24.1439 38.9579C24.3085 38.8207 24.3914 38.6184 24.3914 38.351C24.3914 38.0436 24.3022 37.8219 24.1239 37.6864C23.9457 37.551 23.6582 37.4836 23.2617 37.4836H22.3942V39.1687ZM22.3942 40.319V42.0647H23.5542C23.8737 42.0647 24.1188 41.9922 24.2902 41.847C24.4617 41.7019 24.5474 41.4979 24.5474 41.2344C24.5474 40.6276 24.2434 40.3224 23.6342 40.319H22.3942Z" fill="white"/>
<path d="M30.0142 40.839H29.0559V43.4144H27.2856V36.1333H30.1754C31.0462 36.1333 31.7274 36.3247 32.2176 36.7076C32.7085 37.0904 32.9542 37.6316 32.9542 38.331C32.9542 38.8373 32.8508 39.2567 32.6439 39.5899C32.4376 39.923 32.1136 40.1927 31.6731 40.399L33.2068 43.3384V43.4139H31.3108L30.0142 40.839ZM29.0565 39.4887H30.1759C30.5125 39.4887 30.7651 39.4013 30.9348 39.2259C31.1051 39.0504 31.1896 38.8059 31.1896 38.4916C31.1896 38.1773 31.1039 37.931 30.9325 37.7522C30.7611 37.5733 30.5091 37.4842 30.1759 37.4842H29.0565V39.4887Z" fill="white"/>
<path d="M40.2422 39.9241C40.2422 40.6343 40.1097 41.2623 39.844 41.8092C39.5782 42.3555 39.2011 42.7761 38.712 43.0715C38.2234 43.3669 37.6657 43.5138 37.04 43.5138C36.4148 43.5138 35.8605 43.3715 35.376 43.0863C34.8914 42.8012 34.5142 42.3938 34.244 41.8635C33.9737 41.3332 33.8314 40.7252 33.8182 40.0383V39.6286C33.8182 38.9155 33.9497 38.2858 34.2137 37.7412C34.4777 37.1961 34.856 36.7755 35.348 36.4783C35.8405 36.1818 36.4017 36.0332 37.0297 36.0332C37.652 36.0332 38.2068 36.1801 38.6942 36.4738C39.1817 36.7669 39.5605 37.1846 39.8308 37.7263C40.1011 38.2681 40.2388 38.8892 40.2422 39.5892V39.9241ZM38.4417 39.6189C38.4417 38.8955 38.3194 38.3463 38.0754 37.9715C37.832 37.5966 37.4834 37.4092 37.0291 37.4092C36.1417 37.4092 35.6725 38.0692 35.6222 39.3892L35.6171 39.9246C35.6171 40.6383 35.7365 41.1863 35.9748 41.5692C36.2137 41.9526 36.5685 42.1446 37.0388 42.1446C37.4862 42.1446 37.8308 41.9561 38.0731 41.5795C38.3154 41.2029 38.4382 40.6618 38.4417 39.9543V39.6189Z" fill="white"/>
<path d="M47.2869 43.4144H45.5269L42.9246 38.8842V43.4144H41.1543V36.1333H42.9246L45.5217 40.6642V36.1333H47.2869V43.4144Z" fill="white"/>
<path d="M50.3937 42.0642H53.904V43.4139H48.1845V42.4887L51.6845 37.4887H48.1646V36.1333H53.868V37.0333L50.3937 42.0642Z" fill="white"/>
<path d="M59.2596 40.3236H56.4756V42.0642H59.7636V43.4139H54.7053V36.1333H59.7733V37.4887H56.4756V39.0242H59.2596V40.3236Z" fill="white"/>
<path d="M19.851 22.848L19.1224 23.8263L21.7744 25.8023L21.1887 26.588L18.5373 24.612L17.8213 25.572L17.215 25.12L19.2441 22.396L19.851 22.848Z" fill="white"/>
<path d="M23.5532 22.7002L22.6075 23.6533L22.9806 24.3545L22.2435 25.0967L20.4092 21.1767L21.0589 20.5225L25 22.3202L24.2589 23.067L23.5532 22.7002ZM22.2355 22.9533L22.8509 22.3333L21.5418 21.6516L22.2355 22.9533Z" fill="white"/>
<path d="M27.5281 19.8895C27.5041 20.1135 27.4047 20.3517 27.2298 20.6049C27.0544 20.8575 26.8269 21.086 26.5469 21.2883C26.1155 21.6009 25.6755 21.718 25.2264 21.6403C24.7778 21.5637 24.3744 21.2957 24.0161 20.8392L23.8075 20.5558C23.5732 20.2318 23.4258 19.9066 23.3652 19.5826C23.3052 19.2575 23.3338 18.9529 23.4532 18.6672C23.5721 18.3826 23.7721 18.1392 24.0521 17.9363C24.4624 17.6398 24.8487 17.5026 25.2109 17.5266C25.5738 17.55 25.9087 17.734 26.2161 18.0798L25.4515 18.6329C25.2915 18.4683 25.1372 18.3797 24.9904 18.3666C24.8435 18.3546 24.6864 18.4072 24.5212 18.5272C24.3212 18.6712 24.2287 18.8672 24.2429 19.1135C24.2561 19.3615 24.3755 19.6426 24.6018 19.9575L24.7458 20.1569C24.9829 20.4849 25.2178 20.6918 25.4498 20.7752C25.6812 20.8592 25.9178 20.8135 26.1584 20.6392C26.3652 20.49 26.4858 20.3329 26.5207 20.1678L26.1509 19.6563L25.5989 20.0552L25.2052 19.5106L26.5504 18.5375L27.5281 19.8895Z" fill="white"/>
<path d="M28.7047 18.9881L30.2167 18.1984L30.5653 18.8664L28.1853 20.1098L26.3047 16.5064L27.1733 16.0532L28.7047 18.9881Z" fill="white"/>
<path d="M31.8463 18.3841L30.9394 18.7469L29.4297 14.9732L30.3371 14.6104L31.8463 18.3841Z" fill="white"/>
<path d="M35.6257 17.2604L34.6851 17.5136L32.6371 15.4473L33.2943 17.8879L32.3486 18.1427L31.292 14.2193L32.2377 13.9644L34.2828 16.0324L33.6257 13.5907L34.5686 13.3364L35.6257 17.2604Z" fill="white"/>
<path d="M38.4133 15.1967L36.8824 15.3727L36.9927 16.3373L38.8007 16.1299L38.8864 16.8785L36.1053 17.1985L35.6418 13.1619L38.4281 12.8413L38.5144 13.5922L36.7007 13.8007L36.7984 14.6516L38.3293 14.4756L38.4133 15.1967Z" fill="white"/>
<path d="M42.8754 16.306L41.5388 16.1814L41.2348 16.9151L40.1931 16.818L42.0554 12.9111L42.9725 12.9957L44.0885 17.182L43.0411 17.0837L42.8754 16.306ZM41.8428 15.45L42.7125 15.5317L42.408 14.0883L41.8428 15.45Z" fill="white"/>
<path d="M47.5377 16.5524L48.6731 14.2233L49.6086 14.4856L47.6834 18.1661L46.7046 17.8924L46.8051 15.5153L45.6674 17.6021L44.6914 17.329L44.9537 13.1821L45.8914 13.4444L45.6537 16.0244L46.8783 13.7204L47.6788 13.9456L47.5377 16.5524Z" fill="white"/>
<path d="M50.984 18.8196L49.7755 18.235L49.2343 18.8156L48.2926 18.3596L51.4052 15.3516L52.2337 15.7527L51.8137 20.0653L50.8675 19.6064L50.984 18.8196ZM50.3166 17.6556L51.1029 18.0367L51.3223 16.5773L50.3166 17.6556Z" fill="white"/>
<path d="M53.9835 19.8489L53.5486 19.546L52.7269 20.7254L51.9235 20.166L54.2452 16.8306L55.5577 17.7454C55.9532 18.0203 56.2012 18.3237 56.3017 18.6546C56.4029 18.9849 56.3417 19.31 56.1189 19.6306C55.9577 19.8626 55.7766 20.0226 55.5766 20.1094C55.3766 20.1963 55.1435 20.2174 54.8778 20.1729L54.636 22.0037L54.612 22.0386L53.7503 21.4386L53.9835 19.8489ZM53.9795 18.9277L54.4875 19.282C54.6406 19.3883 54.7835 19.4277 54.9166 19.4009C55.0497 19.3746 55.1663 19.2894 55.2663 19.1454C55.3663 19.0014 55.4058 18.8614 55.3852 18.7254C55.3646 18.5894 55.2783 18.4694 55.1275 18.3637L54.6189 18.0089L53.9795 18.9277Z" fill="white"/>
<path d="M54.8406 22.2418L57.6469 19.3018L58.5931 20.2052C58.8531 20.4538 59.0303 20.7355 59.1251 21.0509C59.22 21.3663 59.2234 21.6863 59.1354 22.0132C59.0469 22.3389 58.8754 22.636 58.6229 22.904L58.4937 23.0389C58.2366 23.308 57.9497 23.4949 57.6326 23.5995C57.3143 23.704 56.9954 23.7183 56.6737 23.6418C56.3526 23.5646 56.0634 23.4058 55.8074 23.164L54.8406 22.2418ZM57.8331 20.5252L56.0697 22.3726L56.316 22.608C56.5189 22.8018 56.744 22.8783 56.9914 22.8378C57.2389 22.7972 57.4989 22.6343 57.7709 22.3486L57.892 22.2212C58.164 21.9378 58.3126 21.6715 58.3411 21.4235C58.3703 21.1755 58.28 20.9515 58.0709 20.7526L57.8331 20.5252Z" fill="white"/>
<path d="M59.5035 25.7034C59.6167 25.616 59.6744 25.5068 59.6755 25.3783C59.6767 25.2497 59.6338 25.0571 59.5452 24.8034C59.4567 24.5497 59.3949 24.3337 59.3595 24.1566C59.2418 23.5817 59.3624 23.156 59.7201 22.88C59.8984 22.7423 60.0955 22.6726 60.3121 22.6714C60.5281 22.6697 60.7475 22.7343 60.9698 22.8663C61.1927 22.9971 61.3955 23.1817 61.5784 23.4189C61.7567 23.6497 61.8761 23.8891 61.9355 24.1366C61.9949 24.3834 61.9875 24.6166 61.9132 24.836C61.8395 25.0554 61.7047 25.2411 61.5087 25.392L60.9109 24.6183C61.0424 24.5177 61.1132 24.3988 61.1229 24.2634C61.1332 24.1274 61.0858 23.9903 60.9795 23.8537C60.8727 23.716 60.7572 23.6291 60.6344 23.5971C60.5109 23.564 60.4024 23.5834 60.3081 23.6566C60.2252 23.72 60.1852 23.8228 60.1864 23.9623C60.1875 24.1028 60.2389 24.3114 60.3395 24.5886C60.4401 24.8663 60.5035 25.1086 60.5315 25.3148C60.6001 25.8166 60.4584 26.204 60.1064 26.4754C59.8252 26.6937 59.5229 26.7577 59.1984 26.6697C58.8738 26.5817 58.5681 26.3531 58.2829 25.984C58.0812 25.7228 57.9458 25.4514 57.8761 25.1674C57.8064 24.884 57.8115 24.6257 57.8915 24.3931C57.9721 24.1611 58.1178 23.9628 58.3304 23.7994L58.9309 24.576C58.7584 24.7097 58.6664 24.852 58.6532 25.0046C58.6407 25.1566 58.7115 25.3326 58.8664 25.5331C58.9652 25.6611 59.0709 25.7411 59.1841 25.7731C59.2967 25.8034 59.4035 25.7811 59.5035 25.7034Z" fill="white"/>
<circle cx="40" cy="65" r="2" fill="white"/>
<mask id="mask0_2451_6587" style="mask-type:luminance" maskUnits="userSpaceOnUse" x="4" y="29" width="28" height="38">
<path d="M25.9954 66.0084L31.4257 63.7216L29.7108 59.149L27.7103 38.0307L18.6068 31.5713L16.1428 32.4999L14.2143 29.1787L4.8457 45.1444L25.9954 66.0084Z" fill="white"/>
</mask>
<g mask="url(#mask0_2451_6587)">
<path fill-rule="evenodd" clip-rule="evenodd" d="M50.4331 17.1718C49.9983 17.9546 48.2503 18.1449 47.064 17.8546C47.66 17.3169 48.9388 16.8049 50.0377 17.0746L50.4331 17.1718L50.0857 16.9609C49.12 16.3763 48.5868 15.1146 48.5537 14.3169C49.596 14.9483 50.6885 16.3152 50.4331 17.1718ZM40.0257 64.51C40.3983 64.51 40.6994 64.8089 40.6994 65.1786C40.6994 65.5472 40.3977 65.8466 40.0251 65.8472C39.6525 65.8477 39.3514 65.5483 39.3514 65.1792C39.352 64.81 39.6531 64.51 40.0257 64.51ZM48.9354 16.478L48.6285 16.2129C47.7754 15.4746 46.4023 15.3506 45.6251 15.5586C46.5457 16.3552 48.188 16.978 48.9354 16.478ZM31.2051 16.4855C31.952 16.9849 33.5948 16.3609 34.516 15.5638C33.7388 15.3563 32.3657 15.4809 31.512 16.2203L31.2051 16.4855ZM38.292 65.1877C38.0851 66.0569 36.4525 66.7072 35.2308 66.7432C35.6594 66.0666 36.7531 65.2329 37.8851 65.1992L38.292 65.1877C38.3063 64.294 36.884 63.2689 35.7086 62.9386C35.9571 63.698 36.8108 64.7712 37.9005 65.078L38.292 65.1877ZM35.7508 64.8523C35.856 63.9649 34.5451 62.8026 33.4091 62.3569C33.5788 63.1369 34.3194 64.29 35.3725 64.7032L35.7508 64.8523L35.3446 64.8232C34.2154 64.7437 33.0428 65.4637 32.5474 66.0935C33.7668 66.1797 35.4566 65.6957 35.7508 64.8523ZM33.2566 64.2643C32.8777 65.0746 31.1474 65.3872 29.9434 65.1786C30.5 64.6009 31.7394 64.0026 32.8548 64.194L33.2566 64.2643C33.4508 63.3917 32.2646 62.1037 31.1806 61.5472C31.2697 62.3409 31.8903 63.562 32.8948 64.078L33.2566 64.2643ZM30.8354 63.43C31.1171 62.5809 30.068 61.1815 29.0457 60.5192C29.0543 61.318 29.5468 62.5946 30.4948 63.2089L30.8354 63.43L30.4434 63.3209C29.3531 63.0175 28.0594 63.4906 27.4468 64.0095C28.6228 64.3363 30.376 64.1992 30.8354 63.43ZM28.5103 62.3575C27.9754 63.0775 26.2177 63.0386 25.0805 62.5963C25.7423 62.1409 27.0777 61.8003 28.132 62.21L28.5103 62.3575C28.8771 61.5415 27.9748 60.0438 27.0251 59.2826C26.9525 60.078 27.3131 61.3975 28.1937 62.1037L28.5103 62.3575ZM26.3068 61.0586C26.7548 60.2832 26.0091 58.7037 25.1417 57.8506C24.9886 58.6346 25.2137 59.9843 26.0177 60.774L26.3068 61.0586L25.9451 60.8746C24.9388 60.3603 23.5754 60.566 22.8708 60.9535C23.9565 61.5077 25.7017 61.7215 26.3068 61.0586ZM24.2463 59.546C23.5771 60.1449 21.8628 59.7575 20.8383 59.098C21.5788 58.7832 22.9554 58.7146 23.9046 59.326L24.2463 59.546L23.9874 59.2346C23.2674 58.3672 23.1806 57.0026 23.4125 56.238C24.1891 57.1735 24.7703 58.8192 24.2463 59.546ZM22.3503 57.8357C21.624 58.3649 19.9577 57.8083 19.0051 57.0489C19.7731 56.81 21.1503 56.8792 22.0325 57.5826L22.3503 57.8357C22.9451 57.1643 22.5343 55.4689 21.8566 54.4603C21.5486 55.1986 21.4965 56.5655 22.1245 57.4997L22.3503 57.8357ZM20.6371 55.9443C19.8611 56.3975 18.26 55.6775 17.3897 54.8272C18.1783 54.666 19.5411 54.8729 20.3474 55.6609L20.6371 55.9443C21.2977 55.3358 21.0605 53.6077 20.4886 52.5369C20.1068 53.2403 19.9165 54.5952 20.4463 55.5872L20.6371 55.9443ZM19.1251 53.8906C18.3068 54.2649 16.7874 53.3877 16.008 52.4552C16.8086 52.3735 18.1434 52.7157 18.8657 53.5803L19.1251 53.8906L18.9714 53.5169C18.5451 52.4757 18.8725 51.1477 19.3228 50.4849C19.7834 51.6077 19.8434 53.3512 19.1251 53.8906ZM17.8291 51.6969L17.7148 51.3089C17.3966 50.2318 17.856 48.9415 18.372 48.3277C18.716 49.4906 18.5988 51.2318 17.8291 51.6969L17.6023 51.3609C16.9714 50.4289 15.6783 49.9557 14.8737 49.9563C15.5543 50.962 16.9771 51.9866 17.8291 51.6969ZM16.7628 49.3832C15.8857 49.5872 14.5743 48.426 13.9988 47.3569C14.8 47.4357 16.0383 48.0363 16.5714 49.0272L16.7628 49.3832C17.5754 48.9975 17.8686 47.2775 17.6451 46.086C17.0697 46.6449 16.4811 47.882 16.6886 48.9866L16.7628 49.3832ZM15.9366 46.9763L15.9023 46.5735C15.808 45.4546 16.5188 44.2815 17.1486 43.7826C17.2503 44.9906 16.784 46.674 15.9366 46.9763L15.7817 46.602C15.352 45.5632 14.1817 44.842 13.3926 44.6837C13.856 45.8049 15.0434 47.0912 15.9366 46.9763ZM15.3588 44.498L15.3657 44.094C15.3851 42.9706 16.212 41.8752 16.8886 41.4415C16.8674 42.6535 16.2331 44.2815 15.3588 44.498L15.2428 44.1106C14.9211 43.034 13.8291 42.1992 13.0606 41.962C13.408 43.1243 14.4588 44.5232 15.3588 44.498ZM15.036 41.974C14.1377 41.9095 13.2348 40.4129 13.0068 39.2215C13.7474 39.534 14.7486 40.4735 14.96 41.5775L15.036 41.974C15.9274 41.8466 16.724 40.29 16.868 39.0866C16.1508 39.45 15.2177 40.4569 15.084 41.5723L15.036 41.974ZM14.9708 39.4312C14.0834 39.2769 13.3371 37.6975 13.232 36.49C13.9366 36.8746 14.8377 37.9089 14.9354 39.0289L14.9708 39.4312C15.8703 39.3929 16.8211 37.9243 17.0863 36.7409C16.336 37.0306 15.3051 37.9398 15.0588 39.0369L14.9708 39.4312ZM15.1634 36.8946C14.2971 36.6518 13.7143 35.0066 13.7326 33.794C14.3948 34.2477 15.1857 35.3666 15.1697 36.49L15.1634 36.8946C16.0623 36.9466 17.1571 35.5798 17.5417 34.4289C16.7657 34.642 15.648 35.4443 15.2914 36.5106L15.1634 36.8946ZM15.6131 34.3889L15.7794 34.0203C16.2417 32.9946 17.4354 32.3089 18.2285 32.1735C17.7297 33.2809 16.5023 34.5306 15.6131 34.3889L15.66 33.9883C15.7903 32.8723 15.1171 31.6792 14.5034 31.162C14.3634 32.366 14.776 34.0615 15.6131 34.3889ZM16.3148 31.942C15.5148 31.5323 15.2766 29.8038 15.5388 28.6192C16.096 29.1958 16.6451 30.45 16.4023 31.5472L16.3148 31.942C17.1846 32.1712 18.5331 31.05 19.1423 29.9986C18.3394 30.0535 17.0823 30.6169 16.5183 31.5912L16.3148 31.942ZM17.2611 29.5763C16.5068 29.0883 16.4451 27.3449 16.8263 26.1929C17.3223 26.8215 17.7411 28.1249 17.388 29.1923L17.2611 29.5763C18.1034 29.8918 19.5583 28.9106 20.2714 27.9255C19.4668 27.9003 18.1594 28.3352 17.4988 29.2477L17.2611 29.5763ZM18.4428 27.3175C19.2486 27.7158 20.7954 26.8849 21.6045 25.9758C20.8068 25.8695 19.4617 26.1718 18.712 27.0146L18.4428 27.3175L18.608 26.9478C19.0674 25.9209 18.7828 24.5826 18.3531 23.9072C17.8577 25.0158 17.7423 26.7569 18.4428 27.3175ZM19.8468 25.1883C19.2068 24.5603 19.4988 22.8398 20.1045 21.786C20.4634 22.5009 20.6108 23.8609 20.0491 24.8363L19.8468 25.1883L20.1463 24.914C20.9771 24.1506 22.3457 23.9843 23.1285 24.1689C22.232 24.9929 20.6085 25.6643 19.8468 25.1883ZM21.4606 23.2095L21.7857 22.9655C22.6903 22.2889 24.0686 22.2609 24.8286 22.5226C23.8531 23.2535 22.1697 23.7598 21.4606 23.2095L21.6971 22.8798C22.3543 21.9649 22.3463 20.5969 22.0617 19.85C21.3526 20.838 20.8874 22.5209 21.4606 23.2095ZM23.2668 21.402C22.7663 20.6598 23.4 19.0318 24.2057 18.1198C24.4125 18.8912 24.2823 20.2535 23.5354 21.098L23.2668 21.402C23.9165 22.0203 25.6428 21.6849 26.6874 21.0563C25.9577 20.7192 24.5834 20.61 23.6148 21.1929L23.2668 21.402ZM25.2474 19.7838C24.8245 18.9952 25.62 17.4386 26.5143 16.6123C26.6423 17.4009 26.3737 18.7426 25.5451 19.5089L25.2474 19.7838L25.6148 19.61C26.6377 19.1266 27.9931 19.3723 28.6851 19.7809C27.5811 20.3026 25.8303 20.4637 25.2474 19.7838ZM27.3811 18.3718L27.7646 18.2358C28.8308 17.8575 30.1548 18.2369 30.8017 18.7123C29.6508 19.1209 27.8925 19.1066 27.3811 18.3718L27.7051 18.1272C28.6074 17.4478 29.0103 16.1392 28.9634 15.342C27.9897 16.0758 27.0406 17.5455 27.3811 18.3718ZM29.6474 17.1803C29.3925 16.3238 30.4857 14.9563 31.5291 14.3243C31.4948 15.1215 30.9611 16.3838 29.9948 16.9695L29.6474 17.1803L30.0428 17.0832C31.1423 16.8123 32.4205 17.3238 33.016 17.8609C31.8291 18.1523 30.0817 17.9626 29.6474 17.1803ZM41.7474 65.186C41.9537 66.0546 43.5857 66.7037 44.8074 66.7392C44.3794 66.0626 43.2863 65.23 42.1543 65.1975L41.7474 65.186C41.7337 64.2923 43.1571 63.266 44.3325 62.9346C44.084 63.694 43.2285 64.7677 42.1388 65.0757L41.7474 65.186ZM44.2891 64.8483C44.1845 63.9609 45.4965 62.7975 46.6331 62.3506C46.4628 63.1312 45.7205 64.2843 44.668 64.6986L44.2891 64.8483L44.6954 64.8186C45.8246 64.738 46.9971 65.4575 47.4914 66.0866C46.272 66.1746 44.5823 65.6923 44.2891 64.8483ZM46.7834 64.2586L47.1451 64.0717C48.1508 63.5546 48.7714 62.3335 48.8623 61.5392C47.7771 62.0975 46.5897 63.386 46.7834 64.2586L47.1845 64.1883C48.3 63.9958 49.5394 64.5935 50.0954 65.17C48.8914 65.3797 47.1611 65.0689 46.7834 64.2586ZM49.2057 63.4226C48.9245 62.574 49.9748 61.1735 50.9983 60.51C50.9891 61.3089 50.4948 62.586 49.5468 63.2009L49.2057 63.4226L49.5977 63.3129C50.688 63.0089 51.9817 63.4803 52.5937 63.9992C51.4171 64.3266 49.664 64.1912 49.2057 63.4226ZM51.5314 62.3483C52.0657 63.0677 53.8234 63.0278 54.9605 62.5843C54.2994 62.1295 52.964 61.79 51.9103 62.2003L51.5314 62.3483C51.1651 61.5323 52.0685 60.0346 53.0194 59.2723C53.0908 60.0677 52.7291 61.3877 51.8485 62.0946L51.5314 62.3483ZM53.736 61.0477C53.2891 60.2729 54.036 58.6923 54.904 57.8392C55.0565 58.6232 54.8303 59.9729 54.0257 60.7632L53.736 61.0477L54.0983 60.8632C55.1051 60.3483 56.468 60.5529 57.1725 60.9397C56.0857 61.4946 54.3405 61.7095 53.736 61.0477ZM55.7977 59.5335C56.4663 60.1317 58.1811 59.7432 59.2063 59.0826C58.4663 58.7683 57.0897 58.7009 56.1394 59.3135L55.7977 59.5335L56.0571 59.222C56.7771 58.354 56.8657 56.9895 56.6343 56.2249C55.8571 57.1603 55.2748 58.8066 55.7977 59.5335ZM57.696 57.8209L57.9217 57.4849C58.5503 56.55 58.4994 55.1832 58.192 54.4449C57.5137 55.4546 57.1011 57.1506 57.696 57.8209L58.0131 57.5677C58.896 56.8637 60.2725 56.7929 61.0411 57.0312C60.0885 57.7917 58.4217 58.3495 57.696 57.8209ZM59.4103 55.9283C60.1863 56.3809 61.788 55.6592 62.6594 54.8089C61.8708 54.6483 60.508 54.8563 59.7011 55.6449L59.4103 55.9283C58.7508 55.3203 58.9891 53.5918 59.5617 52.5203C59.9428 53.2232 60.1325 54.578 59.6017 55.5706L59.4103 55.9283ZM60.924 53.8735C61.7417 54.2466 63.2623 53.3689 64.0428 52.4352C63.2423 52.354 61.9074 52.6975 61.1845 53.5626L60.924 53.8735L61.0777 53.4997C61.5051 52.4586 61.1794 51.13 60.7285 50.4678C60.2674 51.5912 60.2057 53.3346 60.924 53.8735ZM62.2217 51.6786C63.0737 51.9677 64.4977 50.9426 65.1794 49.9357C64.3743 49.9352 63.0811 50.4095 62.4491 51.3426L62.2217 51.6786C61.4525 51.2146 61.3371 49.4735 61.6817 48.3095C62.1971 48.9232 62.656 50.2129 62.3365 51.29L62.2217 51.6786ZM63.2897 49.3643C64.1668 49.5677 65.4794 48.4055 66.0554 47.3357C65.2548 47.4152 64.0154 48.0169 63.4817 49.0083L63.2897 49.3643C62.4777 48.9798 62.1857 47.2597 62.4108 46.0677C62.9863 46.626 63.5737 47.8632 63.3651 48.9678L63.2897 49.3643ZM64.1183 46.9569C65.0114 47.0706 66.1994 45.7832 66.664 44.662C65.8748 44.8209 64.7034 45.5432 64.2731 46.582L64.1183 46.9569C63.2708 46.6552 62.8057 44.9723 62.9091 43.7637C63.5377 44.262 64.248 45.4346 64.1525 46.5535L64.1183 46.9569ZM64.6983 44.4775C65.5983 44.502 66.6503 43.1026 66.9983 41.9397C66.2291 42.1775 65.1371 43.0129 64.8143 44.09L64.6983 44.4775C63.8245 44.262 63.1914 42.6346 63.1708 41.4226C63.8474 41.8552 64.6731 42.9506 64.6914 44.0735L64.6983 44.4775ZM65.0234 41.9535C65.9217 41.8883 66.8257 40.3906 67.0548 39.1997C66.3143 39.5129 65.312 40.4529 65.0994 41.5569L65.0234 41.9535C64.132 41.8266 63.3365 40.2706 63.1937 39.0672C63.9103 39.43 64.8428 40.4363 64.9754 41.5517L65.0234 41.9535ZM65.0908 39.4106L65.0023 39.0163C64.7571 37.9198 63.7268 37.0112 62.9771 36.722C63.2417 37.9049 64.1914 39.3729 65.0908 39.4106L65.1263 39.0083C65.2251 37.8883 66.1268 36.8535 66.832 36.4683C66.7257 37.6758 65.9777 39.2558 65.0908 39.4106ZM64.9 36.874C65.7668 36.6306 66.3508 34.9849 66.3343 33.7723C65.6714 34.226 64.8794 35.3466 64.8948 36.4695L64.9 36.874C64.0011 36.9266 62.9074 35.5609 62.524 34.4106C63.3 34.6232 64.4171 35.4243 64.772 36.4906L64.9 36.874ZM64.452 34.3689C65.2897 34.0403 65.704 32.3449 65.5645 31.1409C64.9508 31.6586 64.2765 32.8523 64.4057 33.9683L64.452 34.3689C63.5634 34.5118 62.3365 33.262 61.8377 32.1558C62.6314 32.2906 63.8245 32.9752 64.2857 34.0003L64.452 34.3689ZM63.7531 31.9226C64.5531 31.5123 64.7931 29.7838 64.532 28.5992C63.9743 29.1763 63.4245 30.4312 63.6663 31.5278L63.7531 31.9226C62.8828 32.1523 61.5354 31.0323 60.9274 29.9815C61.7303 30.0352 62.9868 30.598 63.5503 31.5718L63.7531 31.9226ZM62.8085 29.558L62.5714 29.2295C61.9114 28.3175 60.6045 27.8832 59.8 27.9095C60.512 28.894 61.9663 29.874 62.8085 29.558L62.6823 29.1746C62.3303 28.1072 62.7503 26.8038 63.2468 26.1746C63.6263 27.326 63.5634 29.0695 62.8085 29.558ZM61.6291 27.2997C60.8228 27.6986 59.2765 26.8689 58.4685 25.9603C59.2663 25.8535 60.6108 26.1546 61.3594 26.9969L61.6291 27.2997L61.4646 26.9306C61.0057 25.9037 61.2914 24.5655 61.7217 23.89C62.216 24.998 62.3303 26.7386 61.6291 27.2997ZM60.2263 25.1718C60.8674 24.5432 60.5771 22.8226 59.972 21.77C59.6125 22.4855 59.4645 23.8455 60.0251 24.8203L60.2263 25.1718L59.9274 24.8975C59.0971 24.1346 57.7285 23.9695 56.9451 24.1546C57.8417 24.978 59.4646 25.6483 60.2263 25.1718ZM58.6143 23.1946L58.2897 22.9512C57.3857 22.2758 56.0074 22.2483 55.2468 22.5106C56.2223 23.2403 57.9051 23.7449 58.6143 23.1946L58.3783 22.8655C57.7217 21.9512 57.7308 20.5832 58.016 19.8358C58.7245 20.8226 59.1885 22.5055 58.6143 23.1946ZM56.8097 21.3878C57.3108 20.6449 56.6788 19.0175 55.8737 18.106C55.6657 18.878 55.7948 20.2398 56.5417 21.0838L56.8097 21.3878C56.16 22.0066 54.4343 21.6723 53.3897 21.0449C54.12 20.7072 55.4937 20.5969 56.4617 21.1786L56.8097 21.3878ZM54.8308 19.7717C55.2543 18.9826 54.46 17.4266 53.5663 16.6009C53.4377 17.39 53.7045 18.7306 54.5331 19.4963L54.8308 19.7717L54.4634 19.598C53.4411 19.1152 52.0851 19.3626 51.3931 19.7717C52.4965 20.2923 54.2468 20.4523 54.8308 19.7717ZM52.6983 18.3615C53.0394 17.5346 52.0914 16.066 51.1183 15.3329C51.0703 16.13 51.4725 17.4386 52.3737 18.1169L52.6983 18.3615C52.1868 19.0969 50.428 19.1123 49.2777 18.7049C49.9251 18.2289 51.2491 17.8483 52.3154 18.2255L52.6983 18.3615Z" fill="white"/>
</g>
<mask id="mask1_2451_6587" style="mask-type:luminance" maskUnits="userSpaceOnUse" x="48" y="25" width="23" height="42">
<path d="M49.1459 34.8874L60.607 31.0359L63.9288 32.4999L70.0356 25.3931L68.8665 40.8571L64.2939 56.8622L52.5756 66.0085L48.5745 63.7216L50.2893 58.5771L49.1459 34.8874Z" fill="white"/>
</mask>
<g mask="url(#mask1_2451_6587)">
<path fill-rule="evenodd" clip-rule="evenodd" d="M50.4334 17.1718C49.9985 17.9546 48.2505 18.1449 47.0642 17.8546C47.6602 17.3169 48.9391 16.8049 50.0379 17.0746L50.4334 17.1718L50.0859 16.9609C49.1202 16.3763 48.5871 15.1146 48.5539 14.3169C49.5962 14.9483 50.6888 16.3152 50.4334 17.1718ZM40.0259 64.51C40.3985 64.51 40.6996 64.8089 40.6996 65.1786C40.6996 65.5472 40.3979 65.8466 40.0254 65.8472C39.6528 65.8477 39.3516 65.5483 39.3516 65.1792C39.3522 64.81 39.6534 64.51 40.0259 64.51ZM48.9356 16.478L48.6288 16.2129C47.7756 15.4746 46.4025 15.3506 45.6254 15.5586C46.5459 16.3552 48.1882 16.978 48.9356 16.478ZM31.2054 16.4855C31.9522 16.9849 33.5951 16.3609 34.5162 15.5638C33.7391 15.3563 32.3659 15.4809 31.5122 16.2203L31.2054 16.4855ZM38.2922 65.1877C38.0854 66.0569 36.4528 66.7072 35.2311 66.7432C35.6596 66.0666 36.7534 65.2329 37.8854 65.1992L38.2922 65.1877C38.3065 64.294 36.8842 63.2689 35.7088 62.9386C35.9574 63.698 36.8111 64.7712 37.9008 65.078L38.2922 65.1877ZM35.7511 64.8523C35.8562 63.9649 34.5454 62.8026 33.4094 62.3569C33.5791 63.1369 34.3197 64.29 35.3728 64.7032L35.7511 64.8523L35.3448 64.8232C34.2157 64.7437 33.0431 65.4637 32.5476 66.0935C33.7671 66.1797 35.4568 65.6957 35.7511 64.8523ZM33.2568 64.2643C32.8779 65.0746 31.1477 65.3872 29.9437 65.1786C30.5002 64.6009 31.7397 64.0026 32.8551 64.194L33.2568 64.2643C33.4511 63.3917 32.2648 62.1037 31.1808 61.5472C31.2699 62.3409 31.8905 63.562 32.8951 64.078L33.2568 64.2643ZM30.8357 63.43C31.1174 62.5809 30.0682 61.1815 29.0459 60.5192C29.0545 61.318 29.5471 62.5946 30.4951 63.2089L30.8357 63.43L30.4437 63.3209C29.3534 63.0175 28.0597 63.4906 27.4471 64.0095C28.6231 64.3363 30.3762 64.1992 30.8357 63.43ZM28.5105 62.3575C27.9757 63.0775 26.2179 63.0386 25.0808 62.5963C25.7425 62.1409 27.0779 61.8003 28.1322 62.21L28.5105 62.3575C28.8774 61.5415 27.9751 60.0438 27.0254 59.2826C26.9528 60.078 27.3134 61.3975 28.1939 62.1037L28.5105 62.3575ZM26.3071 61.0586C26.7551 60.2832 26.0094 58.7037 25.1419 57.8506C24.9888 58.6346 25.2139 59.9843 26.0179 60.774L26.3071 61.0586L25.9454 60.8746C24.9391 60.3603 23.5757 60.566 22.8711 60.9535C23.9568 61.5077 25.7019 61.7215 26.3071 61.0586ZM24.2465 59.546C23.5774 60.1449 21.8631 59.7575 20.8385 59.098C21.5791 58.7832 22.9557 58.7146 23.9048 59.326L24.2465 59.546L23.9877 59.2346C23.2677 58.3672 23.1808 57.0026 23.4128 56.238C24.1894 57.1735 24.7705 58.8192 24.2465 59.546ZM22.3505 57.8357C21.6242 58.3649 19.9579 57.8083 19.0054 57.0489C19.7734 56.81 21.1505 56.8792 22.0328 57.5826L22.3505 57.8357C22.9454 57.1643 22.5345 55.4689 21.8568 54.4603C21.5488 55.1986 21.4968 56.5655 22.1248 57.4997L22.3505 57.8357ZM20.6374 55.9443C19.8614 56.3975 18.2602 55.6775 17.3899 54.8272C18.1785 54.666 19.5414 54.8729 20.3477 55.6609L20.6374 55.9443C21.2979 55.3358 21.0608 53.6077 20.4888 52.5369C20.1071 53.2403 19.9168 54.5952 20.4465 55.5872L20.6374 55.9443ZM19.1254 53.8906C18.3071 54.2649 16.7877 53.3877 16.0082 52.4552C16.8088 52.3735 18.1437 52.7157 18.8659 53.5803L19.1254 53.8906L18.9717 53.5169C18.5454 52.4757 18.8728 51.1477 19.3231 50.4849C19.7837 51.6077 19.8437 53.3512 19.1254 53.8906ZM17.8294 51.6969L17.7151 51.3089C17.3968 50.2318 17.8562 48.9415 18.3722 48.3277C18.7162 49.4906 18.5991 51.2318 17.8294 51.6969L17.6025 51.3609C16.9717 50.4289 15.6785 49.9557 14.8739 49.9563C15.5545 50.962 16.9774 51.9866 17.8294 51.6969ZM16.7631 49.3832C15.8859 49.5872 14.5745 48.426 13.9991 47.3569C14.8002 47.4357 16.0385 48.0363 16.5717 49.0272L16.7631 49.3832C17.5757 48.9975 17.8688 47.2775 17.6454 46.086C17.0699 46.6449 16.4814 47.882 16.6888 48.9866L16.7631 49.3832ZM15.9368 46.9763L15.9025 46.5735C15.8082 45.4546 16.5191 44.2815 17.1488 43.7826C17.2505 44.9906 16.7842 46.674 15.9368 46.9763L15.7819 46.602C15.3522 45.5632 14.1819 44.842 13.3928 44.6837C13.8562 45.8049 15.0437 47.0912 15.9368 46.9763ZM15.3591 44.498L15.3659 44.094C15.3854 42.9706 16.2122 41.8752 16.8888 41.4415C16.8677 42.6535 16.2334 44.2815 15.3591 44.498L15.2431 44.1106C14.9214 43.034 13.8294 42.1992 13.0608 41.962C13.4082 43.1243 14.4591 44.5232 15.3591 44.498ZM15.0362 41.974C14.1379 41.9095 13.2351 40.4129 13.0071 39.2215C13.7477 39.534 14.7488 40.4735 14.9602 41.5775L15.0362 41.974C15.9277 41.8466 16.7242 40.29 16.8682 39.0866C16.1511 39.45 15.2179 40.4569 15.0842 41.5723L15.0362 41.974ZM14.9711 39.4312C14.0837 39.2769 13.3374 37.6975 13.2322 36.49C13.9368 36.8746 14.8379 37.9089 14.9357 39.0289L14.9711 39.4312C15.8705 39.3929 16.8214 37.9243 17.0865 36.7409C16.3362 37.0306 15.3054 37.9398 15.0591 39.0369L14.9711 39.4312ZM15.1637 36.8946C14.2974 36.6518 13.7145 35.0066 13.7328 33.794C14.3951 34.2477 15.1859 35.3666 15.1699 36.49L15.1637 36.8946C16.0625 36.9466 17.1574 35.5798 17.5419 34.4289C16.7659 34.642 15.6482 35.4443 15.2917 36.5106L15.1637 36.8946ZM15.6134 34.3889L15.7797 34.0203C16.2419 32.9946 17.4357 32.3089 18.2288 32.1735C17.7299 33.2809 16.5025 34.5306 15.6134 34.3889L15.6602 33.9883C15.7905 32.8723 15.1174 31.6792 14.5037 31.162C14.3637 32.366 14.7762 34.0615 15.6134 34.3889ZM16.3151 31.942C15.5151 31.5323 15.2768 29.8038 15.5391 28.6192C16.0962 29.1958 16.6454 30.45 16.4025 31.5472L16.3151 31.942C17.1848 32.1712 18.5334 31.05 19.1425 29.9986C18.3397 30.0535 17.0825 30.6169 16.5185 31.5912L16.3151 31.942ZM17.2614 29.5763C16.5071 29.0883 16.4454 27.3449 16.8265 26.1929C17.3225 26.8215 17.7414 28.1249 17.3882 29.1923L17.2614 29.5763C18.1037 29.8918 19.5585 28.9106 20.2717 27.9255C19.4671 27.9003 18.1597 28.3352 17.4991 29.2477L17.2614 29.5763ZM18.4431 27.3175C19.2488 27.7158 20.7957 26.8849 21.6048 25.9758C20.8071 25.8695 19.4619 26.1718 18.7122 27.0146L18.4431 27.3175L18.6082 26.9478C19.0677 25.9209 18.7831 24.5826 18.3534 23.9072C17.8579 25.0158 17.7425 26.7569 18.4431 27.3175ZM19.8471 25.1883C19.2071 24.5603 19.4991 22.8398 20.1048 21.786C20.4637 22.5009 20.6111 23.8609 20.0494 24.8363L19.8471 25.1883L20.1465 24.914C20.9774 24.1506 22.3459 23.9843 23.1288 24.1689C22.2322 24.9929 20.6088 25.6643 19.8471 25.1883ZM21.4608 23.2095L21.7859 22.9655C22.6905 22.2889 24.0688 22.2609 24.8288 22.5226C23.8534 23.2535 22.1699 23.7598 21.4608 23.2095L21.6974 22.8798C22.3545 21.9649 22.3465 20.5969 22.0619 19.85C21.3528 20.838 20.8877 22.5209 21.4608 23.2095ZM23.2671 21.402C22.7665 20.6598 23.4002 19.0318 24.2059 18.1198C24.4128 18.8912 24.2825 20.2535 23.5357 21.098L23.2671 21.402C23.9168 22.0203 25.6431 21.6849 26.6877 21.0563C25.9579 20.7192 24.5837 20.61 23.6151 21.1929L23.2671 21.402ZM25.2477 19.7838C24.8248 18.9952 25.6202 17.4386 26.5145 16.6123C26.6425 17.4009 26.3739 18.7426 25.5454 19.5089L25.2477 19.7838L25.6151 19.61C26.6379 19.1266 27.9934 19.3723 28.6854 19.7809C27.5814 20.3026 25.8305 20.4637 25.2477 19.7838ZM27.3814 18.3718L27.7648 18.2358C28.8311 17.8575 30.1551 18.2369 30.8019 18.7123C29.6511 19.1209 27.8928 19.1066 27.3814 18.3718L27.7054 18.1272C28.6077 17.4478 29.0105 16.1392 28.9637 15.342C27.9899 16.0758 27.0408 17.5455 27.3814 18.3718ZM29.6476 17.1803C29.3928 16.3238 30.4859 14.9563 31.5294 14.3243C31.4951 15.1215 30.9614 16.3838 29.9951 16.9695L29.6476 17.1803L30.0431 17.0832C31.1425 16.8123 32.4208 17.3238 33.0162 17.8609C31.8294 18.1523 30.0819 17.9626 29.6476 17.1803ZM41.7476 65.186C41.9539 66.0546 43.5859 66.7037 44.8076 66.7392C44.3797 66.0626 43.2865 65.23 42.1545 65.1975L41.7476 65.186C41.7339 64.2923 43.1574 63.266 44.3328 62.9346C44.0842 63.694 43.2288 64.7677 42.1391 65.0757L41.7476 65.186ZM44.2894 64.8483C44.1848 63.9609 45.4968 62.7975 46.6334 62.3506C46.4631 63.1312 45.7208 64.2843 44.6682 64.6986L44.2894 64.8483L44.6957 64.8186C45.8248 64.738 46.9974 65.4575 47.4916 66.0866C46.2722 66.1746 44.5825 65.6923 44.2894 64.8483ZM46.7836 64.2586L47.1454 64.0717C48.1511 63.5546 48.7717 62.3335 48.8625 61.5392C47.7774 62.0975 46.5899 63.386 46.7836 64.2586L47.1848 64.1883C48.3002 63.9958 49.5396 64.5935 50.0956 65.17C48.8916 65.3797 47.1614 65.0689 46.7836 64.2586ZM49.2059 63.4226C48.9248 62.574 49.9751 61.1735 50.9985 60.51C50.9894 61.3089 50.4951 62.586 49.5471 63.2009L49.2059 63.4226L49.5979 63.3129C50.6882 63.0089 51.9819 63.4803 52.5939 63.9992C51.4174 64.3266 49.6642 64.1912 49.2059 63.4226ZM51.5317 62.3483C52.0659 63.0677 53.8236 63.0278 54.9608 62.5843C54.2996 62.1295 52.9642 61.79 51.9105 62.2003L51.5317 62.3483C51.1654 61.5323 52.0688 60.0346 53.0196 59.2723C53.0911 60.0677 52.7294 61.3877 51.8488 62.0946L51.5317 62.3483ZM53.7362 61.0477C53.2894 60.2729 54.0362 58.6923 54.9042 57.8392C55.0568 58.6232 54.8305 59.9729 54.0259 60.7632L53.7362 61.0477L54.0985 60.8632C55.1054 60.3483 56.4682 60.5529 57.1728 60.9397C56.0859 61.4946 54.3408 61.7095 53.7362 61.0477ZM55.7979 59.5335C56.4665 60.1317 58.1814 59.7432 59.2065 59.0826C58.4665 58.7683 57.0899 58.7009 56.1396 59.3135L55.7979 59.5335L56.0574 59.222C56.7774 58.354 56.8659 56.9895 56.6345 56.2249C55.8574 57.1603 55.2751 58.8066 55.7979 59.5335ZM57.6962 57.8209L57.9219 57.4849C58.5505 56.55 58.4996 55.1832 58.1922 54.4449C57.5139 55.4546 57.1014 57.1506 57.6962 57.8209L58.0134 57.5677C58.8962 56.8637 60.2728 56.7929 61.0414 57.0312C60.0888 57.7917 58.4219 58.3495 57.6962 57.8209ZM59.4105 55.9283C60.1865 56.3809 61.7882 55.6592 62.6596 54.8089C61.8711 54.6483 60.5082 54.8563 59.7014 55.6449L59.4105 55.9283C58.7511 55.3203 58.9894 53.5918 59.5619 52.5203C59.9431 53.2232 60.1328 54.578 59.6019 55.5706L59.4105 55.9283ZM60.9242 53.8735C61.7419 54.2466 63.2625 53.3689 64.0431 52.4352C63.2425 52.354 61.9076 52.6975 61.1848 53.5626L60.9242 53.8735L61.0779 53.4997C61.5054 52.4586 61.1796 51.13 60.7288 50.4678C60.2677 51.5912 60.2059 53.3346 60.9242 53.8735ZM62.2219 51.6786C63.0739 51.9677 64.4979 50.9426 65.1796 49.9357C64.3745 49.9352 63.0814 50.4095 62.4494 51.3426L62.2219 51.6786C61.4528 51.2146 61.3374 49.4735 61.6819 48.3095C62.1974 48.9232 62.6562 50.2129 62.3368 51.29L62.2219 51.6786ZM63.2899 49.3643C64.1671 49.5677 65.4796 48.4055 66.0556 47.3357C65.2551 47.4152 64.0156 48.0169 63.4819 49.0083L63.2899 49.3643C62.4779 48.9798 62.1859 47.2597 62.4111 46.0677C62.9865 46.626 63.5739 47.8632 63.3654 48.9678L63.2899 49.3643ZM64.1185 46.9569C65.0117 47.0706 66.1996 45.7832 66.6642 44.662C65.8751 44.8209 64.7036 45.5432 64.2734 46.582L64.1185 46.9569C63.2711 46.6552 62.8059 44.9723 62.9094 43.7637C63.5379 44.262 64.2482 45.4346 64.1528 46.5535L64.1185 46.9569ZM64.6985 44.4775C65.5985 44.502 66.6505 43.1026 66.9985 41.9397C66.2294 42.1775 65.1374 43.0129 64.8145 44.09L64.6985 44.4775C63.8248 44.262 63.1917 42.6346 63.1711 41.4226C63.8476 41.8552 64.6734 42.9506 64.6916 44.0735L64.6985 44.4775ZM65.0236 41.9535C65.9219 41.8883 66.8259 40.3906 67.0551 39.1997C66.3145 39.5129 65.3122 40.4529 65.0997 41.5569L65.0236 41.9535C64.1322 41.8266 63.3368 40.2706 63.1939 39.0672C63.9105 39.43 64.8431 40.4363 64.9756 41.5517L65.0236 41.9535ZM65.0911 39.4106L65.0025 39.0163C64.7574 37.9198 63.7271 37.0112 62.9774 36.722C63.2419 37.9049 64.1916 39.3729 65.0911 39.4106L65.1265 39.0083C65.2254 37.8883 66.1271 36.8535 66.8322 36.4683C66.7259 37.6758 65.9779 39.2558 65.0911 39.4106ZM64.9002 36.874C65.7671 36.6306 66.3511 34.9849 66.3345 33.7723C65.6716 34.226 64.8797 35.3466 64.8951 36.4695L64.9002 36.874C64.0014 36.9266 62.9076 35.5609 62.5242 34.4106C63.3002 34.6232 64.4174 35.4243 64.7722 36.4906L64.9002 36.874ZM64.4522 34.3689C65.2899 34.0403 65.7042 32.3449 65.5648 31.1409C64.9511 31.6586 64.2768 32.8523 64.4059 33.9683L64.4522 34.3689C63.5636 34.5118 62.3368 33.262 61.8379 32.1558C62.6316 32.2906 63.8248 32.9752 64.2859 34.0003L64.4522 34.3689ZM63.7534 31.9226C64.5534 31.5123 64.7934 29.7838 64.5322 28.5992C63.9745 29.1763 63.4248 30.4312 63.6665 31.5278L63.7534 31.9226C62.8831 32.1523 61.5356 31.0323 60.9277 29.9815C61.7305 30.0352 62.9871 30.598 63.5505 31.5718L63.7534 31.9226ZM62.8088 29.558L62.5716 29.2295C61.9116 28.3175 60.6048 27.8832 59.8002 27.9095C60.5122 28.894 61.9665 29.874 62.8088 29.558L62.6825 29.1746C62.3305 28.1072 62.7505 26.8038 63.2471 26.1746C63.6265 27.326 63.5636 29.0695 62.8088 29.558ZM61.6294 27.2997C60.8231 27.6986 59.2768 26.8689 58.4688 25.9603C59.2665 25.8535 60.6111 26.1546 61.3596 26.9969L61.6294 27.2997L61.4648 26.9306C61.0059 25.9037 61.2916 24.5655 61.7219 23.89C62.2162 24.998 62.3305 26.7386 61.6294 27.2997ZM60.2265 25.1718C60.8676 24.5432 60.5774 22.8226 59.9722 21.77C59.6128 22.4855 59.4648 23.8455 60.0254 24.8203L60.2265 25.1718L59.9277 24.8975C59.0974 24.1346 57.7288 23.9695 56.9454 24.1546C57.8419 24.978 59.4648 25.6483 60.2265 25.1718ZM58.6145 23.1946L58.2899 22.9512C57.3859 22.2758 56.0076 22.2483 55.2471 22.5106C56.2225 23.2403 57.9054 23.7449 58.6145 23.1946L58.3785 22.8655C57.7219 21.9512 57.7311 20.5832 58.0162 19.8358C58.7248 20.8226 59.1888 22.5055 58.6145 23.1946ZM56.8099 21.3878C57.3111 20.6449 56.6791 19.0175 55.8739 18.106C55.6659 18.878 55.7951 20.2398 56.5419 21.0838L56.8099 21.3878C56.1602 22.0066 54.4345 21.6723 53.3899 21.0449C54.1202 20.7072 55.4939 20.5969 56.4619 21.1786L56.8099 21.3878ZM54.8311 19.7717C55.2545 18.9826 54.4602 17.4266 53.5665 16.6009C53.4379 17.39 53.7048 18.7306 54.5334 19.4963L54.8311 19.7717L54.4636 19.598C53.4414 19.1152 52.0854 19.3626 51.3934 19.7717C52.4968 20.2923 54.2471 20.4523 54.8311 19.7717ZM52.6985 18.3615C53.0396 17.5346 52.0916 16.066 51.1185 15.3329C51.0705 16.13 51.4728 17.4386 52.3739 18.1169L52.6985 18.3615C52.1871 19.0969 50.4282 19.1123 49.2779 18.7049C49.9254 18.2289 51.2494 17.8483 52.3157 18.2255L52.6985 18.3615Z" fill="white"/>
</g>
<path fill-rule="evenodd" clip-rule="evenodd" d="M64.1081 32.7676L64.1264 32.3625C64.1778 31.235 63.4247 30.0808 62.7801 29.5996C62.7247 30.8156 63.2532 32.4905 64.1081 32.7676Z" fill="white"/>
<path fill-rule="evenodd" clip-rule="evenodd" d="M15.9899 32.7676L15.9716 32.3625C15.9202 31.235 16.6733 30.0808 17.3179 29.5996C17.3733 30.8156 16.8448 32.4905 15.9899 32.7676Z" fill="white"/>
</g>
<defs>
<radialGradient id="paint0_angular_2451_6587" cx="0" cy="0" r="1" gradientUnits="userSpaceOnUse" gradientTransform="translate(38.8027 40.0001) rotate(90) scale(39.9 38.7033)">
<stop offset="0.0729167" stop-color="#E3A455"/>
<stop offset="0.244792" stop-color="#F6DBA6"/>
<stop offset="0.434957" stop-color="#FFEBC4"/>
<stop offset="0.532623" stop-color="#F0BE79"/>
<stop offset="0.593311" stop-color="#8F653B"/>
<stop offset="0.627652" stop-color="#673D22"/>
<stop offset="0.708863" stop-color="#BA7F3B"/>
<stop offset="0.773898" stop-color="#EEBC70"/>
<stop offset="0.921875" stop-color="#3F1F0F"/>
</radialGradient>
<linearGradient id="paint1_linear_2451_6587" x1="39.9997" y1="0.100098" x2="39.9997" y2="79.9001" gradientUnits="userSpaceOnUse">
<stop stop-color="#9C2222"/>
<stop offset="1" stop-color="#511212"/>
</linearGradient>
<clipPath id="clip0_2451_6587">
<rect width="80" height="80" fill="white"/>
</clipPath>
</defs>
</svg>
