<svg width="26" height="26" viewBox="0 0 26 26" fill="none" xmlns="http://www.w3.org/2000/svg">
<circle cx="12.9963" cy="12.9963" r="6.69776" fill="white"/>
<path fill-rule="evenodd" clip-rule="evenodd" d="M12.9521 21.7344C13.442 21.7344 13.8392 22.1316 13.8392 22.6216L13.8392 25.1129C13.8392 25.6028 13.442 26 12.9521 26C12.4621 26 12.0649 25.6028 12.0649 25.1129L12.0649 22.6216C12.0649 22.1316 12.4621 21.7344 12.9521 21.7344Z" fill="white"/>
<path fill-rule="evenodd" clip-rule="evenodd" d="M6.83707 19.1422C7.18351 19.4887 7.18351 20.0503 6.83707 20.3968L5.07544 22.1584C4.72899 22.5049 4.1673 22.5049 3.82086 22.1584C3.47442 21.812 3.47442 21.2503 3.82086 20.9038L5.58249 19.1422C5.92893 18.7958 6.49063 18.7958 6.83707 19.1422Z" fill="white"/>
<path fill-rule="evenodd" clip-rule="evenodd" d="M12.9521 -3.87772e-08C13.442 -1.73612e-08 13.8392 0.397177 13.8392 0.88712L13.8392 3.37844C13.8392 3.86838 13.442 4.26556 12.9521 4.26556C12.4621 4.26556 12.0649 3.86838 12.0649 3.37844L12.0649 0.88712C12.0649 0.397177 12.4621 -6.01933e-08 12.9521 -3.87772e-08Z" fill="white"/>
<path fill-rule="evenodd" clip-rule="evenodd" d="M22.2057 3.77365C22.5522 4.12009 22.5522 4.68179 22.2057 5.02823L20.4441 6.78986C20.0976 7.1363 19.536 7.1363 19.1895 6.78986C18.8431 6.44342 18.8431 5.88172 19.1895 5.53528L20.9511 3.77365C21.2976 3.42721 21.8593 3.42721 22.2057 3.77365Z" fill="white"/>
<path fill-rule="evenodd" clip-rule="evenodd" d="M26 12.9519C26 13.4419 25.6028 13.8391 25.1129 13.8391L22.6216 13.839C22.1316 13.839 21.7344 13.4419 21.7344 12.9519C21.7344 12.462 22.1316 12.0648 22.6216 12.0648L25.1129 12.0648C25.6028 12.0648 26 12.462 26 12.9519Z" fill="white"/>
<path fill-rule="evenodd" clip-rule="evenodd" d="M22.2737 22.1584C21.9272 22.5049 21.3655 22.5049 21.0191 22.1584L19.2574 20.3968C18.911 20.0503 18.911 19.4887 19.2574 19.1422C19.6039 18.7958 20.1656 18.7958 20.512 19.1422L22.2737 20.9038C22.6201 21.2503 22.6201 21.812 22.2737 22.1584Z" fill="white"/>
<path fill-rule="evenodd" clip-rule="evenodd" d="M4.26556 12.9519C4.26556 13.4419 3.86839 13.8391 3.37844 13.8391L0.887122 13.839C0.397179 13.839 1.94207e-06 13.4419 1.9849e-06 12.9519C2.02774e-06 12.462 0.397179 12.0648 0.887122 12.0648L3.37844 12.0648C3.86839 12.0648 4.26556 12.462 4.26556 12.9519Z" fill="white"/>
<path fill-rule="evenodd" clip-rule="evenodd" d="M6.90506 6.78986C6.55862 7.1363 5.99692 7.1363 5.65048 6.78986L3.88885 5.02823C3.54241 4.68178 3.54241 4.12009 3.88885 3.77365C4.23529 3.42721 4.79699 3.42721 5.14343 3.77365L6.90506 5.53528C7.2515 5.88172 7.2515 6.44341 6.90506 6.78986Z" fill="white"/>
</svg>
