<svg width="40" height="15" viewBox="0 0 40 15" fill="none" xmlns="http://www.w3.org/2000/svg">
<path d="M10.8349 11.9391L6.99132 6.31413L10.8017 0.657063H8.00191L5.45059 4.50319L2.93241 0.657063H0.0331459L3.84356 6.266L0 11.9391H2.83297L5.3843 8.07694L7.95223 11.9391H10.8349ZM15.7293 3.46156C13.4928 3.46156 12.2171 4.64744 11.9852 6.07369H14.2383C14.3708 5.641 14.8016 5.27244 15.6299 5.27244C16.4417 5.27244 17.0381 5.67306 17.0381 6.44231V6.82694H15.1661C12.9792 6.82694 11.6538 7.8045 11.6538 9.50319C11.6538 11.1699 12.9792 12.1314 14.6359 12.1314C15.7459 12.1314 16.6405 11.7147 17.1706 11.0417V11.9391H19.4073V6.52244C19.4073 4.50319 17.9327 3.46156 15.7293 3.46156ZM15.2986 10.3205C14.553 10.3205 14.0726 9.96794 14.0726 9.391C14.0726 8.79806 14.6028 8.4455 15.3483 8.4455H17.0381V8.81413C17.0381 9.77563 16.2263 10.3205 15.2986 10.3205ZM26.1098 3.79806C24.917 3.79806 23.9395 4.21475 23.3099 5.06413C23.4756 3.50962 24.1217 2.74038 25.7453 2.5L29.009 2.03525V0L25.5134 0.560875C22.1337 1.10575 21.0899 3.28525 21.0899 6.92306C21.0899 10.1923 22.7301 12.1314 25.6294 12.1314C28.2304 12.1314 29.8374 10.2083 29.8374 7.90062C29.8374 5.41669 28.3464 3.79806 26.1098 3.79806ZM25.5134 10.1763C24.2543 10.1763 23.5584 9.19869 23.5584 7.88462C23.5584 6.61856 24.2874 5.70513 25.5299 5.70513C26.7393 5.70513 27.4186 6.65062 27.4186 7.90062C27.4186 9.15062 26.7559 10.1763 25.5134 10.1763ZM36.289 3.46156C35.0299 3.46156 34.2181 3.99037 33.7874 4.61537V3.65388H31.4679V15H33.8868V11.1378C34.3175 11.7147 35.1293 12.1314 36.2227 12.1314C38.3267 12.1314 40 10.5289 40 7.8045C40 5.03206 38.3267 3.46156 36.289 3.46156ZM35.7091 10.1122C34.5826 10.1122 33.8371 9.23075 33.8371 7.83656V7.77244C33.8371 6.37819 34.5826 5.48075 35.7091 5.48075C36.8357 5.48075 37.5647 6.39425 37.5647 7.8045C37.5647 9.21475 36.8357 10.1122 35.7091 10.1122Z" fill="white"/>
</svg>
