<svg width="80" height="80" viewBox="0 0 80 80" fill="none" xmlns="http://www.w3.org/2000/svg">
<g clip-path="url(#clip0_2451_6587)">
<path d="M77.7474 34.4591L75.2388 31.7591C73.5971 29.9922 72.8308 27.5357 73.1611 25.102L73.6662 21.3825C74.2445 17.1265 71.4765 13.1597 67.4102 12.4174L63.8565 11.7682C61.5314 11.3437 59.5239 9.82538 58.4176 7.65395L56.7262 4.33567C54.7914 0.538525 50.3125 -0.976332 46.6034 0.911096L43.3616 2.56081C41.2405 3.64024 38.7599 3.64024 36.6388 2.56081L33.3971 0.911096C29.6879 -0.976332 25.2091 0.538525 23.2742 4.33567L21.5828 7.65395C20.4765 9.82538 18.4691 11.3437 16.1439 11.7682L12.5902 12.4174C8.52394 13.1602 5.75594 17.1265 6.33365 21.3825L6.83879 25.102C7.16965 27.5357 6.40279 29.9922 4.76108 31.7591L2.25251 34.4591C-0.618349 37.5482 -0.618349 42.4517 2.25251 45.5408L4.76108 48.2408C6.40279 50.0077 7.16908 52.4637 6.83879 54.8979L6.33365 58.6174C5.75536 62.8734 8.52336 66.8402 12.5902 67.5825L16.1439 68.2317C18.4691 68.6562 20.4765 70.1745 21.5828 72.346L23.2742 75.6642C25.2091 79.4614 29.6879 80.9762 33.3971 79.0888L36.6388 77.4391C38.7599 76.3597 41.2405 76.3597 43.3616 77.4391L46.6034 79.0888C50.3125 80.9768 54.7914 79.4614 56.7262 75.6642L58.4176 72.346C59.5239 70.1745 61.5314 68.6562 63.8565 68.2317L67.4102 67.5825C71.4765 66.8397 74.2445 62.8734 73.6662 58.6174L73.1611 54.8979C72.8302 52.4642 73.5971 50.0077 75.2388 48.2408L77.7474 45.5408C80.6176 42.4517 80.6176 37.5488 77.7474 34.4591Z" fill="#B9AF79"/>
<path d="M20 43.4989V36.1016H22.6798C23.6389 36.1016 24.3692 36.2757 24.8697 36.6246C25.3695 36.9736 25.6203 37.4798 25.6203 38.1434C25.6203 38.5265 25.5315 38.8534 25.3538 39.1239C25.1762 39.395 24.9149 39.5947 24.5695 39.7236C24.9591 39.8252 25.2581 40.0151 25.4665 40.2926C25.6743 40.5706 25.7788 40.9091 25.7788 41.3085C25.7788 42.0331 25.5478 42.5782 25.0845 42.9416C24.6218 43.3056 23.9361 43.4908 23.0276 43.4978H20V43.4989ZM21.798 39.1854H22.7356C23.1286 39.1825 23.4084 39.1111 23.5756 38.9712C23.7428 38.8319 23.827 38.6264 23.827 38.3547C23.827 38.0423 23.7364 37.8171 23.5553 37.6795C23.3742 37.5419 23.0821 37.4734 22.6792 37.4734H21.798V39.1854ZM21.798 40.3541V42.1277H22.9765C23.301 42.1277 23.5501 42.054 23.7242 41.9065C23.8984 41.759 23.9855 41.5518 23.9855 41.2841C23.9855 40.6676 23.6766 40.3576 23.0578 40.3541H21.798Z" fill="white"/>
<path d="M29.5396 40.8824H28.566V43.4989H26.7675V36.1016H29.7033C30.5881 36.1016 31.2801 36.296 31.7782 36.685C32.2769 37.074 32.5265 37.6238 32.5265 38.3344C32.5265 38.8487 32.4214 39.2749 32.2113 39.6133C32.0017 39.9518 31.6725 40.2258 31.2249 40.4354L32.7831 43.4217V43.4984H30.8569L29.5396 40.8824ZM28.5666 39.5106H29.7039C30.0458 39.5106 30.3024 39.4217 30.4749 39.2435C30.6479 39.0653 30.7338 38.8168 30.7338 38.4975C30.7338 38.1782 30.6467 37.928 30.4725 37.7463C30.2984 37.5646 30.0423 37.474 29.7039 37.474H28.5666V39.5106Z" fill="white"/>
<path d="M39.931 39.953C39.931 40.6746 39.7963 41.3126 39.5263 41.8682C39.2564 42.4232 38.8732 42.8505 38.3763 43.1507C37.8799 43.4508 37.3133 43.6 36.6776 43.6C36.0424 43.6 35.4793 43.4554 34.987 43.1657C34.4947 42.8761 34.1115 42.4621 33.8369 41.9234C33.5623 41.3846 33.4178 40.7669 33.4044 40.0691V39.6528C33.4044 38.9283 33.5379 38.2885 33.8062 37.7353C34.0744 37.1814 34.4587 36.7541 34.9586 36.4523C35.459 36.1509 36.0291 36 36.6671 36C37.2993 36 37.8631 36.1492 38.3583 36.4476C38.8535 36.7454 39.2384 37.1698 39.513 37.7202C39.7876 38.2705 39.9275 38.9016 39.931 39.6128V39.953ZM38.1017 39.643C38.1017 38.908 37.9774 38.3501 37.7295 37.9692C37.4822 37.5884 37.1281 37.398 36.6665 37.398C35.7649 37.398 35.2883 38.0685 35.2372 39.4096L35.232 39.9536C35.232 40.6787 35.3533 41.2354 35.5954 41.6244C35.8381 42.0139 36.1986 42.209 36.6764 42.209C37.131 42.209 37.4811 42.0174 37.7272 41.6348C37.9734 41.2522 38.0982 40.7025 38.1017 39.9837V39.643Z" fill="white"/>
<path d="M47.088 43.4989H45.2999L42.6561 38.8963V43.4989H40.8575V36.1016H42.6561L45.2947 40.7048V36.1016H47.088V43.4989Z" fill="white"/>
<path d="M50.2445 42.1271H53.8108V43.4984H48.0001V42.5585L51.5559 37.4786H47.9797V36.1016H53.7742V37.0159L50.2445 42.1271Z" fill="white"/>
<path d="M59.2519 40.3587H56.4234V42.1271H59.7639V43.4984H54.6249V36.1016H59.7738V37.4786H56.4234V39.0386H59.2519V40.3587Z" fill="white"/>
<path d="M19.8508 22.848L19.1223 23.8263L21.7743 25.8023L21.1886 26.588L18.5371 24.612L17.8211 25.572L17.2148 25.12L19.244 22.396L19.8508 22.848Z" fill="white"/>
<path d="M23.5531 22.7002L22.6073 23.6533L22.9805 24.3545L22.2433 25.0967L20.4091 21.1767L21.0588 20.5225L24.9999 22.3202L24.2588 23.067L23.5531 22.7002ZM22.2353 22.9533L22.8508 22.3333L21.5416 21.6516L22.2353 22.9533Z" fill="white"/>
<path d="M27.5281 19.889C27.5041 20.113 27.4047 20.3513 27.2298 20.6044C27.0544 20.857 26.8269 21.0855 26.5469 21.2878C26.1155 21.6004 25.6755 21.7175 25.2264 21.6398C24.7778 21.5633 24.3744 21.2953 24.0161 20.8387L23.8075 20.5553C23.5732 20.2313 23.4258 19.9061 23.3652 19.5821C23.3052 19.257 23.3338 18.9524 23.4532 18.6667C23.5721 18.3821 23.7721 18.1387 24.0521 17.9358C24.4624 17.6393 24.8487 17.5021 25.2109 17.5261C25.5738 17.5495 25.9087 17.7335 26.2161 18.0793L25.4515 18.6324C25.2915 18.4678 25.1372 18.3793 24.9904 18.3661C24.8435 18.3541 24.6864 18.4067 24.5212 18.5267C24.3212 18.6707 24.2287 18.8667 24.2429 19.113C24.2561 19.361 24.3755 19.6421 24.6018 19.957L24.7458 20.1564C24.9829 20.4844 25.2178 20.6913 25.4498 20.7747C25.6812 20.8587 25.9178 20.813 26.1584 20.6387C26.3652 20.4895 26.4858 20.3324 26.5207 20.1673L26.1509 19.6558L25.5989 20.0547L25.2052 19.5101L26.5504 18.537L27.5281 19.889Z" fill="white"/>
<path d="M28.7046 18.9876L30.2166 18.1979L30.5651 18.8659L28.1851 20.1093L26.3046 16.5059L27.1731 16.0527L28.7046 18.9876Z" fill="white"/>
<path d="M31.8461 18.3836L30.9393 18.7464L29.4296 14.9727L30.337 14.6099L31.8461 18.3836Z" fill="white"/>
<path d="M35.6256 17.2604L34.685 17.5136L32.637 15.4473L33.2942 17.8879L32.3484 18.1427L31.2919 14.2193L32.2376 13.9644L34.2827 16.0324L33.6256 13.5907L34.5684 13.3364L35.6256 17.2604Z" fill="white"/>
<path d="M38.4132 15.1962L36.8823 15.3722L36.9926 16.3368L38.8006 16.1294L38.8863 16.878L36.1052 17.198L35.6417 13.1614L38.428 12.8408L38.5143 13.5917L36.7006 13.8002L36.7983 14.6511L38.3291 14.4751L38.4132 15.1962Z" fill="white"/>
<path d="M42.8753 16.3055L41.5387 16.1809L41.2347 16.9146L40.193 16.8175L42.0553 12.9106L42.9724 12.9952L44.0884 17.1815L43.041 17.0832L42.8753 16.3055ZM41.8427 15.4495L42.7124 15.5312L42.4079 14.0878L41.8427 15.4495Z" fill="white"/>
<path d="M47.5377 16.5524L48.6731 14.2233L49.6086 14.4856L47.6834 18.1661L46.7046 17.8924L46.8051 15.5153L45.6674 17.6021L44.6914 17.329L44.9537 13.1821L45.8914 13.4444L45.6537 16.0244L46.8783 13.7204L47.6788 13.9456L47.5377 16.5524Z" fill="white"/>
<path d="M50.9839 18.8191L49.7753 18.2345L49.2342 18.8151L48.2925 18.3591L51.4051 15.3511L52.2336 15.7522L51.8136 20.0648L50.8673 19.6059L50.9839 18.8191ZM50.3165 17.6551L51.1028 18.0362L51.3222 16.5768L50.3165 17.6551Z" fill="white"/>
<path d="M53.9833 19.8484L53.5485 19.5455L52.7268 20.7249L51.9233 20.1655L54.2451 16.8301L55.5576 17.7449C55.9531 18.0198 56.2011 18.3232 56.3016 18.6541C56.4028 18.9844 56.3416 19.3095 56.1188 19.6301C55.9576 19.8621 55.7765 20.0221 55.5765 20.1089C55.3765 20.1958 55.1433 20.2169 54.8776 20.1724L54.6359 22.0032L54.6119 22.0381L53.7502 21.4381L53.9833 19.8484ZM53.9793 18.9272L54.4873 19.2815C54.6405 19.3878 54.7833 19.4272 54.9165 19.4004C55.0496 19.3741 55.1662 19.2889 55.2662 19.1449C55.3662 19.0009 55.4056 18.8609 55.3851 18.7249C55.3645 18.5889 55.2782 18.4689 55.1273 18.3632L54.6188 18.0084L53.9793 18.9272Z" fill="white"/>
<path d="M54.8405 22.2413L57.6467 19.3013L58.593 20.2047C58.853 20.4533 59.0302 20.735 59.125 21.0504C59.2199 21.3658 59.2233 21.6858 59.1353 22.0127C59.0467 22.3384 58.8753 22.6356 58.6227 22.9036L58.4936 23.0384C58.2365 23.3076 57.9496 23.4944 57.6325 23.599C57.3142 23.7036 56.9953 23.7178 56.6736 23.6413C56.3525 23.5641 56.0633 23.4053 55.8073 23.1636L54.8405 22.2413ZM57.833 20.5247L56.0696 22.3721L56.3159 22.6076C56.5187 22.8013 56.7439 22.8778 56.9913 22.8373C57.2387 22.7967 57.4987 22.6338 57.7707 22.3481L57.8919 22.2207C58.1639 21.9373 58.3125 21.671 58.341 21.423C58.3702 21.175 58.2799 20.951 58.0707 20.7521L57.833 20.5247Z" fill="white"/>
<path d="M59.5034 25.7034C59.6165 25.616 59.6743 25.5068 59.6754 25.3783C59.6765 25.2497 59.6337 25.0571 59.5451 24.8034C59.4565 24.5497 59.3948 24.3337 59.3594 24.1566C59.2417 23.5817 59.3623 23.156 59.72 22.88C59.8983 22.7423 60.0954 22.6726 60.312 22.6714C60.528 22.6697 60.7474 22.7343 60.9697 22.8663C61.1925 22.9971 61.3954 23.1817 61.5783 23.4189C61.7565 23.6497 61.876 23.8891 61.9354 24.1366C61.9948 24.3834 61.9874 24.6166 61.9131 24.836C61.8394 25.0554 61.7045 25.2411 61.5085 25.392L60.9108 24.6183C61.0423 24.5177 61.1131 24.3988 61.1228 24.2634C61.1331 24.1274 61.0857 23.9903 60.9794 23.8537C60.8725 23.716 60.7571 23.6291 60.6343 23.5971C60.5108 23.564 60.4023 23.5834 60.308 23.6566C60.2251 23.72 60.1851 23.8228 60.1862 23.9623C60.1874 24.1028 60.2388 24.3114 60.3394 24.5886C60.44 24.8663 60.5034 25.1086 60.5314 25.3148C60.6 25.8166 60.4582 26.204 60.1062 26.4754C59.8251 26.6937 59.5228 26.7577 59.1983 26.6697C58.8737 26.5817 58.568 26.3531 58.2828 25.984C58.0811 25.7228 57.9457 25.4514 57.876 25.1674C57.8062 24.884 57.8114 24.6257 57.8914 24.3931C57.972 24.1611 58.1177 23.9628 58.3303 23.7994L58.9308 24.576C58.7583 24.7097 58.6663 24.852 58.6531 25.0046C58.6405 25.1566 58.7114 25.3326 58.8663 25.5331C58.9651 25.6611 59.0708 25.7411 59.184 25.7731C59.2965 25.8034 59.4034 25.7811 59.5034 25.7034Z" fill="white"/>
<circle cx="40" cy="65" r="2" fill="white"/>
<path d="M64.1081 32.7676L64.1264 32.3625C64.1778 31.235 63.4247 30.0808 62.7801 29.5996C62.7247 30.8156 63.2532 32.4905 64.1081 32.7676Z" fill="white"/>
<path d="M35.7511 64.8521C35.8562 63.9646 34.5454 62.8023 33.4094 62.3566C33.5791 63.1366 34.3197 64.2898 35.3728 64.7029L35.7511 64.8521Z" fill="white"/>
<path d="M35.7511 64.8521L35.3448 64.8229C34.2157 64.7435 33.0431 65.4635 32.5476 66.0932C33.7671 66.1795 35.4568 65.6955 35.7511 64.8521Z" fill="white"/>
<path d="M33.2568 64.2641C32.8779 65.0743 31.1477 65.3869 29.9437 65.1783C30.5002 64.6006 31.7397 64.0023 32.8551 64.1938L33.2568 64.2641Z" fill="white"/>
<path d="M31.1808 61.5469C32.2648 62.1035 33.4511 63.3915 33.2568 64.2641L32.8951 64.0778C31.8905 63.5618 31.2699 62.3406 31.1808 61.5469Z" fill="white"/>
<path d="M30.8357 63.4298C31.1174 62.5806 30.0682 61.1812 29.0459 60.5189C29.0545 61.3178 29.5471 62.5943 30.4951 63.2086L30.8357 63.4298Z" fill="white"/>
<path d="M30.8357 63.4298L30.4437 63.3206C29.3534 63.0172 28.0597 63.4903 27.4471 64.0092C28.6231 64.3361 30.3762 64.1989 30.8357 63.4298Z" fill="white"/>
<path d="M28.5105 62.3572C27.9757 63.0772 26.2179 63.0383 25.0808 62.5961C25.7425 62.1406 27.0779 61.8001 28.1322 62.2098L28.5105 62.3572Z" fill="white"/>
<path d="M27.0254 59.2823C27.9751 60.0435 28.8774 61.5412 28.5105 62.3572L28.1939 62.1035C27.3134 61.3972 26.9528 60.0778 27.0254 59.2823Z" fill="white"/>
<path d="M26.3071 61.0583C26.7551 60.2829 26.0094 58.7035 25.1419 57.8503C24.9888 58.6343 25.2139 59.9841 26.0179 60.7738L26.3071 61.0583Z" fill="white"/>
<path d="M26.3071 61.0583L25.9454 60.8743C24.9391 60.3601 23.5757 60.5658 22.8711 60.9532C23.9568 61.5075 25.7019 61.7212 26.3071 61.0583Z" fill="white"/>
<path d="M24.2465 59.5458C23.5774 60.1446 21.8631 59.7572 20.8385 59.0978C21.5791 58.7829 22.9557 58.7143 23.9048 59.3258L24.2465 59.5458Z" fill="white"/>
<path d="M23.4128 56.2378C24.1894 57.1732 24.7705 58.8189 24.2465 59.5458L23.9877 59.2343C23.2677 58.3669 23.1808 57.0023 23.4128 56.2378Z" fill="white"/>
<path d="M22.3505 57.8355C21.6242 58.3646 19.9579 57.8081 19.0054 57.0486C19.7734 56.8098 21.1505 56.8789 22.0328 57.5823L22.3505 57.8355Z" fill="white"/>
<path d="M22.3505 57.8355L22.1248 57.4995C21.4968 56.5652 21.5488 55.1983 21.8568 54.4601C22.5345 55.4686 22.9454 57.1641 22.3505 57.8355Z" fill="white"/>
<path d="M20.6374 55.9441C19.8614 56.3972 18.2602 55.6772 17.3899 54.8269C18.1785 54.6658 19.5414 54.8726 20.3477 55.6606L20.6374 55.9441Z" fill="white"/>
<path d="M20.4888 52.5366C21.0608 53.6075 21.2979 55.3355 20.6374 55.9441L20.4465 55.5869C19.9168 54.5949 20.1071 53.2401 20.4888 52.5366Z" fill="white"/>
<path d="M19.1254 53.8903C18.3071 54.2646 16.7877 53.3875 16.0082 52.4549C16.8088 52.3732 18.1437 52.7155 18.8659 53.5801L19.1254 53.8903Z" fill="white"/>
<path d="M19.3231 50.4846C19.7837 51.6075 19.8437 53.3509 19.1254 53.8903L18.9717 53.5166C18.5454 52.4755 18.8728 51.1475 19.3231 50.4846Z" fill="white"/>
<path d="M17.8294 51.6966L17.7151 51.3086C17.3968 50.2315 17.8562 48.9412 18.3722 48.3275C18.7162 49.4903 18.5991 51.2315 17.8294 51.6966Z" fill="white"/>
<path d="M17.6025 51.3606L17.8294 51.6966C16.9774 51.9863 15.5545 50.9618 14.8739 49.9561C15.6785 49.9555 16.9717 50.4286 17.6025 51.3606Z" fill="white"/>
<path d="M16.7631 49.3829C15.8859 49.5869 14.5745 48.4258 13.9991 47.3566C14.8002 47.4355 16.0385 48.0361 16.5717 49.0269L16.7631 49.3829Z" fill="white"/>
<path d="M16.7631 49.3829L16.6888 48.9863C16.4814 47.8818 17.0699 46.6446 17.6454 46.0858C17.8688 47.2772 17.5757 48.9972 16.7631 49.3829Z" fill="white"/>
<path d="M15.9368 46.9761L15.9025 46.5732C15.8082 45.4543 16.5191 44.2812 17.1488 43.7823C17.2505 44.9903 16.7842 46.6738 15.9368 46.9761Z" fill="white"/>
<path d="M15.7819 46.6018L15.9368 46.9761C15.0437 47.0909 13.8562 45.8046 13.3928 44.6835C14.1819 44.8418 15.3522 45.5629 15.7819 46.6018Z" fill="white"/>
<path d="M15.3591 44.4978L15.3659 44.0938C15.3854 42.9703 16.2122 41.8749 16.8888 41.4412C16.8677 42.6532 16.2334 44.2812 15.3591 44.4978Z" fill="white"/>
<path d="M15.2431 44.1103L15.3591 44.4978C14.4591 44.5229 13.4082 43.1241 13.0608 41.9618C13.8294 42.1989 14.9214 43.0338 15.2431 44.1103Z" fill="white"/>
<path d="M15.0362 41.9738C14.1379 41.9092 13.2351 40.4126 13.0071 39.2212C13.7477 39.5338 14.7488 40.4732 14.9602 41.5772L15.0362 41.9738Z" fill="white"/>
<path d="M16.8682 39.0863C16.7242 40.2898 15.9277 41.8463 15.0362 41.9738L15.0842 41.5721C15.2179 40.4566 16.1511 39.4498 16.8682 39.0863Z" fill="white"/>
<path d="M14.9711 39.4309C14.0837 39.2766 13.3374 37.6972 13.2322 36.4898C13.9368 36.8743 14.8379 37.9086 14.9357 39.0286L14.9711 39.4309Z" fill="white"/>
<path d="M17.0865 36.7406C16.8214 37.9241 15.8705 39.3926 14.9711 39.4309L15.0591 39.0366C15.3054 37.9395 16.3362 37.0303 17.0865 36.7406Z" fill="white"/>
<path d="M15.1637 36.8943C14.2974 36.6515 13.7145 35.0063 13.7328 33.7938C14.3951 34.2475 15.1859 35.3663 15.1699 36.4898L15.1637 36.8943Z" fill="white"/>
<path d="M17.5419 34.4286C17.1574 35.5795 16.0625 36.9463 15.1637 36.8943L15.2917 36.5103C15.6482 35.4441 16.7659 34.6418 17.5419 34.4286Z" fill="white"/>
<path d="M15.6134 34.3886L15.7797 34.0201C16.2419 32.9943 17.4357 32.3086 18.2288 32.1732C17.7299 33.2806 16.5025 34.5303 15.6134 34.3886Z" fill="white"/>
<path d="M15.6602 33.9881L15.6134 34.3886C14.7762 34.0612 14.3637 32.3658 14.5037 31.1618C15.1174 31.6789 15.7905 32.8721 15.6602 33.9881Z" fill="white"/>
<path d="M44.2894 64.8481C44.1848 63.9606 45.4968 62.7972 46.6334 62.3503C46.4631 63.1309 45.7208 64.284 44.6682 64.6983L44.2894 64.8481Z" fill="white"/>
<path d="M44.2894 64.8481L44.6957 64.8183C45.8248 64.7378 46.9974 65.4572 47.4916 66.0863C46.2722 66.1743 44.5825 65.6921 44.2894 64.8481Z" fill="white"/>
<path d="M46.7836 64.2583L47.1454 64.0715C48.1511 63.5543 48.7716 62.3332 48.8625 61.5389C47.7774 62.0972 46.5899 63.3858 46.7836 64.2583Z" fill="white"/>
<path d="M46.7836 64.2583L47.1848 64.1881C48.3002 63.9955 49.5396 64.5932 50.0956 65.1698C48.8917 65.3795 47.1614 65.0686 46.7836 64.2583Z" fill="white"/>
<path d="M49.2059 63.4223C48.9248 62.5738 49.9751 61.1732 50.9985 60.5098C50.9894 61.3086 50.4951 62.5858 49.5471 63.2006L49.2059 63.4223Z" fill="white"/>
<path d="M49.2059 63.4223L49.5979 63.3126C50.6882 63.0086 51.9819 63.4801 52.5939 63.9989C51.4174 64.3263 49.6642 64.1909 49.2059 63.4223Z" fill="white"/>
<path d="M51.5317 62.3481C52.0659 63.0675 53.8237 63.0275 54.9608 62.5841C54.2996 62.1292 52.9642 61.7898 51.9105 62.2001L51.5317 62.3481Z" fill="white"/>
<path d="M51.5317 62.3481C51.1654 61.5321 52.0688 60.0343 53.0196 59.2721C53.0911 60.0675 52.7294 61.3875 51.8488 62.0943L51.5317 62.3481Z" fill="white"/>
<path d="M53.7362 61.0475C53.2894 60.2726 54.0362 58.6921 54.9042 57.8389C55.0568 58.6229 54.8305 59.9726 54.0259 60.7629L53.7362 61.0475Z" fill="white"/>
<path d="M53.7362 61.0475L54.0985 60.8629C55.1054 60.3481 56.4682 60.5526 57.1728 60.9395C56.0859 61.4943 54.3408 61.7092 53.7362 61.0475Z" fill="white"/>
<path d="M55.7979 59.5332C56.4665 60.1315 58.1814 59.7429 59.2065 59.0823C58.4665 58.7681 57.0899 58.7006 56.1396 59.3132L55.7979 59.5332Z" fill="white"/>
<path d="M55.7979 59.5332L56.0574 59.2218C56.7774 58.3538 56.8659 56.9892 56.6345 56.2246C55.8574 57.1601 55.2751 58.8063 55.7979 59.5332Z" fill="white"/>
<path d="M57.6962 57.8206L57.9219 57.4846C58.5505 56.5498 58.4996 55.1829 58.1922 54.4446C57.5139 55.4543 57.1014 57.1503 57.6962 57.8206Z" fill="white"/>
<path d="M57.6962 57.8206L58.0134 57.5675C58.8962 56.8635 60.2728 56.7926 61.0414 57.0309C60.0888 57.7915 58.4219 58.3492 57.6962 57.8206Z" fill="white"/>
<path d="M59.4105 55.9281C60.1865 56.3806 61.7882 55.6589 62.6596 54.8086C61.8711 54.6481 60.5082 54.8561 59.7014 55.6446L59.4105 55.9281Z" fill="white"/>
<path d="M59.4105 55.9281C58.7511 55.3201 58.9894 53.5915 59.5619 52.5201C59.9431 53.2229 60.1328 54.5778 59.6019 55.5703L59.4105 55.9281Z" fill="white"/>
<path d="M60.9242 53.8732C61.7419 54.2463 63.2625 53.3686 64.0431 52.4349C63.2425 52.3538 61.9076 52.6972 61.1848 53.5623L60.9242 53.8732Z" fill="white"/>
<path d="M60.9242 53.8732L61.0779 53.4995C61.5054 52.4583 61.1796 51.1298 60.7288 50.4675C60.2676 51.5909 60.2059 53.3343 60.9242 53.8732Z" fill="white"/>
<path d="M62.2219 51.6783C63.0739 51.9675 64.4979 50.9423 65.1796 49.9355C64.3745 49.9349 63.0814 50.4092 62.4494 51.3423L62.2219 51.6783Z" fill="white"/>
<path d="M62.2219 51.6783C61.4528 51.2143 61.3374 49.4732 61.6819 48.3092C62.1974 48.9229 62.6562 50.2126 62.3368 51.2898L62.2219 51.6783Z" fill="white"/>
<path d="M63.2899 49.3641C64.1671 49.5675 65.4796 48.4052 66.0556 47.3355C65.2551 47.4149 64.0156 48.0166 63.4819 49.0081L63.2899 49.3641Z" fill="white"/>
<path d="M63.2899 49.3641C62.4779 48.9795 62.1859 47.2595 62.4111 46.0675C62.9865 46.6258 63.5739 47.8629 63.3654 48.9675L63.2899 49.3641Z" fill="white"/>
<path d="M64.1185 46.9566C65.0116 47.0703 66.1996 45.7829 66.6642 44.6618C65.8751 44.8206 64.7036 45.5429 64.2734 46.5818L64.1185 46.9566Z" fill="white"/>
<path d="M64.1185 46.9566C63.2711 46.6549 62.8059 44.9721 62.9094 43.7635C63.5379 44.2618 64.2482 45.4343 64.1528 46.5532L64.1185 46.9566Z" fill="white"/>
<path d="M64.6985 44.4772C65.5985 44.5018 66.6505 43.1023 66.9985 41.9395C66.2294 42.1772 65.1374 43.0126 64.8145 44.0898L64.6985 44.4772Z" fill="white"/>
<path d="M64.6985 44.4772C63.8248 44.2618 63.1917 42.6343 63.1711 41.4223C63.8476 41.8549 64.6734 42.9503 64.6916 44.0732L64.6985 44.4772Z" fill="white"/>
<path d="M65.0236 41.9532C65.9219 41.8881 66.8259 40.3903 67.0551 39.1995C66.3145 39.5126 65.3122 40.4526 65.0997 41.5566L65.0236 41.9532Z" fill="white"/>
<path d="M65.0236 41.9532C64.1322 41.8263 63.3368 40.2703 63.1939 39.0669C63.9105 39.4298 64.8431 40.4361 64.9756 41.5515L65.0236 41.9532Z" fill="white"/>
<path d="M65.0911 39.4103L65.0025 39.0161C64.7574 37.9195 63.7271 37.0109 62.9774 36.7218C63.2419 37.9046 64.1916 39.3726 65.0911 39.4103Z" fill="white"/>
<path d="M65.0911 39.4103L65.1265 39.0081C65.2254 37.8881 66.1271 36.8532 66.8322 36.4681C66.7259 37.6755 65.9779 39.2555 65.0911 39.4103Z" fill="white"/>
<path d="M64.9002 36.8738C65.7671 36.6303 66.3511 34.9846 66.3345 33.7721C65.6716 34.2258 64.8796 35.3463 64.8951 36.4692L64.9002 36.8738Z" fill="white"/>
<path d="M64.9002 36.8738C64.0014 36.9263 62.9076 35.5606 62.5242 34.4103C63.3002 34.6229 64.4174 35.4241 64.7722 36.4903L64.9002 36.8738Z" fill="white"/>
<path d="M64.4522 34.3686C65.2899 34.0401 65.7042 32.3446 65.5648 31.1406C64.9511 31.6583 64.2768 32.8521 64.4059 33.9681L64.4522 34.3686Z" fill="white"/>
<path d="M64.4522 34.3686C63.5636 34.5115 62.3368 33.2618 61.8379 32.1555C62.6316 32.2903 63.8248 32.9749 64.2859 34.0001L64.4522 34.3686Z" fill="white"/>
<path d="M15.9716 32.3625L15.9899 32.7676C16.8448 32.4905 17.3733 30.8156 17.3179 29.5996C16.6733 30.0808 15.9202 31.235 15.9716 32.3625Z" fill="white"/>
</g>
<defs>
<clipPath id="clip0_2451_6587">
<rect width="80" height="80" fill="white"/>
</clipPath>
</defs>
</svg>
