<svg width="137" height="38" viewBox="0 0 137 38" fill="none" xmlns="http://www.w3.org/2000/svg">
<path d="M21.6701 17.73C21.6339 13.7013 24.9689 11.7413 25.1214 11.65C23.2326 8.89625 20.3051 8.52 19.2764 8.49C16.8176 8.23125 14.4326 9.96125 13.1801 9.96125C11.9026 9.96125 9.97387 8.515 7.89512 8.5575C5.22012 8.59875 2.71762 10.1475 1.34512 12.5525C-1.48738 17.4563 0.62512 24.6625 3.33887 28.6263C4.69637 30.5675 6.28262 32.735 8.35887 32.6588C10.3901 32.575 11.1489 31.3638 13.6001 31.3638C16.0289 31.3638 16.7414 32.6588 18.8589 32.61C21.0389 32.575 22.4114 30.66 23.7214 28.7013C25.2901 26.4763 25.9201 24.285 25.9451 24.1725C25.8939 24.155 21.7114 22.5588 21.6701 17.73Z" fill="#141414"/>
<path d="M17.6705 5.88249C18.763 4.51624 19.5105 2.65749 19.303 0.77124C17.7218 0.84124 15.7443 1.86499 14.6055 3.20124C13.598 4.37874 12.698 6.30874 12.9305 8.12374C14.7068 8.25624 16.5305 7.22749 17.6705 5.88249Z" fill="#141414"/>
<path d="M51.0662 32.3799H48.2275L46.6725 27.4936H41.2675L39.7862 32.3799H37.0225L42.3775 15.7449H45.685L51.0662 32.3799ZM46.2037 25.4436L44.7975 21.0999C44.6487 20.6561 44.37 19.6111 43.9587 17.9661H43.9087C43.745 18.6736 43.4812 19.7186 43.1187 21.0999L41.7375 25.4436H46.2037Z" fill="#141414"/>
<path d="M64.8374 26.2349C64.8374 28.2749 64.2861 29.8874 63.1836 31.0712C62.1961 32.1249 60.9699 32.6512 59.5061 32.6512C57.9261 32.6512 56.7911 32.0837 56.0999 30.9487H56.0499V37.2674H53.3849V24.3337C53.3849 23.0512 53.3511 21.7349 53.2861 20.3849H55.6299L55.7786 22.2862H55.8286C56.7174 20.8537 58.0661 20.1387 59.8761 20.1387C61.2911 20.1387 62.4724 20.6974 63.4174 21.8162C64.3649 22.9362 64.8374 24.4087 64.8374 26.2349ZM62.1224 26.3324C62.1224 25.1649 61.8599 24.2024 61.3324 23.4449C60.7561 22.6549 59.9824 22.2599 59.0124 22.2599C58.3549 22.2599 57.7574 22.4799 57.2236 22.9137C56.6886 23.3512 56.3386 23.9224 56.1749 24.6299C56.0924 24.9599 56.0511 25.2299 56.0511 25.4424V27.4424C56.0511 28.3149 56.3186 29.0512 56.8536 29.6524C57.3886 30.2537 58.0836 30.5537 58.9386 30.5537C59.9424 30.5537 60.7236 30.1662 61.2824 29.3937C61.8424 28.6199 62.1224 27.5999 62.1224 26.3324Z" fill="#141414"/>
<path d="M78.634 26.2349C78.634 28.2749 78.0827 29.8874 76.979 31.0712C75.9927 32.1249 74.7665 32.6512 73.3027 32.6512C71.7227 32.6512 70.5877 32.0837 69.8977 30.9487H69.8477V37.2674H67.1827V24.3337C67.1827 23.0512 67.149 21.7349 67.084 20.3849H69.4277L69.5765 22.2862H69.6265C70.514 20.8537 71.8627 20.1387 73.674 20.1387C75.0877 20.1387 76.269 20.6974 77.2165 21.8162C78.1602 22.9362 78.634 24.4087 78.634 26.2349ZM75.919 26.3324C75.919 25.1649 75.6552 24.2024 75.1277 23.4449C74.5515 22.6549 73.7802 22.2599 72.809 22.2599C72.1502 22.2599 71.554 22.4799 71.019 22.9137C70.484 23.3512 70.1352 23.9224 69.9715 24.6299C69.8902 24.9599 69.8477 25.2299 69.8477 25.4424V27.4424C69.8477 28.3149 70.1152 29.0512 70.6477 29.6524C71.1827 30.2524 71.8777 30.5537 72.7352 30.5537C73.739 30.5537 74.5202 30.1662 75.079 29.3937C75.639 28.6199 75.919 27.5999 75.919 26.3324Z" fill="#141414"/>
<path d="M94.0583 27.715C94.0583 29.13 93.567 30.2812 92.5808 31.17C91.497 32.1412 89.9883 32.6262 88.0495 32.6262C86.2595 32.6262 84.8245 32.2812 83.7383 31.59L84.3558 29.3687C85.5258 30.0762 86.8095 30.4312 88.2083 30.4312C89.212 30.4312 89.9933 30.2037 90.5545 29.7512C91.1133 29.2987 91.392 28.6912 91.392 27.9337C91.392 27.2587 91.162 26.69 90.7008 26.2287C90.242 25.7675 89.4758 25.3387 88.4058 24.9425C85.4933 23.8562 84.0383 22.265 84.0383 20.1725C84.0383 18.805 84.5483 17.6837 85.5695 16.8112C86.587 15.9375 87.9445 15.5012 89.642 15.5012C91.1558 15.5012 92.4133 15.765 93.417 16.2912L92.7508 18.4637C91.8133 17.9537 90.7533 17.6987 89.567 17.6987C88.6295 17.6987 87.897 17.93 87.372 18.39C86.9283 18.8012 86.7058 19.3025 86.7058 19.8962C86.7058 20.5537 86.9595 21.0975 87.4695 21.525C87.9133 21.92 88.7195 22.3475 89.8895 22.8087C91.3208 23.385 92.372 24.0587 93.0483 24.8312C93.722 25.6012 94.0583 26.565 94.0583 27.715Z" fill="#141414"/>
<path d="M102.87 22.385H99.9329V28.2087C99.9329 29.69 100.45 30.43 101.488 30.43C101.964 30.43 102.359 30.3887 102.672 30.3062L102.745 32.33C102.22 32.5262 101.529 32.625 100.673 32.625C99.6204 32.625 98.7979 32.3037 98.2042 31.6625C97.6129 31.02 97.3154 29.9425 97.3154 28.4287V22.3825H95.5654V20.3825H97.3154V18.1862L99.9329 17.3962V20.3825H102.87V22.385Z" fill="#141414"/>
<path d="M116.124 26.2836C116.124 28.1274 115.596 29.6411 114.544 30.8249C113.44 32.0436 111.975 32.6511 110.149 32.6511C108.389 32.6511 106.987 32.0674 105.942 30.8999C104.897 29.7324 104.375 28.2586 104.375 26.4824C104.375 24.6236 104.912 23.1011 105.991 21.9174C107.067 20.7324 108.52 20.1399 110.346 20.1399C112.106 20.1399 113.522 20.7236 114.591 21.8924C115.614 23.0261 116.124 24.4899 116.124 26.2836ZM113.359 26.3699C113.359 25.2636 113.122 24.3149 112.644 23.5236C112.085 22.5661 111.286 22.0886 110.251 22.0886C109.18 22.0886 108.366 22.5674 107.808 23.5236C107.329 24.3161 107.093 25.2799 107.093 26.4199C107.093 27.5261 107.329 28.4749 107.808 29.2649C108.384 30.2224 109.189 30.6999 110.227 30.6999C111.245 30.6999 112.044 30.2124 112.62 29.2399C113.111 28.4336 113.359 27.4749 113.359 26.3699Z" fill="#141414"/>
<path d="M124.787 22.7287C124.523 22.6799 124.242 22.6549 123.947 22.6549C123.009 22.6549 122.284 23.0087 121.774 23.7174C121.33 24.3424 121.108 25.1324 121.108 26.0862V32.3799H118.444L118.469 24.1624C118.469 22.7799 118.435 21.5212 118.369 20.3862H120.69L120.788 22.6812H120.862C121.143 21.8924 121.587 21.2574 122.194 20.7812C122.788 20.3524 123.429 20.1387 124.12 20.1387C124.367 20.1387 124.589 20.1562 124.787 20.1874V22.7287Z" fill="#141414"/>
<path d="M136.705 25.815C136.705 26.2925 136.674 26.695 136.607 27.0237H128.612C128.644 28.2087 129.03 29.115 129.772 29.74C130.446 30.2987 131.317 30.5787 132.387 30.5787C133.571 30.5787 134.651 30.39 135.622 30.0112L136.04 31.8612C134.905 32.3562 133.565 32.6025 132.019 32.6025C130.159 32.6025 128.699 32.055 127.636 30.9612C126.576 29.8675 126.045 28.3987 126.045 26.5562C126.045 24.7475 126.539 23.2412 127.527 22.04C128.562 20.7575 129.961 20.1162 131.721 20.1162C133.45 20.1162 134.759 20.7575 135.647 22.04C136.351 23.0587 136.705 24.3187 136.705 25.815ZM134.164 25.1237C134.181 24.3337 134.007 23.6512 133.646 23.075C133.185 22.3337 132.476 21.9637 131.522 21.9637C130.651 21.9637 129.942 22.325 129.401 23.05C128.957 23.6262 128.694 24.3175 128.612 25.1225L134.164 25.1237Z" fill="#141414"/>
<path d="M45.323 5.51137C45.323 6.98262 44.8817 8.09012 44.0005 8.83387C43.1842 9.52012 42.0242 9.86387 40.5217 9.86387C39.7767 9.86387 39.1392 9.83137 38.6055 9.76637V1.72762C39.3017 1.61512 40.0517 1.55762 40.8617 1.55762C42.293 1.55762 43.3717 1.86887 44.0992 2.49137C44.9142 3.19512 45.323 4.20137 45.323 5.51137ZM43.9417 5.54762C43.9417 4.59387 43.6892 3.86262 43.1842 3.35262C42.6792 2.84387 41.9417 2.58887 40.9705 2.58887C40.558 2.58887 40.2067 2.61637 39.9155 2.67387V8.78512C40.0767 8.81012 40.3717 8.82137 40.8005 8.82137C41.803 8.82137 42.5767 8.54262 43.1217 7.98512C43.6667 7.42762 43.9417 6.61512 43.9417 5.54762Z" fill="#141414"/>
<path d="M52.6463 6.79631C52.6463 7.70256 52.3875 8.44506 51.87 9.02756C51.3275 9.62631 50.6088 9.92506 49.7113 9.92506C48.8463 9.92506 48.1575 9.63881 47.6438 9.06381C47.1313 8.49006 46.875 7.76631 46.875 6.89381C46.875 5.98131 47.1387 5.23256 47.6687 4.65131C48.1987 4.07006 48.9113 3.77881 49.8088 3.77881C50.6738 3.77881 51.3687 4.06506 51.895 4.63881C52.395 5.19631 52.6463 5.91631 52.6463 6.79631ZM51.2875 6.83881C51.2875 6.29506 51.17 5.82881 50.9363 5.44006C50.6613 4.97006 50.27 4.73506 49.7613 4.73506C49.235 4.73506 48.835 4.97006 48.56 5.44006C48.325 5.82881 48.2088 6.30256 48.2088 6.86256C48.2088 7.40631 48.3262 7.87256 48.56 8.26131C48.8437 8.73131 49.2387 8.96631 49.7487 8.96631C50.2487 8.96631 50.6412 8.72756 50.9237 8.24881C51.1662 7.85256 51.2875 7.38256 51.2875 6.83881Z" fill="#141414"/>
<path d="M62.4672 3.89893L60.6234 9.79143H59.4234L58.6597 7.23268C58.4659 6.59393 58.3084 5.95893 58.1859 5.32893H58.1622C58.0484 5.97643 57.8909 6.61018 57.6884 7.23268L56.8772 9.79143H55.6634L53.9297 3.89893H55.2759L55.9422 6.70018C56.1034 7.36268 56.2359 7.99393 56.3422 8.59143H56.3659C56.4634 8.09893 56.6247 7.47143 56.8522 6.71268L57.6884 3.90018H58.7559L59.5572 6.65268C59.7509 7.32393 59.9084 7.97018 60.0297 8.59268H60.0659C60.1547 7.98643 60.2884 7.34018 60.4659 6.65268L61.1809 3.90018H62.4672V3.89893Z" fill="#141414"/>
<path d="M69.2578 9.7914H67.9478V6.4164C67.9478 5.3764 67.5528 4.8564 66.7603 4.8564C66.3715 4.8564 66.0578 4.9989 65.814 5.28515C65.5728 5.5714 65.4503 5.9089 65.4503 6.29515V9.79015H64.1403V5.58265C64.1403 5.06515 64.124 4.5039 64.0928 3.8964H65.244L65.3053 4.81765H65.3415C65.494 4.5314 65.7215 4.29515 66.0203 4.1064C66.3753 3.8864 66.7728 3.77515 67.2078 3.77515C67.7578 3.77515 68.2153 3.95265 68.579 4.3089C69.0315 4.74515 69.2578 5.3964 69.2578 6.2614V9.7914Z" fill="#141414"/>
<path d="M72.8703 9.79132H71.5615V1.19507H72.8703V9.79132Z" fill="#141414"/>
<path d="M80.5828 6.79631C80.5828 7.70256 80.324 8.44506 79.8065 9.02756C79.264 9.62631 78.544 9.92506 77.6478 9.92506C76.7815 9.92506 76.0928 9.63881 75.5803 9.06381C75.0678 8.49006 74.8115 7.76631 74.8115 6.89381C74.8115 5.98131 75.0753 5.23256 75.6053 4.65131C76.1353 4.07006 76.8478 3.77881 77.744 3.77881C78.6103 3.77881 79.304 4.06506 79.8315 4.63881C80.3315 5.19631 80.5828 5.91631 80.5828 6.79631ZM79.2228 6.83881C79.2228 6.29506 79.1053 5.82881 78.8715 5.44006C78.5978 4.97006 78.2053 4.73506 77.6978 4.73506C77.1703 4.73506 76.7703 4.97006 76.4965 5.44006C76.2615 5.82881 76.1453 6.30256 76.1453 6.86256C76.1453 7.40631 76.2628 7.87256 76.4965 8.26131C76.7803 8.73131 77.1753 8.96631 77.6853 8.96631C78.1853 8.96631 78.5765 8.72756 78.859 8.24881C79.1028 7.85256 79.2228 7.38256 79.2228 6.83881Z" fill="#141414"/>
<path d="M86.9234 9.79131H85.7472L85.6497 9.11256H85.6134C85.2109 9.65381 84.6372 9.92506 83.8922 9.92506C83.3359 9.92506 82.8859 9.74631 82.5472 9.39131C82.2397 9.06881 82.0859 8.66756 82.0859 8.19131C82.0859 7.47131 82.3859 6.92256 82.9897 6.54256C83.5922 6.16256 84.4397 5.97631 85.5309 5.98506V5.87506C85.5309 5.09881 85.1234 4.71131 84.3072 4.71131C83.7259 4.71131 83.2134 4.85756 82.7709 5.14756L82.5047 4.28756C83.0522 3.94881 83.7284 3.77881 84.5259 3.77881C86.0659 3.77881 86.8384 4.59131 86.8384 6.21631V8.38631C86.8384 8.97506 86.8672 9.44381 86.9234 9.79131ZM85.5634 7.76631V6.85756C84.1184 6.83256 83.3959 7.22881 83.3959 8.04506C83.3959 8.35256 83.4784 8.58256 83.6472 8.73631C83.8159 8.89006 84.0309 8.96631 84.2872 8.96631C84.5747 8.96631 84.8434 8.87506 85.0884 8.69381C85.3347 8.51131 85.4859 8.28006 85.5422 7.99631C85.5559 7.93256 85.5634 7.85506 85.5634 7.76631Z" fill="#141414"/>
<path d="M94.3672 9.79132H93.2047L93.1434 8.84507H93.1072C92.7359 9.56507 92.1034 9.92507 91.2147 9.92507C90.5047 9.92507 89.9134 9.64632 89.4447 9.08882C88.9759 8.53132 88.7422 7.80757 88.7422 6.91882C88.7422 5.96507 88.9959 5.19257 89.5059 4.60257C89.9997 4.05257 90.6047 3.77757 91.3247 3.77757C92.1159 3.77757 92.6697 4.04382 92.9847 4.57757H93.0097V1.19507H94.3209V8.20382C94.3209 8.77757 94.3359 9.30632 94.3672 9.79132ZM93.0097 7.30632V6.32382C93.0097 6.15382 92.9972 6.01632 92.9734 5.91132C92.8997 5.59632 92.7409 5.33132 92.4997 5.11757C92.2559 4.90382 91.9622 4.79632 91.6234 4.79632C91.1347 4.79632 90.7522 4.99007 90.4709 5.37882C90.1922 5.76757 90.0509 6.26382 90.0509 6.87007C90.0509 7.45257 90.1847 7.92507 90.4534 8.28882C90.7372 8.67632 91.1197 8.87007 91.5984 8.87007C92.0284 8.87007 92.3722 8.70882 92.6334 8.38507C92.8859 8.08632 93.0097 7.72632 93.0097 7.30632Z" fill="#141414"/>
<path d="M105.57 6.79631C105.57 7.70256 105.311 8.44506 104.794 9.02756C104.251 9.62631 103.534 9.92506 102.635 9.92506C101.771 9.92506 101.083 9.63881 100.568 9.06381C100.055 8.49006 99.7988 7.76631 99.7988 6.89381C99.7988 5.98131 100.063 5.23256 100.593 4.65131C101.123 4.07006 101.835 3.77881 102.734 3.77881C103.598 3.77881 104.294 4.06506 104.819 4.63881C105.319 5.19631 105.57 5.91631 105.57 6.79631ZM104.213 6.83881C104.213 6.29506 104.095 5.82881 103.861 5.44006C103.585 4.97006 103.195 4.73506 102.685 4.73506C102.16 4.73506 101.76 4.97006 101.484 5.44006C101.249 5.82881 101.133 6.30256 101.133 6.86256C101.133 7.40631 101.25 7.87256 101.484 8.26131C101.768 8.73131 102.163 8.96631 102.673 8.96631C103.173 8.96631 103.566 8.72756 103.849 8.24881C104.09 7.85256 104.213 7.38256 104.213 6.83881Z" fill="#141414"/>
<path d="M112.614 9.7914H111.305V6.4164C111.305 5.3764 110.91 4.8564 110.116 4.8564C109.728 4.8564 109.414 4.9989 109.171 5.28515C108.929 5.5714 108.808 5.9089 108.808 6.29515V9.79015H107.496V5.58265C107.496 5.06515 107.481 4.5039 107.45 3.8964H108.6L108.661 4.81765H108.698C108.851 4.5314 109.079 4.29515 109.376 4.1064C109.733 3.8864 110.129 3.77515 110.565 3.77515C111.114 3.77515 111.571 3.95265 111.935 4.3089C112.389 4.74515 112.614 5.3964 112.614 6.2614V9.7914Z" fill="#141414"/>
<path d="M121.431 4.88015H119.988V7.74265C119.988 8.47015 120.244 8.8339 120.752 8.8339C120.987 8.8339 121.182 8.8139 121.336 8.77265L121.369 9.7664C121.111 9.8639 120.771 9.91265 120.352 9.91265C119.834 9.91265 119.432 9.75515 119.141 9.44015C118.848 9.12515 118.703 8.59515 118.703 7.8514V4.88015H117.842V3.8989H118.703V2.8189L119.987 2.4314V3.89765H121.429L121.431 4.88015Z" fill="#141414"/>
<path d="M128.366 9.79132H127.054V6.44132C127.054 5.38507 126.659 4.85632 125.868 4.85632C125.261 4.85632 124.846 5.16257 124.618 5.77507C124.579 5.90382 124.557 6.06132 124.557 6.24632V9.79007H123.248V1.19507H124.557V4.74632H124.582C124.994 4.10007 125.586 3.77757 126.352 3.77757C126.894 3.77757 127.343 3.95507 127.699 4.31132C128.143 4.75507 128.366 5.41507 128.366 6.28757V9.79132Z" fill="#141414"/>
<path d="M135.519 6.56633C135.519 6.80133 135.502 6.99883 135.47 7.16008H131.542C131.559 7.74258 131.747 8.18633 132.11 8.49383C132.443 8.76883 132.872 8.90633 133.397 8.90633C133.978 8.90633 134.508 8.81383 134.985 8.62758L135.19 9.53758C134.632 9.78008 133.974 9.90133 133.213 9.90133C132.3 9.90133 131.582 9.63258 131.062 9.09508C130.539 8.55758 130.28 7.83633 130.28 6.93133C130.28 6.04258 130.522 5.30258 131.008 4.71258C131.515 4.08258 132.202 3.76758 133.068 3.76758C133.915 3.76758 134.559 4.08258 134.994 4.71258C135.345 5.21258 135.519 5.83133 135.519 6.56633ZM134.269 6.22758C134.279 5.83883 134.193 5.50383 134.015 5.22133C133.788 4.85758 133.442 4.67508 132.973 4.67508C132.545 4.67508 132.197 4.85258 131.93 5.20883C131.713 5.49258 131.584 5.83133 131.542 6.22758H134.269Z" fill="#141414"/>
</svg>
