<svg width="40" height="41" viewBox="0 0 40 41" fill="none" xmlns="http://www.w3.org/2000/svg">
<circle cx="20" cy="20.6946" r="19.5" stroke="#070707"/>
<path d="M19.0668 10.4058C19.359 9.45749 20.641 9.45749 20.9332 10.4058L22.8465 16.615C22.9774 17.0398 23.3555 17.3273 23.7819 17.3263L30.0154 17.312C30.9675 17.3099 31.3636 18.5859 30.5922 19.1699L25.5411 22.9931C25.1956 23.2546 25.0512 23.7199 25.1839 24.144L27.1231 30.3444C27.4193 31.2914 26.3821 32.08 25.6131 31.4926L20.5781 27.6463C20.2337 27.3832 19.7663 27.3832 19.4219 27.6463L14.3869 31.4926C13.6179 32.08 12.5807 31.2914 12.8769 30.3444L14.8161 24.144C14.9488 23.7199 14.8044 23.2546 14.4589 22.9931L9.40783 19.1699C8.63637 18.5859 9.03252 17.3099 9.98459 17.312L16.2181 17.3263C16.6445 17.3273 17.0226 17.0398 17.1535 16.615L19.0668 10.4058Z" stroke="#070707"/>
</svg>
