<svg width="80" height="80" viewBox="0 0 80 80" fill="none" xmlns="http://www.w3.org/2000/svg">
<g clip-path="url(#clip0_6947_18948)">
<path d="M40 80C62.0914 80 80 62.0914 80 40C80 17.9086 62.0914 0 40 0C17.9086 0 0 17.9086 0 40C0 62.0914 17.9086 80 40 80Z" fill="#6274BC"/>
<path d="M21.7417 26.35H19.2316L16.9007 29.9088L14.6297 26.35H12L15.4664 31.6006L12 36.8512H14.5699L16.841 33.1758L19.1718 36.8512H21.7417L18.2753 31.6006L21.7417 26.35ZM19.7695 42.0435H18.0363L13.3746 46.6524V42.0435H12V52.3114H13.3746V47.4108L18.096 52.3114H19.8292L14.7492 47.0024L19.7695 42.0435ZM35.5475 29.4421C34.4717 29.4421 33.5752 29.8504 33.0374 30.6089C33.1569 29.2087 33.7545 28.5086 35.2487 28.2753L37.9979 27.8669V26L35.0096 26.5251C31.9616 26.9918 31.0053 28.9753 31.0053 32.3007C31.0053 35.6261 32.4995 37.0263 35.0694 37.0263C37.6393 37.0263 38.8943 35.2761 38.8943 33.1758C38.8943 31.0756 37.5795 29.4421 35.5475 29.4421ZM35.0096 35.2761C33.8741 35.2761 33.2166 34.401 33.2166 33.1758C33.2166 31.9507 33.8741 31.1923 35.0096 31.1923C36.1451 31.1923 36.683 32.0674 36.683 33.1758C36.683 34.2843 36.0854 35.2177 34.9498 35.2177L35.0096 35.2761ZM26.1644 29.1504C24.1323 29.1504 22.9968 30.3172 22.7577 31.6006H24.7898C24.9093 31.1923 25.2679 30.7839 26.0448 30.7839C26.8218 30.7839 27.2999 31.1339 27.2999 31.834V32.184H25.6265C23.6542 32.184 22.4589 33.0591 22.4589 34.6343C22.4589 36.2095 23.6542 37.0263 25.1483 37.0263C26.6425 37.0263 26.9413 36.6762 27.4194 36.0345V36.8512H29.4514V31.8923C29.4514 30.0838 28.1366 29.092 26.1644 29.092V29.1504ZM27.3597 34.0509C27.3597 34.926 26.6425 35.3927 25.8058 35.3927C24.9691 35.3927 24.73 35.101 24.73 34.576C24.73 34.0509 25.2081 33.7009 25.8655 33.7009H27.3597V34.0509ZM44.7513 29.1504C43.6158 29.1504 42.8986 29.6171 42.4803 30.2005V29.267H40.3885V39.7682H42.5998V36.1512C43.0181 36.6762 43.7353 37.0263 44.6916 37.0263C46.6041 37.0263 48.0982 35.5678 48.0982 33.0591C48.0982 30.5505 46.6041 29.092 44.7513 29.092V29.1504ZM44.2134 35.2177C43.1974 35.2177 42.54 34.401 42.54 33.1175C42.54 31.7757 43.1974 30.9589 44.2134 30.9589C45.2295 30.9589 45.8869 31.7757 45.8869 33.0591C45.8869 34.3426 45.2295 35.1594 44.2134 35.1594V35.2177ZM23.8335 44.8438C22.1003 44.8438 21.0843 45.7773 20.8452 46.9441H22.1003C22.3394 46.419 22.8175 45.9523 23.8335 45.9523C24.8495 45.9523 25.5069 46.4774 25.5069 47.4691V47.9359H23.5347C21.682 47.9359 20.5464 48.811 20.5464 50.2111C20.5464 51.6113 21.682 52.4864 23.1761 52.4864C24.6702 52.4864 25.0288 52.1363 25.5667 51.4363V52.3114H26.762V47.4691C26.762 45.8356 25.5667 44.8438 23.8335 44.8438ZM25.5069 49.5694C25.5069 50.6778 24.4909 51.4363 23.2956 51.4363C22.1003 51.4363 21.8015 51.0279 21.8015 50.2695C21.8015 49.511 22.5187 49.1027 23.5347 49.1027H25.4472V49.6277L25.5069 49.5694ZM32.6788 44.8438C31.3639 44.8438 30.587 45.4272 30.2284 46.069V45.0188H28.9733V55.17H30.2882V51.4946C30.6467 52.0197 31.4237 52.5447 32.6788 52.5447C34.412 52.5447 36.1451 51.3196 36.1451 48.6943C36.1451 46.069 34.4717 44.8438 32.7385 44.8438H32.6788ZM32.4995 51.3779C31.1249 51.3779 30.2284 50.3278 30.2284 48.6943C30.2284 47.0024 31.1249 45.9523 32.4995 45.9523C33.8741 45.9523 34.7705 47.0608 34.7705 48.6359C34.7705 50.2111 33.8741 51.3196 32.4995 51.3196V51.3779ZM40.8068 47.3525H39.1334V44.9605H37.8186V52.3114H40.8068C42.4205 52.3114 43.4963 51.2612 43.4963 49.8027C43.4963 48.3442 42.4205 47.3525 40.8666 47.3525H40.8068ZM40.6873 51.2029H39.1932V48.4609H40.6873C41.7033 48.4609 42.1814 49.0443 42.1814 49.8027C42.1814 50.5612 41.6435 51.2029 40.6873 51.2029ZM48.2775 44.8438C46.1857 44.8438 44.7513 46.3023 44.7513 48.6943C44.7513 51.0862 46.2455 52.5447 48.397 52.5447C50.5486 52.5447 51.2657 51.3196 51.5048 50.5028H50.19C50.0704 50.9112 49.4728 51.4363 48.397 51.4363C47.3212 51.4363 46.0662 50.4445 46.0662 49.161H51.5646V48.5193C51.5646 46.3023 50.2497 44.9605 48.2775 44.9605V44.8438ZM46.1259 47.9942C46.2455 46.7691 47.0224 45.9523 48.2775 45.9523C49.5326 45.9523 50.2497 46.7107 50.3095 47.9942H46.1259ZM57.063 44.8438C55.7481 44.8438 54.9712 45.4272 54.6126 46.069V45.0188H53.3575V55.17H54.6724V51.4946C55.0309 52.0197 55.8677 52.5447 57.063 52.5447C58.7962 52.5447 60.5294 51.3196 60.5294 48.6943C60.5294 46.069 58.8559 44.8438 57.1227 44.8438H57.063ZM56.8837 51.3779C55.5091 51.3779 54.5528 50.3278 54.5528 48.6943C54.5528 47.0024 55.4493 45.9523 56.8837 45.9523C58.318 45.9523 59.1548 47.0608 59.1548 48.6359C59.1548 50.2111 58.2583 51.3196 56.8837 51.3196V51.3779ZM65.0715 44.8438C63.3383 44.8438 62.3223 45.7773 62.0832 46.9441H63.3383C63.5774 46.419 64.0555 45.9523 65.0715 45.9523C66.0875 45.9523 66.7449 46.4774 66.7449 47.4691V47.9359H64.7727C62.92 47.9359 61.7844 48.811 61.7844 50.2111C61.7844 51.6113 62.92 52.4864 64.4141 52.4864C65.9082 52.4864 66.2668 52.1363 66.8047 51.4363V52.3114H68V47.4691C68 45.8356 66.8047 44.8438 65.0715 44.8438ZM66.7449 49.5694C66.7449 50.6778 65.7289 51.4363 64.5336 51.4363C63.3383 51.4363 63.0395 51.0279 63.0395 50.2695C63.0395 49.511 63.7567 49.1027 64.7727 49.1027H66.6852V49.6277L66.7449 49.5694Z" fill="white"/>
</g>
<defs>
<clipPath id="clip0_6947_18948">
<rect width="80" height="80" fill="white"/>
</clipPath>
</defs>
</svg>
