<svg width="26" height="26" viewBox="0 0 26 26" fill="none" xmlns="http://www.w3.org/2000/svg">
<path d="M25.0301 19.3362C24.4242 18.7304 23.5933 18.3495 22.6758 18.3495C21.7584 18.3495 20.9275 18.7304 20.3216 19.3362C19.7158 19.9421 19.3523 20.7903 19.3523 21.7251C19.3523 22.6598 19.7331 23.508 20.3216 24.1139C20.9275 24.7198 21.7584 25.1006 22.6758 25.1006C23.5933 25.1006 24.4242 24.7198 25.0301 24.1139C25.6359 23.508 25.9994 22.6598 25.9994 21.7251C26.0167 20.7903 25.6359 19.9421 25.0301 19.3362Z" fill="white"/>
<path d="M6.07864 19.3363C5.47278 18.7305 4.64188 18.3496 3.72443 18.3496C2.80698 18.3496 1.97608 18.7305 1.37022 19.3363C0.764357 19.9422 0.400841 20.7904 0.400841 21.7252C0.40084 22.6599 0.781667 23.5081 1.37022 24.114C1.97608 24.7198 2.80698 25.1007 3.72443 25.1007C4.64188 25.1007 5.47278 24.7198 6.07864 24.114C6.6845 23.5081 7.04802 22.6599 7.04802 21.7252C7.06533 20.7904 6.6845 19.9422 6.07864 19.3363Z" fill="white"/>
<path d="M25.0301 0.986765C24.4242 0.380902 23.5933 7.32225e-05 22.6758 7.31423e-05C21.7584 7.30621e-05 20.9275 0.380902 20.3216 0.986764C19.7158 1.59263 19.3523 2.44083 19.3523 3.37559C19.3523 4.31035 19.7331 5.15856 20.3216 5.76442C20.9275 6.37029 21.7584 6.75111 22.6758 6.75111C23.5933 6.75111 24.4242 6.37029 25.0301 5.76442C25.6359 5.15856 25.9994 4.31035 25.9994 3.37559C26.0167 2.44083 25.6359 1.59263 25.0301 0.986765Z" fill="white"/>
<path d="M15.5542 10.1616C14.9484 9.55569 14.1175 9.17486 13.2 9.17486C12.2826 9.17486 11.4517 9.55569 10.8458 10.1616C10.2399 10.7674 9.87643 11.6156 9.87643 12.5504C9.87643 13.4851 10.2573 14.3334 10.8458 14.9392C11.4517 15.5451 12.2826 15.9259 13.2 15.9259C14.1175 15.9259 14.9484 15.5451 15.5542 14.9392C16.1601 14.3334 16.5236 13.4851 16.5236 12.5504C16.5409 11.6156 16.1601 10.7674 15.5542 10.1616Z" fill="white"/>
<path d="M6.07864 0.986765C5.47278 0.380902 4.64188 7.32225e-05 3.72443 7.31423e-05C2.80698 7.30621e-05 1.97608 0.380902 1.37022 0.986764C0.764357 1.59263 0.400841 2.44083 0.400841 3.37559C0.40084 4.31035 0.781667 5.15856 1.37022 5.76442C1.97608 6.37029 2.80698 6.75111 3.72443 6.75111C4.64188 6.75111 5.47278 6.37029 6.07864 5.76442C6.6845 5.15856 7.04802 4.31035 7.04802 3.37559C7.06533 2.44083 6.6845 1.59263 6.07864 0.986765Z" fill="white"/>
</svg>
