<svg width="22" height="20" viewBox="0 0 22 20" fill="none" xmlns="http://www.w3.org/2000/svg">
<path fill-rule="evenodd" clip-rule="evenodd" d="M18.9261 18.9248L18.717 17.5916C18.2163 18.4993 17.2354 19.116 16.1072 19.116C14.4705 19.116 13.1752 17.8064 13.1752 16.2052C13.1752 16.1033 13.1548 16.0221 13.1751 15.9382L13.1752 11.9155H11.9141V10.5137H14.6885L14.6886 15.7154C14.6897 15.7327 14.5208 17.8609 16.4254 17.7594C17.4918 17.7026 18.195 16.9703 18.5349 15.5625L18.5349 11.9155H17.0846V10.5137H20.0482V17.5229H21.1201V18.9248H18.9261Z" fill="#1E2738"/>
<path fill-rule="evenodd" clip-rule="evenodd" d="M17.1482 0C18.4665 0 19.5992 0.448811 20.4246 1.18278V3.24814H18.9768L18.9769 1.84189C18.4318 1.49588 17.7908 1.29769 17.1702 1.29769C15.5857 1.29769 14.3012 2.6086 14.3012 4.33301C14.3012 6.05741 15.5857 7.37797 17.1702 7.37797C18.1097 7.37797 18.9437 6.96387 19.4671 6.20431L20.6521 7.12217C19.8453 8.17708 18.5759 8.85718 17.1482 8.85718C14.7105 8.85718 12.7344 6.87443 12.7344 4.42859C12.7344 1.98275 14.7105 0 17.1482 0Z" fill="#1E2738"/>
<path fill-rule="evenodd" clip-rule="evenodd" d="M3.14941 0.191406H5.73467L7.85831 6.53716L9.9819 0.191406H12.5672V1.59326H11.1211L8.59469 8.72998H7.12189L4.59552 1.59326H3.14941V0.191406Z" fill="#1E2738"/>
<path fill-rule="evenodd" clip-rule="evenodd" d="M6.41217 10.5137V12.1704C7.10683 11.1058 7.95323 10.5253 8.95135 10.5137H10.3386V13.1262H8.95135L8.95135 11.8163C7.77912 11.8292 7.00143 12.5045 6.6183 13.8423L6.61831 17.5229H10.2125V18.9248H3.71777V17.5229H5.10499V11.9155H3.71777V10.5137H6.41217Z" fill="#1E2738"/>
<path d="M2.2671 17.5234H0.879883V18.9253H2.2671V17.5234Z" fill="#1E2738"/>
</svg>
