<svg width="18" height="15" viewBox="0 0 18 15" fill="none" xmlns="http://www.w3.org/2000/svg">
<path d="M12.1818 6.09091L13.2784 7.11439L12.1818 6.09091ZM6.66667 12L7.76325 13.0235L6.66667 14.1984L5.57009 13.0235L6.66667 12ZM0.903418 8.02348C0.338167 7.41785 0.370897 6.46867 0.976523 5.90342C1.58215 5.33817 2.53133 5.3709 3.09658 5.97652L0.903418 8.02348ZM14.9034 0.976521C15.4687 0.370895 16.4179 0.338164 17.0235 0.903415C17.6291 1.46867 17.6618 2.41785 17.0966 3.02348L14.9034 0.976521ZM13.2784 7.11439L7.76325 13.0235L5.57009 10.9765L11.0852 5.06743L13.2784 7.11439ZM5.57009 13.0235L0.903418 8.02348L3.09658 5.97652L7.76325 10.9765L5.57009 13.0235ZM17.0966 3.02348L13.2784 7.11439L11.0852 5.06743L14.9034 0.976521L17.0966 3.02348Z" fill="white"/>
</svg>
