<svg width="23" height="19" viewBox="0 0 23 19" fill="none" xmlns="http://www.w3.org/2000/svg">
<path fill-rule="evenodd" clip-rule="evenodd" d="M22.2703 1.60911C21.9703 4.77078 20.667 12.4458 20.0053 15.9874C19.7253 17.4874 19.172 17.9891 18.6386 18.0374C17.477 18.1441 16.5953 17.2691 15.4703 16.5324C13.7103 15.3791 12.7153 14.6608 11.007 13.5341C9.03198 12.2324 10.312 11.5174 11.437 10.3491C11.732 10.0424 16.8486 5.38745 16.9486 4.96578C16.9603 4.91245 16.9736 4.71578 16.8553 4.61245C16.737 4.50911 16.5653 4.54411 16.442 4.57245C16.2653 4.61245 13.4536 6.47078 8.00531 10.1474C7.20698 10.6958 6.48365 10.9624 5.83531 10.9491C5.12198 10.9341 3.74865 10.5458 2.72698 10.2124C1.47531 9.80578 0.478646 9.58911 0.565313 8.89911C0.610313 8.53911 1.10531 8.17078 2.05198 7.79411C7.88198 5.25411 11.7703 3.57911 13.7153 2.76911C19.2703 0.459115 20.4236 0.0574475 21.177 0.0441142C22.1203 0.0307809 22.347 0.809114 22.2703 1.60911Z" fill="#1E2738"/>
</svg>
