<svg width="80" height="80" viewBox="0 0 80 80" fill="none" xmlns="http://www.w3.org/2000/svg">
<rect x="0.5" y="0.5" width="79" height="79" rx="39.5" stroke="#141414"/>
<path fill-rule="evenodd" clip-rule="evenodd" d="M22.352 21.1465V34.7545C24.4213 32.2852 26.9053 31.0412 29.7853 31.0412C31.268 31.0412 32.596 31.3252 33.7853 31.8878C34.9827 32.4478 35.876 33.1638 36.4787 34.0345C37.0853 34.9105 37.4947 35.8745 37.716 36.9332C37.9373 37.9865 38.0467 39.6265 38.0467 41.8532V56.4025H31.6093V43.2998C31.6093 40.6998 31.4933 39.0518 31.2493 38.3532C31.004 37.6465 30.5747 37.0945 29.956 36.6865C29.3373 36.2678 28.5653 36.0598 27.6333 36.0598C26.5667 36.0598 25.6093 36.3292 24.78 36.8598C23.9293 37.3932 23.3173 38.1878 22.932 39.2532C22.5387 40.3198 22.3427 41.8932 22.3507 43.9798L22.3427 56.4025H15.9133V21.1492H22.3507" fill="#696868"/>
<path fill-rule="evenodd" clip-rule="evenodd" d="M47.6959 21.1465V34.7545C49.7679 32.2852 52.2493 31.0412 55.1293 31.0412C56.6066 31.0412 57.9426 31.3252 59.1386 31.8878C60.3279 32.4478 61.2213 33.1638 61.8226 34.0345C62.4293 34.9105 62.8413 35.8745 63.0599 36.9332C63.2813 37.9865 63.3933 39.6265 63.3933 41.8532V56.4025H56.9599V43.2998C56.9599 40.6998 56.8399 39.0518 56.5946 38.3532C56.3493 37.6465 55.9213 37.0945 55.3013 36.6865C54.6879 36.2678 53.9093 36.0598 52.9773 36.0598C51.9106 36.0598 50.9546 36.3292 50.1239 36.8598C49.2839 37.3932 48.6706 38.1878 48.2773 39.2532C47.8906 40.3198 47.6959 41.8932 47.6959 43.9798V56.4025H41.2666V21.1492H47.6959" fill="#696868"/>
</svg>
