<svg width="169" height="50" viewBox="0 0 169 50" fill="none" xmlns="http://www.w3.org/2000/svg">
<path d="M162.498 50H6.25342C2.81596 50 0.00354004 47.1876 0.00354004 43.7502V6.25086C0.00354004 2.8134 2.81596 0.000976562 6.25342 0.000976562H162.498C165.936 0.000976562 168.748 2.8134 168.748 6.25086V43.7502C168.748 47.1876 165.936 50 162.498 50Z" fill="white"/>
<path d="M162.498 0.000976562H6.25342C2.81596 0.000976562 0.00354004 2.8134 0.00354004 6.25086V43.7502C0.00354004 47.1876 2.81596 50 6.25342 50H162.498C165.936 50 168.748 47.1876 168.748 43.7502V6.25086C168.748 2.8134 165.936 0.000976562 162.498 0.000976562ZM162.498 1.00045C165.393 1.00045 167.748 3.35594 167.748 6.25086V43.7502C167.748 46.6451 165.393 49.0006 162.498 49.0006H6.25342C3.3585 49.0006 1.00405 46.6451 1.00405 43.7502V6.25086C1.00405 3.35594 3.3585 1.00045 6.25342 1.00045H162.498Z" fill="#100F0D"/>
<path d="M133.67 37.5003H136.002V21.873H133.67V37.5003ZM154.678 27.5028L152.005 34.2776H151.925L149.15 27.5028H146.637L150.8 36.9716L148.426 42.239H150.858L157.272 27.5032L154.678 27.5028ZM141.45 35.7253C140.688 35.7253 139.621 35.3429 139.621 34.3981C139.621 33.192 140.949 32.7296 142.094 32.7296C143.119 32.7296 143.603 32.9504 144.225 33.2521C144.044 34.6998 142.797 35.7253 141.45 35.7253ZM141.732 27.161C140.044 27.161 138.295 27.9051 137.571 29.5536L139.641 30.4178C140.084 29.5536 140.907 29.2724 141.773 29.2724C142.979 29.2724 144.205 29.9955 144.225 31.2826V31.4432C143.802 31.2019 142.897 30.8402 141.792 30.8402C139.56 30.8402 137.289 32.0662 137.289 34.3581C137.289 36.4489 139.119 37.796 141.169 37.796C142.736 37.796 143.602 37.0924 144.144 36.2678H144.225V37.4747H146.477V31.4831C146.477 28.7088 144.405 27.161 141.732 27.161ZM127.317 29.4051H124V24.0488H127.317C129.061 24.0488 130.051 25.4922 130.051 26.7269C130.051 27.9379 129.061 29.4051 127.317 29.4051ZM127.257 21.8734H121.669V37.5007H124V31.5805H127.257C129.842 31.5805 132.384 29.7094 132.384 26.7275C132.384 23.7461 129.842 21.8734 127.257 21.8734ZM96.7819 35.7279C95.1705 35.7279 93.8219 34.3783 93.8219 32.5263C93.8219 30.6528 95.1705 29.2841 96.7819 29.2841C98.3728 29.2841 99.6212 30.6529 99.6212 32.5263C99.6212 34.3783 98.3728 35.7279 96.7819 35.7279ZM99.4601 28.3776H99.3795C98.8561 27.7534 97.8487 27.1896 96.5807 27.1896C93.922 27.1896 91.4856 29.5259 91.4856 32.5263C91.4856 35.5063 93.922 37.8221 96.5807 37.8221C97.8487 37.8221 98.856 37.2581 99.3795 36.6141H99.4601V37.3787C99.4601 39.4134 98.3728 40.5002 96.6208 40.5002C95.1915 40.5002 94.3054 39.4734 93.9426 38.6076L91.909 39.4533C92.4925 40.8624 94.0427 42.5949 96.6208 42.5949C99.36 42.5949 101.676 40.9835 101.676 37.0564V27.5116H99.4602L99.4601 28.3776ZM103.287 37.4999H105.622V21.8726H103.287V37.4999ZM109.066 32.3447C109.006 30.2905 110.658 29.2436 111.845 29.2436C112.772 29.2436 113.557 29.707 113.819 30.3711L109.066 32.3447ZM116.315 30.5723C115.872 29.3848 114.523 27.1896 111.765 27.1896C109.025 27.1896 106.75 29.3442 106.75 32.5059C106.75 35.4863 109.006 37.8222 112.026 37.8222C114.462 37.8222 115.873 36.3325 116.457 35.4662L114.644 34.2578C114.04 35.144 113.215 35.728 112.026 35.728C110.838 35.728 109.992 35.1841 109.449 34.1168L116.557 31.1769L116.315 30.5723ZM59.6815 28.8208V31.0762H65.0783C64.9171 32.3448 64.4943 33.271 63.8498 33.9155C63.0641 34.7006 61.8357 35.5668 59.6814 35.5668C56.3586 35.5668 53.7611 32.8886 53.7611 29.5659C53.7611 26.2432 56.3586 23.5647 59.6814 23.5647C61.4737 23.5647 62.7824 24.2697 63.7491 25.1759L65.3404 23.5847C63.9908 22.2961 62.1988 21.3093 59.6814 21.3093C55.1296 21.3093 51.3036 25.0147 51.3036 29.5659C51.3036 34.1167 55.1296 37.8222 59.6814 37.8222C62.1379 37.8222 63.9909 37.0166 65.4405 35.5064C66.9308 34.0161 67.3941 31.9219 67.3941 30.2301C67.3941 29.7071 67.3535 29.2238 67.273 28.8208H59.6815ZM73.5304 35.7279C71.919 35.7279 70.5294 34.3988 70.5294 32.5059C70.5294 30.5928 71.919 29.2842 73.5304 29.2842C75.1411 29.2842 76.5307 30.5928 76.5307 32.5059C76.5307 34.3988 75.1411 35.7279 73.5304 35.7279ZM73.5304 27.1896C70.5894 27.1896 68.1934 29.4248 68.1934 32.5059C68.1934 35.5668 70.5894 37.8222 73.5304 37.8222C76.4702 37.8222 78.8666 35.5668 78.8666 32.5059C78.8666 29.4248 76.4702 27.1896 73.5304 27.1896ZM85.1714 35.7279C83.5611 35.7279 82.1711 34.3988 82.1711 32.5059C82.1711 30.5928 83.5612 29.2842 85.1714 29.2842C86.7827 29.2842 88.1719 30.5928 88.1719 32.5059C88.1719 34.3988 86.7827 35.7279 85.1714 35.7279ZM85.1714 27.1896C82.2315 27.1896 79.8356 29.4248 79.8356 32.5059C79.8356 35.5668 82.2315 37.8222 85.1714 37.8222C88.1123 37.8222 90.5083 35.5668 90.5083 32.5059C90.5083 29.4248 88.1123 27.1896 85.1714 27.1896Z" fill="#100F0D"/>
<path d="M59.2438 12.2268H55.5974V13.1292H58.3298C58.2556 13.8656 57.9626 14.4437 57.4685 14.8636C56.9744 15.2836 56.3435 15.4945 55.5974 15.4945C54.779 15.4945 54.0857 15.2093 53.5174 14.643C52.9607 14.0649 52.6776 13.35 52.6776 12.4887C52.6776 11.6275 52.9607 10.9125 53.5174 10.3345C54.0857 9.76812 54.779 9.48488 55.5974 9.48488C56.0174 9.48488 56.4178 9.55713 56.7848 9.71537C57.1521 9.87349 57.447 10.0942 57.6774 10.3775L58.3708 9.68413C58.0563 9.32664 57.6579 9.05326 57.1637 8.85402C56.6696 8.65477 56.154 8.55915 55.5973 8.55915C54.5056 8.55915 53.5799 8.93801 52.824 9.6939C52.0681 10.4516 51.6892 11.3853 51.6892 12.4887C51.6892 13.5921 52.0681 14.5278 52.824 15.2837C53.5798 16.0394 54.5056 16.4184 55.5973 16.4184C56.7438 16.4184 57.6578 16.0512 58.361 15.3051C58.9801 14.6841 59.2964 13.8442 59.2964 12.7935C59.2964 12.6157 59.2751 12.4261 59.2438 12.2268ZM60.6564 8.72695V16.2503H65.0488V15.3265H61.6232V12.9399H64.713V12.0375H61.6232V9.65279H65.0488V8.72692L60.6564 8.72695ZM71.2081 9.65281V8.72695H66.0382V9.65281H68.1398V16.2503H69.1066V9.65281H71.2081ZM75.8886 8.72695H74.9218V16.2503H75.8886V8.72695ZM82.2698 9.65281V8.72695H77.1V9.65281H79.2014V16.2503H80.1682V9.65281H82.2698ZM92.0255 9.70556C91.2794 8.93796 90.3653 8.55908 89.2735 8.55908C88.1798 8.55908 87.2659 8.93795 86.5197 9.69384C85.7736 10.44 85.4065 11.3754 85.4065 12.4886C85.4065 13.6018 85.7736 14.5375 86.5197 15.2836C87.2658 16.0394 88.1798 16.4184 89.2735 16.4184C90.3555 16.4184 91.2793 16.0394 92.0255 15.2836C92.7716 14.5375 93.1387 13.6019 93.1387 12.4886C93.1387 11.3852 92.7716 10.4515 92.0255 9.70556ZM87.2131 10.3344C87.7697 9.76805 88.4533 9.48481 89.2735 9.48481C90.0919 9.48481 90.7755 9.76806 91.3223 10.3344C91.879 10.891 92.1523 11.6175 92.1523 12.4886C92.1523 13.3617 91.879 14.0862 91.3223 14.6429C90.7755 15.2093 90.0919 15.4944 89.2735 15.4944C88.4533 15.4944 87.7697 15.2093 87.2131 14.6429C86.6681 14.0746 86.3947 13.3617 86.3947 12.4886C86.3947 11.6175 86.6681 10.9027 87.2131 10.3344ZM95.4356 11.5649L95.3946 10.1136H95.4356L99.2597 16.2503H100.269V8.72688H99.3027V13.1291L99.3436 14.5804H99.3027L95.6465 8.72688H94.4688V16.2503H95.4356V11.5649Z" fill="#100F0D" stroke="#100F0D" stroke-width="0.26666" stroke-miterlimit="10"/>
<path d="M25.8958 24.2804L12.5889 38.4049C12.5894 38.4078 12.5904 38.4102 12.5908 38.4132C12.999 39.947 14.3998 41.0763 16.0624 41.0763C16.727 41.0763 17.351 40.8966 17.8861 40.5812L17.9286 40.5563L32.9081 31.9125L25.8958 24.2804Z" fill="#EB3131"/>
<path d="M39.3593 21.8757L39.3465 21.867L32.8794 18.1179L25.5934 24.6013L32.9047 31.9117L39.3377 28.2C40.4655 27.5911 41.2312 26.4021 41.2312 25.031C41.2312 23.6697 40.4759 22.4866 39.3593 21.8757Z" fill="#F6B60B"/>
<path d="M12.587 11.5969C12.507 11.8919 12.465 12.2009 12.465 12.5218V37.481C12.465 37.8013 12.5065 38.1113 12.5875 38.4053L26.3539 24.6417L12.587 11.5969Z" fill="#5778C5"/>
<path d="M25.9943 25.0014L32.8824 18.1154L17.9198 9.44026C17.3759 9.11451 16.7412 8.92651 16.0619 8.92651C14.3994 8.92651 12.9966 10.0579 12.5884 11.5934C12.5879 11.5949 12.5879 11.596 12.5879 11.5973L25.9943 25.0014Z" fill="#3BAD49"/>
</svg>
