<svg width="145" height="35" viewBox="0 0 145 35" fill="none" xmlns="http://www.w3.org/2000/svg">
<path d="M121.205 29.5003H123.537V13.873H121.205V29.5003ZM142.213 19.5028L139.54 26.2776H139.46L136.685 19.5028H134.173L138.335 28.9716L135.961 34.239H138.394L144.807 19.5032L142.213 19.5028ZM128.985 27.7253C128.223 27.7253 127.157 27.3429 127.157 26.3981C127.157 25.192 128.484 24.7296 129.629 24.7296C130.654 24.7296 131.138 24.9504 131.76 25.2521C131.579 26.6998 130.333 27.7253 128.985 27.7253ZM129.268 19.161C127.579 19.161 125.83 19.9051 125.107 21.5536L127.177 22.4178C127.619 21.5536 128.443 21.2724 129.308 21.2724C130.514 21.2724 131.74 21.9955 131.76 23.2826V23.4432C131.338 23.2019 130.433 22.8402 129.328 22.8402C127.095 22.8402 124.824 24.0662 124.824 26.3581C124.824 28.4489 126.654 29.796 128.704 29.796C130.272 29.796 131.138 29.0924 131.679 28.2678H131.76V29.4747H134.013V23.4831C134.013 20.7088 131.94 19.161 129.268 19.161ZM114.853 21.4051H111.535V16.0488H114.853C116.596 16.0488 117.586 17.4922 117.586 18.7269C117.586 19.9379 116.596 21.4051 114.853 21.4051ZM114.793 13.8734H109.204V29.5007H111.535V23.5805H114.793C117.378 23.5805 119.919 21.7094 119.919 18.7275C119.919 15.7461 117.378 13.8734 114.793 13.8734ZM84.3172 27.7279C82.7058 27.7279 81.3572 26.3783 81.3572 24.5263C81.3572 22.6528 82.7058 21.2841 84.3172 21.2841C85.908 21.2841 87.1565 22.6529 87.1565 24.5263C87.1565 26.3783 85.908 27.7279 84.3172 27.7279ZM86.9954 20.3776H86.9147C86.3914 19.7534 85.384 19.1896 84.116 19.1896C81.4573 19.1896 79.0208 21.5259 79.0208 24.5263C79.0208 27.5063 81.4573 29.8221 84.116 29.8221C85.384 29.8221 86.3913 29.2581 86.9147 28.6141H86.9954V29.3787C86.9954 31.4134 85.908 32.5002 84.156 32.5002C82.7268 32.5002 81.8407 31.4734 81.4779 30.6076L79.4443 31.4533C80.0278 32.8624 81.578 34.5949 84.1561 34.5949C86.8953 34.5949 89.2112 32.9835 89.2112 29.0564V19.5116H86.9955L86.9954 20.3776ZM90.8224 29.4999H93.1574V13.8726H90.8224V29.4999ZM96.6012 24.3447C96.5411 22.2905 98.1929 21.2436 99.3805 21.2436C100.307 21.2436 101.092 21.707 101.355 22.3711L96.6012 24.3447ZM103.851 22.5723C103.408 21.3848 102.059 19.1896 99.2998 19.1896C96.5606 19.1896 94.2853 21.3442 94.2853 24.5059C94.2853 27.4863 96.5411 29.8222 99.5611 29.8222C101.998 29.8222 103.408 28.3325 103.992 27.4662L102.18 26.2578C101.575 27.144 100.75 27.728 99.5611 27.728C98.3737 27.728 97.5275 27.1841 96.9846 26.1168L104.092 23.1769L103.851 22.5723ZM47.2168 20.8208V23.0762H52.6135C52.4524 24.3448 52.0296 25.271 51.385 25.9155C50.5994 26.7006 49.371 27.5668 47.2167 27.5668C43.8939 27.5668 41.2964 24.8886 41.2964 21.5659C41.2964 18.2432 43.8939 15.5647 47.2167 15.5647C49.009 15.5647 50.3177 16.2697 51.2843 17.1759L52.8757 15.5847C51.526 14.2961 49.7341 13.3093 47.2167 13.3093C42.6649 13.3093 38.8389 17.0147 38.8389 21.5659C38.8389 26.1167 42.6649 29.8222 47.2167 29.8222C49.6732 29.8222 51.5261 29.0166 52.9758 27.5064C54.4661 26.0161 54.9294 23.9219 54.9294 22.2301C54.9294 21.7071 54.8888 21.2238 54.8083 20.8208H47.2168ZM61.0656 27.7279C59.4542 27.7279 58.0647 26.3988 58.0647 24.5059C58.0647 22.5928 59.4542 21.2842 61.0656 21.2842C62.6764 21.2842 64.0659 22.5928 64.0659 24.5059C64.0659 26.3988 62.6764 27.7279 61.0656 27.7279ZM61.0656 19.1896C58.1247 19.1896 55.7287 21.4248 55.7287 24.5059C55.7287 27.5668 58.1247 29.8222 61.0656 29.8222C64.0055 29.8222 66.4019 27.5668 66.4019 24.5059C66.4019 21.4248 64.0055 19.1896 61.0656 19.1896ZM72.7066 27.7279C71.0964 27.7279 69.7063 26.3988 69.7063 24.5059C69.7063 22.5928 71.0965 21.2842 72.7066 21.2842C74.318 21.2842 75.7071 22.5928 75.7071 24.5059C75.7071 26.3988 74.318 27.7279 72.7066 27.7279ZM72.7066 19.1896C69.7668 19.1896 67.3708 21.4248 67.3708 24.5059C67.3708 27.5668 69.7668 29.8222 72.7066 29.8222C75.6476 29.8222 78.0436 27.5668 78.0436 24.5059C78.0436 21.4248 75.6476 19.1896 72.7066 19.1896Z" fill="#141414"/>
<path d="M13.431 16.2804L0.124023 30.4049C0.124524 30.4078 0.125523 30.4102 0.125992 30.4132C0.534107 31.947 1.935 33.0763 3.59758 33.0763C4.26219 33.0763 4.88618 32.8966 5.42131 32.5812L5.4638 32.5563L20.4433 23.9125L13.431 16.2804Z" fill="#EB3131"/>
<path d="M26.8948 13.8757L26.882 13.867L20.4149 10.1179L13.1289 16.6013L20.4402 23.9117L26.8732 20.2C28.001 19.5911 28.7667 18.4021 28.7667 17.031C28.7667 15.6697 28.0114 14.4866 26.8948 13.8757Z" fill="#F6B60B"/>
<path d="M0.122044 3.59692C0.0420466 3.89192 0 4.20091 0 4.52178V29.481C0 29.8013 0.0415504 30.1113 0.122551 30.4053L13.8889 16.6417L0.122044 3.59692Z" fill="#5778C5"/>
<path d="M13.5294 17.0014L20.4175 10.1154L5.45496 1.44026C4.91109 1.11451 4.27632 0.926514 3.5971 0.926514C1.93453 0.926514 0.531738 2.0579 0.123548 3.59344C0.123047 3.59494 0.123047 3.59597 0.123047 3.59728L13.5294 17.0014Z" fill="#3BAD49"/>
<path d="M46.7792 4.22685H43.1328V5.12921H45.8652C45.791 5.86557 45.498 6.44368 45.0039 6.86359C44.5098 7.28359 43.8789 7.49446 43.1328 7.49446C42.3144 7.49446 41.6211 7.20934 41.0528 6.64298C40.4961 6.06487 40.213 5.34997 40.213 4.48868C40.213 3.62745 40.4961 2.91255 41.0528 2.33448C41.6211 1.76812 42.3144 1.48488 43.1328 1.48488C43.5528 1.48488 43.9532 1.55713 44.3202 1.71537C44.6875 1.87349 44.9824 2.09424 45.2128 2.37749L45.9062 1.68413C45.5917 1.32664 45.1933 1.05326 44.6991 0.854021C44.205 0.654773 43.6894 0.559148 43.1327 0.559148C42.041 0.559148 41.1153 0.938013 40.3594 1.6939C39.6035 2.45164 39.2246 3.38526 39.2246 4.4887C39.2246 5.59215 39.6035 6.52778 40.3594 7.28369C41.1152 8.03942 42.041 8.41845 43.1327 8.41845C44.2792 8.41845 45.1932 8.05121 45.8964 7.30507C46.5155 6.68408 46.8318 5.84424 46.8318 4.79349C46.8318 4.61574 46.8105 4.4261 46.7792 4.22685ZM48.1918 0.726952V8.25034H52.5842V7.32649H49.1586V4.93988H52.2484V4.03752H49.1586V1.65279H52.5842V0.726924L48.1918 0.726952ZM58.7435 1.65281V0.726952H53.5736V1.65281H55.6752V8.25032H56.642V1.65281H58.7435ZM63.424 0.726952H62.4572V8.25034H63.424V0.726952ZM69.8052 1.65281V0.726952H64.6354V1.65281H66.7368V8.25032H67.7036V1.65281H69.8052ZM79.5609 1.70556C78.8148 0.937957 77.9007 0.559082 76.8089 0.559082C75.7152 0.559082 74.8013 0.937947 74.0551 1.69384C73.309 2.43995 72.9419 3.37544 72.9419 4.48864C72.9419 5.60183 73.309 6.53746 74.0551 7.28362C74.8012 8.03936 75.7152 8.41838 76.8089 8.41838C77.8909 8.41838 78.8147 8.03938 79.5609 7.28362C80.307 6.53751 80.6741 5.60193 80.6741 4.48864C80.6741 3.38519 80.307 2.45153 79.5609 1.70556ZM74.7485 2.33442C75.3051 1.76805 75.9887 1.48481 76.8089 1.48481C77.6273 1.48481 78.3109 1.76806 78.8577 2.33442C79.4144 2.89103 79.6877 3.61749 79.6877 4.48862C79.6877 5.36173 79.4144 6.08622 78.8577 6.64291C78.3109 7.20928 77.6273 7.49439 76.8089 7.49439C75.9887 7.49439 75.3051 7.20927 74.7485 6.64291C74.2035 6.07455 73.9301 5.36172 73.9301 4.48862C73.9301 3.61751 74.2035 2.90273 74.7485 2.33442ZM82.971 3.56489L82.93 2.11364H82.971L86.7951 8.25027H87.8048V0.726877H86.8381V5.12912L86.879 6.58038H86.8381L83.1819 0.726877H82.0042V8.25027H82.971V3.56489Z" fill="#141414" stroke="#141414" stroke-width="0.26666" stroke-miterlimit="10"/>
</svg>
