<svg width="21" height="16" viewBox="0 0 21 16" fill="none" xmlns="http://www.w3.org/2000/svg">
<path d="M1.16276 7.56495C1.2711 7.27412 3.91276 0.449951 10.9961 0.449951C18.0794 0.449951 20.7244 7.27412 20.8294 7.56495L20.9961 7.99995L20.8294 8.43495C20.7211 8.72579 18.0794 15.55 10.9961 15.55C3.91276 15.55 1.26776 8.72579 1.16276 8.43495L0.996094 7.99995L1.16276 7.56495ZM10.9961 13.0708C15.5111 13.0708 17.6969 9.30912 18.3211 7.99995C17.6953 6.68745 15.5086 2.92912 10.9961 2.92912C6.48359 2.92912 4.29776 6.68662 3.67109 7.99995C4.29776 9.31328 6.48359 13.0708 10.9961 13.0708Z" fill="#1E2738"/>
<path d="M10.9963 11.3333C9.15531 11.3333 7.66292 9.84091 7.66292 7.99996C7.66292 6.15901 9.15531 4.66663 10.9963 4.66663C12.8372 4.66663 14.3296 6.15901 14.3296 7.99996C14.3296 9.84091 12.8372 11.3333 10.9963 11.3333Z" fill="#1E2738"/>
</svg>
