<svg width="28" height="25" viewBox="0 0 28 25" fill="none" xmlns="http://www.w3.org/2000/svg">
<path fill-rule="evenodd" clip-rule="evenodd" d="M25.341 0.968396C25.8946 1.49842 25.9218 2.3709 25.4086 2.93409L25.3834 2.9611L22.5319 5.93328C25.8572 8.49021 28 12.5063 28 17.0223V23.2894C28 23.8813 27.5202 24.3612 26.9282 24.3612H1.07177C0.479848 24.3612 0 23.8813 0 23.2894C0 21.2004 0 19.1114 0 17.0223C0 12.5062 2.14286 8.49003 5.46828 5.93311L2.61685 2.9611C2.07771 2.39913 2.09669 1.50697 2.65925 0.968396C3.21288 0.438372 4.08664 0.448327 4.62811 0.984406L4.65405 1.01076L7.92408 4.41919C9.76182 3.53346 11.8229 3.03703 14 3.03703C16.1772 3.03703 18.2383 3.5335 20.0761 4.41929L23.3462 1.01076L23.3721 0.984406C23.9136 0.448327 24.7873 0.438372 25.341 0.968396ZM8.17225 9.48564C7.09939 9.48564 6.22966 10.3554 6.22966 11.4282C6.22966 12.5011 7.09939 13.3708 8.17225 13.3708C9.24511 13.3708 10.1148 12.5011 10.1148 11.4282C10.1148 10.3554 9.24511 9.48564 8.17225 9.48564ZM19.9617 9.48564C18.8889 9.48564 18.0191 10.3554 18.0191 11.4282C18.0191 12.5011 18.8889 13.3708 19.9617 13.3708C21.0346 13.3708 21.9043 12.5011 21.9043 11.4282C21.9043 10.3554 21.0346 9.48564 19.9617 9.48564Z" fill="white"/>
</svg>
