<svg width="80" height="80" viewBox="0 0 80 80" fill="none" xmlns="http://www.w3.org/2000/svg">
<rect width="80" height="80" rx="40" fill="url(#paint0_radial_2115_4480)"/>
<rect width="80" height="80" rx="40" fill="url(#paint1_angular_2115_4480)" style="mix-blend-mode:difference"/>
<rect width="80" height="80" rx="40" fill="url(#paint2_angular_2115_4480)" style="mix-blend-mode:screen"/>
<circle cx="40" cy="40" r="37" fill="white"/>
<path d="M39.3407 11L43.0373 22.459H55L45.322 29.541L49.0187 41L39.3407 33.918V30.2584H35.6227V25.9787H39.3407V22.234H35.7166L39.3407 11Z" fill="#272727"/>
<path d="M31.9048 25.9787H35.6227V22.234H31.9048V25.9787Z" fill="#272727"/>
<path d="M31.9048 25.9787V29.1885H28.7179V25.9787H31.9048Z" fill="#272727"/>
<path d="M35.6227 30.2584V34.003H39.2244L29.6627 41L33.1279 30.2584H35.6227Z" fill="#272727"/>
<path d="M25 22.234H27.6557V24.9088H25V22.234Z" fill="#272727"/>
<path d="M18.6749 48.65L18.4249 49.58L17.7149 52H16.1149L14.2549 45H15.7549L16.7849 48.93L16.9849 49.86H17.0349L17.2949 48.93L17.9149 46.88H19.5349L20.1049 48.93L20.3749 49.86H20.4249L20.6249 48.93L21.6649 45H23.1549L21.2949 52H19.6949L18.9849 49.58L18.7249 48.65H18.6749ZM24.0961 47.58C24.5861 47.09 25.2461 46.84 26.0861 46.84C26.9261 46.84 27.5961 47.09 28.0861 47.58C28.5761 48.08 28.8161 48.71 28.8161 49.46C28.8161 50.21 28.5761 50.83 28.0861 51.33C27.5961 51.84 26.9261 52.09 26.0861 52.09C25.2461 52.09 24.5861 51.84 24.0961 51.33C23.6061 50.83 23.3561 50.21 23.3561 49.46C23.3561 48.71 23.6061 48.08 24.0961 47.58ZM27.0761 48.38C26.8461 48.1 26.5161 47.96 26.0861 47.96C25.6561 47.96 25.3361 48.1 25.1061 48.38C24.8761 48.67 24.7561 49.03 24.7561 49.46C24.7561 49.89 24.8761 50.25 25.1061 50.54C25.3361 50.83 25.6561 50.97 26.0861 50.97C26.5161 50.97 26.8461 50.83 27.0761 50.54C27.3061 50.25 27.4161 49.89 27.4161 49.46C27.4161 49.03 27.3061 48.67 27.0761 48.38ZM31.1658 49.31V52H29.8158V46.93H31.0758V47.66H31.1258C31.4858 47.11 32.0058 46.84 32.6958 46.84C32.8158 46.84 32.9358 46.85 33.0558 46.87L32.8458 48.15C32.7058 48.08 32.5358 48.04 32.3458 48.04C31.6958 48.04 31.1658 48.59 31.1658 49.31ZM33.5561 45H34.9061V48.76H35.3061L36.9561 46.93H38.5361L37.3361 48.25L36.4261 49.16V49.21L37.3361 50.25L38.7161 52H37.0061L35.2561 49.73H34.9061V52H33.5561V45ZM43.135 48.11L41.935 48.39C41.805 48.03 41.515 47.84 41.075 47.83C40.665 47.82 40.215 47.92 40.215 48.23C40.215 48.47 40.555 48.52 40.735 48.58L41.975 48.92C42.875 49.17 43.325 49.68 43.325 50.44C43.325 51.7 42.105 52.09 41.025 52.09C39.535 52.09 38.885 51.61 38.595 50.56L39.805 50.36C39.955 50.85 40.435 51.1 40.955 51.1C41.645 51.08 41.995 50.91 41.995 50.59C41.995 50.43 41.855 50.33 41.795 50.3C41.765 50.29 41.695 50.26 41.595 50.23C41.505 50.2 41.225 50.12 40.755 49.99C40.285 49.86 39.935 49.75 39.705 49.66C39.175 49.43 38.885 48.93 38.885 48.33C38.885 47.6 39.415 47.12 40.015 46.96C40.315 46.88 40.655 46.84 41.035 46.84C42.205 46.84 42.905 47.26 43.135 48.11ZM47.1429 52.09C46.4729 52.09 45.9229 51.9 45.5029 51.51H45.4529V54.12H44.1029V46.93H45.3629V47.52H45.4129C45.8329 47.07 46.4129 46.84 47.1429 46.84C47.8729 46.84 48.4429 47.09 48.8729 47.59C49.2929 48.09 49.5029 48.72 49.5029 49.47C49.5029 50.22 49.2929 50.84 48.8729 51.34C48.4429 51.84 47.8729 52.09 47.1429 52.09ZM46.7729 47.96C45.9229 47.96 45.4529 48.56 45.4529 49.47C45.4529 50.35 45.9029 50.97 46.7729 50.97C47.2029 50.97 47.5329 50.83 47.7629 50.55C47.9929 50.28 48.1029 49.92 48.1029 49.47C48.1029 49.02 47.9929 48.66 47.7629 48.38C47.5329 48.1 47.2029 47.96 46.7729 47.96ZM54.9394 48.67V50.07C54.9394 51.09 55.0394 51.73 55.2294 52H53.8594C53.7594 51.79 53.6994 51.55 53.6794 51.28H53.6294C53.3394 51.82 52.7494 52.09 51.8394 52.09C50.8494 52.09 50.1994 51.58 50.1994 50.61C50.1994 49.54 50.9194 49.09 52.0894 48.93C52.3994 48.89 52.9394 48.84 53.2194 48.8C53.3594 48.78 53.4794 48.75 53.5794 48.72C53.5294 48.13 53.1994 47.83 52.5694 47.83C52.1094 47.83 51.8194 48.02 51.7094 48.41L50.4794 48.04C50.7494 47.24 51.4794 46.84 52.6794 46.84C54.0894 46.84 54.9394 47.47 54.9394 48.67ZM52.3294 51.13C53.0994 51.13 53.5894 50.58 53.5894 49.78V49.49C53.4594 49.55 53.0794 49.63 52.4694 49.73C52.0494 49.79 51.5694 49.91 51.5594 50.45C51.5594 50.9 51.8994 51.13 52.3294 51.13ZM59.6668 50.18L60.8168 50.65C60.4468 51.53 59.6068 52.09 58.4968 52.09C57.6868 52.09 57.0368 51.84 56.5568 51.34C56.0668 50.84 55.8268 50.21 55.8268 49.46C55.8268 48.71 56.0668 48.09 56.5568 47.59C57.0368 47.09 57.6868 46.84 58.4968 46.84C59.5768 46.84 60.3868 47.38 60.7868 48.23L59.6368 48.7C59.4068 48.21 59.0268 47.96 58.4968 47.96C57.7068 47.96 57.2268 48.61 57.2268 49.46C57.2268 50.31 57.7068 50.97 58.4968 50.97C59.0668 50.97 59.4568 50.71 59.6668 50.18ZM64.9397 50.37L66.0897 50.83C65.6997 51.6 64.8397 52.09 63.7997 52.09C62.9797 52.09 62.3297 51.84 61.8497 51.34C61.3597 50.84 61.1197 50.22 61.1197 49.47C61.1197 48.72 61.3597 48.1 61.8497 47.59C62.3297 47.09 62.9797 46.84 63.7997 46.84C64.5897 46.84 65.2297 47.11 65.6997 47.65C66.1697 48.19 66.3797 48.89 66.3397 49.74H62.5297C62.6097 50.51 63.0497 51 63.7997 51C64.3297 51 64.7097 50.79 64.9397 50.37ZM63.7997 47.88C63.1597 47.88 62.7397 48.26 62.5897 48.87H64.9297C64.8097 48.28 64.3997 47.88 63.7997 47.88ZM25.5584 55H27.2384L29.9384 62H28.3884L27.8284 60.52H24.8584L24.3084 62H22.8584L25.5584 55ZM26.6284 57.33L26.3884 56.39H26.3384L26.0584 57.33L25.3084 59.32H27.3684L26.6284 57.33ZM35.7685 62H34.3085L33.8585 60.52L33.6285 59.59H33.5785L33.3585 60.52L32.9085 62H31.4485L29.9385 56.93H31.3385L32.0185 59.41L32.2685 60.34H32.3185L32.5385 59.41L32.8885 58.23H34.3285L34.6785 59.41L34.8985 60.35H34.9485L35.1885 59.41L35.8785 56.93H37.2785L35.7685 62ZM42.3222 58.67V60.07C42.3222 61.09 42.4222 61.73 42.6122 62H41.2422C41.1422 61.79 41.0822 61.55 41.0622 61.28H41.0122C40.7222 61.82 40.1322 62.09 39.2222 62.09C38.2322 62.09 37.5822 61.58 37.5822 60.61C37.5822 59.54 38.3022 59.09 39.4722 58.93C39.7822 58.89 40.3222 58.84 40.6022 58.8C40.7422 58.78 40.8622 58.75 40.9622 58.72C40.9122 58.13 40.5822 57.83 39.9522 57.83C39.4922 57.83 39.2022 58.02 39.0922 58.41L37.8622 58.04C38.1322 57.24 38.8622 56.84 40.0622 56.84C41.4722 56.84 42.3222 57.47 42.3222 58.67ZM39.7122 61.13C40.4822 61.13 40.9722 60.58 40.9722 59.78V59.49C40.8422 59.55 40.4622 59.63 39.8522 59.73C39.4322 59.79 38.9522 59.91 38.9422 60.45C38.9422 60.9 39.2822 61.13 39.7122 61.13ZM44.9646 59.31V62H43.6146V56.93H44.8746V57.66H44.9246C45.2846 57.11 45.8046 56.84 46.4946 56.84C46.6146 56.84 46.7346 56.85 46.8546 56.87L46.6446 58.15C46.5046 58.08 46.3346 58.04 46.1446 58.04C45.4946 58.04 44.9646 58.59 44.9646 59.31ZM49.4172 56.84C50.0872 56.84 50.6372 57.03 51.0572 57.42H51.1072V55H52.4572V62H51.1972V61.41H51.1472C50.7272 61.86 50.1472 62.09 49.4172 62.09C48.6872 62.09 48.1172 61.84 47.6972 61.34C47.2672 60.84 47.0572 60.21 47.0572 59.46C47.0572 58.71 47.2672 58.09 47.6972 57.59C48.1172 57.09 48.6872 56.84 49.4172 56.84ZM49.7872 60.97C50.6372 60.97 51.1072 60.37 51.1072 59.46C51.1072 58.58 50.6572 57.96 49.7872 57.96C49.3572 57.96 49.0272 58.1 48.7972 58.37C48.5672 58.65 48.4572 59.01 48.4572 59.46C48.4572 59.91 48.5672 60.27 48.7972 60.55C49.0272 60.83 49.3572 60.97 49.7872 60.97ZM57.7737 58.11L56.5737 58.39C56.4437 58.03 56.1537 57.84 55.7137 57.83C55.3037 57.82 54.8537 57.92 54.8537 58.23C54.8537 58.47 55.1937 58.52 55.3737 58.58L56.6137 58.92C57.5137 59.17 57.9637 59.68 57.9637 60.44C57.9637 61.7 56.7437 62.09 55.6637 62.09C54.1737 62.09 53.5237 61.61 53.2337 60.56L54.4437 60.36C54.5937 60.85 55.0737 61.1 55.5937 61.1C56.2837 61.08 56.6337 60.91 56.6337 60.59C56.6337 60.43 56.4937 60.33 56.4337 60.3C56.4037 60.29 56.3337 60.26 56.2337 60.23C56.1437 60.2 55.8637 60.12 55.3937 59.99C54.9237 59.86 54.5737 59.75 54.3437 59.66C53.8137 59.43 53.5237 58.93 53.5237 58.33C53.5237 57.6 54.0537 57.12 54.6537 56.96C54.9537 56.88 55.2937 56.84 55.6737 56.84C56.8437 56.84 57.5437 57.26 57.7737 58.11Z" fill="#272727"/>
<defs>
<radialGradient id="paint0_radial_2115_4480" cx="0" cy="0" r="1" gradientUnits="userSpaceOnUse" gradientTransform="translate(8.08411 22.5932) rotate(29.6941) scale(73.4811 73.9872)">
<stop offset="0.0833333" stop-color="#7E6A7E"/>
<stop offset="0.375" stop-color="#D5D5D5"/>
<stop offset="0.634538" stop-color="#75888A"/>
<stop offset="1" stop-color="#896753"/>
</radialGradient>
<radialGradient id="paint1_angular_2115_4480" cx="0" cy="0" r="1" gradientUnits="userSpaceOnUse" gradientTransform="translate(40 40) rotate(90) scale(40)">
<stop offset="0.0833333" stop-color="white"/>
<stop offset="0.265625"/>
<stop offset="0.46875" stop-color="white"/>
<stop offset="0.635417"/>
<stop offset="0.791667" stop-color="white"/>
<stop offset="1"/>
</radialGradient>
<radialGradient id="paint2_angular_2115_4480" cx="0" cy="0" r="1" gradientUnits="userSpaceOnUse" gradientTransform="translate(40 40) rotate(90) scale(40)">
<stop offset="0.046875" stop-color="white" stop-opacity="0.72"/>
<stop offset="0.244792"/>
<stop offset="0.421875" stop-color="white" stop-opacity="0.72"/>
<stop offset="0.625"/>
<stop offset="0.802083" stop-color="white" stop-opacity="0.72"/>
<stop offset="1"/>
</radialGradient>
</defs>
</svg>
