<svg width="8" height="8" viewBox="0 0 8 8" fill="none" xmlns="http://www.w3.org/2000/svg">
<path fill-rule="evenodd" clip-rule="evenodd" d="M7.26077 0.739337C7.07499 0.553562 6.77379 0.553563 6.58802 0.739337L4.0001 3.32726L1.41218 0.739337C1.2264 0.553563 0.925203 0.553563 0.739428 0.739337C0.553654 0.925111 0.553654 1.22631 0.739428 1.41209L3.32735 4.00001L0.739428 6.58793C0.553654 6.7737 0.553654 7.0749 0.739428 7.26068C0.925203 7.44645 1.2264 7.44645 1.41218 7.26068L4.0001 4.67276L6.58802 7.26068C6.77379 7.44645 7.07499 7.44645 7.26077 7.26068C7.44654 7.0749 7.44654 6.7737 7.26077 6.58793L4.67285 4.00001L7.26077 1.41209C7.44654 1.22631 7.44654 0.925112 7.26077 0.739337Z" fill="black"/>
</svg>
