<svg width="40" height="40" viewBox="0 0 40 40" fill="none" xmlns="http://www.w3.org/2000/svg">
<path fill-rule="evenodd" clip-rule="evenodd" d="M19.2 39.2C19.2 39.6418 19.5582 40 20 40C20.4418 40 20.8 39.6418 20.8 39.2L20.8 20.8H39.2C39.6418 20.8 40 20.4418 40 20C40 19.5582 39.6418 19.2 39.2 19.2H20.8L20.8 0.8C20.8 0.358173 20.4418 3.8626e-08 20 0C19.5582 -3.86258e-08 19.2 0.358173 19.2 0.8L19.2 19.2H0.8C0.358173 19.2 1.93129e-08 19.5582 0 20C-1.93129e-08 20.4418 0.358173 20.8 0.8 20.8H19.2L19.2 39.2Z" fill="white"/>
</svg>
