<svg width="80" height="80" viewBox="0 0 80 80" fill="none" xmlns="http://www.w3.org/2000/svg">
<rect width="80" height="80" rx="40" fill="url(#paint0_angular_2115_4457)"/>
<circle cx="40" cy="40" r="37" fill="white"/>
<path d="M24.3171 49.31H22.4771V52H21.0271V45H24.3171C25.0471 45 25.6071 45.2 26.0071 45.61C26.4071 46.02 26.6071 46.53 26.6071 47.15C26.6071 47.78 26.4071 48.29 26.0071 48.7C25.6071 49.11 25.0471 49.31 24.3171 49.31ZM23.9471 46.24H22.4771V48.07H23.9471C24.7171 48.07 25.1171 47.69 25.1171 47.14C25.1171 46.62 24.7171 46.24 23.9471 46.24ZM30.9241 50.37L32.0741 50.83C31.6841 51.6 30.8241 52.09 29.7841 52.09C28.9641 52.09 28.3141 51.84 27.8341 51.34C27.3441 50.84 27.1041 50.22 27.1041 49.47C27.1041 48.72 27.3441 48.1 27.8341 47.59C28.3141 47.09 28.9641 46.84 29.7841 46.84C30.5741 46.84 31.2141 47.11 31.6841 47.65C32.1541 48.19 32.3641 48.89 32.3241 49.74H28.5141C28.5941 50.51 29.0341 51 29.7841 51C30.3141 51 30.6941 50.79 30.9241 50.37ZM29.7841 47.88C29.1441 47.88 28.7241 48.26 28.5741 48.87H30.9141C30.7941 48.28 30.3841 47.88 29.7841 47.88ZM34.5818 52H33.2318V46.93H34.5818V48.82L34.5318 49.74H34.5718L36.7518 47.71V46.93H38.1018V52H36.7518V50.11L36.8018 49.19H36.7618L34.5818 51.23V52ZM35.7118 46.26C35.3218 46.26 34.9718 46.12 34.6818 45.84C34.3918 45.56 34.2418 45.21 34.2418 44.79H34.9518C34.9918 45.2 35.2418 45.4 35.7118 45.4C36.1718 45.4 36.4218 45.2 36.4518 44.79H37.1718C37.1718 45.21 37.0218 45.56 36.7318 45.84C36.4418 46.12 36.1018 46.26 35.7118 46.26ZM43.1661 46.93V48.03H41.6061V52H40.2561V48.03H38.7061V46.93H43.1661ZM45.1189 52H43.7689V46.93H45.1189V48.82L45.0689 49.74H45.1089L47.2889 47.71V46.93H48.6389V52H47.2889V50.11L47.3389 49.19H47.2989L45.1189 51.23V52ZM51.1932 52H49.8432V46.93H51.1932V48.73H53.3632V46.93H54.7132V52H53.3632V49.83H51.1932V52ZM59.6774 46.93V48.03H57.2674V52H55.9174V46.93H59.6774ZM26.7244 59.31H24.8844V62H23.4344V55H26.7244C27.4544 55 28.0144 55.2 28.4144 55.61C28.8144 56.02 29.0144 56.53 29.0144 57.15C29.0144 57.78 28.8144 58.29 28.4144 58.7C28.0144 59.11 27.4544 59.31 26.7244 59.31ZM26.3544 56.24H24.8844V58.07H26.3544C27.1244 58.07 27.5244 57.69 27.5244 57.14C27.5244 56.62 27.1244 56.24 26.3544 56.24ZM30.1017 64.03L30.0117 62.88C30.2317 62.96 30.4617 63 30.6917 63C31.1817 63 31.4517 62.86 31.6617 62.33L31.7917 62.01L29.5117 56.93H30.9817L32.0617 59.33L32.4317 60.26H32.4817L33.7917 56.93H35.1717L33.1217 62.12C32.9717 62.48 32.8517 62.76 32.7517 62.96C32.6517 63.15 32.5117 63.35 32.3417 63.56C31.9817 63.96 31.5017 64.12 30.7917 64.12C30.5617 64.12 30.3317 64.09 30.1017 64.03ZM37.1258 62H35.7758V56.93H37.1258V58.73H39.2958V56.93H40.6458V62H39.2958V59.83H37.1258V62ZM45.47 60.37L46.62 60.83C46.23 61.6 45.37 62.09 44.33 62.09C43.51 62.09 42.86 61.84 42.38 61.34C41.89 60.84 41.65 60.22 41.65 59.47C41.65 58.72 41.89 58.1 42.38 57.59C42.86 57.09 43.51 56.84 44.33 56.84C45.12 56.84 45.76 57.11 46.23 57.65C46.7 58.19 46.91 58.89 46.87 59.74H43.06C43.14 60.51 43.58 61 44.33 61C44.86 61 45.24 60.79 45.47 60.37ZM44.33 57.88C43.69 57.88 43.27 58.26 43.12 58.87H45.46C45.34 58.28 44.93 57.88 44.33 57.88ZM51.4327 56.93V58.03H49.8727V62H48.5227V58.03H46.9727V56.93H51.4327ZM56.3779 58.67V60.07C56.3779 61.09 56.4779 61.73 56.6679 62H55.2979C55.1979 61.79 55.1379 61.55 55.1179 61.28H55.0679C54.7779 61.82 54.1879 62.09 53.2779 62.09C52.2879 62.09 51.6379 61.58 51.6379 60.61C51.6379 59.42 52.4979 59.08 53.5279 58.93C53.8379 58.89 54.3779 58.84 54.6579 58.8C54.7979 58.78 54.9179 58.75 55.0179 58.72C54.9679 58.13 54.6379 57.83 54.0079 57.83C53.5479 57.83 53.2579 58.02 53.1479 58.41L51.9179 58.04C52.1879 57.24 52.9179 56.84 54.1179 56.84C55.5279 56.84 56.3779 57.47 56.3779 58.67ZM55.0279 59.72V59.49C54.8979 59.55 54.5179 59.63 53.9079 59.73C53.4879 59.79 53.0079 59.91 52.9979 60.45C52.9979 60.9 53.3379 61.13 53.7679 61.13C54.5579 61.13 55.0279 60.56 55.0279 59.72Z" fill="#272727"/>
<path fill-rule="evenodd" clip-rule="evenodd" d="M28 27.2249H29.26V28.5167H30.52V31.244H32.06V33.6842H33.32V36.2679H34.58V40H46.76V33.9713H47.74V29.8086H49V20.4785H47.74V19.3301H46.76V18.1818H44.38V17.177H40.6V16.3158H38.08V10.8612H36.82V10H34.44V10.8612H33.32V23.7799H31.78V22.9187H28V27.2249ZM31.78 24.2105H29.26V26.7943H30.52V28.2297H32.06V30.9569H33.32V33.3971H34.58V35.8373H35.84V38.7081H45.5V33.9713H46.34V29.2345H47.74V21.0526H46.34V19.7608H43.96V18.6124H41.72V23.3493H40.6V17.7512H38.08V23.3493H36.82V11.2919H34.44V29.2345H33.32V25.5024H31.78V24.2105Z" fill="#272727"/>
<defs>
<radialGradient id="paint0_angular_2115_4457" cx="0" cy="0" r="1" gradientUnits="userSpaceOnUse" gradientTransform="translate(40 40) rotate(91.7184) scale(40.018 38.8175)">
<stop offset="0.0729167" stop-color="#E3A455"/>
<stop offset="0.244792" stop-color="#F6DBA6"/>
<stop offset="0.434957" stop-color="#FFEBC4"/>
<stop offset="0.532623" stop-color="#F0BE79"/>
<stop offset="0.677844" stop-color="#8F653B"/>
<stop offset="0.762338" stop-color="#BA7F3B"/>
<stop offset="0.900982" stop-color="#EEBC70"/>
</radialGradient>
</defs>
</svg>
