<svg width="267" height="266" viewBox="0 0 267 266" fill="none" xmlns="http://www.w3.org/2000/svg">
<ellipse cx="134.014" cy="133.131" rx="52.9953" ry="52.9953" fill="#24DA8D"/>
<path d="M149.331 144.111C150.099 142.472 150.842 141.038 151.559 139.809C152.327 138.58 153.069 137.556 153.786 136.736H109V133.51H153.786C153.069 132.639 152.327 131.59 151.559 130.36C150.842 129.131 150.099 127.723 149.331 126.135H152.019C155.246 129.874 158.626 132.639 162.16 134.432V135.815C158.626 137.556 155.246 140.321 152.019 144.111H149.331Z" fill="white"/>
<circle opacity="0.1" cx="133.519" cy="132.635" r="132.236" stroke="#24DA8D"/>
<circle opacity="0.1" cx="133.519" cy="132.635" r="102.019" stroke="#24DA8D" stroke-width="2"/>
<path opacity="0.2" d="M209.783 132.635C209.783 174.755 175.638 208.899 133.519 208.899C91.3993 208.899 57.2546 174.755 57.2546 132.635C57.2546 90.5157 91.3993 56.3711 133.519 56.3711C175.638 56.3711 209.783 90.5157 209.783 132.635Z" stroke="#24DA8D" stroke-width="2"/>
</svg>
