<svg width="28" height="20" viewBox="0 0 28 20" fill="none" xmlns="http://www.w3.org/2000/svg">
<path fill-rule="evenodd" clip-rule="evenodd" d="M0 1C0 0.447715 0.447715 0 1 0H27C27.5523 0 28 0.447715 28 1C28 1.55228 27.5523 2 27 2H1C0.447715 2 0 1.55228 0 1Z" fill="white"/>
<path fill-rule="evenodd" clip-rule="evenodd" d="M0 13C0 12.4477 0.447715 12 1 12H27C27.5523 12 28 12.4477 28 13C28 13.5523 27.5523 14 27 14H1C0.447715 14 0 13.5523 0 13Z" fill="white"/>
<path fill-rule="evenodd" clip-rule="evenodd" d="M0 7C0 6.44772 0.447715 6 1 6H19C19.5523 6 20 6.44772 20 7C20 7.55228 19.5523 8 19 8H1C0.447715 8 0 7.55228 0 7Z" fill="white"/>
<path fill-rule="evenodd" clip-rule="evenodd" d="M0 19C0 18.4477 0.447715 18 1 18H19C19.5523 18 20 18.4477 20 19C20 19.5523 19.5523 20 19 20H1C0.447715 20 0 19.5523 0 19Z" fill="white"/>
</svg>
