<svg width="25" height="25" viewBox="0 0 25 25" fill="none" xmlns="http://www.w3.org/2000/svg">
<path d="M1.02134 5.97692C1.65931 6.60513 2.53423 7 3.5003 7C4.46636 7 5.34129 6.60513 5.97926 5.97692C6.61722 5.34872 7 4.46923 7 3.5C7 2.53077 6.59899 1.65128 5.97926 1.02308C5.34129 0.394871 4.46636 0 3.5003 0C2.53423 0 1.65931 0.394871 1.02134 1.02308C0.383376 1.65128 0.000596265 2.53077 0.000596265 3.5C-0.0176314 4.46923 0.383376 5.34872 1.02134 5.97692Z" fill="#141414"/>
<path d="M19.0213 5.97692C19.6593 6.60513 20.5342 7 21.5003 7C22.4664 7 23.3413 6.60513 23.9793 5.97692C24.6172 5.34872 25 4.46923 25 3.5C25 2.53077 24.599 1.65128 23.9793 1.02308C23.3413 0.394871 22.4664 0 21.5003 0C20.5342 0 19.6593 0.394871 19.0213 1.02308C18.3834 1.65128 18.0006 2.53077 18.0006 3.5C17.9824 4.46923 18.3834 5.34872 19.0213 5.97692Z" fill="#141414"/>
<path d="M1.02134 23.9769C1.65931 24.6051 2.53423 25 3.5003 25C4.46636 25 5.34129 24.6051 5.97926 23.9769C6.61722 23.3487 7 22.4692 7 21.5C7 20.5308 6.59899 19.6513 5.97926 19.0231C5.34129 18.3949 4.46636 18 3.5003 18C2.53423 18 1.65931 18.3949 1.02134 19.0231C0.383376 19.6513 0.000596265 20.5308 0.000596265 21.5C-0.0176314 22.4692 0.383376 23.3487 1.02134 23.9769Z" fill="#141414"/>
<path d="M10.0213 14.9769C10.6593 15.6051 11.5342 16 12.5003 16C13.4664 16 14.3413 15.6051 14.9793 14.9769C15.6172 14.3487 16 13.4692 16 12.5C16 11.5308 15.599 10.6513 14.9793 10.0231C14.3413 9.39487 13.4664 9 12.5003 9C11.5342 9 10.6593 9.39487 10.0213 10.0231C9.38338 10.6513 9.0006 11.5308 9.0006 12.5C8.98237 13.4692 9.38338 14.3487 10.0213 14.9769Z" fill="#141414"/>
<path d="M19.0213 23.9769C19.6593 24.6051 20.5342 25 21.5003 25C22.4664 25 23.3413 24.6051 23.9793 23.9769C24.6172 23.3487 25 22.4692 25 21.5C25 20.5308 24.599 19.6513 23.9793 19.0231C23.3413 18.3949 22.4664 18 21.5003 18C20.5342 18 19.6593 18.3949 19.0213 19.0231C18.3834 19.6513 18.0006 20.5308 18.0006 21.5C17.9824 22.4692 18.3834 23.3487 19.0213 23.9769Z" fill="#141414"/>
</svg>
