<svg width="24" height="24" viewBox="0 0 24 24" fill="none" xmlns="http://www.w3.org/2000/svg">
<path fill-rule="evenodd" clip-rule="evenodd" d="M14.9459 3.04209C16.3309 1.65264 18.5763 1.65264 19.9613 3.04209C21.3462 4.43153 21.3462 6.68428 19.9613 8.07372L11.0965 16.9672C10.246 17.8205 8.86707 17.8205 8.01655 16.9672C7.16603 16.1139 7.16603 14.7305 8.01655 13.8772L14.3238 7.5495C14.4872 7.38559 14.7521 7.38559 14.9155 7.5495C15.0788 7.71341 15.0788 7.97916 14.9155 8.14307L8.6082 14.4708C8.08444 14.9962 8.08444 15.8482 8.6082 16.3736C9.13196 16.8991 9.98114 16.8991 10.5049 16.3736L19.3696 7.48015C20.4278 6.41853 20.4278 4.69729 19.3696 3.63566C18.3114 2.57403 16.5958 2.57403 15.5376 3.63566L5.0312 14.1761C3.43856 15.7739 3.43857 18.3644 5.0312 19.9622C6.62384 21.56 9.20602 21.56 10.7987 19.9622L18.7475 11.9876C18.9109 11.8237 19.1758 11.8237 19.3392 11.9876C19.5026 12.1515 19.5026 12.4172 19.3392 12.5811L11.3903 20.5558C9.47091 22.4814 6.35895 22.4814 4.43955 20.5558C2.52015 18.6302 2.52015 15.5081 4.43955 13.5825L14.9459 3.04209Z" fill="#EB3131"/>
</svg>
