<svg width="169" height="50" viewBox="0 0 169 50" fill="none" xmlns="http://www.w3.org/2000/svg">
<path d="M162.495 50H6.24988C2.81242 50 0 47.1876 0 43.7502V6.25086C0 2.8134 2.81242 0.000976562 6.24988 0.000976562H162.495C165.932 0.000976562 168.745 2.8134 168.745 6.25086V43.7502C168.745 47.1876 165.932 50 162.495 50Z" fill="#949191"/>
<path d="M162.495 50H6.24988C2.81242 50 0 47.1876 0 43.7502V6.25086C0 2.8134 2.81242 0.000976562 6.24988 0.000976562H162.495C165.932 0.000976562 168.745 2.8134 168.745 6.25086V43.7502C168.745 47.1876 165.932 50 162.495 50Z" fill="#949191"/>
<path d="M133.666 37.5003H135.999V21.873H133.666V37.5003ZM154.675 27.5028L152.001 34.2776H151.921L149.146 27.5028H146.634L150.796 36.9716L148.422 42.239H150.855L157.269 27.5032L154.675 27.5028ZM141.446 35.7253C140.684 35.7253 139.618 35.3429 139.618 34.3981C139.618 33.192 140.945 32.7296 142.09 32.7296C143.115 32.7296 143.599 32.9504 144.221 33.2521C144.04 34.6998 142.794 35.7253 141.446 35.7253ZM141.729 27.161C140.04 27.161 138.291 27.9051 137.568 29.5536L139.638 30.4178C140.08 29.5536 140.904 29.2724 141.769 29.2724C142.975 29.2724 144.201 29.9955 144.221 31.2826V31.4432C143.799 31.2019 142.894 30.8402 141.789 30.8402C139.556 30.8402 137.285 32.0662 137.285 34.3581C137.285 36.4489 139.115 37.796 141.165 37.796C142.733 37.796 143.599 37.0924 144.14 36.2678H144.221V37.4747H146.474V31.4831C146.474 28.7088 144.401 27.161 141.729 27.161ZM127.314 29.4051H123.996V24.0488H127.314C129.058 24.0488 130.048 25.4922 130.048 26.7269C130.048 27.9379 129.058 29.4051 127.314 29.4051ZM127.254 21.8734H121.665V37.5007H123.996V31.5805H127.254C129.839 31.5805 132.38 29.7094 132.38 26.7275C132.38 23.7461 129.839 21.8734 127.254 21.8734ZM96.7784 35.7279C95.167 35.7279 93.8184 34.3783 93.8184 32.5263C93.8184 30.6528 95.167 29.2841 96.7784 29.2841C98.3692 29.2841 99.6177 30.6529 99.6177 32.5263C99.6177 34.3783 98.3692 35.7279 96.7784 35.7279ZM99.4565 28.3776H99.3759C98.8525 27.7534 97.8452 27.1896 96.5772 27.1896C93.9185 27.1896 91.482 29.5259 91.482 32.5263C91.482 35.5063 93.9185 37.8221 96.5772 37.8221C97.8452 37.8221 98.8525 37.2581 99.3759 36.6141H99.4565V37.3787C99.4565 39.4134 98.3692 40.5002 96.6172 40.5002C95.188 40.5002 94.3018 39.4734 93.939 38.6076L91.9055 39.4533C92.489 40.8624 94.0392 42.5949 96.6173 42.5949C99.3565 42.5949 101.672 40.9835 101.672 37.0564V27.5116H99.4566L99.4565 28.3776ZM103.284 37.4999H105.619V21.8726H103.284V37.4999ZM109.062 32.3447C109.002 30.2905 110.654 29.2436 111.842 29.2436C112.768 29.2436 113.553 29.707 113.816 30.3711L109.062 32.3447ZM116.312 30.5723C115.869 29.3848 114.52 27.1896 111.761 27.1896C109.022 27.1896 106.746 29.3442 106.746 32.5059C106.746 35.4863 109.002 37.8222 112.022 37.8222C114.459 37.8222 115.869 36.3325 116.453 35.4662L114.641 34.2578C114.036 35.144 113.211 35.728 112.022 35.728C110.835 35.728 109.989 35.1841 109.446 34.1168L116.553 31.1769L116.312 30.5723ZM59.678 28.8208V31.0762H65.0747C64.9136 32.3448 64.4907 33.271 63.8462 33.9155C63.0606 34.7006 61.8322 35.5668 59.6779 35.5668C56.3551 35.5668 53.7575 32.8886 53.7575 29.5659C53.7575 26.2432 56.3551 23.5647 59.6779 23.5647C61.4702 23.5647 62.7789 24.2697 63.7455 25.1759L65.3369 23.5847C63.9872 22.2961 62.1953 21.3093 59.6779 21.3093C55.1261 21.3093 51.3 25.0147 51.3 29.5659C51.3 34.1167 55.1261 37.8222 59.6779 37.8222C62.1343 37.8222 63.9873 37.0166 65.437 35.5064C66.9272 34.0161 67.3906 31.9219 67.3906 30.2301C67.3906 29.7071 67.3499 29.2238 67.2694 28.8208H59.678ZM73.5268 35.7279C71.9154 35.7279 70.5259 34.3988 70.5259 32.5059C70.5259 30.5928 71.9154 29.2842 73.5268 29.2842C75.1375 29.2842 76.5271 30.5928 76.5271 32.5059C76.5271 34.3988 75.1375 35.7279 73.5268 35.7279ZM73.5268 27.1896C70.5859 27.1896 68.1899 29.4248 68.1899 32.5059C68.1899 35.5668 70.5859 37.8222 73.5268 37.8222C76.4666 37.8222 78.8631 35.5668 78.8631 32.5059C78.8631 29.4248 76.4666 27.1896 73.5268 27.1896ZM85.1678 35.7279C83.5576 35.7279 82.1675 34.3988 82.1675 32.5059C82.1675 30.5928 83.5577 29.2842 85.1678 29.2842C86.7792 29.2842 88.1683 30.5928 88.1683 32.5059C88.1683 34.3988 86.7792 35.7279 85.1678 35.7279ZM85.1678 27.1896C82.228 27.1896 79.832 29.4248 79.832 32.5059C79.832 35.5668 82.228 37.8222 85.1678 37.8222C88.1088 37.8222 90.5048 35.5668 90.5048 32.5059C90.5048 29.4248 88.1088 27.1896 85.1678 27.1896Z" fill="white"/>
<path d="M25.8923 24.2804L12.5853 38.4049C12.5858 38.4078 12.5868 38.4102 12.5873 38.4132C12.9954 39.947 14.3963 41.0763 16.0589 41.0763C16.7235 41.0763 17.3475 40.8966 17.8826 40.5812L17.9251 40.5563L32.9046 31.9125L25.8923 24.2804Z" fill="#585858"/>
<path d="M39.3557 21.8757L39.343 21.867L32.8759 18.1179L25.5898 24.6013L32.9012 31.9117L39.3341 28.2C40.462 27.5911 41.2276 26.4021 41.2276 25.031C41.2276 23.6697 40.4724 22.4866 39.3557 21.8757Z" fill="#B6B6B6"/>
<path d="M12.5835 11.5969C12.5035 11.8919 12.4614 12.2009 12.4614 12.5218V37.481C12.4614 37.8013 12.503 38.1113 12.584 38.4053L26.3503 24.6417L12.5835 11.5969Z" fill="#707070"/>
<path d="M25.9907 25.0014L32.8789 18.1154L17.9163 9.44026C17.3724 9.11451 16.7376 8.92651 16.0584 8.92651C14.3958 8.92651 12.993 10.0579 12.5849 11.5934C12.5844 11.5949 12.5844 11.596 12.5844 11.5973L25.9907 25.0014Z" fill="#7D7D7D"/>
<path d="M59.2403 12.2268H55.5938V13.1292H58.3263C58.252 13.8656 57.9591 14.4437 57.4649 14.8636C56.9708 15.2836 56.3399 15.4945 55.5939 15.4945C54.7755 15.4945 54.0821 15.2093 53.5139 14.643C52.9572 14.0649 52.6741 13.35 52.6741 12.4887C52.6741 11.6275 52.9572 10.9125 53.5139 10.3345C54.0821 9.76812 54.7755 9.48488 55.5939 9.48488C56.0139 9.48488 56.4142 9.55713 56.7813 9.71537C57.1485 9.87349 57.4434 10.0942 57.6739 10.3775L58.3673 9.68413C58.0528 9.32664 57.6544 9.05326 57.1601 8.85402C56.666 8.65477 56.1504 8.55915 55.5938 8.55915C54.502 8.55915 53.5763 8.93801 52.8204 9.6939C52.0646 10.4516 51.6857 11.3853 51.6857 12.4887C51.6857 13.5921 52.0645 14.5278 52.8204 15.2837C53.5763 16.0394 54.502 16.4184 55.5938 16.4184C56.7402 16.4184 57.6543 16.0512 58.3574 15.3051C58.9765 14.6841 59.2929 13.8442 59.2929 12.7935C59.2929 12.6157 59.2715 12.4261 59.2403 12.2268ZM60.6529 8.72695V16.2503H65.0453V15.3265H61.6197V12.9399H64.7095V12.0375H61.6197V9.65279H65.0453V8.72692L60.6529 8.72695ZM71.2045 9.65281V8.72695H66.0347V9.65281H68.1363V16.2503H69.103V9.65281H71.2045ZM75.885 8.72695H74.9183V16.2503H75.885V8.72695ZM82.2663 9.65281V8.72695H77.0965V9.65281H79.1979V16.2503H80.1646V9.65281H82.2663ZM92.0219 9.70556C91.2758 8.93796 90.3618 8.55908 89.27 8.55908C88.1763 8.55908 87.2623 8.93795 86.5162 9.69384C85.77 10.44 85.403 11.3754 85.403 12.4886C85.403 13.6018 85.7701 14.5375 86.5162 15.2836C87.2623 16.0394 88.1763 16.4184 89.27 16.4184C90.352 16.4184 91.2758 16.0394 92.0219 15.2836C92.7681 14.5375 93.1351 13.6019 93.1351 12.4886C93.1351 11.3852 92.768 10.4515 92.0219 9.70556ZM87.2095 10.3344C87.7662 9.76805 88.4498 9.48481 89.27 9.48481C90.0883 9.48481 90.772 9.76806 91.3188 10.3344C91.8754 10.891 92.1488 11.6175 92.1488 12.4886C92.1488 13.3617 91.8754 14.0862 91.3188 14.6429C90.7719 15.2093 90.0883 15.4944 89.27 15.4944C88.4498 15.4944 87.7661 15.2093 87.2095 14.6429C86.6645 14.0746 86.3912 13.3617 86.3912 12.4886C86.3912 11.6175 86.6645 10.9027 87.2095 10.3344ZM95.432 11.5649L95.3911 10.1136H95.432L99.2562 16.2503H100.266V8.72688H99.2991V13.1291L99.3401 14.5804H99.2991L95.643 8.72688H94.4653V16.2503H95.432V11.5649Z" fill="white"/>
</svg>
