<svg width="28" height="35" viewBox="0 0 28 35" fill="none" xmlns="http://www.w3.org/2000/svg">
<path fill-rule="evenodd" clip-rule="evenodd" d="M24.867 10.0908C25.39 10.4263 25.9898 10.9587 26.6663 11.688L26.6663 11.688C26.9163 11.9575 26.9007 12.3787 26.6315 12.6289C26.6025 12.6559 26.5711 12.6802 26.5378 12.7016C24.4088 14.0672 23.3443 16.0218 23.3443 18.5652C23.3443 21.215 24.7216 23.3206 27.4763 24.8822L27.4763 24.8821C27.7572 25.0413 27.8833 25.3795 27.7753 25.684C26.6628 28.8185 25.1526 31.2718 23.2446 33.0437C21.9656 34.2315 20.2914 34.8331 18.6501 34.292L18.6004 34.2752L16.0435 33.3979C15.079 33.067 14.0319 33.067 13.0674 33.3979L10.5106 34.2752C8.85619 34.8429 7.02309 34.3568 5.86644 33.0437C2.96052 29.7448 1.13312 26.1594 0.384236 22.2875L0.369658 22.2115L0.352747 22.1209L0.334603 22.0207L0.314864 21.9079C-0.0118427 20.0034 -0.816395 13.4065 4.34372 10.0908C7.09909 8.32031 9.71275 8.17644 12.1847 9.65921L12.2595 9.70471C13.3488 10.3733 14.7067 10.424 15.8417 9.84084L15.8767 9.82251C19.0126 8.16831 22.0094 8.25774 24.867 10.0908Z" fill="#949191"/>
<path fill-rule="evenodd" clip-rule="evenodd" d="M20.95 1.42186C20.5794 5.87881 18.2619 8.35783 13.9973 8.85894L13.9973 8.85897C13.7784 8.88466 13.5801 8.72787 13.5545 8.50876C13.553 8.49591 13.5521 8.483 13.5518 8.47007C13.5469 8.21916 13.5522 8.02239 13.5676 7.87975C14.033 3.56927 16.3462 1.11359 20.507 0.512712L20.507 0.512666C20.7251 0.481256 20.9274 0.632815 20.9588 0.851181C20.9613 0.868437 20.9626 0.885838 20.9628 0.903271C20.9654 1.11569 20.9611 1.28855 20.95 1.42186Z" fill="#949191"/>
</svg>
