<svg width="34" height="22" viewBox="0 0 34 22" fill="none" xmlns="http://www.w3.org/2000/svg">
<path fill-rule="evenodd" clip-rule="evenodd" d="M6.5 0.5C3.18629 0.5 0.5 3.18629 0.5 6.5V15.5C0.5 18.8137 3.18629 21.5 6.5 21.5H27.5C30.8137 21.5 33.5 18.8137 33.5 15.5V6.5C33.5 3.18629 30.8137 0.5 27.5 0.5H6.5ZM15.0681 14.5656C14.8807 14.6872 14.7345 14.75 14.5696 14.75C14.2436 14.75 14 14.4735 14 14.0209V7.97905C14 7.53073 14.2436 7.25 14.5696 7.25C14.7345 7.25 14.8807 7.31285 15.0681 7.43436L19.5166 10.317C19.8501 10.5349 20 10.7151 20 11C20 11.2891 19.8501 11.4693 19.5166 11.683L15.0681 14.5656Z" fill="white"/>
</svg>
