<svg width="40" height="40" viewBox="0 0 40 40" fill="none" xmlns="http://www.w3.org/2000/svg">
<path fill-rule="evenodd" clip-rule="evenodd" d="M9.59172 10.4081C9.98225 10.0176 10.6154 10.0176 11.0059 10.4081L29.3907 28.7929C29.7812 29.1834 29.7812 29.8166 29.3907 30.2071C29.0002 30.5976 28.367 30.5976 27.9765 30.2071L9.59172 11.8223C9.2012 11.4318 9.2012 10.7986 9.59172 10.4081Z" fill="white"/>
<path fill-rule="evenodd" clip-rule="evenodd" d="M30.0059 10.408C29.6154 10.0175 28.9822 10.0175 28.5917 10.408L10.2069 28.7928C9.81642 29.1833 9.81642 29.8165 10.2069 30.207C10.5975 30.5975 11.2306 30.5975 11.6212 30.207L30.0059 11.8222C30.3965 11.4317 30.3965 10.7986 30.0059 10.408Z" fill="white"/>
</svg>
