<svg width="34" height="28" viewBox="0 0 34 28" fill="none" xmlns="http://www.w3.org/2000/svg">
<path fill-rule="evenodd" clip-rule="evenodd" d="M23.0989 17.1387L22.9119 25.1974L17.8365 26.0831L18.336 2.73371L22.4847 2.00966L28.738 8.92348L28.9247 0.885755L34 0L33.5005 23.3494L29.3514 24.0735L23.0989 17.1387ZM18.2932 21.2734L18.3348 19.234L22.6932 18.4733L22.6525 20.5126L18.2932 21.2734ZM23.1868 12.7385L23.1531 14.4253L29.5329 21.5013L33.1956 20.8621L33.1974 20.8618L33.235 19.017L29.444 19.6786L23.1868 12.7385ZM23.1429 14.9384L23.1092 16.6256L29.4863 23.6987L33.1508 23.0591L33.1885 21.2146L29.398 21.8762L23.1429 14.9384ZM33.2422 18.6644L33.2838 16.625L29.5132 17.2831L23.2351 10.3199L23.197 12.2254L29.5789 19.3037L33.2422 18.6644ZM22.6454 20.8651L18.2848 21.6261L18.2472 23.4709L22.6059 22.7102L22.6086 22.7097L22.6454 20.8651ZM18.2382 23.8238L22.5989 23.0627L22.562 24.9071L18.2006 25.6683L18.2382 23.8238Z" fill="white"/>
<path fill-rule="evenodd" clip-rule="evenodd" d="M15.0584 7.52142C15.3995 7.76599 15.7089 8.04737 15.9857 8.36585L16.1834 8.59329L15.1059 9.78757C15.4103 10.0158 15.6884 10.2743 15.9397 10.5634L16.1374 10.7908L15.0597 11.9853C15.3639 12.2134 15.6419 12.4718 15.8931 12.7608L16.0907 12.9882L14.3208 14.95L16.6952 16.527L16.5338 16.8037C16.2354 17.3155 15.9019 17.7801 15.5331 18.1966L16.626 18.9225L16.4647 19.1992C16.1982 19.6562 15.9038 20.0756 15.5812 20.4566L16.58 21.1201L16.4186 21.3968C16.1522 21.8538 15.8577 22.2732 15.535 22.6543L16.5334 23.3174L16.372 23.5941C15.6525 24.8282 14.7289 25.7876 13.5983 26.4604L13.5966 26.4614L13.5948 26.4624C12.4772 27.1106 11.1932 27.5585 9.74817 27.8107C8.10196 28.098 6.5924 28.0602 5.22708 27.6841L5.22537 27.6836C3.87838 27.3055 2.75986 26.6456 1.88172 25.7006L1.88018 25.699C0.999094 24.7384 0.434375 23.5608 0.179305 22.1785C-0.0236658 21.0785 -0.0548153 20.014 0.088399 18.9866C0.0202158 18.2374 0.0353554 17.5055 0.134671 16.7916C0.0607218 15.9814 0.0842256 15.1914 0.206261 14.4224C0.110369 13.4003 0.169373 12.4104 0.385434 11.4542C0.667906 10.204 1.18267 9.07349 1.93032 8.06615C2.67567 7.0437 3.62771 6.19059 4.78189 5.50665L4.78315 5.5059C5.95548 4.8177 7.29719 4.34434 8.80323 4.08151C10.2981 3.82062 11.6848 3.84172 12.9573 4.15517C14.2362 4.47018 15.2749 5.07296 16.0549 5.97036L16.2525 6.19779L15.0584 7.52142ZM13.0278 9.77205L14.8229 7.78236C15.1524 8.01567 15.4495 8.28458 15.7142 8.58908L12.9592 11.6426C12.8798 11.5541 12.7978 11.4702 12.7133 11.3909C12.301 11.0037 11.8288 10.7255 11.2968 10.5561C10.6708 10.3494 9.9606 10.3154 9.16625 10.454C8.40188 10.5874 7.72916 10.8402 7.14809 11.2124C6.582 11.582 6.11853 12.0466 5.75765 12.606C5.61351 12.8295 5.48867 13.064 5.38315 13.3096C5.3666 12.9109 5.39175 12.5263 5.45771 12.1553L5.45812 12.1529C5.56975 11.4971 5.79391 10.9123 6.12801 10.3943C6.46199 9.87653 6.88986 9.44743 7.41409 9.1049C7.95024 8.76171 8.57629 8.52484 9.29821 8.39885C10.0463 8.26829 10.6939 8.30387 11.2516 8.48803L11.2535 8.48864L11.2553 8.48922C11.8323 8.6729 12.3331 8.99858 12.7606 9.47458L13.0278 9.77205ZM15.3016 22.918C14.8099 23.4493 14.2578 23.8983 13.6449 24.263L13.6432 24.264L13.6414 24.265C12.5238 24.9132 11.2398 25.3612 9.79478 25.6133C8.14857 25.9006 6.63901 25.8628 5.27369 25.4867L5.27198 25.4862C3.92499 25.1081 2.80647 24.4482 1.92833 23.5032L1.9268 23.5016C1.17708 22.6843 0.656421 21.7098 0.360685 20.5858C0.377162 21.0871 0.433357 21.5976 0.529273 22.1174C0.774027 23.4438 1.31277 24.5609 2.14552 25.4688C2.97557 26.362 4.03506 26.9896 5.32398 27.3514C6.62789 27.7106 8.08169 27.7502 9.68537 27.4704C11.0942 27.2245 12.3367 26.7895 13.4127 26.1654C14.4861 25.5267 15.3694 24.6128 16.0627 23.4236L15.3016 22.918ZM0.40742 18.3909C0.412383 18.5407 0.420892 18.6913 0.432949 18.8428C0.436968 18.8933 0.441381 18.9438 0.446188 18.9945C0.475139 19.2997 0.518354 19.6083 0.575885 19.9201C0.820638 21.2465 1.35939 22.3636 2.19213 23.2714C3.02218 24.1647 4.08167 24.7922 5.37059 25.154C6.6745 25.5132 8.1283 25.5529 9.73198 25.273C11.1408 25.0271 12.3833 24.5921 13.4593 23.968C14.5327 23.3294 15.416 22.4154 16.1093 21.2262L15.3478 20.7204C14.856 21.2517 14.3039 21.7007 13.6909 22.0654L13.6892 22.0665L13.6875 22.0675C12.5698 22.7157 11.2859 23.1636 9.84082 23.4158C8.1946 23.7031 6.68504 23.6653 5.31972 23.2892L5.31802 23.2887C3.97102 22.9106 2.8525 22.2507 1.97436 21.3057L1.97283 21.304C1.2237 20.4874 0.703278 19.5138 0.40742 18.3909ZM15.2929 18.4558C14.8329 18.9304 14.322 19.3356 13.7601 19.6699L13.7584 19.671L13.7566 19.672C12.639 20.3202 11.355 20.7681 9.90997 21.0203C8.26376 21.3076 6.7542 21.2698 5.38888 20.8937L5.38718 20.8932C4.04018 20.5151 2.92166 19.8552 2.04352 18.9102L2.04199 18.9085C1.26833 18.0651 0.738565 17.0542 0.448203 15.8845C0.448238 15.9599 0.449188 16.0355 0.45105 16.1113C0.456632 16.3389 0.470443 16.5682 0.492454 16.7996C0.521404 17.1039 0.564546 17.4116 0.621917 17.7225C0.866671 19.0489 1.40542 20.166 2.23816 21.0738C3.06821 21.9671 4.1277 22.5946 5.41662 22.9565C6.72053 23.3157 8.17433 23.3553 9.77801 23.0754C11.1869 22.8296 12.4293 22.3946 13.5054 21.7705C14.5787 21.1318 15.4621 20.2179 16.1554 19.0286L15.2929 18.4558ZM14.0251 14.7535L15.6215 12.984C15.3824 12.7089 15.1168 12.4628 14.8247 12.2458L13.1103 14.1459L14.0251 14.7535ZM14.8709 10.0481L12.9586 12.1675L12.6914 11.8701C12.2639 11.3941 11.7631 11.0684 11.1862 10.8847L11.1843 10.8841L11.1825 10.8835C10.6247 10.6994 9.97716 10.6638 9.22905 10.7943C8.50713 10.9203 7.88109 11.1572 7.34493 11.5004C6.8207 11.8429 6.39283 12.272 6.05885 12.7898C5.79544 13.1982 5.60037 13.6481 5.47491 14.1416L5.4849 14.197C5.52922 14.4372 5.59099 14.6612 5.66976 14.8697C5.68353 14.8475 5.69748 14.8255 5.71162 14.8036C6.07249 14.2441 6.53597 13.7796 7.10205 13.41C7.68313 13.0378 8.35585 12.785 9.12022 12.6516C9.91457 12.5129 10.6247 12.547 11.2508 12.7536C11.7828 12.923 12.2549 13.2013 12.6673 13.5884C12.7518 13.6678 12.8337 13.7517 12.9132 13.8402L15.6681 10.7866C15.4289 10.5114 15.1631 10.2652 14.8709 10.0481ZM5.84851 15.2636C5.947 15.447 6.06134 15.616 6.19111 15.7712C6.28087 15.8707 6.37643 15.9632 6.47794 16.0488C6.65684 15.8891 6.84934 15.7419 7.05544 15.6074C7.63651 15.2351 8.30923 14.9823 9.07361 14.8489C9.86796 14.7103 10.5781 14.7443 11.2041 14.951C11.5195 15.0514 11.8138 15.1901 12.0872 15.367C12.3533 15.0938 12.5991 14.7729 12.824 14.4022L12.8731 14.3212L12.6454 14.0676C12.2179 13.5916 11.7171 13.266 11.1401 13.0823L11.1383 13.0817L11.1365 13.0811C10.5787 12.8969 9.93112 12.8613 9.18302 12.9919C8.4611 13.1179 7.83505 13.3548 7.2989 13.6979C6.77467 14.0405 6.3468 14.4696 6.01282 14.9873C5.95472 15.0774 5.89995 15.1695 5.84851 15.2636ZM11.8259 15.6143C11.597 15.4736 11.353 15.3622 11.0935 15.2796L11.0917 15.2791L11.0898 15.2784C10.5321 15.0943 9.88451 15.0587 9.13641 15.1893C8.41449 15.3153 7.78844 15.5521 7.25229 15.8953C7.07959 16.0082 6.91736 16.1304 6.76549 16.2621C7.00543 16.4181 7.2731 16.5421 7.56987 16.6341C8.14209 16.7905 8.79941 16.8104 9.54988 16.6794C10.2056 16.565 10.8081 16.3271 11.3605 15.9646L11.3617 15.9638L11.363 15.963C11.5229 15.8599 11.6773 15.7438 11.8259 15.6143Z" fill="white"/>
</svg>
