<svg width="169" height="50" viewBox="0 0 169 50" fill="none" xmlns="http://www.w3.org/2000/svg">
<path d="M162.746 50H5.91125C2.6525 50 0 47.34 0 44.0837V5.9075C0 2.65 2.6525 0 5.91125 0H162.746C166.004 0 168.75 2.65 168.75 5.9075V44.0837C168.75 47.34 166.004 50 162.746 50Z" fill="black"/>
<path d="M167.54 44.0851C167.54 46.7301 165.398 48.8726 162.748 48.8726H5.9113C3.26255 48.8726 1.11255 46.7301 1.11255 44.0851V5.9063C1.11255 3.26255 3.26255 1.11255 5.9113 1.11255H162.746C165.398 1.11255 167.539 3.26255 167.539 5.9063L167.54 44.0851Z" fill="white"/>
<path d="M37.66 24.73C37.6237 20.7013 40.9587 18.7413 41.1112 18.65C39.2225 15.8963 36.295 15.52 35.2662 15.49C32.8075 15.2313 30.4225 16.9613 29.17 16.9613C27.8925 16.9613 25.9637 15.515 23.885 15.5575C21.21 15.5988 18.7075 17.1475 17.335 19.5525C14.5025 24.4563 16.615 31.6625 19.3287 35.6263C20.6862 37.5675 22.2725 39.735 24.3487 39.6588C26.38 39.575 27.1387 38.3638 29.59 38.3638C32.0187 38.3638 32.7312 39.6588 34.8487 39.61C37.0287 39.575 38.4012 37.66 39.7112 35.7013C41.28 33.4763 41.91 31.285 41.935 31.1725C41.8837 31.155 37.7012 29.5588 37.66 24.73Z" fill="black"/>
<path d="M33.6599 12.8825C34.7524 11.5162 35.4999 9.65749 35.2924 7.77124C33.7112 7.84124 31.7337 8.86499 30.5949 10.2012C29.5874 11.3787 28.6874 13.3087 28.9199 15.1237C30.6962 15.2562 32.5199 14.2275 33.6599 12.8825Z" fill="black"/>
<path d="M67.0562 39.3799H64.2175L62.6625 34.4936H57.2575L55.7762 39.3799H53.0125L58.3675 22.7449H61.675L67.0562 39.3799ZM62.1937 32.4436L60.7875 28.0999C60.6387 27.6561 60.36 26.6111 59.9487 24.9661H59.8987C59.7349 25.6736 59.4712 26.7186 59.1087 28.0999L57.7275 32.4436H62.1937Z" fill="black"/>
<path d="M80.8275 33.2349C80.8275 35.2749 80.2762 36.8874 79.1737 38.0712C78.1862 39.1249 76.96 39.6512 75.4962 39.6512C73.9162 39.6512 72.7812 39.0837 72.09 37.9487H72.04V44.2674H69.375V31.3337C69.375 30.0512 69.3412 28.7349 69.2762 27.3849H71.62L71.7687 29.2862H71.8187C72.7075 27.8537 74.0562 27.1387 75.8662 27.1387C77.2812 27.1387 78.4625 27.6974 79.4075 28.8162C80.355 29.9362 80.8275 31.4087 80.8275 33.2349ZM78.1125 33.3324C78.1125 32.1649 77.85 31.2024 77.3225 30.4449C76.7462 29.6549 75.9725 29.2599 75.0025 29.2599C74.345 29.2599 73.7475 29.4799 73.2137 29.9137C72.6787 30.3512 72.3287 30.9224 72.165 31.6299C72.0825 31.9599 72.0412 32.2299 72.0412 32.4424V34.4424C72.0412 35.3149 72.3087 36.0512 72.8437 36.6524C73.3787 37.2537 74.0737 37.5537 74.9287 37.5537C75.9325 37.5537 76.7137 37.1662 77.2725 36.3937C77.8325 35.6199 78.1125 34.5999 78.1125 33.3324Z" fill="black"/>
<path d="M94.6237 33.2349C94.6237 35.2749 94.0725 36.8874 92.9687 38.0712C91.9825 39.1249 90.7562 39.6512 89.2925 39.6512C87.7125 39.6512 86.5775 39.0837 85.8875 37.9487H85.8375V44.2674H83.1725V31.3337C83.1725 30.0512 83.1387 28.7349 83.0737 27.3849H85.4175L85.5662 29.2862H85.6162C86.5037 27.8537 87.8525 27.1387 89.6637 27.1387C91.0775 27.1387 92.2587 27.6974 93.2062 28.8162C94.15 29.9362 94.6237 31.4087 94.6237 33.2349ZM91.9087 33.3324C91.9087 32.1649 91.645 31.2024 91.1175 30.4449C90.5412 29.6549 89.77 29.2599 88.7987 29.2599C88.14 29.2599 87.5437 29.4799 87.0087 29.9137C86.4737 30.3512 86.125 30.9224 85.9612 31.6299C85.88 31.9599 85.8375 32.2299 85.8375 32.4424V34.4424C85.8375 35.3149 86.105 36.0512 86.6375 36.6524C87.1725 37.2524 87.8675 37.5537 88.725 37.5537C89.7287 37.5537 90.51 37.1662 91.0687 36.3937C91.6287 35.6199 91.9087 34.5999 91.9087 33.3324Z" fill="black"/>
<path d="M110.049 34.715C110.049 36.13 109.558 37.2812 108.571 38.17C107.488 39.1412 105.979 39.6262 104.04 39.6262C102.25 39.6262 100.815 39.2812 99.7288 38.59L100.346 36.3687C101.516 37.0762 102.8 37.4312 104.199 37.4312C105.203 37.4312 105.984 37.2037 106.545 36.7512C107.104 36.2987 107.383 35.6912 107.383 34.9337C107.383 34.2587 107.153 33.69 106.691 33.2287C106.233 32.7675 105.466 32.3387 104.396 31.9425C101.484 30.8562 100.029 29.265 100.029 27.1725C100.029 25.805 100.539 24.6837 101.56 23.8112C102.578 22.9375 103.935 22.5012 105.633 22.5012C107.146 22.5012 108.404 22.765 109.408 23.2912L108.741 25.4637C107.804 24.9537 106.744 24.6987 105.558 24.6987C104.62 24.6987 103.888 24.93 103.363 25.39C102.919 25.8012 102.696 26.3025 102.696 26.8962C102.696 27.5537 102.95 28.0975 103.46 28.525C103.904 28.92 104.71 29.3475 105.88 29.8087C107.311 30.385 108.363 31.0587 109.039 31.8312C109.713 32.6012 110.049 33.565 110.049 34.715Z" fill="black"/>
<path d="M118.86 29.385H115.922V35.2087C115.922 36.69 116.44 37.43 117.477 37.43C117.954 37.43 118.349 37.3887 118.661 37.3062L118.735 39.33C118.21 39.5262 117.519 39.625 116.662 39.625C115.61 39.625 114.787 39.3037 114.194 38.6625C113.602 38.02 113.305 36.9425 113.305 35.4287V29.3825H111.555V27.3825H113.305V25.1862L115.922 24.3962V27.3825H118.86V29.385Z" fill="black"/>
<path d="M132.114 33.2836C132.114 35.1274 131.586 36.6411 130.534 37.8249C129.43 39.0436 127.965 39.6511 126.139 39.6511C124.379 39.6511 122.977 39.0674 121.932 37.8999C120.887 36.7324 120.365 35.2586 120.365 33.4824C120.365 31.6236 120.902 30.1011 121.981 28.9174C123.057 27.7324 124.51 27.1399 126.336 27.1399C128.096 27.1399 129.512 27.7236 130.581 28.8924C131.604 30.0261 132.114 31.4899 132.114 33.2836ZM129.349 33.3699C129.349 32.2636 129.112 31.3149 128.634 30.5236C128.075 29.5661 127.276 29.0886 126.241 29.0886C125.17 29.0886 124.356 29.5674 123.797 30.5236C123.319 31.3161 123.082 32.2799 123.082 33.4199C123.082 34.5261 123.319 35.4749 123.797 36.2649C124.374 37.2224 125.179 37.6999 126.217 37.6999C127.235 37.6999 128.034 37.2124 128.61 36.2399C129.101 35.4336 129.349 34.4749 129.349 33.3699Z" fill="black"/>
<path d="M140.776 29.7287C140.512 29.6799 140.231 29.6549 139.936 29.6549C138.999 29.6549 138.274 30.0087 137.764 30.7174C137.32 31.3424 137.097 32.1324 137.097 33.0862V39.3799H134.434L134.459 31.1624C134.459 29.7799 134.425 28.5212 134.359 27.3862H136.68L136.777 29.6812H136.851C137.132 28.8924 137.576 28.2574 138.184 27.7812C138.777 27.3524 139.419 27.1387 140.11 27.1387C140.356 27.1387 140.579 27.1562 140.776 27.1874V29.7287Z" fill="black"/>
<path d="M152.695 32.815C152.695 33.2925 152.664 33.695 152.597 34.0237H144.602C144.634 35.2087 145.02 36.115 145.762 36.74C146.436 37.2987 147.307 37.5787 148.377 37.5787C149.561 37.5787 150.641 37.39 151.612 37.0112L152.03 38.8612C150.895 39.3562 149.555 39.6025 148.009 39.6025C146.149 39.6025 144.689 39.055 143.626 37.9612C142.566 36.8675 142.035 35.3987 142.035 33.5562C142.035 31.7475 142.529 30.2412 143.517 29.04C144.552 27.7575 145.951 27.1162 147.711 27.1162C149.44 27.1162 150.749 27.7575 151.637 29.04C152.341 30.0587 152.695 31.3187 152.695 32.815ZM150.154 32.1237C150.171 31.3337 149.997 30.6512 149.636 30.075C149.175 29.3337 148.466 28.9637 147.512 28.9637C146.641 28.9637 145.932 29.325 145.391 30.05C144.947 30.6262 144.684 31.3175 144.602 32.1225L150.154 32.1237Z" fill="black"/>
<path d="M61.3125 12.5114C61.3125 13.9826 60.8712 15.0901 59.99 15.8339C59.1737 16.5201 58.0137 16.8639 56.5112 16.8639C55.7662 16.8639 55.1287 16.8314 54.595 16.7664V8.72762C55.2912 8.61512 56.0412 8.55762 56.8512 8.55762C58.2825 8.55762 59.3612 8.86887 60.0887 9.49137C60.9037 10.1951 61.3125 11.2014 61.3125 12.5114ZM59.9312 12.5476C59.9312 11.5939 59.6787 10.8626 59.1737 10.3526C58.6687 9.84387 57.9312 9.58887 56.96 9.58887C56.5475 9.58887 56.1962 9.61637 55.905 9.67387V15.7851C56.0662 15.8101 56.3612 15.8214 56.79 15.8214C57.7925 15.8214 58.5662 15.5426 59.1112 14.9851C59.6562 14.4276 59.9312 13.6151 59.9312 12.5476Z" fill="black"/>
<path d="M68.6362 13.7963C68.6362 14.7026 68.3775 15.4451 67.86 16.0276C67.3175 16.6263 66.5987 16.9251 65.7012 16.9251C64.8362 16.9251 64.1475 16.6388 63.6337 16.0638C63.1212 15.4901 62.865 14.7663 62.865 13.8938C62.865 12.9813 63.1287 12.2326 63.6587 11.6513C64.1887 11.0701 64.9012 10.7788 65.7987 10.7788C66.6637 10.7788 67.3587 11.0651 67.885 11.6388C68.385 12.1963 68.6362 12.9163 68.6362 13.7963ZM67.2775 13.8388C67.2775 13.2951 67.16 12.8288 66.9262 12.4401C66.6512 11.9701 66.26 11.7351 65.7512 11.7351C65.225 11.7351 64.825 11.9701 64.55 12.4401C64.315 12.8288 64.1987 13.3026 64.1987 13.8626C64.1987 14.4063 64.3162 14.8726 64.55 15.2613C64.8337 15.7313 65.2287 15.9663 65.7387 15.9663C66.2387 15.9663 66.6312 15.7276 66.9137 15.2488C67.1562 14.8526 67.2775 14.3826 67.2775 13.8388Z" fill="black"/>
<path d="M78.4562 10.8989L76.6125 16.7914H75.4125L74.6487 14.2327C74.455 13.5939 74.2974 12.9589 74.1749 12.3289H74.1512C74.0374 12.9764 73.88 13.6102 73.6775 14.2327L72.8662 16.7914H71.6524L69.9187 10.8989H71.265L71.9312 13.7002C72.0924 14.3627 72.225 14.9939 72.3312 15.5914H72.3549C72.4524 15.0989 72.6137 14.4714 72.8412 13.7127L73.6775 10.9002H74.745L75.5462 13.6527C75.7399 14.3239 75.8974 14.9702 76.0187 15.5927H76.055C76.1437 14.9864 76.2775 14.3402 76.455 13.6527L77.1699 10.9002H78.4562V10.8989Z" fill="black"/>
<path d="M85.2475 16.7914H83.9375V13.4164C83.9375 12.3764 83.5425 11.8564 82.75 11.8564C82.3613 11.8564 82.0475 11.9989 81.8038 12.2851C81.5625 12.5714 81.44 12.9089 81.44 13.2951V16.7901H80.13V12.5826C80.13 12.0651 80.1138 11.5039 80.0825 10.8964H81.2338L81.295 11.8176H81.3313C81.4838 11.5314 81.7113 11.2951 82.01 11.1064C82.365 10.8864 82.7625 10.7751 83.1975 10.7751C83.7475 10.7751 84.205 10.9526 84.5688 11.3089C85.0213 11.7451 85.2475 12.3964 85.2475 13.2614V16.7914Z" fill="black"/>
<path d="M88.86 16.7913H87.5513V8.19507H88.86V16.7913Z" fill="black"/>
<path d="M96.5725 13.7963C96.5725 14.7026 96.3138 15.4451 95.7963 16.0276C95.2538 16.6263 94.5338 16.9251 93.6375 16.9251C92.7713 16.9251 92.0825 16.6388 91.57 16.0638C91.0575 15.4901 90.8013 14.7663 90.8013 13.8938C90.8013 12.9813 91.065 12.2326 91.595 11.6513C92.125 11.0701 92.8375 10.7788 93.7338 10.7788C94.6 10.7788 95.2938 11.0651 95.8213 11.6388C96.3213 12.1963 96.5725 12.9163 96.5725 13.7963ZM95.2125 13.8388C95.2125 13.2951 95.095 12.8288 94.8613 12.4401C94.5875 11.9701 94.195 11.7351 93.6875 11.7351C93.16 11.7351 92.76 11.9701 92.4863 12.4401C92.2513 12.8288 92.135 13.3026 92.135 13.8626C92.135 14.4063 92.2525 14.8726 92.4863 15.2613C92.77 15.7313 93.165 15.9663 93.675 15.9663C94.175 15.9663 94.5663 15.7276 94.8488 15.2488C95.0925 14.8526 95.2125 14.3826 95.2125 13.8388Z" fill="black"/>
<path d="M102.912 16.7913H101.736L101.639 16.1126H101.602C101.2 16.6538 100.626 16.9251 99.8812 16.9251C99.325 16.9251 98.875 16.7463 98.5362 16.3913C98.2287 16.0688 98.075 15.6676 98.075 15.1913C98.075 14.4713 98.375 13.9226 98.9787 13.5426C99.5812 13.1626 100.429 12.9763 101.52 12.9851V12.8751C101.52 12.0988 101.112 11.7113 100.296 11.7113C99.715 11.7113 99.2025 11.8576 98.76 12.1476L98.4937 11.2876C99.0412 10.9488 99.7175 10.7788 100.515 10.7788C102.055 10.7788 102.827 11.5913 102.827 13.2163V15.3863C102.827 15.9751 102.856 16.4438 102.912 16.7913ZM101.552 14.7663V13.8576C100.107 13.8326 99.385 14.2288 99.385 15.0451C99.385 15.3526 99.4675 15.5826 99.6362 15.7363C99.805 15.8901 100.02 15.9663 100.276 15.9663C100.564 15.9663 100.832 15.8751 101.077 15.6938C101.324 15.5113 101.475 15.2801 101.531 14.9963C101.545 14.9326 101.552 14.8551 101.552 14.7663Z" fill="black"/>
<path d="M110.356 16.7913H109.194L109.132 15.8451H109.096C108.725 16.5651 108.092 16.9251 107.204 16.9251C106.494 16.9251 105.902 16.6463 105.434 16.0888C104.965 15.5313 104.731 14.8076 104.731 13.9188C104.731 12.9651 104.985 12.1926 105.495 11.6026C105.989 11.0526 106.594 10.7776 107.314 10.7776C108.105 10.7776 108.659 11.0438 108.974 11.5776H108.999V8.19507H110.31V15.2038C110.31 15.7776 110.325 16.3063 110.356 16.7913ZM108.999 14.3063V13.3238C108.999 13.1538 108.986 13.0163 108.962 12.9113C108.889 12.5963 108.73 12.3313 108.489 12.1176C108.245 11.9038 107.951 11.7963 107.612 11.7963C107.124 11.7963 106.741 11.9901 106.46 12.3788C106.181 12.7676 106.04 13.2638 106.04 13.8701C106.04 14.4526 106.174 14.9251 106.442 15.2888C106.726 15.6763 107.109 15.8701 107.587 15.8701C108.017 15.8701 108.361 15.7088 108.622 15.3851C108.875 15.0863 108.999 14.7263 108.999 14.3063Z" fill="black"/>
<path d="M121.56 13.7963C121.56 14.7026 121.301 15.4451 120.784 16.0276C120.241 16.6263 119.524 16.9251 118.625 16.9251C117.761 16.9251 117.072 16.6388 116.557 16.0638C116.045 15.4901 115.789 14.7663 115.789 13.8938C115.789 12.9813 116.052 12.2326 116.582 11.6513C117.112 11.0701 117.825 10.7788 118.724 10.7788C119.587 10.7788 120.284 11.0651 120.809 11.6388C121.309 12.1963 121.56 12.9163 121.56 13.7963ZM120.202 13.8388C120.202 13.2951 120.085 12.8288 119.851 12.4401C119.575 11.9701 119.185 11.7351 118.675 11.7351C118.15 11.7351 117.75 11.9701 117.474 12.4401C117.239 12.8288 117.122 13.3026 117.122 13.8626C117.122 14.4063 117.24 14.8726 117.474 15.2613C117.757 15.7313 118.152 15.9663 118.662 15.9663C119.162 15.9663 119.556 15.7276 119.839 15.2488C120.08 14.8526 120.202 14.3826 120.202 13.8388Z" fill="black"/>
<path d="M128.604 16.7914H127.295V13.4164C127.295 12.3764 126.9 11.8564 126.106 11.8564C125.717 11.8564 125.404 11.9989 125.161 12.2851C124.919 12.5714 124.797 12.9089 124.797 13.2951V16.7901H123.486V12.5826C123.486 12.0651 123.471 11.5039 123.44 10.8964H124.59L124.651 11.8176H124.687C124.841 11.5314 125.069 11.2951 125.366 11.1064C125.722 10.8864 126.119 10.7751 126.555 10.7751C127.104 10.7751 127.561 10.9526 127.925 11.3089C128.379 11.7451 128.604 12.3964 128.604 13.2614V16.7914Z" fill="black"/>
<path d="M137.42 11.8801H135.977V14.7426C135.977 15.4701 136.234 15.8339 136.741 15.8339C136.976 15.8339 137.171 15.8139 137.325 15.7726L137.359 16.7664C137.1 16.8639 136.76 16.9126 136.341 16.9126C135.824 16.9126 135.421 16.7551 135.13 16.4401C134.837 16.1251 134.692 15.5951 134.692 14.8514V11.8801H133.831V10.8989H134.692V9.8189L135.976 9.4314V10.8976H137.419L137.42 11.8801Z" fill="black"/>
<path d="M144.355 16.7913H143.044V13.4413C143.044 12.3851 142.649 11.8563 141.857 11.8563C141.25 11.8563 140.835 12.1626 140.607 12.7751C140.569 12.9038 140.546 13.0613 140.546 13.2463V16.7901H139.237V8.19507H140.546V11.7463H140.571C140.984 11.1001 141.575 10.7776 142.341 10.7776C142.884 10.7776 143.332 10.9551 143.689 11.3113C144.132 11.7551 144.355 12.4151 144.355 13.2876V16.7913Z" fill="black"/>
<path d="M151.509 13.5663C151.509 13.8013 151.491 13.9988 151.46 14.1601H147.531C147.549 14.7426 147.736 15.1863 148.1 15.4938C148.433 15.7688 148.861 15.9063 149.386 15.9063C149.968 15.9063 150.498 15.8138 150.975 15.6276L151.18 16.5376C150.621 16.7801 149.964 16.9013 149.203 16.9013C148.29 16.9013 147.571 16.6326 147.051 16.0951C146.529 15.5576 146.27 14.8363 146.27 13.9313C146.27 13.0426 146.511 12.3026 146.998 11.7126C147.505 11.0826 148.191 10.7676 149.058 10.7676C149.905 10.7676 150.549 11.0826 150.984 11.7126C151.335 12.2126 151.509 12.8313 151.509 13.5663ZM150.259 13.2276C150.269 12.8388 150.183 12.5038 150.005 12.2213C149.778 11.8576 149.431 11.6751 148.963 11.6751C148.535 11.6751 148.186 11.8526 147.92 12.2088C147.703 12.4926 147.574 12.8313 147.531 13.2276H150.259Z" fill="black"/>
</svg>
