<svg width="28" height="29" viewBox="0 0 28 29" fill="none" xmlns="http://www.w3.org/2000/svg">
<path fill-rule="evenodd" clip-rule="evenodd" d="M0.446385 0.594277C0.61725 0.524259 0.8088 0.524259 0.979666 0.594277L27.5172 11.469C27.8765 11.6162 28.0485 12.0269 27.9012 12.3863C27.8349 12.5482 27.7105 12.6795 27.5525 12.7547L20.2396 16.2326L26.2708 22.2636C26.6702 22.6631 26.6702 23.3107 26.2708 23.7101L23.2421 26.7388C22.8427 27.1382 22.1951 27.1382 21.7956 26.7388L15.7418 20.685L12.2228 28.0845C12.056 28.4352 11.6364 28.5843 11.2857 28.4175C11.1277 28.3423 11.0034 28.211 10.937 28.0491L0.0623423 1.5116C-0.0849193 1.15224 0.0870223 0.741539 0.446385 0.594277Z" fill="white"/>
</svg>
