<svg width="28" height="31" viewBox="0 0 28 31" fill="none" xmlns="http://www.w3.org/2000/svg">
<path fill-rule="evenodd" clip-rule="evenodd" d="M16.4688 0.922302C16.9059 0.922302 17.2933 1.20375 17.4284 1.61947L18.4506 4.76494C19.4388 5.17098 20.3587 5.70911 21.1885 6.35736L24.392 5.67641C24.8196 5.58553 25.2571 5.7803 25.4757 6.15887L27.8562 10.2822C28.0748 10.6607 28.0248 11.137 27.7323 11.4618L25.551 13.8846C25.6272 14.4226 25.6666 14.9725 25.6666 15.5315C25.6666 16.0829 25.6283 16.6253 25.5541 17.1563L27.7323 19.5756C28.0248 19.9005 28.0748 20.3767 27.8562 20.7553L25.4756 24.8786C25.2571 25.2571 24.8196 25.4519 24.3921 25.3611L21.2141 24.6857C20.3749 25.345 19.4429 25.8914 18.4409 26.3021L17.4284 29.418C17.2933 29.8337 16.9059 30.1151 16.4688 30.1151H11.7075C11.2704 30.1151 10.883 29.8337 10.7479 29.418L9.75234 26.3545C8.69966 25.938 7.72225 25.3723 6.84618 24.6835L3.6581 25.3611C3.23053 25.4519 2.79308 25.2571 2.57452 24.8786L0.193911 20.7553C-0.024648 20.3767 0.0253983 19.9005 0.317876 19.5756L2.50718 17.144C2.43411 16.617 2.39635 16.0787 2.39635 15.5315C2.39635 14.9767 2.43518 14.431 2.51028 13.8969L0.317878 11.4618C0.0253991 11.137 -0.0246477 10.6607 0.193911 10.2822L2.57451 6.15886C2.79307 5.7803 3.23054 5.58552 3.65812 5.67641L6.87172 6.3595C7.73857 5.68187 8.70394 5.12445 9.74275 4.71231L10.7479 1.61945C10.883 1.20375 11.2704 0.922302 11.7075 0.922302H16.4688ZM14.0315 10.518C11.2626 10.518 9.01797 12.7626 9.01797 15.5315C9.01797 18.3004 11.2626 20.545 14.0315 20.545C16.8004 20.545 19.045 18.3004 19.045 15.5315C19.045 12.7626 16.8004 10.518 14.0315 10.518Z" fill="#949191"/>
</svg>
