<svg width="80" height="80" viewBox="0 0 80 80" fill="none" xmlns="http://www.w3.org/2000/svg">
<g clip-path="url(#clip0_2451_6543)">
<path d="M77.7487 34.4572L75.2401 31.7544C73.6001 29.9886 72.8344 27.5315 73.1601 25.0972L73.663 21.3772C74.2401 17.1201 71.4744 13.1544 67.4058 12.4115L63.8515 11.7601C61.5258 11.3372 59.5201 9.81721 58.4115 7.64578L56.7201 4.32578C54.783 0.531494 50.3087 -0.988506 46.6001 0.902923L43.3601 2.55435C41.2401 3.63435 38.7601 3.63435 36.6344 2.55435L33.3944 0.902923C29.6858 -0.982792 25.2058 0.531494 23.2687 4.32578L21.5772 7.64578C20.4687 9.81721 18.463 11.3372 16.1372 11.7601L12.583 12.4115C8.51439 13.1544 5.74867 17.1201 6.32581 21.3772L6.82867 25.0972C7.1601 27.5315 6.39438 29.9886 4.74867 31.7544L2.25153 34.4572C-0.617045 37.5486 -0.617045 42.4515 2.25153 45.5372L4.7601 48.2401C6.4001 50.0058 7.16581 52.4629 6.8401 54.8972L6.33724 58.6172C5.7601 62.8744 8.52581 66.8401 12.5944 67.5829L16.1487 68.2344C18.4744 68.6572 20.4801 70.1772 21.5887 72.3486L23.2801 75.6686C25.2172 79.4629 29.6915 80.9829 33.4058 79.0915L36.6458 77.4401C38.7658 76.3601 41.2458 76.3601 43.3715 77.4401L46.6115 79.0915C50.3201 80.9772 54.8001 79.4629 56.7315 75.6686L58.423 72.3486C59.5315 70.1772 61.5372 68.6572 63.863 68.2344L67.4172 67.5829C71.4858 66.8401 74.2515 62.8744 73.6744 58.6172L73.1715 54.8972C72.8401 52.4629 73.6058 50.0058 75.2515 48.2401L77.7601 45.5372C80.6172 42.4515 80.6172 37.5486 77.7487 34.4572Z" fill="#9F9F9F"/>
<path d="M27.0995 41.5415C27.0995 41.2799 27.0064 41.0764 26.8204 40.931C26.6343 40.7856 26.3086 40.6344 25.8376 40.4774C25.3666 40.3204 24.9887 40.1692 24.6863 40.0239C23.7152 39.5529 23.2326 38.9016 23.2326 38.0817C23.2326 37.6689 23.3547 37.3083 23.5931 36.9943C23.8315 36.6803 24.1746 36.4361 24.6165 36.2617C25.0585 36.0872 25.5527 36 26.1051 36C26.6401 36 27.1227 36.093 27.5472 36.2849C27.9717 36.4768 28.3031 36.7443 28.5415 37.099C28.78 37.4479 28.8963 37.8491 28.8963 38.3027H27.0995C27.0995 38.0003 27.0064 37.7677 26.8204 37.5991C26.6343 37.4304 26.3842 37.349 26.0644 37.349C25.7446 37.349 25.4888 37.4188 25.3027 37.5584C25.1166 37.6979 25.0236 37.8782 25.0236 38.0933C25.0236 38.2852 25.1282 38.4539 25.3318 38.6109C25.5353 38.7679 25.8958 38.9249 26.4133 39.0877C26.9308 39.2505 27.3553 39.4308 27.6868 39.6168C28.495 40.0762 28.8963 40.7158 28.8963 41.5241C28.8963 42.1695 28.652 42.6813 28.1578 43.0476C27.6635 43.4197 26.989 43.6 26.1284 43.6C25.5236 43.6 24.977 43.4953 24.4828 43.2744C23.9943 43.0592 23.6222 42.7627 23.3721 42.3905C23.1221 42.0184 23 41.5823 23 41.0938H24.8084C24.8084 41.4892 24.9131 41.7858 25.1166 41.9718C25.3259 42.1579 25.6574 42.2568 26.1226 42.2568C26.4191 42.2568 26.6575 42.1928 26.8262 42.0649C27.0122 41.9486 27.0995 41.7683 27.0995 41.5415Z" fill="white"/>
<path d="M31.7454 43.5072H29.9486V36.0991H31.7454V43.5072Z" fill="white"/>
<path d="M34.7982 42.1349H37.9324V43.5072H32.9956V36.0991H34.7982V42.1349Z" fill="white"/>
<path d="M40.5374 41.4953L42.026 36.0991H44.038L41.5201 43.5072H39.5489L37.0543 36.0991H39.0488L40.5374 41.4953Z" fill="white"/>
<path d="M49.2133 40.3672H46.3815V42.1407H49.725V43.5131H44.5789V36.0991H49.7366V37.4772H46.3815V39.0414H49.2133V40.3672Z" fill="white"/>
<path d="M53.2371 40.8906H52.2602V43.5131H50.4576V36.0991H53.4C54.2838 36.0991 54.9816 36.291 55.4759 36.6864C55.9759 37.076 56.226 37.6284 56.226 38.3378C56.226 38.8554 56.1213 39.2798 55.912 39.6171C55.7026 39.9544 55.3712 40.2277 54.9234 40.4428L56.4818 43.4316V43.5072H54.5513L53.2371 40.8906ZM52.2602 39.5124H53.4C53.743 39.5124 53.9989 39.4252 54.1733 39.245C54.3478 39.0647 54.435 38.8147 54.435 38.4948C54.435 38.175 54.3478 37.925 54.1733 37.7447C53.9989 37.5645 53.743 37.4714 53.4058 37.4714H52.2661V39.5124H52.2602Z" fill="white"/>
<path d="M19.8514 22.846L19.12 23.8231L21.7714 25.8002L21.1829 26.5888L18.5314 24.6117L17.8171 25.5717L17.2114 25.1202L19.24 22.3945L19.8514 22.846Z" fill="white"/>
<path d="M23.5545 22.7037L22.6059 23.6579L22.9773 24.3608L22.2402 25.1037L20.4059 21.1837L21.0573 20.5322L25.0002 22.3322L24.2573 23.0808L23.5545 22.7037ZM22.2345 22.9551L22.8516 22.3379L21.543 21.6579L22.2345 22.9551Z" fill="white"/>
<path d="M27.5257 19.8917C27.5028 20.1146 27.4 20.3546 27.2285 20.606C27.0514 20.8575 26.8228 21.086 26.5428 21.2917C26.1143 21.606 25.6685 21.7203 25.2228 21.646C24.7714 21.5717 24.3714 21.3032 24.0114 20.846L23.8 20.5603C23.5657 20.2346 23.4171 19.9089 23.36 19.5889C23.2971 19.2632 23.3314 18.9603 23.4457 18.6746C23.5657 18.3889 23.7657 18.1489 24.0457 17.9432C24.4571 17.646 24.84 17.5089 25.2057 17.5317C25.5657 17.5546 25.9028 17.7375 26.2114 18.086L25.4457 18.6403C25.2857 18.4746 25.1314 18.3889 24.9828 18.3717C24.8343 18.3603 24.68 18.4117 24.5143 18.5317C24.3143 18.6746 24.2228 18.8689 24.2343 19.1203C24.2457 19.366 24.3657 19.6517 24.5943 19.966L24.7371 20.166C24.9771 20.4917 25.2114 20.7032 25.44 20.7832C25.6743 20.8689 25.9085 20.8232 26.1485 20.646C26.3543 20.4975 26.4743 20.3375 26.5085 20.1717L26.1371 19.6632L25.5828 20.0632L25.1885 19.5203L26.5314 18.5489L27.5257 19.8917Z" fill="white"/>
<path d="M28.7029 18.989L30.2171 18.2005L30.5657 18.869L28.1829 20.1148L26.3029 16.509L27.1714 16.0576L28.7029 18.989Z" fill="white"/>
<path d="M31.8457 18.3832L30.9372 18.7432L29.4286 14.9718L30.3372 14.6118L31.8457 18.3832Z" fill="white"/>
<path d="M35.6227 17.2631L34.6798 17.5145L32.6341 15.446L33.2912 17.886L32.3427 18.1431L31.2855 14.2174L32.2341 13.9603L34.2855 16.0345L33.6284 13.5945L34.5712 13.3374L35.6227 17.2631Z" fill="white"/>
<path d="M38.4115 15.1948L36.8801 15.3719L36.9887 16.3376L38.7944 16.1319L38.8801 16.8805L36.0973 17.2005L35.6344 13.1662L38.423 12.8462L38.5087 13.5948L36.6973 13.8062L36.7944 14.6576L38.3258 14.4805L38.4115 15.1948Z" fill="white"/>
<path d="M42.8742 16.3028L41.5371 16.1771L41.2342 16.9085L40.1942 16.8114L42.0571 12.9028L42.9771 12.9885L44.0914 17.1771L43.0456 17.08L42.8742 16.3028ZM41.8399 15.4514L42.7085 15.5314L42.4056 14.0857L41.8399 15.4514Z" fill="white"/>
<path d="M47.5371 16.5544L48.6743 14.223L49.6114 14.4858L47.6857 18.1658L46.7086 17.8915L46.8114 15.5144L45.6743 17.6001L44.6971 17.3258L44.96 13.1772L45.8971 13.4401L45.6571 16.0172L46.88 13.7144L47.68 13.9372L47.5371 16.5544Z" fill="white"/>
<path d="M50.9828 18.8173L49.7714 18.2345L49.2285 18.8173L48.2856 18.3602L51.3999 15.3545L52.2285 15.7545L51.8056 20.0688L50.8571 19.6116L50.9828 18.8173ZM50.3142 17.6573L51.1028 18.0402L51.3199 16.5831L50.3142 17.6573Z" fill="white"/>
<path d="M53.9828 19.8461L53.5485 19.5432L52.7256 20.7204L51.9199 20.1604L54.2399 16.8232L55.5542 17.7375C55.9485 18.0118 56.1999 18.3147 56.2971 18.6461C56.3999 18.9775 56.3371 19.3032 56.1142 19.6232C55.9542 19.8575 55.7714 20.0175 55.5714 20.1032C55.3714 20.189 55.1371 20.2118 54.8742 20.1661L54.6342 21.9947L54.6114 22.029L53.7485 21.429L53.9828 19.8461ZM53.9771 18.9261L54.4856 19.2804C54.6399 19.389 54.7828 19.4232 54.9142 19.4004C55.0456 19.3718 55.1656 19.2861 55.2628 19.1432C55.3599 19.0004 55.3999 18.8575 55.3828 18.7204C55.3656 18.5832 55.2742 18.4632 55.1256 18.3604L54.6171 18.0061L53.9771 18.9261Z" fill="white"/>
<path d="M54.84 22.2399L57.6457 19.3027L58.5943 20.2056C58.8571 20.4513 59.0285 20.737 59.1257 21.0513C59.2228 21.3656 59.2228 21.6856 59.1371 22.0113C59.0457 22.337 58.8742 22.6342 58.6228 22.9027L58.4914 23.0399C58.2343 23.3084 57.9485 23.497 57.6285 23.5999C57.3085 23.7027 56.9885 23.7199 56.6685 23.6399C56.3485 23.5656 56.0571 23.4056 55.8 23.1599L54.84 22.2399ZM57.8343 20.5256L56.0685 22.3713L56.3143 22.6056C56.52 22.7999 56.7428 22.8742 56.9885 22.8342C57.2343 22.7942 57.4971 22.6284 57.7657 22.3427L57.8857 22.217C58.16 21.9313 58.3085 21.6684 58.3371 21.417C58.3657 21.1713 58.2743 20.9427 58.0685 20.7485L57.8343 20.5256Z" fill="white"/>
<path d="M59.5028 25.7027C59.6171 25.617 59.6743 25.5085 59.6743 25.377C59.6743 25.2456 59.6343 25.057 59.5428 24.7999C59.4514 24.5427 59.3943 24.3313 59.3543 24.1542C59.2343 23.577 59.3543 23.1542 59.7143 22.8799C59.8914 22.7427 60.0914 22.6742 60.3086 22.6685C60.5257 22.6685 60.7429 22.7313 60.9657 22.8627C61.1886 22.9942 61.3943 23.177 61.5771 23.417C61.7543 23.6456 61.8743 23.8856 61.9314 24.137C61.9886 24.3827 61.9828 24.617 61.9086 24.8342C61.8343 25.0513 61.6971 25.2399 61.5028 25.3885L60.9029 24.617C61.0343 24.5142 61.1028 24.3999 61.1143 24.2627C61.1257 24.1256 61.0743 23.9885 60.9714 23.8513C60.8628 23.7142 60.7486 23.6285 60.6286 23.5942C60.5028 23.5599 60.3943 23.5827 60.3028 23.6513C60.2228 23.7142 60.1828 23.817 60.1828 23.9599C60.1828 24.1027 60.2343 24.3085 60.3371 24.5885C60.44 24.8685 60.5028 25.1085 60.5314 25.3142C60.6 25.817 60.4571 26.2056 60.1086 26.4742C59.8286 26.6913 59.5257 26.7542 59.2 26.6685C58.8743 26.5827 58.5714 26.3542 58.2857 25.9827C58.0857 25.7199 57.9486 25.4513 57.88 25.1656C57.8114 24.8799 57.8171 24.6227 57.8971 24.3885C57.9771 24.1542 58.1257 23.9599 58.3371 23.7942L58.9371 24.5713C58.7657 24.7027 58.6743 24.8456 58.6571 24.9999C58.6457 25.1542 58.7143 25.3256 58.8686 25.5256C58.9657 25.6513 59.0743 25.7313 59.1886 25.7656C59.2971 25.8056 59.4057 25.7827 59.5028 25.7027Z" fill="white"/>
<circle cx="40" cy="65" r="2" fill="white"/>
<path d="M64.1081 32.7676L64.1264 32.3625C64.1778 31.235 63.4247 30.0808 62.7801 29.5996C62.7247 30.8156 63.2532 32.4905 64.1081 32.7676Z" fill="white"/>
<path d="M35.7511 64.8521C35.8562 63.9646 34.5454 62.8023 33.4094 62.3566C33.5791 63.1366 34.3197 64.2898 35.3728 64.7029L35.7511 64.8521Z" fill="white"/>
<path d="M35.7511 64.8521L35.3448 64.8229C34.2157 64.7435 33.0431 65.4635 32.5476 66.0932C33.7671 66.1795 35.4568 65.6955 35.7511 64.8521Z" fill="white"/>
<path d="M33.2568 64.2641C32.8779 65.0743 31.1477 65.3869 29.9437 65.1783C30.5002 64.6006 31.7397 64.0023 32.8551 64.1938L33.2568 64.2641Z" fill="white"/>
<path d="M31.1808 61.5469C32.2648 62.1035 33.4511 63.3915 33.2568 64.2641L32.8951 64.0778C31.8905 63.5618 31.2699 62.3406 31.1808 61.5469Z" fill="white"/>
<path d="M30.8357 63.4298C31.1174 62.5806 30.0682 61.1812 29.0459 60.5189C29.0545 61.3178 29.5471 62.5943 30.4951 63.2086L30.8357 63.4298Z" fill="white"/>
<path d="M30.8357 63.4298L30.4437 63.3206C29.3534 63.0172 28.0597 63.4903 27.4471 64.0092C28.6231 64.3361 30.3762 64.1989 30.8357 63.4298Z" fill="white"/>
<path d="M28.5105 62.3572C27.9757 63.0772 26.2179 63.0383 25.0808 62.5961C25.7425 62.1406 27.0779 61.8001 28.1322 62.2098L28.5105 62.3572Z" fill="white"/>
<path d="M27.0254 59.2823C27.9751 60.0435 28.8774 61.5412 28.5105 62.3572L28.1939 62.1035C27.3134 61.3972 26.9528 60.0778 27.0254 59.2823Z" fill="white"/>
<path d="M26.3071 61.0583C26.7551 60.2829 26.0094 58.7035 25.1419 57.8503C24.9888 58.6343 25.2139 59.9841 26.0179 60.7738L26.3071 61.0583Z" fill="white"/>
<path d="M26.3071 61.0583L25.9454 60.8743C24.9391 60.3601 23.5757 60.5658 22.8711 60.9532C23.9568 61.5075 25.7019 61.7212 26.3071 61.0583Z" fill="white"/>
<path d="M24.2465 59.5458C23.5774 60.1446 21.8631 59.7572 20.8385 59.0978C21.5791 58.7829 22.9557 58.7143 23.9048 59.3258L24.2465 59.5458Z" fill="white"/>
<path d="M23.4128 56.2378C24.1894 57.1732 24.7705 58.8189 24.2465 59.5458L23.9877 59.2343C23.2677 58.3669 23.1808 57.0023 23.4128 56.2378Z" fill="white"/>
<path d="M22.3505 57.8355C21.6242 58.3646 19.9579 57.8081 19.0054 57.0486C19.7734 56.8098 21.1505 56.8789 22.0328 57.5823L22.3505 57.8355Z" fill="white"/>
<path d="M22.3505 57.8355L22.1248 57.4995C21.4968 56.5652 21.5488 55.1983 21.8568 54.4601C22.5345 55.4686 22.9454 57.1641 22.3505 57.8355Z" fill="white"/>
<path d="M20.6374 55.9441C19.8614 56.3972 18.2602 55.6772 17.3899 54.8269C18.1785 54.6658 19.5414 54.8726 20.3477 55.6606L20.6374 55.9441Z" fill="white"/>
<path d="M20.4888 52.5366C21.0608 53.6075 21.2979 55.3355 20.6374 55.9441L20.4465 55.5869C19.9168 54.5949 20.1071 53.2401 20.4888 52.5366Z" fill="white"/>
<path d="M19.1254 53.8903C18.3071 54.2646 16.7877 53.3875 16.0082 52.4549C16.8088 52.3732 18.1437 52.7155 18.8659 53.5801L19.1254 53.8903Z" fill="white"/>
<path d="M19.3231 50.4846C19.7837 51.6075 19.8437 53.3509 19.1254 53.8903L18.9717 53.5166C18.5454 52.4755 18.8728 51.1475 19.3231 50.4846Z" fill="white"/>
<path d="M17.8294 51.6966L17.7151 51.3086C17.3968 50.2315 17.8562 48.9412 18.3722 48.3275C18.7162 49.4903 18.5991 51.2315 17.8294 51.6966Z" fill="white"/>
<path d="M17.6025 51.3606L17.8294 51.6966C16.9774 51.9863 15.5545 50.9618 14.8739 49.9561C15.6785 49.9555 16.9717 50.4286 17.6025 51.3606Z" fill="white"/>
<path d="M16.7631 49.3829C15.8859 49.5869 14.5745 48.4258 13.9991 47.3566C14.8002 47.4355 16.0385 48.0361 16.5717 49.0269L16.7631 49.3829Z" fill="white"/>
<path d="M16.7631 49.3829L16.6888 48.9863C16.4814 47.8818 17.0699 46.6446 17.6454 46.0858C17.8688 47.2772 17.5757 48.9972 16.7631 49.3829Z" fill="white"/>
<path d="M15.9368 46.9761L15.9025 46.5732C15.8082 45.4543 16.5191 44.2812 17.1488 43.7823C17.2505 44.9903 16.7842 46.6738 15.9368 46.9761Z" fill="white"/>
<path d="M15.7819 46.6018L15.9368 46.9761C15.0437 47.0909 13.8562 45.8046 13.3928 44.6835C14.1819 44.8418 15.3522 45.5629 15.7819 46.6018Z" fill="white"/>
<path d="M15.3591 44.4978L15.3659 44.0938C15.3854 42.9703 16.2122 41.8749 16.8888 41.4412C16.8677 42.6532 16.2334 44.2812 15.3591 44.4978Z" fill="white"/>
<path d="M15.2431 44.1103L15.3591 44.4978C14.4591 44.5229 13.4082 43.1241 13.0608 41.9618C13.8294 42.1989 14.9214 43.0338 15.2431 44.1103Z" fill="white"/>
<path d="M15.0362 41.9738C14.1379 41.9092 13.2351 40.4126 13.0071 39.2212C13.7477 39.5338 14.7488 40.4732 14.9602 41.5772L15.0362 41.9738Z" fill="white"/>
<path d="M16.8682 39.0863C16.7242 40.2898 15.9277 41.8463 15.0362 41.9738L15.0842 41.5721C15.2179 40.4566 16.1511 39.4498 16.8682 39.0863Z" fill="white"/>
<path d="M14.9711 39.4309C14.0837 39.2766 13.3374 37.6972 13.2322 36.4898C13.9368 36.8743 14.8379 37.9086 14.9357 39.0286L14.9711 39.4309Z" fill="white"/>
<path d="M17.0865 36.7406C16.8214 37.9241 15.8705 39.3926 14.9711 39.4309L15.0591 39.0366C15.3054 37.9395 16.3362 37.0303 17.0865 36.7406Z" fill="white"/>
<path d="M15.1637 36.8943C14.2974 36.6515 13.7145 35.0063 13.7328 33.7938C14.3951 34.2475 15.1859 35.3663 15.1699 36.4898L15.1637 36.8943Z" fill="white"/>
<path d="M17.5419 34.4286C17.1574 35.5795 16.0625 36.9463 15.1637 36.8943L15.2917 36.5103C15.6482 35.4441 16.7659 34.6418 17.5419 34.4286Z" fill="white"/>
<path d="M15.6134 34.3886L15.7797 34.0201C16.2419 32.9943 17.4357 32.3086 18.2288 32.1732C17.7299 33.2806 16.5025 34.5303 15.6134 34.3886Z" fill="white"/>
<path d="M15.6602 33.9881L15.6134 34.3886C14.7762 34.0612 14.3637 32.3658 14.5037 31.1618C15.1174 31.6789 15.7905 32.8721 15.6602 33.9881Z" fill="white"/>
<path d="M44.2894 64.8481C44.1848 63.9606 45.4968 62.7972 46.6334 62.3503C46.4631 63.1309 45.7208 64.284 44.6682 64.6983L44.2894 64.8481Z" fill="white"/>
<path d="M44.2894 64.8481L44.6957 64.8183C45.8248 64.7378 46.9974 65.4572 47.4916 66.0863C46.2722 66.1743 44.5825 65.6921 44.2894 64.8481Z" fill="white"/>
<path d="M46.7836 64.2583L47.1454 64.0715C48.1511 63.5543 48.7716 62.3332 48.8625 61.5389C47.7774 62.0972 46.5899 63.3858 46.7836 64.2583Z" fill="white"/>
<path d="M46.7836 64.2583L47.1848 64.1881C48.3002 63.9955 49.5396 64.5932 50.0956 65.1698C48.8917 65.3795 47.1614 65.0686 46.7836 64.2583Z" fill="white"/>
<path d="M49.2059 63.4223C48.9248 62.5738 49.9751 61.1732 50.9985 60.5098C50.9894 61.3086 50.4951 62.5858 49.5471 63.2006L49.2059 63.4223Z" fill="white"/>
<path d="M49.2059 63.4223L49.5979 63.3126C50.6882 63.0086 51.9819 63.4801 52.5939 63.9989C51.4174 64.3263 49.6642 64.1909 49.2059 63.4223Z" fill="white"/>
<path d="M51.5317 62.3481C52.0659 63.0675 53.8237 63.0275 54.9608 62.5841C54.2996 62.1292 52.9642 61.7898 51.9105 62.2001L51.5317 62.3481Z" fill="white"/>
<path d="M51.5317 62.3481C51.1654 61.5321 52.0688 60.0343 53.0196 59.2721C53.0911 60.0675 52.7294 61.3875 51.8488 62.0943L51.5317 62.3481Z" fill="white"/>
<path d="M53.7362 61.0475C53.2894 60.2726 54.0362 58.6921 54.9042 57.8389C55.0568 58.6229 54.8305 59.9726 54.0259 60.7629L53.7362 61.0475Z" fill="white"/>
<path d="M53.7362 61.0475L54.0985 60.8629C55.1054 60.3481 56.4682 60.5526 57.1728 60.9395C56.0859 61.4943 54.3408 61.7092 53.7362 61.0475Z" fill="white"/>
<path d="M55.7979 59.5332C56.4665 60.1315 58.1814 59.7429 59.2065 59.0823C58.4665 58.7681 57.0899 58.7006 56.1396 59.3132L55.7979 59.5332Z" fill="white"/>
<path d="M55.7979 59.5332L56.0574 59.2218C56.7774 58.3538 56.8659 56.9892 56.6345 56.2246C55.8574 57.1601 55.2751 58.8063 55.7979 59.5332Z" fill="white"/>
<path d="M57.6962 57.8206L57.9219 57.4846C58.5505 56.5498 58.4996 55.1829 58.1922 54.4446C57.5139 55.4543 57.1014 57.1503 57.6962 57.8206Z" fill="white"/>
<path d="M57.6962 57.8206L58.0134 57.5675C58.8962 56.8635 60.2728 56.7926 61.0414 57.0309C60.0888 57.7915 58.4219 58.3492 57.6962 57.8206Z" fill="white"/>
<path d="M59.4105 55.9281C60.1865 56.3806 61.7882 55.6589 62.6596 54.8086C61.8711 54.6481 60.5082 54.8561 59.7014 55.6446L59.4105 55.9281Z" fill="white"/>
<path d="M59.4105 55.9281C58.7511 55.3201 58.9894 53.5915 59.5619 52.5201C59.9431 53.2229 60.1328 54.5778 59.6019 55.5703L59.4105 55.9281Z" fill="white"/>
<path d="M60.9242 53.8732C61.7419 54.2463 63.2625 53.3686 64.0431 52.4349C63.2425 52.3538 61.9076 52.6972 61.1848 53.5623L60.9242 53.8732Z" fill="white"/>
<path d="M60.9242 53.8732L61.0779 53.4995C61.5054 52.4583 61.1796 51.1298 60.7288 50.4675C60.2676 51.5909 60.2059 53.3343 60.9242 53.8732Z" fill="white"/>
<path d="M62.2219 51.6783C63.0739 51.9675 64.4979 50.9423 65.1796 49.9355C64.3745 49.9349 63.0814 50.4092 62.4494 51.3423L62.2219 51.6783Z" fill="white"/>
<path d="M62.2219 51.6783C61.4528 51.2143 61.3374 49.4732 61.6819 48.3092C62.1974 48.9229 62.6562 50.2126 62.3368 51.2898L62.2219 51.6783Z" fill="white"/>
<path d="M63.2899 49.3641C64.1671 49.5675 65.4796 48.4052 66.0556 47.3355C65.2551 47.4149 64.0156 48.0166 63.4819 49.0081L63.2899 49.3641Z" fill="white"/>
<path d="M63.2899 49.3641C62.4779 48.9795 62.1859 47.2595 62.4111 46.0675C62.9865 46.6258 63.5739 47.8629 63.3654 48.9675L63.2899 49.3641Z" fill="white"/>
<path d="M64.1185 46.9566C65.0116 47.0703 66.1996 45.7829 66.6642 44.6618C65.8751 44.8206 64.7036 45.5429 64.2734 46.5818L64.1185 46.9566Z" fill="white"/>
<path d="M64.1185 46.9566C63.2711 46.6549 62.8059 44.9721 62.9094 43.7635C63.5379 44.2618 64.2482 45.4343 64.1528 46.5532L64.1185 46.9566Z" fill="white"/>
<path d="M64.6985 44.4772C65.5985 44.5018 66.6505 43.1023 66.9985 41.9395C66.2294 42.1772 65.1374 43.0126 64.8145 44.0898L64.6985 44.4772Z" fill="white"/>
<path d="M64.6985 44.4772C63.8248 44.2618 63.1917 42.6343 63.1711 41.4223C63.8476 41.8549 64.6734 42.9503 64.6916 44.0732L64.6985 44.4772Z" fill="white"/>
<path d="M65.0236 41.9532C65.9219 41.8881 66.8259 40.3903 67.0551 39.1995C66.3145 39.5126 65.3122 40.4526 65.0997 41.5566L65.0236 41.9532Z" fill="white"/>
<path d="M65.0236 41.9532C64.1322 41.8263 63.3368 40.2703 63.1939 39.0669C63.9105 39.4298 64.8431 40.4361 64.9756 41.5515L65.0236 41.9532Z" fill="white"/>
<path d="M65.0911 39.4103L65.0025 39.0161C64.7574 37.9195 63.7271 37.0109 62.9774 36.7218C63.2419 37.9046 64.1916 39.3726 65.0911 39.4103Z" fill="white"/>
<path d="M65.0911 39.4103L65.1265 39.0081C65.2254 37.8881 66.1271 36.8532 66.8322 36.4681C66.7259 37.6755 65.9779 39.2555 65.0911 39.4103Z" fill="white"/>
<path d="M64.9002 36.8738C65.7671 36.6303 66.3511 34.9846 66.3345 33.7721C65.6716 34.2258 64.8796 35.3463 64.8951 36.4692L64.9002 36.8738Z" fill="white"/>
<path d="M64.9002 36.8738C64.0014 36.9263 62.9076 35.5606 62.5242 34.4103C63.3002 34.6229 64.4174 35.4241 64.7722 36.4903L64.9002 36.8738Z" fill="white"/>
<path d="M64.4522 34.3686C65.2899 34.0401 65.7042 32.3446 65.5648 31.1406C64.9511 31.6583 64.2768 32.8521 64.4059 33.9681L64.4522 34.3686Z" fill="white"/>
<path d="M64.4522 34.3686C63.5636 34.5115 62.3368 33.2618 61.8379 32.1555C62.6316 32.2903 63.8248 32.9749 64.2859 34.0001L64.4522 34.3686Z" fill="white"/>
<path d="M15.9716 32.3625L15.9899 32.7676C16.8448 32.4905 17.3733 30.8156 17.3179 29.5996C16.6733 30.0808 15.9202 31.235 15.9716 32.3625Z" fill="white"/>
</g>
<defs>
<clipPath id="clip0_2451_6543">
<rect width="80" height="80" fill="white"/>
</clipPath>
</defs>
</svg>
