<svg width="80" height="80" viewBox="0 0 80 80" fill="none" xmlns="http://www.w3.org/2000/svg">
<rect width="80" height="80" rx="40" fill="url(#paint0_radial_2115_4478)"/>
<rect width="80" height="80" rx="40" fill="url(#paint1_angular_2115_4478)" style="mix-blend-mode:difference"/>
<rect width="80" height="80" rx="40" fill="url(#paint2_angular_2115_4478)" style="mix-blend-mode:screen"/>
<rect width="80" height="80" rx="40" fill="#E5A859" style="mix-blend-mode:color"/>
<circle cx="40" cy="40" r="37" fill="white"/>
<path d="M39.3407 11L43.0373 22.459H55L45.322 29.541L49.0187 41L39.3407 33.918V30.2584H35.6227V25.9787H39.3407V22.234H35.7166L39.3407 11Z" fill="#272727"/>
<path d="M31.9048 25.9787H35.6227V22.234H31.9048V25.9787Z" fill="#272727"/>
<path d="M31.9048 25.9787V29.1885H28.7179V25.9787H31.9048Z" fill="#272727"/>
<path d="M35.6227 30.2584V34.003H39.2244L29.6627 41L33.1279 30.2584H35.6227Z" fill="#272727"/>
<path d="M25 22.234H27.6557V24.9088H25V22.234Z" fill="#272727"/>
<path d="M18.4249 49.58L17.7149 52H16.1149L14.2549 45H15.7549L16.7849 48.93L16.9849 49.86H17.0349L17.2949 48.93L17.9149 46.88H19.5349L20.1049 48.93L20.3749 49.86H20.4249L20.6249 48.93L21.6649 45H23.1549L21.2949 52H19.6949L18.9849 49.58L18.7249 48.65H18.6749L18.4249 49.58ZM26.0861 46.84C27.8161 46.84 28.8161 48.01 28.8161 49.46C28.8161 50.9 27.8161 52.09 26.0861 52.09C24.3561 52.09 23.3561 50.9 23.3561 49.46C23.3561 48.01 24.3561 46.84 26.0861 46.84ZM26.0861 47.96C25.1861 47.96 24.7561 48.65 24.7561 49.46C24.7561 50.28 25.1861 50.97 26.0861 50.97C26.9861 50.97 27.4161 50.28 27.4161 49.46C27.4161 48.65 26.9861 47.96 26.0861 47.96ZM31.1658 52H29.8158V46.93H31.0758V47.66H31.1258C31.4458 47.17 31.9658 46.84 32.6958 46.84C32.8258 46.84 32.9358 46.85 33.0558 46.87L32.8458 48.15C32.6958 48.07 32.4958 48.04 32.3458 48.04C31.6958 48.04 31.1658 48.59 31.1658 49.31V52ZM34.9061 45V48.76H35.3061L36.9561 46.93H38.5361L37.3361 48.25L36.4261 49.16V49.21L37.3361 50.25L38.7161 52H37.0061L35.2561 49.73H34.9061V52H33.5561V45H34.9061ZM43.135 48.11L41.935 48.39C41.775 47.96 41.455 47.84 41.075 47.83C40.775 47.82 40.215 47.88 40.215 48.23C40.215 48.47 40.555 48.52 40.735 48.58L41.975 48.92C42.765 49.14 43.325 49.6 43.325 50.44C43.325 51.7 42.105 52.09 41.025 52.09C39.475 52.09 38.875 51.57 38.595 50.56L39.805 50.36C39.965 50.88 40.485 51.1 40.955 51.1C41.345 51.09 41.995 51 41.995 50.59C41.995 50.34 41.775 50.29 41.595 50.23C40.955 50.03 40.285 49.9 39.705 49.66C39.145 49.43 38.885 48.9 38.885 48.33C38.885 47.17 40.015 46.84 41.035 46.84C41.965 46.84 42.865 47.13 43.135 48.11ZM47.1429 52.09C46.4129 52.09 45.9029 51.88 45.5029 51.51H45.4529V54.12H44.1029V46.93H45.3629V47.52H45.4129C45.8029 47.1 46.3429 46.84 47.1429 46.84C48.6429 46.84 49.5029 48.02 49.5029 49.47C49.5029 50.91 48.6429 52.09 47.1429 52.09ZM46.7729 47.96C45.8929 47.96 45.4529 48.6 45.4529 49.47C45.4529 50.31 45.8729 50.97 46.7729 50.97C47.6829 50.97 48.1029 50.31 48.1029 49.47C48.1029 48.63 47.6829 47.96 46.7729 47.96ZM54.9394 48.67V50.07C54.9394 51.09 54.9894 51.67 55.2294 52H53.8594C53.7694 51.81 53.6994 51.56 53.6794 51.28H53.6294C53.3294 51.85 52.6394 52.09 51.8394 52.09C50.8894 52.09 50.1994 51.62 50.1994 50.61C50.1994 49.45 51.0594 49.07 52.0894 48.93C52.7394 48.84 53.2494 48.84 53.5794 48.72C53.5294 48.07 53.0994 47.83 52.5694 47.83C52.1594 47.83 51.8294 47.99 51.7094 48.41L50.4794 48.04C50.7494 47.23 51.5594 46.84 52.6794 46.84C54.0694 46.84 54.9394 47.45 54.9394 48.67ZM52.3294 51.13C53.1194 51.13 53.5894 50.57 53.5894 49.78V49.49C53.3594 49.59 52.9494 49.65 52.4694 49.73C52.0494 49.79 51.5594 49.91 51.5594 50.45C51.5594 50.93 51.9494 51.13 52.3294 51.13ZM59.6668 50.18L60.8168 50.65C60.4568 51.51 59.6268 52.09 58.4968 52.09C56.8268 52.09 55.8268 50.92 55.8268 49.46C55.8268 48.01 56.8268 46.84 58.4968 46.84C59.6068 46.84 60.3968 47.4 60.7868 48.23L59.6368 48.7C59.4268 48.24 59.0468 47.96 58.4968 47.96C57.6768 47.96 57.2268 48.65 57.2268 49.46C57.2268 50.28 57.6768 50.97 58.4968 50.97C59.0668 50.97 59.4668 50.68 59.6668 50.18ZM64.9397 50.37L66.0897 50.83C65.7097 51.59 64.8497 52.09 63.7997 52.09C62.1197 52.09 61.1197 50.92 61.1197 49.47C61.1197 48.02 62.1197 46.84 63.7997 46.84C65.3897 46.84 66.4197 48.04 66.3397 49.74H62.5297C62.6097 50.49 63.0397 51 63.7997 51C64.2897 51 64.7097 50.78 64.9397 50.37ZM63.7997 47.88C63.1497 47.88 62.7297 48.28 62.5897 48.87H64.9297C64.8197 48.3 64.4097 47.88 63.7997 47.88ZM27.2384 55L29.9384 62H28.3884L27.8284 60.52H24.8584L24.3084 62H22.8584L25.5584 55H27.2384ZM26.3884 56.39H26.3384L26.0584 57.33L25.3084 59.32H27.3684L26.6284 57.33L26.3884 56.39ZM34.3085 62L33.8585 60.52L33.6285 59.59H33.5785L33.3585 60.52L32.9085 62H31.4485L29.9385 56.93H31.3385L32.0185 59.41L32.2685 60.34H32.3185L32.5385 59.41L32.8885 58.23H34.3285L34.6785 59.41L34.8985 60.35H34.9485L35.1885 59.41L35.8785 56.93H37.2785L35.7685 62H34.3085ZM42.3222 58.67V60.07C42.3222 61.09 42.3722 61.67 42.6122 62H41.2422C41.1522 61.81 41.0822 61.56 41.0622 61.28H41.0122C40.7122 61.85 40.0222 62.09 39.2222 62.09C38.2722 62.09 37.5822 61.62 37.5822 60.61C37.5822 59.45 38.4422 59.07 39.4722 58.93C40.1222 58.84 40.6322 58.84 40.9622 58.72C40.9122 58.07 40.4822 57.83 39.9522 57.83C39.5422 57.83 39.2122 57.99 39.0922 58.41L37.8622 58.04C38.1322 57.23 38.9422 56.84 40.0622 56.84C41.4522 56.84 42.3222 57.45 42.3222 58.67ZM39.7122 61.13C40.5022 61.13 40.9722 60.57 40.9722 59.78V59.49C40.7422 59.59 40.3322 59.65 39.8522 59.73C39.4322 59.79 38.9422 59.91 38.9422 60.45C38.9422 60.93 39.3322 61.13 39.7122 61.13ZM44.9646 62H43.6146V56.93H44.8746V57.66H44.9246C45.2446 57.17 45.7646 56.84 46.4946 56.84C46.6246 56.84 46.7346 56.85 46.8546 56.87L46.6446 58.15C46.4946 58.07 46.2946 58.04 46.1446 58.04C45.4946 58.04 44.9646 58.59 44.9646 59.31V62ZM49.4172 56.84C50.1472 56.84 50.6572 57.05 51.0572 57.42H51.1072V55H52.4572V62H51.1972V61.41H51.1472C50.7472 61.84 50.2072 62.09 49.4172 62.09C47.9172 62.09 47.0572 60.91 47.0572 59.46C47.0572 58.02 47.9172 56.84 49.4172 56.84ZM49.7872 60.97C50.6672 60.97 51.1072 60.33 51.1072 59.46C51.1072 58.62 50.6872 57.96 49.7872 57.96C48.8772 57.96 48.4572 58.62 48.4572 59.46C48.4572 60.3 48.8772 60.97 49.7872 60.97ZM57.7737 58.11L56.5737 58.39C56.4137 57.96 56.0937 57.84 55.7137 57.83C55.4137 57.82 54.8537 57.88 54.8537 58.23C54.8537 58.47 55.1937 58.52 55.3737 58.58L56.6137 58.92C57.4037 59.14 57.9637 59.6 57.9637 60.44C57.9637 61.7 56.7437 62.09 55.6637 62.09C54.1137 62.09 53.5137 61.57 53.2337 60.56L54.4437 60.36C54.6037 60.88 55.1237 61.1 55.5937 61.1C55.9837 61.09 56.6337 61 56.6337 60.59C56.6337 60.34 56.4137 60.29 56.2337 60.23C55.5937 60.03 54.9237 59.9 54.3437 59.66C53.7837 59.43 53.5237 58.9 53.5237 58.33C53.5237 57.17 54.6537 56.84 55.6737 56.84C56.6037 56.84 57.5037 57.13 57.7737 58.11Z" fill="#272727"/>
<defs>
<radialGradient id="paint0_radial_2115_4478" cx="0" cy="0" r="1" gradientUnits="userSpaceOnUse" gradientTransform="translate(8.08411 22.5932) rotate(29.6941) scale(73.4811 73.9872)">
<stop offset="0.0833333" stop-color="#7E6A7E"/>
<stop offset="0.375" stop-color="#D5D5D5"/>
<stop offset="0.634538" stop-color="#75888A"/>
<stop offset="1" stop-color="#896753"/>
</radialGradient>
<radialGradient id="paint1_angular_2115_4478" cx="0" cy="0" r="1" gradientUnits="userSpaceOnUse" gradientTransform="translate(40 40) rotate(90) scale(40)">
<stop offset="0.0833333" stop-color="white"/>
<stop offset="0.265625"/>
<stop offset="0.46875" stop-color="white"/>
<stop offset="0.635417"/>
<stop offset="0.791667" stop-color="white"/>
<stop offset="1"/>
</radialGradient>
<radialGradient id="paint2_angular_2115_4478" cx="0" cy="0" r="1" gradientUnits="userSpaceOnUse" gradientTransform="translate(40 40) rotate(90) scale(40)">
<stop offset="0.046875" stop-color="white" stop-opacity="0.72"/>
<stop offset="0.244792"/>
<stop offset="0.421875" stop-color="white" stop-opacity="0.72"/>
<stop offset="0.625"/>
<stop offset="0.802083" stop-color="white" stop-opacity="0.72"/>
<stop offset="1"/>
</radialGradient>
</defs>
</svg>
