<svg width="80" height="80" viewBox="0 0 80 80" fill="none" xmlns="http://www.w3.org/2000/svg">
<g clip-path="url(#clip0_2451_6543)">
<path d="M77.7487 34.4572L75.2401 31.7544C73.6001 29.9886 72.8344 27.5315 73.1601 25.0972L73.663 21.3772C74.2401 17.1201 71.4744 13.1544 67.4058 12.4115L63.8515 11.7601C61.5258 11.3372 59.5201 9.81721 58.4115 7.64578L56.7201 4.32578C54.783 0.531494 50.3087 -0.988506 46.6001 0.902923L43.3601 2.55435C41.2401 3.63435 38.7601 3.63435 36.6344 2.55435L33.3944 0.902923C29.6858 -0.982792 25.2058 0.531494 23.2687 4.32578L21.5772 7.64578C20.4687 9.81721 18.463 11.3372 16.1372 11.7601L12.583 12.4115C8.51438 13.1544 5.74867 17.1201 6.32581 21.3772L6.82867 25.0972C7.1601 27.5315 6.39438 29.9886 4.74867 31.7544L2.25153 34.4572C-0.617045 37.5486 -0.617045 42.4515 2.25153 45.5372L4.7601 48.2401C6.4001 50.0058 7.16581 52.4629 6.8401 54.8972L6.33724 58.6172C5.7601 62.8744 8.52581 66.8401 12.5944 67.5829L16.1487 68.2344C18.4744 68.6572 20.4801 70.1772 21.5887 72.3486L23.2801 75.6686C25.2172 79.4629 29.6915 80.9829 33.4058 79.0915L36.6458 77.4401C38.7658 76.3601 41.2458 76.3601 43.3715 77.4401L46.6115 79.0915C50.3201 80.9772 54.8001 79.4629 56.7315 75.6686L58.423 72.3486C59.5315 70.1772 61.5372 68.6572 63.863 68.2344L67.4172 67.5829C71.4858 66.8401 74.2515 62.8744 73.6744 58.6172L73.1715 54.8972C72.8401 52.4629 73.6058 50.0058 75.2515 48.2401L77.7601 45.5372C80.6172 42.4515 80.6172 37.5486 77.7487 34.4572ZM12.663 63.5258C11.1601 63.5258 9.94296 62.2572 9.94296 60.6915C9.94296 59.1258 11.1601 57.8572 12.663 57.8572C14.1658 57.8572 15.383 59.1258 15.383 60.6915C15.383 62.2572 14.1658 63.5258 12.663 63.5258Z" fill="url(#paint0_angular_2451_6543)"/>
<path d="M77.7487 34.4572L75.2401 31.7544C73.6001 29.9886 72.8344 27.5315 73.1601 25.0972L73.663 21.3772C74.2401 17.1201 71.4744 13.1544 67.4058 12.4115L63.8515 11.7601C61.5258 11.3372 59.5201 9.81721 58.4115 7.64578L56.7201 4.32578C54.783 0.531494 50.3087 -0.988506 46.6001 0.902923L43.3601 2.55435C41.2401 3.63435 38.7601 3.63435 36.6344 2.55435L33.3944 0.902923C29.6858 -0.982792 25.2058 0.531494 23.2687 4.32578L21.5772 7.64578C20.4687 9.81721 18.463 11.3372 16.1372 11.7601L12.583 12.4115C8.51438 13.1544 5.74867 17.1201 6.32581 21.3772L6.82867 25.0972C7.1601 27.5315 6.39438 29.9886 4.74867 31.7544L2.25153 34.4572C-0.617045 37.5486 -0.617045 42.4515 2.25153 45.5372L4.7601 48.2401C6.4001 50.0058 7.16581 52.4629 6.8401 54.8972L6.33724 58.6172C5.7601 62.8744 8.52581 66.8401 12.5944 67.5829L16.1487 68.2344C18.4744 68.6572 20.4801 70.1772 21.5887 72.3486L23.2801 75.6686C25.2172 79.4629 29.6915 80.9829 33.4058 79.0915L36.6458 77.4401C38.7658 76.3601 41.2458 76.3601 43.3715 77.4401L46.6115 79.0915C50.3201 80.9772 54.8001 79.4629 56.7315 75.6686L58.423 72.3486C59.5315 70.1772 61.5372 68.6572 63.863 68.2344L67.4172 67.5829C71.4858 66.8401 74.2515 62.8744 73.6744 58.6172L73.1715 54.8972C72.8401 52.4629 73.6058 50.0058 75.2515 48.2401L77.7601 45.5372C80.6172 42.4515 80.6172 37.5486 77.7487 34.4572ZM12.663 63.5258C11.1601 63.5258 9.94296 62.2572 9.94296 60.6915C9.94296 59.1258 11.1601 57.8572 12.663 57.8572C14.1658 57.8572 15.383 59.1258 15.383 60.6915C15.383 62.2572 14.1658 63.5258 12.663 63.5258Z" fill="white" style="mix-blend-mode:color"/>
<path d="M77.7487 34.4572L75.2401 31.7544C73.6001 29.9886 72.8344 27.5315 73.1601 25.0972L73.663 21.3772C74.2401 17.1201 71.4744 13.1544 67.4058 12.4115L63.8515 11.7601C61.5258 11.3372 59.5201 9.81721 58.4115 7.64578L56.7201 4.32578C54.783 0.531494 50.3087 -0.988506 46.6001 0.902923L43.3601 2.55435C41.2401 3.63435 38.7601 3.63435 36.6344 2.55435L33.3944 0.902923C29.6858 -0.982792 25.2058 0.531494 23.2687 4.32578L21.5772 7.64578C20.4687 9.81721 18.463 11.3372 16.1372 11.7601L12.583 12.4115C8.51438 13.1544 5.74867 17.1201 6.32581 21.3772L6.82867 25.0972C7.1601 27.5315 6.39438 29.9886 4.74867 31.7544L2.25153 34.4572C-0.617045 37.5486 -0.617045 42.4515 2.25153 45.5372L4.7601 48.2401C6.4001 50.0058 7.16581 52.4629 6.8401 54.8972L6.33724 58.6172C5.7601 62.8744 8.52581 66.8401 12.5944 67.5829L16.1487 68.2344C18.4744 68.6572 20.4801 70.1772 21.5887 72.3486L23.2801 75.6686C25.2172 79.4629 29.6915 80.9829 33.4058 79.0915L36.6458 77.4401C38.7658 76.3601 41.2458 76.3601 43.3715 77.4401L46.6115 79.0915C50.3201 80.9772 54.8001 79.4629 56.7315 75.6686L58.423 72.3486C59.5315 70.1772 61.5372 68.6572 63.863 68.2344L67.4172 67.5829C71.4858 66.8401 74.2515 62.8744 73.6744 58.6172L73.1715 54.8972C72.8401 52.4629 73.6058 50.0058 75.2515 48.2401L77.7601 45.5372C80.6172 42.4515 80.6172 37.5486 77.7487 34.4572ZM12.663 63.5258C11.1601 63.5258 9.94296 62.2572 9.94296 60.6915C9.94296 59.1258 11.1601 57.8572 12.663 57.8572C14.1658 57.8572 15.383 59.1258 15.383 60.6915C15.383 62.2572 14.1658 63.5258 12.663 63.5258Z" fill="black" fill-opacity="0.1"/>
<path d="M27.6001 41.4799C27.6001 41.2227 27.5087 41.0228 27.3258 40.8799C27.143 40.737 26.823 40.5885 26.3601 40.4342C25.8972 40.2799 25.5258 40.1313 25.2287 39.9885C24.2744 39.5256 23.8001 38.8856 23.8001 38.0799C23.8001 37.6742 23.9201 37.3199 24.1544 37.0113C24.3887 36.7027 24.7258 36.4627 25.1601 36.2913C25.5944 36.1199 26.0801 36.0342 26.623 36.0342C27.1487 36.0342 27.623 36.1256 28.0401 36.3142C28.4572 36.5027 28.783 36.7656 29.0172 37.1142C29.2515 37.457 29.3658 37.8513 29.3658 38.297H27.6001C27.6001 37.9999 27.5087 37.7713 27.3258 37.6056C27.143 37.4399 26.8972 37.3599 26.583 37.3599C26.2687 37.3599 26.0172 37.4285 25.8344 37.5656C25.6515 37.7027 25.5601 37.8799 25.5601 38.0913C25.5601 38.2799 25.663 38.4456 25.863 38.5999C26.063 38.7542 26.4172 38.9085 26.9258 39.0685C27.4344 39.2285 27.8515 39.4056 28.1772 39.5885C28.9715 40.0399 29.3658 40.6685 29.3658 41.4627C29.3658 42.097 29.1258 42.5999 28.6401 42.9599C28.1544 43.3256 27.4915 43.5027 26.6458 43.5027C26.0515 43.5027 25.5144 43.3999 25.0287 43.1828C24.5487 42.9713 24.183 42.6799 23.9372 42.3142C23.6915 41.9485 23.5715 41.5199 23.5715 41.0399H25.3487C25.3487 41.4285 25.4515 41.7199 25.6515 41.9028C25.8572 42.0856 26.183 42.1828 26.6401 42.1828C26.9315 42.1828 27.1658 42.1199 27.3315 41.9942C27.5144 41.8799 27.6001 41.7027 27.6001 41.4799Z" fill="white"/>
<path d="M32.1657 43.4113H30.4V36.1313H32.1657V43.4113Z" fill="white"/>
<path d="M35.1657 42.0628H38.2457V43.4113H33.3943V36.1313H35.1657V42.0628Z" fill="white"/>
<path d="M40.8057 41.4342L42.2685 36.1313H44.2457L41.7714 43.4113H39.8342L37.3828 36.1313H39.3428L40.8057 41.4342Z" fill="white"/>
<path d="M49.3315 40.3256H46.5486V42.0685H49.8344V43.4171H44.7772V36.1313H49.8458V37.4856H46.5486V39.0228H49.3315V40.3256Z" fill="white"/>
<path d="M53.2857 40.8399H52.3257V43.4171H50.5543V36.1313H53.4457C54.3143 36.1313 55 36.3199 55.4857 36.7085C55.9772 37.0913 56.2229 37.6342 56.2229 38.3313C56.2229 38.8399 56.12 39.2571 55.9143 39.5885C55.7086 39.9199 55.3829 40.1885 54.9429 40.3999L56.4743 43.3371V43.4113H54.5772L53.2857 40.8399ZM52.3257 39.4856H53.4457C53.7829 39.4856 54.0343 39.3999 54.2057 39.2228C54.3772 39.0456 54.4629 38.7999 54.4629 38.4856C54.4629 38.1713 54.3772 37.9256 54.2057 37.7485C54.0343 37.5713 53.7829 37.4799 53.4515 37.4799H52.3315V39.4856H52.3257Z" fill="white"/>
<path d="M19.8513 22.846L19.1199 23.8231L21.7713 25.8002L21.1827 26.5888L18.5313 24.6117L17.817 25.5717L17.2113 25.1202L19.2399 22.3945L19.8513 22.846Z" fill="white"/>
<path d="M23.5545 22.7037L22.6059 23.6579L22.9773 24.3608L22.2402 25.1037L20.4059 21.1837L21.0573 20.5322L25.0002 22.3322L24.2573 23.0808L23.5545 22.7037ZM22.2345 22.9551L22.8516 22.3379L21.543 21.6579L22.2345 22.9551Z" fill="white"/>
<path d="M27.5257 19.8917C27.5028 20.1146 27.4 20.3546 27.2285 20.606C27.0514 20.8575 26.8228 21.086 26.5428 21.2917C26.1143 21.606 25.6685 21.7203 25.2228 21.646C24.7714 21.5717 24.3714 21.3032 24.0114 20.846L23.8 20.5603C23.5657 20.2346 23.4171 19.9089 23.36 19.5889C23.2971 19.2632 23.3314 18.9603 23.4457 18.6746C23.5657 18.3889 23.7657 18.1489 24.0457 17.9432C24.4571 17.646 24.84 17.5089 25.2057 17.5317C25.5657 17.5546 25.9028 17.7375 26.2114 18.086L25.4457 18.6403C25.2857 18.4746 25.1314 18.3889 24.9828 18.3717C24.8343 18.3603 24.68 18.4117 24.5143 18.5317C24.3143 18.6746 24.2228 18.8689 24.2343 19.1203C24.2457 19.366 24.3657 19.6517 24.5943 19.966L24.7371 20.166C24.9771 20.4917 25.2114 20.7032 25.44 20.7832C25.6743 20.8689 25.9085 20.8232 26.1485 20.646C26.3543 20.4975 26.4743 20.3375 26.5085 20.1717L26.1371 19.6632L25.5828 20.0632L25.1885 19.5203L26.5314 18.5489L27.5257 19.8917Z" fill="white"/>
<path d="M28.7027 18.989L30.217 18.2005L30.5656 18.869L28.1827 20.1148L26.3027 16.509L27.1713 16.0576L28.7027 18.989Z" fill="white"/>
<path d="M31.8456 18.3832L30.937 18.7432L29.4285 14.9718L30.337 14.6118L31.8456 18.3832Z" fill="white"/>
<path d="M35.6227 17.2626L34.6798 17.5141L32.6341 15.4455L33.2912 17.8855L32.3427 18.1426L31.2855 14.2169L32.2341 13.9598L34.2855 16.0341L33.6284 13.5941L34.5712 13.3369L35.6227 17.2626Z" fill="white"/>
<path d="M38.4114 15.1948L36.88 15.3719L36.9886 16.3376L38.7943 16.1319L38.88 16.8805L36.0971 17.2005L35.6343 13.1662L38.4228 12.8462L38.5086 13.5948L36.6971 13.8062L36.7943 14.6576L38.3257 14.4805L38.4114 15.1948Z" fill="white"/>
<path d="M42.8742 16.3028L41.5371 16.1771L41.2342 16.9085L40.1942 16.8114L42.0571 12.9028L42.9771 12.9885L44.0914 17.1771L43.0456 17.08L42.8742 16.3028ZM41.8399 15.4514L42.7085 15.5314L42.4056 14.0857L41.8399 15.4514Z" fill="white"/>
<path d="M47.537 16.5544L48.6742 14.223L49.6113 14.4858L47.6856 18.1658L46.7084 17.8915L46.8113 15.5144L45.6742 17.6001L44.697 17.3258L44.9599 13.1772L45.897 13.4401L45.657 16.0172L46.8799 13.7144L47.6799 13.9372L47.537 16.5544Z" fill="white"/>
<path d="M50.9827 18.8173L49.7712 18.2345L49.2284 18.8173L48.2855 18.3602L51.3998 15.3545L52.2284 15.7545L51.8055 20.0688L50.857 19.6116L50.9827 18.8173ZM50.3141 17.6573L51.1027 18.0402L51.3198 16.5831L50.3141 17.6573Z" fill="white"/>
<path d="M53.9828 19.8461L53.5485 19.5432L52.7256 20.7204L51.9199 20.1604L54.2399 16.8232L55.5542 17.7375C55.9485 18.0118 56.1999 18.3147 56.2971 18.6461C56.3999 18.9775 56.3371 19.3032 56.1142 19.6232C55.9542 19.8575 55.7714 20.0175 55.5714 20.1032C55.3714 20.189 55.1371 20.2118 54.8742 20.1661L54.6342 21.9947L54.6114 22.029L53.7485 21.429L53.9828 19.8461ZM53.9771 18.9261L54.4856 19.2804C54.6399 19.389 54.7828 19.4232 54.9142 19.4004C55.0456 19.3718 55.1656 19.2861 55.2628 19.1432C55.3599 19.0004 55.3999 18.8575 55.3828 18.7204C55.3656 18.5832 55.2742 18.4632 55.1256 18.3604L54.6171 18.0061L53.9771 18.9261Z" fill="white"/>
<path d="M54.84 22.2399L57.6457 19.3027L58.5943 20.2056C58.8571 20.4513 59.0285 20.737 59.1257 21.0513C59.2228 21.3656 59.2228 21.6856 59.1371 22.0113C59.0457 22.337 58.8742 22.6342 58.6228 22.9027L58.4914 23.0399C58.2343 23.3084 57.9485 23.497 57.6285 23.5999C57.3085 23.7027 56.9885 23.7199 56.6685 23.6399C56.3485 23.5656 56.0571 23.4056 55.8 23.1599L54.84 22.2399ZM57.8343 20.5256L56.0685 22.3713L56.3143 22.6056C56.52 22.7999 56.7428 22.8742 56.9885 22.8342C57.2343 22.7942 57.4971 22.6284 57.7657 22.3427L57.8857 22.217C58.16 21.9313 58.3085 21.6684 58.3371 21.417C58.3657 21.1713 58.2743 20.9427 58.0685 20.7485L57.8343 20.5256Z" fill="white"/>
<path d="M59.5027 25.7027C59.617 25.617 59.6742 25.5085 59.6742 25.377C59.6742 25.2456 59.6342 25.057 59.5427 24.7999C59.4513 24.5427 59.3942 24.3313 59.3542 24.1542C59.2342 23.577 59.3542 23.1542 59.7142 22.8799C59.8913 22.7427 60.0913 22.6742 60.3084 22.6685C60.5256 22.6685 60.7427 22.7313 60.9656 22.8627C61.1884 22.9942 61.3942 23.177 61.577 23.417C61.7542 23.6456 61.8742 23.8856 61.9313 24.137C61.9884 24.3827 61.9827 24.617 61.9084 24.8342C61.8342 25.0513 61.697 25.2399 61.5027 25.3885L60.9027 24.617C61.0342 24.5142 61.1027 24.3999 61.1142 24.2627C61.1256 24.1256 61.0742 23.9885 60.9713 23.8513C60.8627 23.7142 60.7484 23.6285 60.6284 23.5942C60.5027 23.5599 60.3942 23.5827 60.3027 23.6513C60.2227 23.7142 60.1827 23.817 60.1827 23.9599C60.1827 24.1027 60.2342 24.3085 60.337 24.5885C60.4399 24.8685 60.5027 25.1085 60.5313 25.3142C60.5999 25.817 60.457 26.2056 60.1084 26.4742C59.8284 26.6913 59.5256 26.7542 59.1999 26.6685C58.8742 26.5827 58.5713 26.3542 58.2856 25.9827C58.0856 25.7199 57.9484 25.4513 57.8799 25.1656C57.8113 24.8799 57.817 24.6227 57.897 24.3885C57.977 24.1542 58.1256 23.9599 58.337 23.7942L58.937 24.5713C58.7656 24.7027 58.6742 24.8456 58.657 24.9999C58.6456 25.1542 58.7142 25.3256 58.8684 25.5256C58.9656 25.6513 59.0742 25.7313 59.1884 25.7656C59.297 25.8056 59.4056 25.7827 59.5027 25.7027Z" fill="white"/>
<circle cx="40" cy="65" r="2" fill="white"/>
<mask id="mask0_2451_6543" style="mask-type:luminance" maskUnits="userSpaceOnUse" x="4" y="29" width="28" height="38">
<path d="M25.9943 66.0058L31.4286 63.7201L29.7086 59.1487L27.7086 38.0287L18.6057 31.5715L16.1428 32.503L14.2171 29.1772L4.8457 45.143L25.9943 66.0058Z" fill="white"/>
</mask>
<g mask="url(#mask0_2451_6543)">
<path fill-rule="evenodd" clip-rule="evenodd" d="M50.4344 17.1716C50.0001 17.9545 48.2516 18.143 47.063 17.8573C47.6573 17.3202 48.9373 16.8059 50.0344 17.0745L50.4344 17.1716L50.0859 16.9602C49.1201 16.3773 48.5887 15.1145 48.5544 14.3145C49.5944 14.9487 50.6859 16.3145 50.4344 17.1716ZM40.023 64.5087C40.3944 64.5087 40.6973 64.8059 40.6973 65.1773C40.6973 65.5487 40.3944 65.8459 40.023 65.8459C39.6516 65.8459 39.3487 65.5487 39.3487 65.1773C39.3544 64.8116 39.6516 64.5087 40.023 64.5087ZM48.9373 16.4802L48.6287 16.2173C47.7773 15.4802 46.4001 15.3545 45.623 15.5659C46.5487 16.3545 48.1887 16.9773 48.9373 16.4802ZM31.2059 16.4859C31.9544 16.983 33.5944 16.3602 34.5144 15.5659C33.7373 15.3602 32.3659 15.4859 31.5087 16.223L31.2059 16.4859ZM38.2916 65.1887C38.0859 66.0573 36.4516 66.7087 35.2287 66.743C35.6573 66.0687 36.7487 65.2345 37.8801 65.2002L38.2916 65.1887C38.3087 64.2973 36.8859 63.2687 35.7087 62.9373C35.9544 63.6973 36.8116 64.7716 37.903 65.0745L38.2916 65.1887ZM35.7487 64.8516C35.8516 63.9659 34.543 62.8002 33.4059 62.3545C33.5773 63.1373 34.3144 64.2859 35.3716 64.703L35.7487 64.8516L35.343 64.823C34.2116 64.743 33.0401 65.463 32.5487 66.0916C33.7659 66.1773 35.4573 65.6973 35.7487 64.8516ZM33.2573 64.263C32.8801 65.0745 31.1487 65.383 29.943 65.1773C30.4973 64.6002 31.7373 64.0002 32.8573 64.1944L33.2573 64.263C33.4516 63.3887 32.263 62.103 31.183 61.543C31.2744 62.3373 31.8916 63.5602 32.8973 64.0745L33.2573 64.263ZM30.8344 63.4287C31.1144 62.5773 30.0687 61.183 29.0459 60.5202C29.0573 61.3202 29.5487 62.5945 30.4973 63.2116L30.8344 63.4287L30.4401 63.3202C29.3487 63.0173 28.0573 63.4916 27.4459 64.0116C28.623 64.3373 30.3773 64.2002 30.8344 63.4287ZM28.5087 62.3602C27.9716 63.0802 26.2173 63.0402 25.0801 62.6002C25.743 62.143 27.0801 61.8059 28.1316 62.2116L28.5087 62.3602C28.8744 61.543 27.9716 60.0459 27.023 59.2859C26.9487 60.0802 27.3087 61.4002 28.1944 62.1087L28.5087 62.3602ZM26.3087 61.0573C26.7544 60.2802 26.0116 58.703 25.143 57.8516C24.9887 58.6345 25.2173 59.983 26.0173 60.7773L26.3087 61.0573L25.9487 60.8744C24.943 60.3602 23.5773 60.5659 22.8744 60.9544C23.9544 61.5087 25.703 61.7202 26.3087 61.0573ZM24.2459 59.5487C23.5773 60.1487 21.863 59.7602 20.8401 59.103C21.583 58.7887 22.9544 58.7202 23.9087 59.3316L24.2459 59.5487L23.9887 59.2345C23.2687 58.3659 23.183 57.0002 23.4116 56.2402C24.1887 57.1716 24.7716 58.8173 24.2459 59.5487ZM22.3487 57.8345C21.623 58.3659 19.9544 57.8059 19.0059 57.0459C19.7716 56.8059 21.1487 56.8745 22.0344 57.5773L22.3487 57.8345C22.943 57.1659 22.5316 55.4687 21.8573 54.4573C21.5487 55.1945 21.4973 56.5602 22.1259 57.4973L22.3487 57.8345ZM20.6344 55.943C19.8573 56.3945 18.2573 55.6744 17.3887 54.8287C18.1773 54.6687 19.5373 54.8745 20.3487 55.663L20.6344 55.943C21.2973 55.3373 21.0573 53.6059 20.4859 52.5373C20.103 53.2402 19.9144 54.5944 20.4459 55.5887L20.6344 55.943ZM19.1259 53.8916C18.3087 54.263 16.7887 53.3887 16.0059 52.4573C16.8059 52.3773 18.143 52.7202 18.863 53.583L19.1259 53.8916L18.9716 53.5202C18.543 52.4802 18.8744 51.1487 19.3259 50.4859C19.783 51.6059 19.8459 53.3487 19.1259 53.8916ZM17.8287 51.6973L17.7144 51.3087C17.3944 50.2287 17.8573 48.943 18.3716 48.3259C18.7144 49.4916 18.6001 51.2345 17.8287 51.6973L17.6001 51.3602C16.9716 50.4287 15.6744 49.9544 14.8687 49.9544C15.5544 50.9602 16.9773 51.9887 17.8287 51.6973ZM16.7601 49.383C15.8859 49.5887 14.5716 48.423 13.9944 47.3545C14.7944 47.4345 16.0344 48.0345 16.5659 49.023L16.7601 49.383C17.5716 49.0002 17.8687 47.2802 17.6401 46.0859C17.063 46.6459 16.4744 47.8802 16.6859 48.9887L16.7601 49.383ZM15.9373 46.9773L15.903 46.5716C15.8116 45.4516 16.5201 44.2802 17.1487 43.783C17.2516 44.9887 16.783 46.6744 15.9373 46.9773L15.783 46.6002C15.3544 45.5602 14.183 44.8402 13.3944 44.6802C13.8573 45.8059 15.0459 47.0916 15.9373 46.9773ZM15.3601 44.4973L15.3659 44.0916C15.383 42.9659 16.2116 41.8745 16.8916 41.4402C16.8687 42.6516 16.2344 44.2802 15.3601 44.4973L15.2459 44.1087C14.9259 43.0345 13.8344 42.1945 13.063 41.9602C13.4059 43.1259 14.4573 44.5259 15.3601 44.4973ZM15.0344 41.9716C14.1373 41.9087 13.2344 40.4116 13.0059 39.2173C13.7487 39.5316 14.7487 40.4687 14.9601 41.5716L15.0344 41.9716C15.9259 41.8459 16.7201 40.2859 16.8687 39.0859C16.1544 39.4516 15.2173 40.4573 15.0859 41.5716L15.0344 41.9716ZM14.9716 39.4287C14.0859 39.2745 13.3373 37.6973 13.2344 36.4859C13.9373 36.8687 14.8401 37.903 14.9373 39.023L14.9716 39.4287C15.8687 39.3887 16.823 37.9202 17.0859 36.7373C16.3373 37.0287 15.303 37.9373 15.0573 39.0345L14.9716 39.4287ZM15.1659 36.8916C14.2973 36.6516 13.7144 35.0059 13.7373 33.7887C14.4001 34.2402 15.1887 35.3602 15.1716 36.4859L15.1659 36.8916C16.063 36.943 17.1601 35.5773 17.543 34.4287C16.7659 34.6402 15.6516 35.4459 15.2916 36.5087L15.1659 36.8916ZM15.6116 34.3887L15.7773 34.0173C16.2401 32.9945 17.4344 32.3087 18.2287 32.1716C17.7316 33.2802 16.503 34.5316 15.6116 34.3887L15.6573 33.9887C15.7887 32.8745 15.1144 31.6802 14.503 31.1602C14.3659 32.3659 14.7773 34.063 15.6116 34.3887ZM16.3144 31.943C15.5144 31.5316 15.2744 29.8059 15.5373 28.6173C16.0916 29.1945 16.6459 30.4459 16.4001 31.543L16.3144 31.943C17.183 32.1716 18.5316 31.0516 19.143 30.0002C18.3373 30.0573 17.0801 30.6173 16.5201 31.5945L16.3144 31.943ZM17.263 29.5773C16.5087 29.0916 16.4459 27.3487 16.8287 26.1945C17.3259 26.823 17.743 28.1259 17.3887 29.1945L17.263 29.5773C18.103 29.8916 19.5601 28.9145 20.2744 27.9259C19.4687 27.903 18.1601 28.3373 17.503 29.2459L17.263 29.5773ZM18.4459 27.3145C19.2516 27.7145 20.8001 26.8802 21.6059 25.9716C20.8059 25.863 19.463 26.1659 18.7144 27.0116L18.4459 27.3145L18.6116 26.943C19.0687 25.9145 18.7887 24.5773 18.3544 23.903C17.8573 25.0173 17.743 26.7545 18.4459 27.3145ZM19.8459 25.1887C19.2059 24.5602 19.4973 22.8402 20.103 21.7887C20.463 22.503 20.6116 23.863 20.0459 24.8402L19.8459 25.1887L20.143 24.9145C20.9716 24.1487 22.343 23.983 23.1259 24.1716C22.2344 24.9945 20.6116 25.663 19.8459 25.1887ZM21.463 23.2116L21.7887 22.9659C22.6916 22.2916 24.0744 22.263 24.8344 22.5259C23.8516 23.2516 22.1716 23.7602 21.463 23.2116L21.6973 22.8802C22.3544 21.9659 22.3487 20.6002 22.063 19.8516C21.3544 20.8402 20.8859 22.5202 21.463 23.2116ZM23.2687 21.4002C22.7659 20.6573 23.4001 19.0287 24.2059 18.1202C24.4116 18.8916 24.2801 20.2516 23.5373 21.0973L23.2687 21.4002C23.9201 22.0173 25.6459 21.6802 26.6916 21.0516C25.9601 20.7145 24.5887 20.6059 23.6173 21.1887L23.2687 21.4002ZM25.2459 19.783C24.823 18.9945 25.6173 17.4402 26.5144 16.6116C26.6401 17.4002 26.3716 18.743 25.543 19.5087L25.2459 19.783L25.6116 19.6116C26.6344 19.1259 27.9887 19.3716 28.6801 19.783C27.583 20.303 25.8287 20.463 25.2459 19.783ZM27.383 18.3716L27.7659 18.2345C28.8344 17.8573 30.1544 18.2345 30.8001 18.7087C29.6516 19.1202 27.8916 19.1087 27.383 18.3716L27.7087 18.1259C28.6116 17.4459 29.0116 16.1373 28.9659 15.343C27.9887 16.0745 27.0401 17.543 27.383 18.3716ZM29.6459 17.183C29.3887 16.3259 30.4859 14.9602 31.5259 14.3259C31.4916 15.1259 30.9601 16.383 29.9887 16.9716L29.6459 17.183L30.0401 17.0859C31.1373 16.8173 32.4173 17.3259 33.0116 17.863C31.8287 18.1545 30.0801 17.9602 29.6459 17.183ZM41.7487 65.1887C41.9544 66.0573 43.5887 66.7087 44.8059 66.743C44.3773 66.0687 43.2859 65.2345 42.1544 65.2002L41.7487 65.1887C41.7373 64.2973 43.1601 63.2687 44.3316 62.9373C44.0801 63.6973 43.2287 64.7716 42.1373 65.0802L41.7487 65.1887ZM44.2916 64.8459C44.1887 63.9602 45.4973 62.7944 46.6344 62.3487C46.463 63.1316 45.7201 64.2802 44.6687 64.6973L44.2916 64.8459L44.6973 64.8173C45.8287 64.7373 47.0001 65.4573 47.4916 66.0859C46.2744 66.1773 44.583 65.6916 44.2916 64.8459ZM46.783 64.2573L47.143 64.0687C48.1487 63.5545 48.7716 62.3316 48.8573 61.5373C47.7773 62.0973 46.5887 63.3887 46.783 64.2573L47.183 64.1887C48.2973 63.9944 49.5373 64.5945 50.0916 65.1716C48.8916 65.3773 47.1601 65.0687 46.783 64.2573ZM49.2059 63.423C48.9259 62.5716 49.9773 61.1716 51.0001 60.5087C50.9887 61.3087 50.4973 62.583 49.5487 63.2002L49.2059 63.423L49.6001 63.3144C50.6916 63.0116 51.983 63.4802 52.5944 64.0002C51.4173 64.3259 49.663 64.1887 49.2059 63.423ZM51.5316 62.3487C52.063 63.0687 53.823 63.0287 54.9601 62.583C54.2973 62.1259 52.9659 61.7887 51.9087 62.2002L51.5316 62.3487C51.1659 61.5316 52.0687 60.0345 53.0173 59.2745C53.0916 60.0687 52.7259 61.3887 51.8459 62.0973L51.5316 62.3487ZM53.7373 61.0459C53.2916 60.2687 54.0344 58.6916 54.903 57.8345C55.0573 58.6173 54.8287 59.9659 54.023 60.7602L53.7373 61.0459L54.0973 60.863C55.103 60.3487 56.4687 60.5544 57.1716 60.9373C56.0859 61.4916 54.343 61.7087 53.7373 61.0459ZM55.8001 59.5316C56.4687 60.1316 58.183 59.743 59.2059 59.0802C58.4687 58.7659 57.0916 58.6973 56.1373 59.3087L55.8001 59.5316L56.0573 59.2173C56.7773 58.3487 56.863 56.983 56.6344 56.223C55.8573 57.1602 55.2744 58.8059 55.8001 59.5316ZM57.6973 57.823L57.9259 57.4859C58.5544 56.5487 58.503 55.183 58.1944 54.4459C57.5144 55.4516 57.103 57.1487 57.6973 57.823L58.0173 57.5716C58.903 56.8687 60.2744 56.7944 61.0459 57.0344C60.0859 57.7887 58.423 58.3487 57.6973 57.823ZM59.4116 55.9259C60.1887 56.3773 61.7887 55.6573 62.663 54.8059C61.8744 54.6459 60.5087 54.8516 59.703 55.6402L59.4116 55.9259C58.7544 55.3202 58.9887 53.5887 59.5601 52.5202C59.943 53.223 60.1316 54.5773 59.6001 55.5716L59.4116 55.9259ZM60.9259 53.8744C61.743 54.2459 63.263 53.3716 64.0459 52.4345C63.2459 52.3545 61.9087 52.6973 61.1887 53.5602L60.9259 53.8744L61.0801 53.503C61.5087 52.463 61.183 51.1316 60.7316 50.4687C60.2687 51.5887 60.2059 53.3373 60.9259 53.8744ZM62.223 51.6802C63.0744 51.9716 64.4973 50.943 65.183 49.9373C64.3773 49.9373 63.0859 50.4116 62.4516 51.343L62.223 51.6802C61.4516 51.2173 61.3373 49.4745 61.6859 48.3087C62.2001 48.9202 62.663 50.2116 62.343 51.2916L62.223 51.6802ZM63.2916 49.3659C64.1659 49.5716 65.4801 48.4059 66.0573 47.3373C65.2573 47.4173 64.0173 48.0173 63.4859 49.0116L63.2916 49.3659C62.4801 48.983 62.1887 47.263 62.4116 46.0687C62.9887 46.6287 63.5716 47.863 63.3659 48.9659L63.2916 49.3659ZM64.1201 46.9544C65.0116 47.0687 66.2001 45.783 66.663 44.6573C65.8744 44.8173 64.703 45.5373 64.2744 46.5773L64.1201 46.9544C63.2744 46.6516 62.8059 44.9716 62.9087 43.7602C63.5373 44.2573 64.2459 45.4287 64.1544 46.5487L64.1201 46.9544ZM64.6973 44.4802C65.6001 44.503 66.6516 43.103 67.0001 41.943C66.2287 42.183 65.1373 43.0173 64.8173 44.0916L64.6973 44.4802C63.823 44.263 63.1887 42.6345 63.1716 41.423C63.8459 41.8573 64.6744 42.9487 64.6916 44.0744L64.6973 44.4802ZM65.023 41.9545C65.9201 41.8916 66.823 40.3945 67.0516 39.2002C66.3087 39.5145 65.3087 40.4516 65.0973 41.5602L65.023 41.9545C64.1316 41.8287 63.3373 40.2745 63.1944 39.0687C63.9087 39.4287 64.8459 40.4402 64.9773 41.5545L65.023 41.9545ZM65.0916 39.4116L65.0059 39.0173C64.7601 37.9202 63.7316 37.0116 62.983 36.7202C63.2401 37.903 64.1887 39.3716 65.0916 39.4116L65.1259 39.0116C65.223 37.8916 66.1259 36.8573 66.8344 36.4687C66.7259 37.6745 65.9773 39.2573 65.0916 39.4116ZM64.8973 36.8745C65.7659 36.6287 66.3487 34.983 66.3316 33.7716C65.6687 34.223 64.8744 35.343 64.8916 36.4687L64.8973 36.8745C64.0001 36.9259 62.903 35.5602 62.5201 34.4116C63.2973 34.623 64.4116 35.423 64.7659 36.4916L64.8973 36.8745ZM64.4516 34.3716C65.2916 34.0459 65.703 32.3487 65.5659 31.143C64.9544 31.663 64.2801 32.8516 64.4059 33.9716L64.4516 34.3716C63.5601 34.5145 62.3373 33.263 61.8401 32.1602C62.6344 32.2973 63.8287 32.9773 64.2859 34.0059L64.4516 34.3716ZM63.7544 31.9202C64.5544 31.5087 64.7944 29.783 64.5316 28.5945C63.9716 29.1716 63.423 30.4287 63.663 31.5259L63.7544 31.9202C62.8859 32.1487 61.5373 31.0287 60.9316 29.9773C61.7373 30.0287 62.9887 30.5945 63.5544 31.5659L63.7544 31.9202ZM62.8116 29.5602L62.5773 29.2287C61.9201 28.3145 60.6116 27.8802 59.8059 27.9087C60.5144 28.8916 61.9659 29.8745 62.8116 29.5602L62.6859 29.1773C62.3316 28.1087 62.7544 26.8059 63.2516 26.1773C63.6287 27.3259 63.5659 29.0687 62.8116 29.5602ZM61.6287 27.2973C60.823 27.6973 59.2744 26.8687 58.4687 25.9602C59.2687 25.8516 60.6116 26.1545 61.3601 26.9945L61.6287 27.2973L61.463 26.9259C61.0059 25.8973 61.2916 24.5602 61.7201 23.8859C62.2173 25.0002 62.3316 26.7373 61.6287 27.2973ZM60.2287 25.1716C60.8687 24.543 60.5773 22.823 59.9716 21.7716C59.6116 22.4859 59.463 23.8459 60.023 24.823L60.2287 25.1716L59.9316 24.8973C59.103 24.1373 57.7316 23.9716 56.9487 24.1545C57.8401 24.9773 59.463 25.6459 60.2287 25.1716ZM58.6116 23.1945L58.2859 22.9487C57.383 22.2745 56.0059 22.2459 55.2401 22.5087C56.223 23.2402 57.903 23.743 58.6116 23.1945L58.3773 22.863C57.7201 21.9487 57.7316 20.583 58.0173 19.8345C58.7259 20.823 59.1887 22.503 58.6116 23.1945ZM56.8116 21.3887C57.3144 20.6459 56.6801 19.0173 55.8744 18.1087C55.6687 18.8802 55.7944 20.2402 56.543 21.0859L56.8116 21.3887C56.1601 22.0059 54.4344 21.6745 53.3944 21.0459C54.1259 20.7087 55.4973 20.6002 56.4687 21.1773L56.8116 21.3887ZM54.8287 19.7716C55.2516 18.983 54.4573 17.4287 53.5659 16.6002C53.4401 17.3887 53.703 18.7316 54.5316 19.4973L54.8287 19.7716L54.463 19.6002C53.4401 19.1202 52.0859 19.3659 51.3944 19.7716C52.4973 20.2916 54.2459 20.4516 54.8287 19.7716ZM52.6973 18.3602C53.0401 17.5316 52.0916 16.063 51.1201 15.3316C51.0744 16.1316 51.4744 17.4345 52.3773 18.1145L52.6973 18.3602C52.183 19.0973 50.4287 19.1087 49.2744 18.703C49.9201 18.2287 51.2459 17.8459 52.3144 18.223L52.6973 18.3602Z" fill="white"/>
</g>
<mask id="mask1_2451_6543" style="mask-type:luminance" maskUnits="userSpaceOnUse" x="48" y="25" width="23" height="42">
<path d="M49.1487 34.886L60.6058 31.0345L63.9315 32.5031L70.0344 25.3945L68.8687 40.8574L64.2915 56.8631L52.5772 66.006L48.5715 63.7203L50.2915 58.5774L49.1487 34.886Z" fill="white"/>
</mask>
<g mask="url(#mask1_2451_6543)">
<path fill-rule="evenodd" clip-rule="evenodd" d="M50.4344 17.1716C50.0001 17.9545 48.2516 18.143 47.063 17.8573C47.6573 17.3202 48.9373 16.8059 50.0344 17.0745L50.4344 17.1716L50.0859 16.9602C49.1201 16.3773 48.5887 15.1145 48.5544 14.3145C49.5944 14.9487 50.6859 16.3145 50.4344 17.1716ZM40.023 64.5087C40.3944 64.5087 40.6973 64.8059 40.6973 65.1773C40.6973 65.5487 40.3944 65.8459 40.023 65.8459C39.6516 65.8459 39.3487 65.5487 39.3487 65.1773C39.3544 64.8116 39.6516 64.5087 40.023 64.5087ZM48.9373 16.4802L48.6287 16.2173C47.7773 15.4802 46.4001 15.3545 45.623 15.5659C46.5487 16.3545 48.1887 16.9773 48.9373 16.4802ZM31.2059 16.4859C31.9544 16.983 33.5944 16.3602 34.5144 15.5659C33.7373 15.3602 32.3659 15.4859 31.5087 16.223L31.2059 16.4859ZM38.2916 65.1887C38.0859 66.0573 36.4516 66.7087 35.2287 66.743C35.6573 66.0687 36.7487 65.2345 37.8801 65.2002L38.2916 65.1887C38.3087 64.2973 36.8859 63.2687 35.7087 62.9373C35.9544 63.6973 36.8116 64.7716 37.903 65.0745L38.2916 65.1887ZM35.7487 64.8516C35.8516 63.9659 34.543 62.8002 33.4059 62.3545C33.5773 63.1373 34.3144 64.2859 35.3716 64.703L35.7487 64.8516L35.343 64.823C34.2116 64.743 33.0401 65.463 32.5487 66.0916C33.7659 66.1773 35.4573 65.6973 35.7487 64.8516ZM33.2573 64.263C32.8801 65.0745 31.1487 65.383 29.943 65.1773C30.4973 64.6002 31.7373 64.0002 32.8573 64.1944L33.2573 64.263C33.4516 63.3887 32.263 62.103 31.183 61.543C31.2744 62.3373 31.8916 63.5602 32.8973 64.0745L33.2573 64.263ZM30.8344 63.4287C31.1144 62.5773 30.0687 61.183 29.0459 60.5202C29.0573 61.3202 29.5487 62.5945 30.4973 63.2116L30.8344 63.4287L30.4401 63.3202C29.3487 63.0173 28.0573 63.4916 27.4459 64.0116C28.623 64.3373 30.3773 64.2002 30.8344 63.4287ZM28.5087 62.3602C27.9716 63.0802 26.2173 63.0402 25.0801 62.6002C25.743 62.143 27.0801 61.8059 28.1316 62.2116L28.5087 62.3602C28.8744 61.543 27.9716 60.0459 27.023 59.2859C26.9487 60.0802 27.3087 61.4002 28.1944 62.1087L28.5087 62.3602ZM26.3087 61.0573C26.7544 60.2802 26.0116 58.703 25.143 57.8516C24.9887 58.6345 25.2173 59.983 26.0173 60.7773L26.3087 61.0573L25.9487 60.8744C24.943 60.3602 23.5773 60.5659 22.8744 60.9544C23.9544 61.5087 25.703 61.7202 26.3087 61.0573ZM24.2459 59.5487C23.5773 60.1487 21.863 59.7602 20.8401 59.103C21.583 58.7887 22.9544 58.7202 23.9087 59.3316L24.2459 59.5487L23.9887 59.2345C23.2687 58.3659 23.183 57.0002 23.4116 56.2402C24.1887 57.1716 24.7716 58.8173 24.2459 59.5487ZM22.3487 57.8345C21.623 58.3659 19.9544 57.8059 19.0059 57.0459C19.7716 56.8059 21.1487 56.8745 22.0344 57.5773L22.3487 57.8345C22.943 57.1659 22.5316 55.4687 21.8573 54.4573C21.5487 55.1945 21.4973 56.5602 22.1259 57.4973L22.3487 57.8345ZM20.6344 55.943C19.8573 56.3945 18.2573 55.6744 17.3887 54.8287C18.1773 54.6687 19.5373 54.8745 20.3487 55.663L20.6344 55.943C21.2973 55.3373 21.0573 53.6059 20.4859 52.5373C20.103 53.2402 19.9144 54.5944 20.4459 55.5887L20.6344 55.943ZM19.1259 53.8916C18.3087 54.263 16.7887 53.3887 16.0059 52.4573C16.8059 52.3773 18.143 52.7202 18.863 53.583L19.1259 53.8916L18.9716 53.5202C18.543 52.4802 18.8744 51.1487 19.3259 50.4859C19.783 51.6059 19.8459 53.3487 19.1259 53.8916ZM17.8287 51.6973L17.7144 51.3087C17.3944 50.2287 17.8573 48.943 18.3716 48.3259C18.7144 49.4916 18.6001 51.2345 17.8287 51.6973L17.6001 51.3602C16.9716 50.4287 15.6744 49.9544 14.8687 49.9544C15.5544 50.9602 16.9773 51.9887 17.8287 51.6973ZM16.7601 49.383C15.8859 49.5887 14.5716 48.423 13.9944 47.3545C14.7944 47.4345 16.0344 48.0345 16.5659 49.023L16.7601 49.383C17.5716 49.0002 17.8687 47.2802 17.6401 46.0859C17.063 46.6459 16.4744 47.8802 16.6859 48.9887L16.7601 49.383ZM15.9373 46.9773L15.903 46.5716C15.8116 45.4516 16.5201 44.2802 17.1487 43.783C17.2516 44.9887 16.783 46.6744 15.9373 46.9773L15.783 46.6002C15.3544 45.5602 14.183 44.8402 13.3944 44.6802C13.8573 45.8059 15.0459 47.0916 15.9373 46.9773ZM15.3601 44.4973L15.3659 44.0916C15.383 42.9659 16.2116 41.8745 16.8916 41.4402C16.8687 42.6516 16.2344 44.2802 15.3601 44.4973L15.2459 44.1087C14.9259 43.0345 13.8344 42.1945 13.063 41.9602C13.4059 43.1259 14.4573 44.5259 15.3601 44.4973ZM15.0344 41.9716C14.1373 41.9087 13.2344 40.4116 13.0059 39.2173C13.7487 39.5316 14.7487 40.4687 14.9601 41.5716L15.0344 41.9716C15.9259 41.8459 16.7201 40.2859 16.8687 39.0859C16.1544 39.4516 15.2173 40.4573 15.0859 41.5716L15.0344 41.9716ZM14.9716 39.4287C14.0859 39.2745 13.3373 37.6973 13.2344 36.4859C13.9373 36.8687 14.8401 37.903 14.9373 39.023L14.9716 39.4287C15.8687 39.3887 16.823 37.9202 17.0859 36.7373C16.3373 37.0287 15.303 37.9373 15.0573 39.0345L14.9716 39.4287ZM15.1659 36.8916C14.2973 36.6516 13.7144 35.0059 13.7373 33.7887C14.4001 34.2402 15.1887 35.3602 15.1716 36.4859L15.1659 36.8916C16.063 36.943 17.1601 35.5773 17.543 34.4287C16.7659 34.6402 15.6516 35.4459 15.2916 36.5087L15.1659 36.8916ZM15.6116 34.3887L15.7773 34.0173C16.2401 32.9945 17.4344 32.3087 18.2287 32.1716C17.7316 33.2802 16.503 34.5316 15.6116 34.3887L15.6573 33.9887C15.7887 32.8745 15.1144 31.6802 14.503 31.1602C14.3659 32.3659 14.7773 34.063 15.6116 34.3887ZM16.3144 31.943C15.5144 31.5316 15.2744 29.8059 15.5373 28.6173C16.0916 29.1945 16.6459 30.4459 16.4001 31.543L16.3144 31.943C17.183 32.1716 18.5316 31.0516 19.143 30.0002C18.3373 30.0573 17.0801 30.6173 16.5201 31.5945L16.3144 31.943ZM17.263 29.5773C16.5087 29.0916 16.4459 27.3487 16.8287 26.1945C17.3259 26.823 17.743 28.1259 17.3887 29.1945L17.263 29.5773C18.103 29.8916 19.5601 28.9145 20.2744 27.9259C19.4687 27.903 18.1601 28.3373 17.503 29.2459L17.263 29.5773ZM18.4459 27.3145C19.2516 27.7145 20.8001 26.8802 21.6059 25.9716C20.8059 25.863 19.463 26.1659 18.7144 27.0116L18.4459 27.3145L18.6116 26.943C19.0687 25.9145 18.7887 24.5773 18.3544 23.903C17.8573 25.0173 17.743 26.7545 18.4459 27.3145ZM19.8459 25.1887C19.2059 24.5602 19.4973 22.8402 20.103 21.7887C20.463 22.503 20.6116 23.863 20.0459 24.8402L19.8459 25.1887L20.143 24.9145C20.9716 24.1487 22.343 23.983 23.1259 24.1716C22.2344 24.9945 20.6116 25.663 19.8459 25.1887ZM21.463 23.2116L21.7887 22.9659C22.6916 22.2916 24.0744 22.263 24.8344 22.5259C23.8516 23.2516 22.1716 23.7602 21.463 23.2116L21.6973 22.8802C22.3544 21.9659 22.3487 20.6002 22.063 19.8516C21.3544 20.8402 20.8859 22.5202 21.463 23.2116ZM23.2687 21.4002C22.7659 20.6573 23.4001 19.0287 24.2059 18.1202C24.4116 18.8916 24.2801 20.2516 23.5373 21.0973L23.2687 21.4002C23.9201 22.0173 25.6459 21.6802 26.6916 21.0516C25.9601 20.7145 24.5887 20.6059 23.6173 21.1887L23.2687 21.4002ZM25.2459 19.783C24.823 18.9945 25.6173 17.4402 26.5144 16.6116C26.6401 17.4002 26.3716 18.743 25.543 19.5087L25.2459 19.783L25.6116 19.6116C26.6344 19.1259 27.9887 19.3716 28.6801 19.783C27.583 20.303 25.8287 20.463 25.2459 19.783ZM27.383 18.3716L27.7659 18.2345C28.8344 17.8573 30.1544 18.2345 30.8001 18.7087C29.6516 19.1202 27.8916 19.1087 27.383 18.3716L27.7087 18.1259C28.6116 17.4459 29.0116 16.1373 28.9659 15.343C27.9887 16.0745 27.0401 17.543 27.383 18.3716ZM29.6459 17.183C29.3887 16.3259 30.4859 14.9602 31.5259 14.3259C31.4916 15.1259 30.9601 16.383 29.9887 16.9716L29.6459 17.183L30.0401 17.0859C31.1373 16.8173 32.4173 17.3259 33.0116 17.863C31.8287 18.1545 30.0801 17.9602 29.6459 17.183ZM41.7487 65.1887C41.9544 66.0573 43.5887 66.7087 44.8059 66.743C44.3773 66.0687 43.2859 65.2345 42.1544 65.2002L41.7487 65.1887C41.7373 64.2973 43.1601 63.2687 44.3316 62.9373C44.0801 63.6973 43.2287 64.7716 42.1373 65.0802L41.7487 65.1887ZM44.2916 64.8459C44.1887 63.9602 45.4973 62.7944 46.6344 62.3487C46.463 63.1316 45.7201 64.2802 44.6687 64.6973L44.2916 64.8459L44.6973 64.8173C45.8287 64.7373 47.0001 65.4573 47.4916 66.0859C46.2744 66.1773 44.583 65.6916 44.2916 64.8459ZM46.783 64.2573L47.143 64.0687C48.1487 63.5545 48.7716 62.3316 48.8573 61.5373C47.7773 62.0973 46.5887 63.3887 46.783 64.2573L47.183 64.1887C48.2973 63.9944 49.5373 64.5945 50.0916 65.1716C48.8916 65.3773 47.1601 65.0687 46.783 64.2573ZM49.2059 63.423C48.9259 62.5716 49.9773 61.1716 51.0001 60.5087C50.9887 61.3087 50.4973 62.583 49.5487 63.2002L49.2059 63.423L49.6001 63.3144C50.6916 63.0116 51.983 63.4802 52.5944 64.0002C51.4173 64.3259 49.663 64.1887 49.2059 63.423ZM51.5316 62.3487C52.063 63.0687 53.823 63.0287 54.9601 62.583C54.2973 62.1259 52.9659 61.7887 51.9087 62.2002L51.5316 62.3487C51.1659 61.5316 52.0687 60.0345 53.0173 59.2745C53.0916 60.0687 52.7259 61.3887 51.8459 62.0973L51.5316 62.3487ZM53.7373 61.0459C53.2916 60.2687 54.0344 58.6916 54.903 57.8345C55.0573 58.6173 54.8287 59.9659 54.023 60.7602L53.7373 61.0459L54.0973 60.863C55.103 60.3487 56.4687 60.5544 57.1716 60.9373C56.0859 61.4916 54.343 61.7087 53.7373 61.0459ZM55.8001 59.5316C56.4687 60.1316 58.183 59.743 59.2059 59.0802C58.4687 58.7659 57.0916 58.6973 56.1373 59.3087L55.8001 59.5316L56.0573 59.2173C56.7773 58.3487 56.863 56.983 56.6344 56.223C55.8573 57.1602 55.2744 58.8059 55.8001 59.5316ZM57.6973 57.823L57.9259 57.4859C58.5544 56.5487 58.503 55.183 58.1944 54.4459C57.5144 55.4516 57.103 57.1487 57.6973 57.823L58.0173 57.5716C58.903 56.8687 60.2744 56.7944 61.0459 57.0344C60.0859 57.7887 58.423 58.3487 57.6973 57.823ZM59.4116 55.9259C60.1887 56.3773 61.7887 55.6573 62.663 54.8059C61.8744 54.6459 60.5087 54.8516 59.703 55.6402L59.4116 55.9259C58.7544 55.3202 58.9887 53.5887 59.5601 52.5202C59.943 53.223 60.1316 54.5773 59.6001 55.5716L59.4116 55.9259ZM60.9259 53.8744C61.743 54.2459 63.263 53.3716 64.0459 52.4345C63.2459 52.3545 61.9087 52.6973 61.1887 53.5602L60.9259 53.8744L61.0801 53.503C61.5087 52.463 61.183 51.1316 60.7316 50.4687C60.2687 51.5887 60.2059 53.3373 60.9259 53.8744ZM62.223 51.6802C63.0744 51.9716 64.4973 50.943 65.183 49.9373C64.3773 49.9373 63.0859 50.4116 62.4516 51.343L62.223 51.6802C61.4516 51.2173 61.3373 49.4745 61.6859 48.3087C62.2001 48.9202 62.663 50.2116 62.343 51.2916L62.223 51.6802ZM63.2916 49.3659C64.1659 49.5716 65.4801 48.4059 66.0573 47.3373C65.2573 47.4173 64.0173 48.0173 63.4859 49.0116L63.2916 49.3659C62.4801 48.983 62.1887 47.263 62.4116 46.0687C62.9887 46.6287 63.5716 47.863 63.3659 48.9659L63.2916 49.3659ZM64.1201 46.9544C65.0116 47.0687 66.2001 45.783 66.663 44.6573C65.8744 44.8173 64.703 45.5373 64.2744 46.5773L64.1201 46.9544C63.2744 46.6516 62.8059 44.9716 62.9087 43.7602C63.5373 44.2573 64.2459 45.4287 64.1544 46.5487L64.1201 46.9544ZM64.6973 44.4802C65.6001 44.503 66.6516 43.103 67.0001 41.943C66.2287 42.183 65.1373 43.0173 64.8173 44.0916L64.6973 44.4802C63.823 44.263 63.1887 42.6345 63.1716 41.423C63.8459 41.8573 64.6744 42.9487 64.6916 44.0744L64.6973 44.4802ZM65.023 41.9545C65.9201 41.8916 66.823 40.3945 67.0516 39.2002C66.3087 39.5145 65.3087 40.4516 65.0973 41.5602L65.023 41.9545C64.1316 41.8287 63.3373 40.2745 63.1944 39.0687C63.9087 39.4287 64.8459 40.4402 64.9773 41.5545L65.023 41.9545ZM65.0916 39.4116L65.0059 39.0173C64.7601 37.9202 63.7316 37.0116 62.983 36.7202C63.2401 37.903 64.1887 39.3716 65.0916 39.4116L65.1259 39.0116C65.223 37.8916 66.1259 36.8573 66.8344 36.4687C66.7259 37.6745 65.9773 39.2573 65.0916 39.4116ZM64.8973 36.8745C65.7659 36.6287 66.3487 34.983 66.3316 33.7716C65.6687 34.223 64.8744 35.343 64.8916 36.4687L64.8973 36.8745C64.0001 36.9259 62.903 35.5602 62.5201 34.4116C63.2973 34.623 64.4116 35.423 64.7659 36.4916L64.8973 36.8745ZM64.4516 34.3716C65.2916 34.0459 65.703 32.3487 65.5659 31.143C64.9544 31.663 64.2801 32.8516 64.4059 33.9716L64.4516 34.3716C63.5601 34.5145 62.3373 33.263 61.8401 32.1602C62.6344 32.2973 63.8287 32.9773 64.2859 34.0059L64.4516 34.3716ZM63.7544 31.9202C64.5544 31.5087 64.7944 29.783 64.5316 28.5945C63.9716 29.1716 63.423 30.4287 63.663 31.5259L63.7544 31.9202C62.8859 32.1487 61.5373 31.0287 60.9316 29.9773C61.7373 30.0287 62.9887 30.5945 63.5544 31.5659L63.7544 31.9202ZM62.8116 29.5602L62.5773 29.2287C61.9201 28.3145 60.6116 27.8802 59.8059 27.9087C60.5144 28.8916 61.9659 29.8745 62.8116 29.5602L62.6859 29.1773C62.3316 28.1087 62.7544 26.8059 63.2516 26.1773C63.6287 27.3259 63.5659 29.0687 62.8116 29.5602ZM61.6287 27.2973C60.823 27.6973 59.2744 26.8687 58.4687 25.9602C59.2687 25.8516 60.6116 26.1545 61.3601 26.9945L61.6287 27.2973L61.463 26.9259C61.0059 25.8973 61.2916 24.5602 61.7201 23.8859C62.2173 25.0002 62.3316 26.7373 61.6287 27.2973ZM60.2287 25.1716C60.8687 24.543 60.5773 22.823 59.9716 21.7716C59.6116 22.4859 59.463 23.8459 60.023 24.823L60.2287 25.1716L59.9316 24.8973C59.103 24.1373 57.7316 23.9716 56.9487 24.1545C57.8401 24.9773 59.463 25.6459 60.2287 25.1716ZM58.6116 23.1945L58.2859 22.9487C57.383 22.2745 56.0059 22.2459 55.2401 22.5087C56.223 23.2402 57.903 23.743 58.6116 23.1945L58.3773 22.863C57.7201 21.9487 57.7316 20.583 58.0173 19.8345C58.7259 20.823 59.1887 22.503 58.6116 23.1945ZM56.8116 21.3887C57.3144 20.6459 56.6801 19.0173 55.8744 18.1087C55.6687 18.8802 55.7944 20.2402 56.543 21.0859L56.8116 21.3887C56.1601 22.0059 54.4344 21.6745 53.3944 21.0459C54.1259 20.7087 55.4973 20.6002 56.4687 21.1773L56.8116 21.3887ZM54.8287 19.7716C55.2516 18.983 54.4573 17.4287 53.5659 16.6002C53.4401 17.3887 53.703 18.7316 54.5316 19.4973L54.8287 19.7716L54.463 19.6002C53.4401 19.1202 52.0859 19.3659 51.3944 19.7716C52.4973 20.2916 54.2459 20.4516 54.8287 19.7716ZM52.6973 18.3602C53.0401 17.5316 52.0916 16.063 51.1201 15.3316C51.0744 16.1316 51.4744 17.4345 52.3773 18.1145L52.6973 18.3602C52.183 19.0973 50.4287 19.1087 49.2744 18.703C49.9201 18.2287 51.2459 17.8459 52.3144 18.223L52.6973 18.3602Z" fill="white"/>
</g>
<path fill-rule="evenodd" clip-rule="evenodd" d="M64.1086 32.7662L64.1257 32.3604C64.1771 31.2347 63.4229 30.0804 62.7771 29.5947C62.7257 30.8176 63.2514 32.4919 64.1086 32.7662Z" fill="white"/>
<path fill-rule="evenodd" clip-rule="evenodd" d="M15.9888 32.7662L15.9716 32.3604C15.9202 31.2347 16.6745 30.0804 17.3202 29.5947C17.3716 30.8176 16.8459 32.4919 15.9888 32.7662Z" fill="white"/>
</g>
<defs>
<radialGradient id="paint0_angular_2451_6543" cx="0" cy="0" r="1" gradientUnits="userSpaceOnUse" gradientTransform="translate(38.8038 39.9972) rotate(90) scale(39.9069 38.7037)">
<stop offset="0.0729167" stop-color="#E3A455"/>
<stop offset="0.244792" stop-color="#F6DBA6"/>
<stop offset="0.434957" stop-color="#FFEBC4"/>
<stop offset="0.532623" stop-color="#F0BE79"/>
<stop offset="0.593311" stop-color="#8F653B"/>
<stop offset="0.627652" stop-color="#673D22"/>
<stop offset="0.708863" stop-color="#BA7F3B"/>
<stop offset="0.773898" stop-color="#EEBC70"/>
<stop offset="0.921875" stop-color="#3F1F0F"/>
</radialGradient>
<clipPath id="clip0_2451_6543">
<rect width="80" height="80" fill="white"/>
</clipPath>
</defs>
</svg>
