<svg width="24" height="26" viewBox="0 0 24 26" fill="none" xmlns="http://www.w3.org/2000/svg">
<path d="M4.4145 25.0751L15.9135 18.5846L13.4445 15.8501L4.4145 25.0751ZM0.2145 1.18462C0.0809998 1.42162 0 1.69462 0 1.99762V24.6851C0 25.1051 0.1575 25.4651 0.3945 25.7501L11.835 14.0651L0.213 1.18462H0.2145ZM23.22 12.2231L19.2105 9.95962L15.1275 14.1311L18.054 17.3756L23.22 14.4611C23.4335 14.3551 23.6169 14.1971 23.7533 14.0015C23.8896 13.8059 23.9745 13.5791 24 13.3421C23.9745 13.1051 23.8896 12.8783 23.7533 12.6827C23.6169 12.4872 23.4335 12.3291 23.22 12.2231ZM17.0475 8.73862L3.2175 0.932617L13.5165 12.3476L17.0475 8.73862Z" fill="#1E2738"/>
</svg>
