<svg width="24" height="28" viewBox="0 0 24 28" fill="none" xmlns="http://www.w3.org/2000/svg">
<path d="M22.7654 9.54615C22.6016 9.67217 19.7086 11.2879 19.7086 14.8807C19.7086 19.0363 23.3898 20.5065 23.5 20.5429C23.483 20.6325 22.9152 22.5563 21.5591 24.5165C20.3499 26.2414 19.087 27.9636 17.1659 27.9636C15.2447 27.9636 14.7503 26.8575 12.5326 26.8575C10.3713 26.8575 9.60281 28 7.84554 28C6.08826 28 4.86212 26.4038 3.45234 24.4436C1.81937 22.1418 0.5 18.5659 0.5 15.1719C0.5 9.72817 4.07106 6.84108 7.58562 6.84108C9.45308 6.84108 11.0098 8.05641 12.1822 8.05641C13.2982 8.05641 15.0385 6.76828 17.1631 6.76828C17.9682 6.76828 20.8613 6.84108 22.7654 9.54615ZM16.1545 4.46365C17.0331 3.43034 17.6546 1.9966 17.6546 0.562856C17.6546 0.364036 17.6377 0.162416 17.601 0C16.1714 0.0532053 14.4706 0.943695 13.4451 2.12261C12.6399 3.0299 11.8884 4.46365 11.8884 5.91699C11.8884 6.13541 11.9251 6.35384 11.9421 6.42384C12.0325 6.44064 12.1794 6.46025 12.3263 6.46025C13.609 6.46025 15.2221 5.60896 16.1545 4.46365Z" fill="#1E2738"/>
</svg>
