<svg width="80" height="80" viewBox="0 0 80 80" fill="none" xmlns="http://www.w3.org/2000/svg">
<rect width="80" height="80" rx="20" fill="url(#paint0_radial_2115_4443)"/>
<rect width="80" height="80" rx="20" fill="url(#paint1_angular_2115_4443)" style="mix-blend-mode:difference"/>
<rect width="80" height="80" rx="20" fill="url(#paint2_angular_2115_4443)" style="mix-blend-mode:screen"/>
<rect x="3" y="3" width="74" height="74" rx="17" fill="white"/>
<path d="M18.5082 50.21L19.9082 49.93C20.0082 50.54 20.5082 50.84 21.3982 50.84C21.7982 50.84 22.1382 50.74 22.4282 50.55C22.7082 50.36 22.8482 50.13 22.8482 49.85C22.8482 49.16 22.2282 48.88 21.4282 48.88H20.5682V47.66H21.4582C22.1882 47.66 22.6082 47.33 22.6082 46.85C22.6082 46.41 22.1682 46.16 21.4382 46.16C21.1982 46.16 21.1082 46.17 20.8682 46.22C20.6182 46.27 20.4282 46.42 20.3382 46.66L18.8982 46.38C19.2482 45.34 19.9982 44.91 21.4282 44.91C22.2682 44.91 22.9282 45.08 23.3982 45.43C23.8682 45.78 24.0982 46.21 24.0982 46.72C24.0982 47.47 23.6882 48.04 23.0382 48.23V48.28C23.9082 48.54 24.3382 49.1 24.3382 49.96C24.3382 50.93 23.6582 51.61 22.8082 51.88C22.3782 52.02 21.9082 52.09 21.3982 52.09C19.6982 52.09 18.7382 51.46 18.5082 50.21ZM25.8763 47.58C26.3663 47.09 27.0263 46.84 27.8663 46.84C28.7063 46.84 29.3763 47.09 29.8663 47.58C30.3563 48.08 30.5963 48.71 30.5963 49.46C30.5963 50.21 30.3563 50.83 29.8663 51.33C29.3763 51.84 28.7063 52.09 27.8663 52.09C27.0263 52.09 26.3663 51.84 25.8763 51.33C25.3863 50.83 25.1363 50.21 25.1363 49.46C25.1363 48.71 25.3863 48.08 25.8763 47.58ZM28.8563 48.38C28.6263 48.1 28.2963 47.96 27.8663 47.96C27.4363 47.96 27.1163 48.1 26.8863 48.38C26.6563 48.67 26.5363 49.03 26.5363 49.46C26.5363 49.89 26.6563 50.25 26.8863 50.54C27.1163 50.83 27.4363 50.97 27.8663 50.97C28.2963 50.97 28.6263 50.83 28.8563 50.54C29.0863 50.25 29.1963 49.89 29.1963 49.46C29.1963 49.03 29.0863 48.67 28.8563 48.38ZM32.0908 46.93H36.1908V52H34.8408V48.03H33.3008C33.2608 48.62 33.1908 49.14 33.0808 49.59C32.8708 50.47 32.5708 51.17 31.9208 51.69C31.5908 51.96 31.2208 52.09 30.8008 52.09V50.84C31.0908 50.84 31.3708 50.58 31.5408 50.21C31.7008 49.85 31.7908 49.57 31.8608 49.28C32.0108 48.61 32.0908 47.83 32.0908 46.93ZM37.9271 47.58C38.4171 47.09 39.0771 46.84 39.9171 46.84C40.7571 46.84 41.4271 47.09 41.9171 47.58C42.4071 48.08 42.6471 48.71 42.6471 49.46C42.6471 50.21 42.4071 50.83 41.9171 51.33C41.4271 51.84 40.7571 52.09 39.9171 52.09C39.0771 52.09 38.4171 51.84 37.9271 51.33C37.4371 50.83 37.1871 50.21 37.1871 49.46C37.1871 48.71 37.4371 48.08 37.9271 47.58ZM40.9071 48.38C40.6771 48.1 40.3471 47.96 39.9171 47.96C39.4871 47.96 39.1671 48.1 38.9371 48.38C38.7071 48.67 38.5871 49.03 38.5871 49.46C38.5871 49.89 38.7071 50.25 38.9371 50.54C39.1671 50.83 39.4871 50.97 39.9171 50.97C40.3471 50.97 40.6771 50.83 40.9071 50.54C41.1371 50.25 41.2471 49.89 41.2471 49.46C41.2471 49.03 41.1371 48.67 40.9071 48.38ZM47.1065 46.93V48.03H45.5465V52H44.1965V48.03H42.6465V46.93H47.1065ZM47.9466 47.58C48.4366 47.09 49.0966 46.84 49.9366 46.84C50.7766 46.84 51.4466 47.09 51.9366 47.58C52.4266 48.08 52.6666 48.71 52.6666 49.46C52.6666 50.21 52.4266 50.83 51.9366 51.33C51.4466 51.84 50.7766 52.09 49.9366 52.09C49.0966 52.09 48.4366 51.84 47.9466 51.33C47.4566 50.83 47.2066 50.21 47.2066 49.46C47.2066 48.71 47.4566 48.08 47.9466 47.58ZM50.9266 48.38C50.6966 48.1 50.3666 47.96 49.9366 47.96C49.5066 47.96 49.1866 48.1 48.9566 48.38C48.7266 48.67 48.6066 49.03 48.6066 49.46C48.6066 49.89 48.7266 50.25 48.9566 50.54C49.1866 50.83 49.5066 50.97 49.9366 50.97C50.3666 50.97 50.6966 50.83 50.9266 50.54C51.1566 50.25 51.2666 49.89 51.2666 49.46C51.2666 49.03 51.1566 48.67 50.9266 48.38ZM57.2864 50.37L58.4364 50.83C58.0464 51.6 57.1864 52.09 56.1464 52.09C55.3264 52.09 54.6764 51.84 54.1964 51.34C53.7064 50.84 53.4664 50.22 53.4664 49.47C53.4664 48.72 53.7064 48.1 54.1964 47.59C54.6764 47.09 55.3264 46.84 56.1464 46.84C56.9364 46.84 57.5764 47.11 58.0464 47.65C58.5164 48.19 58.7264 48.89 58.6864 49.74H54.8764C54.9564 50.51 55.3964 51 56.1464 51C56.6764 51 57.0564 50.79 57.2864 50.37ZM56.1464 47.88C55.5064 47.88 55.0864 48.26 54.9364 48.87H57.2764C57.1564 48.28 56.7464 47.88 56.1464 47.88ZM15.1099 55V62H13.6599V56.26H10.2799V62H8.82988V55H15.1099ZM17.6657 56.93V57.52H17.7157C18.1357 57.07 18.7157 56.84 19.4457 56.84C20.1757 56.84 20.7457 57.09 21.1757 57.59C21.5957 58.09 21.8057 58.72 21.8057 59.47C21.8057 60.22 21.5957 60.84 21.1757 61.34C20.7457 61.84 20.1757 62.09 19.4457 62.09C18.7757 62.09 18.2257 61.9 17.8057 61.51H17.7557V64.12H16.4057V56.93H17.6657ZM19.0757 57.96C18.2257 57.96 17.7557 58.56 17.7557 59.47C17.7557 60.35 18.2057 60.97 19.0757 60.97C19.5057 60.97 19.8357 60.83 20.0657 60.55C20.2957 60.28 20.4057 59.92 20.4057 59.47C20.4057 59.02 20.2957 58.66 20.0657 58.38C19.8357 58.1 19.5057 57.96 19.0757 57.96ZM24.1521 62H22.8021V56.93H24.1521V58.82L24.1021 59.74H24.1421L26.3221 57.71V56.93H27.6721V62H26.3221V60.11L26.3721 59.19H26.3321L24.1521 61.23V62ZM29.5664 56.93H33.6664V62H32.3164V58.03H30.7764C30.7364 58.62 30.6664 59.14 30.5564 59.59C30.3464 60.47 30.0464 61.17 29.3964 61.69C29.0664 61.96 28.6964 62.09 28.2764 62.09V60.84C28.5664 60.84 28.8464 60.58 29.0164 60.21C29.1764 59.85 29.2664 59.57 29.3364 59.28C29.4864 58.61 29.5664 57.83 29.5664 56.93ZM35.4027 57.58C35.8927 57.09 36.5527 56.84 37.3927 56.84C38.2327 56.84 38.9027 57.09 39.3927 57.58C39.8827 58.08 40.1227 58.71 40.1227 59.46C40.1227 60.21 39.8827 60.83 39.3927 61.33C38.9027 61.84 38.2327 62.09 37.3927 62.09C36.5527 62.09 35.8927 61.84 35.4027 61.33C34.9127 60.83 34.6627 60.21 34.6627 59.46C34.6627 58.71 34.9127 58.08 35.4027 57.58ZM38.3827 58.38C38.1527 58.1 37.8227 57.96 37.3927 57.96C36.9627 57.96 36.6427 58.1 36.4127 58.38C36.1827 58.67 36.0627 59.03 36.0627 59.46C36.0627 59.89 36.1827 60.25 36.4127 60.54C36.6427 60.83 36.9627 60.97 37.3927 60.97C37.8227 60.97 38.1527 60.83 38.3827 60.54C38.6127 60.25 38.7227 59.89 38.7227 59.46C38.7227 59.03 38.6127 58.67 38.3827 58.38ZM43.4721 56.93H44.8221V58.76H45.3621L46.5321 56.93H47.9421L47.1421 58.24L46.4621 59.26V59.32L47.0921 60.24L48.1721 62H46.5721L45.1021 59.73H44.8221V62H43.4721V59.73H43.1821L41.7221 62H40.1221L41.2121 60.23L41.8321 59.32V59.26L41.1521 58.25L40.3521 56.93H41.7621L42.9321 58.76H43.4721V56.93ZM51.9886 60.37L53.1386 60.83C52.7486 61.6 51.8886 62.09 50.8486 62.09C50.0286 62.09 49.3786 61.84 48.8986 61.34C48.4086 60.84 48.1686 60.22 48.1686 59.47C48.1686 58.72 48.4086 58.1 48.8986 57.59C49.3786 57.09 50.0286 56.84 50.8486 56.84C51.6386 56.84 52.2786 57.11 52.7486 57.65C53.2186 58.19 53.4286 58.89 53.3886 59.74H49.5786C49.6586 60.51 50.0986 61 50.8486 61C51.3786 61 51.7586 60.79 51.9886 60.37ZM50.8486 57.88C50.2086 57.88 49.7886 58.26 49.6386 58.87H51.9786C51.8586 58.28 51.4486 57.88 50.8486 57.88ZM55.6463 62H54.2963V56.93H55.6463V58.73H57.8163V56.93H59.1663V62H57.8163V59.83H55.6463V62ZM61.7205 62H60.3705V56.93H61.7205V58.82L61.6705 59.74H61.7105L63.8905 57.71V56.93H65.2405V62H63.8905V60.11L63.9405 59.19H63.9005L61.7205 61.23V62ZM70.0647 60.37L71.2147 60.83C70.8247 61.6 69.9647 62.09 68.9247 62.09C68.1047 62.09 67.4547 61.84 66.9747 61.34C66.4847 60.84 66.2447 60.22 66.2447 59.47C66.2447 58.72 66.4847 58.1 66.9747 57.59C67.4547 57.09 68.1047 56.84 68.9247 56.84C69.7147 56.84 70.3547 57.11 70.8247 57.65C71.2947 58.19 71.5047 58.89 71.4647 59.74H67.6547C67.7347 60.51 68.1747 61 68.9247 61C69.4547 61 69.8347 60.79 70.0647 60.37ZM68.9247 57.88C68.2847 57.88 67.8647 58.26 67.7147 58.87H70.0547C69.9347 58.28 69.5247 57.88 68.9247 57.88Z" fill="#272727"/>
<path fill-rule="evenodd" clip-rule="evenodd" d="M49.319 13.5105H31.5933V28.472L36.2966 25.2587V17.664H45.0599V21.8422L49.319 27.4449V13.5105ZM49.319 30.5385L39.1447 37.4895H49.319V30.5385ZM35.8944 37.4895L31.5933 31.8316V37.4895H35.8944ZM43.4665 20.3602V19.1745H37.8899V24.1702L43.4665 20.3602ZM37.8899 26.0321L43.4127 22.2589L43.4665 22.3297V26.7269H37.8899V26.0321ZM36.2966 27.1206V28.2374H45.0599V24.4257L48.6426 29.1387L37.3665 36.8425L32.1366 29.9627L36.2966 27.1206ZM30 12V39H50.9123V12H30Z" fill="#272727"/>
<defs>
<radialGradient id="paint0_radial_2115_4443" cx="0" cy="0" r="1" gradientUnits="userSpaceOnUse" gradientTransform="translate(8.08411 22.5932) rotate(29.6941) scale(73.4811 73.9872)">
<stop offset="0.0833333" stop-color="#7E6A7E"/>
<stop offset="0.375" stop-color="#D5D5D5"/>
<stop offset="0.634538" stop-color="#75888A"/>
<stop offset="1" stop-color="#896753"/>
</radialGradient>
<radialGradient id="paint1_angular_2115_4443" cx="0" cy="0" r="1" gradientUnits="userSpaceOnUse" gradientTransform="translate(40 40) rotate(90) scale(40)">
<stop offset="0.0833333" stop-color="white"/>
<stop offset="0.265625"/>
<stop offset="0.46875" stop-color="white"/>
<stop offset="0.635417"/>
<stop offset="0.791667" stop-color="white"/>
<stop offset="1"/>
</radialGradient>
<radialGradient id="paint2_angular_2115_4443" cx="0" cy="0" r="1" gradientUnits="userSpaceOnUse" gradientTransform="translate(40 40) rotate(90) scale(40)">
<stop offset="0.046875" stop-color="white" stop-opacity="0.72"/>
<stop offset="0.244792"/>
<stop offset="0.421875" stop-color="white" stop-opacity="0.72"/>
<stop offset="0.625"/>
<stop offset="0.802083" stop-color="white" stop-opacity="0.72"/>
<stop offset="1"/>
</radialGradient>
</defs>
</svg>
