<svg width="26" height="26" viewBox="0 0 26 26" fill="none" xmlns="http://www.w3.org/2000/svg">
<path d="M0.969946 5.76443C1.57581 6.37029 2.40671 6.75112 3.32415 6.75112C4.2416 6.75112 5.0725 6.37029 5.67837 5.76443C6.28423 5.15856 6.64774 4.31036 6.64774 3.3756C6.64774 2.44084 6.26692 1.59263 5.67837 0.986766C5.0725 0.380904 4.2416 7.62939e-05 3.32415 7.62939e-05C2.40671 7.62939e-05 1.57581 0.380904 0.969946 0.986766C0.364084 1.59263 0.00056626 2.44084 0.00056626 3.3756C-0.0167441 4.31036 0.364084 5.15856 0.969946 5.76443Z" fill="white"/>
<path d="M10.4455 5.76435C11.0514 6.37021 11.8823 6.75104 12.7997 6.75104C13.7172 6.75104 14.5481 6.37021 15.154 5.76435C15.7598 5.15849 16.1233 4.31028 16.1233 3.37552C16.1233 2.44076 15.7425 1.59255 15.154 0.98669C14.5481 0.380827 13.7172 0 12.7997 0C11.8823 0 11.0514 0.380827 10.4455 0.98669C9.83967 1.59255 9.47615 2.44076 9.47615 3.37552C9.45884 4.31028 9.83967 5.15849 10.4455 5.76435Z" fill="white"/>
<path d="M19.9214 5.76435C20.5272 6.37021 21.3581 6.75104 22.2756 6.75104C23.193 6.75104 24.0239 6.37021 24.6298 5.76435C25.2356 5.15849 25.5992 4.31028 25.5992 3.37552C25.5992 2.44076 25.2183 1.59255 24.6298 0.98669C24.0239 0.380827 23.193 0 22.2756 0C21.3581 0 20.5272 0.380827 19.9214 0.98669C19.3155 1.59255 18.952 2.44076 18.952 3.37552C18.9347 4.31028 19.3155 5.15849 19.9214 5.76435Z" fill="white"/>
<path d="M0.969946 14.9382C1.57581 15.544 2.40671 15.9249 3.32415 15.9249C4.2416 15.9249 5.0725 15.544 5.67837 14.9382C6.28423 14.3323 6.64774 13.4841 6.64774 12.5493C6.64774 11.6146 6.26692 10.7664 5.67837 10.1605C5.0725 9.55466 4.2416 9.17383 3.32415 9.17383C2.40671 9.17383 1.57581 9.55466 0.969946 10.1605C0.364084 10.7664 0.00056626 11.6146 0.00056626 12.5493C-0.0167441 13.4841 0.364084 14.3323 0.969946 14.9382Z" fill="white"/>
<path d="M0.969946 24.114C1.57581 24.7198 2.40671 25.1006 3.32415 25.1006C4.2416 25.1006 5.0725 24.7198 5.67837 24.114C6.28423 23.5081 6.64774 22.6599 6.64774 21.7251C6.64774 20.7904 6.26692 19.9422 5.67837 19.3363C5.0725 18.7304 4.2416 18.3496 3.32415 18.3496C2.40671 18.3496 1.57581 18.7304 0.969946 19.3363C0.364084 19.9422 0.00056626 20.7904 0.00056626 21.7251C-0.0167441 22.6599 0.364084 23.5081 0.969946 24.114Z" fill="white"/>
<path d="M10.4455 14.9382C11.0514 15.544 11.8823 15.9249 12.7997 15.9249C13.7172 15.9249 14.5481 15.544 15.154 14.9382C15.7598 14.3323 16.1233 13.4841 16.1233 12.5493C16.1233 11.6146 15.7425 10.7664 15.154 10.1605C14.5481 9.55466 13.7172 9.17383 12.7997 9.17383C11.8823 9.17383 11.0514 9.55466 10.4455 10.1605C9.83967 10.7664 9.47615 11.6146 9.47615 12.5493C9.45884 13.4841 9.83967 14.3323 10.4455 14.9382Z" fill="white"/>
<path d="M10.4455 24.114C11.0514 24.7198 11.8823 25.1006 12.7997 25.1006C13.7172 25.1006 14.5481 24.7198 15.154 24.114C15.7598 23.5081 16.1233 22.6599 16.1233 21.7251C16.1233 20.7904 15.7425 19.9422 15.154 19.3363C14.5481 18.7304 13.7172 18.3496 12.7997 18.3496C11.8823 18.3496 11.0514 18.7304 10.4455 19.3363C9.83967 19.9422 9.47615 20.7904 9.47615 21.7251C9.45884 22.6599 9.83967 23.5081 10.4455 24.114Z" fill="white"/>
<path d="M19.9211 14.9382C20.527 15.544 21.3579 15.9249 22.2753 15.9249C23.1928 15.9249 24.0237 15.544 24.6295 14.9382C25.2354 14.3323 25.5989 13.4841 25.5989 12.5493C25.5989 11.6146 25.2181 10.7664 24.6295 10.1605C24.0237 9.55466 23.1928 9.17383 22.2753 9.17383C21.3579 9.17383 20.527 9.55466 19.9211 10.1605C19.3153 10.7664 18.9517 11.6146 18.9517 12.5493C18.9344 13.4841 19.3153 14.3323 19.9211 14.9382Z" fill="white"/>
<path d="M19.9211 24.114C20.527 24.7198 21.3579 25.1006 22.2753 25.1006C23.1928 25.1006 24.0237 24.7198 24.6295 24.114C25.2354 23.5081 25.5989 22.6599 25.5989 21.7251C25.5989 20.7904 25.2181 19.9422 24.6295 19.3363C24.0237 18.7304 23.1928 18.3496 22.2753 18.3496C21.3579 18.3496 20.527 18.7304 19.9211 19.3363C19.3153 19.9422 18.9517 20.7904 18.9517 21.7251C18.9344 22.6599 19.3153 23.5081 19.9211 24.114Z" fill="white"/>
</svg>
