<?xml version="1.0" encoding="utf-8"?>
<svg version="1.1" id="Layer_1" xmlns="http://www.w3.org/2000/svg" xmlns:xlink="http://www.w3.org/1999/xlink" x="0px" y="0px"
	 width="30px" height="30px" viewBox="0 0 30 30" enable-background="new 0 0 30 30" xml:space="preserve">
<path fill="#ffffff" d="M30,15c0-8.284-6.716-15-15-15S0,6.716,0,15s6.716,15,15,15S30,23.284,30,15z M11.273,23.687
	c-0.38-0.401-0.361-1.034,0.04-1.413l7.7-7.273l-7.7-7.273c-0.401-0.379-0.42-1.012-0.04-1.414c0.379-0.402,1.012-0.42,1.413-0.041
	l8.471,8c0.2,0.189,0.313,0.452,0.313,0.727s-0.113,0.538-0.313,0.727l-8.471,8C12.285,24.105,11.652,24.088,11.273,23.687z"/>
</svg>
