<svg width="40" height="41" viewBox="0 0 40 41" fill="none" xmlns="http://www.w3.org/2000/svg">
<circle cx="20" cy="20.6946" r="19.5" stroke="#070707"/>
<path d="M20.0001 8.69458C20.508 8.69458 21.0086 8.72614 21.5 8.78741C27.4195 9.52553 32.0001 14.5751 32.0001 20.6946C32.0001 27.322 26.6275 32.6946 20.0001 32.6946C18.0177 32.6946 16.1476 32.2139 14.5 31.3627C13.9763 31.0922 13.4752 30.7843 13 30.4424" stroke="#070707" stroke-linecap="round"/>
<path d="M10.683 29.028C10.8672 29.2338 11.1833 29.2513 11.389 29.0671C11.5948 28.883 11.6123 28.5669 11.4281 28.3611L10.683 29.028ZM9.83179 26.0716C9.70249 25.8276 9.39986 25.7347 9.15587 25.864C8.91187 25.9933 8.8189 26.2959 8.9482 26.5399L9.83179 26.0716ZM7.86519 23.7057C7.9315 23.9738 8.20256 24.1373 8.47062 24.071C8.73869 24.0047 8.90224 23.7337 8.83594 23.4656L7.86519 23.7057ZM8.67297 18.696C8.72062 18.424 8.53874 18.1649 8.26674 18.1172C7.99474 18.0696 7.73562 18.2514 7.68797 18.5234L8.67297 18.696ZM8.25079 16.4182C8.15633 16.6776 8.2901 16.9646 8.54958 17.059C8.80906 17.1535 9.09599 17.0197 9.19046 16.7603L8.25079 16.4182ZM11.19 13.3026C11.3677 13.0912 11.3402 12.7758 11.1288 12.5982C10.9173 12.4206 10.6019 12.448 10.4243 12.6594L11.19 13.3026ZM11.9649 11.1189C11.7534 11.2965 11.726 11.6119 11.9036 11.8234C12.0812 12.0348 12.3966 12.0622 12.608 11.8846L11.9649 11.1189ZM16.0657 9.88504C16.3252 9.79057 16.4589 9.50364 16.3645 9.24416C16.27 8.98468 15.9831 8.85091 15.7236 8.94537L16.0657 9.88504ZM17.8289 8.38255C17.5569 8.4302 17.375 8.68932 17.4226 8.96132C17.4703 9.23332 17.7294 9.4152 18.0014 9.36755L17.8289 8.38255ZM11.4281 28.3611C10.808 27.6683 10.2707 26.8999 9.83179 26.0716L8.9482 26.5399C9.4254 27.4404 10.0093 28.2753 10.683 29.028L11.4281 28.3611ZM8.83594 23.4656C8.61654 22.5786 8.5 21.6505 8.5 20.6946H7.5C7.5 21.7321 7.62651 22.7408 7.86519 23.7057L8.83594 23.4656ZM8.5 20.6946C8.5 20.0125 8.55932 19.3447 8.67297 18.696L7.68797 18.5234C7.56438 19.2289 7.5 19.9544 7.5 20.6946H8.5ZM9.19046 16.7603C9.6536 15.4881 10.3351 14.3204 11.19 13.3026L10.4243 12.6594C9.49557 13.7652 8.75455 15.0344 8.25079 16.4182L9.19046 16.7603ZM12.608 11.8846C13.6258 11.0297 14.7935 10.3482 16.0657 9.88504L15.7236 8.94537C14.3398 9.44913 13.0706 10.1901 11.9649 11.1189L12.608 11.8846ZM18.0014 9.36755C18.6502 9.2539 19.318 9.19458 20 9.19458V8.19458C19.2599 8.19458 18.5343 8.25896 17.8289 8.38255L18.0014 9.36755ZM10.683 29.028C10.8672 29.2338 11.1833 29.2513 11.389 29.0671C11.5948 28.883 11.6123 28.5669 11.4281 28.3611L10.683 29.028ZM9.83179 26.0716C9.70249 25.8276 9.39986 25.7347 9.15587 25.864C8.91187 25.9933 8.8189 26.2959 8.9482 26.5399L9.83179 26.0716ZM7.86519 23.7057C7.9315 23.9738 8.20256 24.1373 8.47062 24.071C8.73869 24.0047 8.90224 23.7337 8.83594 23.4656L7.86519 23.7057ZM8.67297 18.696C8.72062 18.424 8.53874 18.1649 8.26674 18.1172C7.99474 18.0696 7.73562 18.2514 7.68797 18.5234L8.67297 18.696ZM8.25079 16.4182C8.15633 16.6776 8.2901 16.9646 8.54958 17.059C8.80906 17.1535 9.09599 17.0197 9.19046 16.7603L8.25079 16.4182ZM11.19 13.3026C11.3677 13.0912 11.3402 12.7758 11.1288 12.5982C10.9173 12.4206 10.6019 12.448 10.4243 12.6594L11.19 13.3026ZM11.9649 11.1189C11.7534 11.2965 11.726 11.6119 11.9036 11.8234C12.0812 12.0348 12.3966 12.0622 12.608 11.8846L11.9649 11.1189ZM16.0657 9.88504C16.3252 9.79057 16.4589 9.50364 16.3645 9.24416C16.27 8.98468 15.9831 8.85091 15.7236 8.94537L16.0657 9.88504ZM17.8289 8.38255C17.5569 8.4302 17.375 8.68932 17.4226 8.96132C17.4703 9.23332 17.7294 9.4152 18.0014 9.36755L17.8289 8.38255ZM11.4281 28.3611C10.808 27.6683 10.2707 26.8999 9.83179 26.0716L8.9482 26.5399C9.4254 27.4404 10.0093 28.2753 10.683 29.028L11.4281 28.3611ZM8.83594 23.4656C8.61654 22.5786 8.5 21.6505 8.5 20.6946H7.5C7.5 21.7321 7.62651 22.7408 7.86519 23.7057L8.83594 23.4656ZM8.5 20.6946C8.5 20.0125 8.55932 19.3447 8.67297 18.696L7.68797 18.5234C7.56438 19.2289 7.5 19.9544 7.5 20.6946H8.5ZM9.19046 16.7603C9.6536 15.4881 10.3351 14.3204 11.19 13.3026L10.4243 12.6594C9.49557 13.7652 8.75455 15.0344 8.25079 16.4182L9.19046 16.7603ZM12.608 11.8846C13.6258 11.0297 14.7935 10.3482 16.0657 9.88504L15.7236 8.94537C14.3398 9.44913 13.0706 10.1901 11.9649 11.1189L12.608 11.8846ZM18.0014 9.36755C18.6502 9.2539 19.318 9.19458 20 9.19458V8.19458C19.2599 8.19458 18.5343 8.25896 17.8289 8.38255L18.0014 9.36755Z" fill="#070707"/>
<path d="M20 15.6946V20.6946H27" stroke="#070707" stroke-linecap="round" stroke-linejoin="round"/>
</svg>
