<svg width="25" height="21" viewBox="0 0 25 21" fill="none" xmlns="http://www.w3.org/2000/svg">
<path fill-rule="evenodd" clip-rule="evenodd" d="M25 2.5C25 1.39543 24.1046 0.5 23 0.5H16C14.494 0.5 13.1824 1.33229 12.5 2.562C11.8176 1.33229 10.506 0.5 9 0.5H2C0.89543 0.5 0 1.39543 0 2.5V18.5C0 19.6046 0.89543 20.5 2 20.5H23C24.1046 20.5 25 19.6046 25 18.5V2.5ZM15.7244 17.7756C14.7094 17.7756 13.7695 18.0959 13 18.64V4.5C13 2.84315 14.3431 1.5 16 1.5H23C23.5523 1.5 24 1.94772 24 2.5V17.0423C24 17.4473 23.6717 17.7756 23.2667 17.7756H15.7244ZM12 18.64V4.5C12 2.84315 10.6569 1.5 9 1.5H2C1.44772 1.5 1 1.94772 1 2.5V17.0423C1 17.4473 1.32833 17.7756 1.73333 17.7756H9.27559C10.2906 17.7756 11.2305 18.0959 12 18.64Z" fill="white"/>
</svg>
