<svg width="29" height="35" viewBox="0 0 29 35" fill="none" xmlns="http://www.w3.org/2000/svg">
<path d="M26.4634 22.1096H25.5195C25.4337 22.1096 25.3681 22.0438 25.3681 21.9579C25.3681 21.9326 25.3731 21.9073 25.3883 21.882L25.7163 21.3105C25.8072 21.1538 25.8072 20.9666 25.7163 20.8099L24.298 18.3419L22.1277 22.1045H21.4059C21.3201 22.1045 21.2545 22.0388 21.2545 21.9528C21.2545 21.9275 21.2595 21.9022 21.2747 21.8769L23.6621 17.7401C23.7529 17.5833 23.7529 17.3962 23.6621 17.2394L22.2387 14.7765L13.9913 29.0734L13.6178 28.4261C13.5471 28.2997 13.5471 28.148 13.6178 28.0215L21.6027 14.1798C21.6936 14.023 21.6936 13.8359 21.6027 13.6791L20.1844 11.2112L11.932 25.503L11.5585 24.8557C11.4878 24.7292 11.4878 24.5775 11.5585 24.4511L19.5485 10.6043C19.6393 10.4475 19.6393 10.2604 19.5485 10.1036L18.1301 7.63568L9.77675 22.1096H9.05498C8.96917 22.1096 8.90356 22.0438 8.90356 21.9579C8.90356 21.9326 8.9086 21.9073 8.92375 21.882L17.4942 7.03892C17.585 6.88215 17.585 6.69503 17.4942 6.53825L16.0759 4.07031L5.66315 22.1096H4.94137C4.85557 22.1096 4.78995 22.0438 4.78995 21.9579C4.78995 21.9326 4.795 21.9073 4.81014 21.882L15.4349 3.46849C15.5257 3.31172 15.5257 3.1246 15.4349 2.96782L14.0165 0.499878L0 24.8253H8.40892L13.9913 34.4999L19.5737 24.8253H28.028L26.4634 22.1096Z" fill="#ffffff"/>
</svg>
