<svg width="42" height="42" viewBox="0 0 42 42" fill="none" xmlns="http://www.w3.org/2000/svg">
<rect x="1" y="1" width="40" height="40" rx="20" stroke="#141414"/>
<path fill-rule="evenodd" clip-rule="evenodd" d="M13.929 27.5054C13.7728 27.6616 13.7728 27.9148 13.929 28.071C14.0852 28.2272 14.3384 28.2272 14.4947 28.071L21 21.5657L27.5054 28.0711C27.6616 28.2273 27.9148 28.2273 28.071 28.0711C28.2273 27.9148 28.2273 27.6616 28.071 27.5054L21.5657 21L28.0711 14.4946C28.2273 14.3384 28.2273 14.0851 28.0711 13.9289C27.9149 13.7727 27.6616 13.7727 27.5054 13.9289L21 20.4343L14.4946 13.9289C14.3384 13.7727 14.0851 13.7727 13.9289 13.9289C13.7727 14.0851 13.7727 14.3384 13.9289 14.4946L20.4343 21L13.929 27.5054Z" fill="#141414"/>
</svg>
