<svg width="32" height="30" viewBox="0 0 32 30" fill="none" xmlns="http://www.w3.org/2000/svg">
<path fill-rule="evenodd" clip-rule="evenodd" d="M27.8892 29.0504L27.5755 27.0507C26.8245 28.4121 25.3531 29.3372 23.6608 29.3372C21.2057 29.3372 19.2627 27.3729 19.2627 24.971C19.2627 24.8182 19.2321 24.6964 19.2627 24.5705L19.2627 18.5365H17.3711V16.4337H21.5327L21.5329 24.2364C21.5346 24.2622 21.2812 27.4546 24.1381 27.3024C25.7377 27.2172 26.7924 26.1187 27.3024 24.007L27.3023 18.5365H25.1269V16.4337H29.5723V26.9476H31.1802V29.0504H27.8892Z" fill="white"/>
<path fill-rule="evenodd" clip-rule="evenodd" d="M25.2194 0.662842C27.1968 0.662842 28.8959 1.33606 30.134 2.437V5.53505H27.9623L27.9624 3.42568C27.1448 2.90665 26.1832 2.60937 25.2524 2.60937C22.8757 2.60937 20.9489 4.57574 20.9489 7.16235C20.9489 9.74896 22.8757 11.7298 25.2524 11.7298C26.6617 11.7298 27.9127 11.1087 28.6977 9.9693L30.4752 11.3461C29.265 12.9285 27.3609 13.9486 25.2194 13.9486C21.5629 13.9486 18.5986 10.9745 18.5986 7.30573C18.5986 3.63696 21.5629 0.662842 25.2194 0.662842Z" fill="white"/>
<path fill-rule="evenodd" clip-rule="evenodd" d="M4.22266 0.949585H8.10055L11.286 10.4682L14.4714 0.949585H18.3493V3.05237H16.1801L12.3906 13.7574H10.1814L6.39182 3.05237H4.22266V0.949585Z" fill="white"/>
<path fill-rule="evenodd" clip-rule="evenodd" d="M9.1168 16.4337V18.9188C10.1588 17.3219 11.4284 16.4511 12.9256 16.4337H15.0064V20.3525H12.9256L12.9256 18.3877C11.1672 18.407 10.0007 19.42 9.42598 21.4267L9.426 26.9476H14.8172V29.0504H5.0752V26.9476H7.15601V18.5365H5.0752V16.4337H9.1168Z" fill="white"/>
<path d="M2.89918 26.9476H0.818359V29.0504H2.89918V26.9476Z" fill="white"/>
</svg>
