<svg width="18" height="18" viewBox="0 0 18 18" fill="none" xmlns="http://www.w3.org/2000/svg">
<path id="XMLID_827_" d="M17.6,3.4c-0.3,0.1-0.6,0.2-0.9,0.3c0.3-0.5,0.7-0.9,0.8-1.4c0-0.1,0-0.2-0.1-0.3c-0.1-0.1-0.2-0.1-0.3,0
	c-0.7,0.3-1.4,0.7-2,0.8c-0.7-0.7-1.7-1.1-2.7-1.1c-2.1,0-3.8,1.7-3.8,3.8c0,0.1,0,0.3,0,0.5C5.8,5.7,3.4,4.5,1.7,2.4
	c0,0-0.1-0.1-0.2-0.1c-0.1,0-0.1,0.1-0.2,0.2C0.9,3,0.7,3.7,0.7,4.4c0,0.9,0.3,1.8,0.9,2.5c-0.1,0-0.2-0.1-0.5-0.2
	c-0.1,0-0.2,0-0.3,0c0,0.1-0.1,0.1-0.1,0.2l0,0c0,1.4,0.8,2.6,1.9,3.4c-0.1,0-0.2,0-0.3,0c-0.1,0-0.2,0-0.2,0.1
	c-0.1,0.1-0.1,0.2-0.1,0.2c0.5,1.4,1.5,2.3,2.8,2.6c-1.1,0.7-2.4,1-3.6,1c-0.2,0-0.6,0-0.8,0c-0.1,0-0.2,0.1-0.3,0.2
	c0,0.1,0,0.2,0.1,0.3c1.7,1.1,3.6,1.7,5.6,1.7c3.9,0,6.4-1.8,7.8-3.4c1.7-1.9,2.7-4.5,2.7-7.1c0-0.1,0-0.2,0-0.3
	c0.7-0.6,1.2-1.1,1.8-1.9c0-0.1,0-0.2-0.1-0.3C17.9,3.3,17.7,3.3,17.6,3.4z" fill="#ffffff"/>
</svg>
