<?xml version="1.0" encoding="utf-8"?>
<!-- Generator: Adobe Illustrator 24.1.1, SVG Export Plug-In . SVG Version: 6.00 Build 0)  -->
<svg version="1.1" id="Layer_1" xmlns="http://www.w3.org/2000/svg" xmlns:xlink="http://www.w3.org/1999/xlink" x="0px" y="0px"
	 viewBox="0 0 92 92" style="enable-background:new 0 0 92 92;" xml:space="preserve">
<style type="text/css">
	.st0{fill:#161616;}
	.st1{fill:#FFFFFF;}
</style>
<circle class="st0" cx="46" cy="46" r="46"/>
<g>
	<polygon class="st1" points="32.8,45 29.5,45.4 29.5,50 32.8,49.8 	"/>
	<polygon class="st1" points="15.3,43.8 24.2,42.6 24.2,38.2 15.3,39.8 	"/>
	<polygon class="st1" points="57,42.4 52.7,42.9 52.7,48.5 57,48.2 	"/>
	<polygon class="st1" points="18.1,58.1 21.4,58.1 21.4,43.7 18.1,44.1 	"/>
	<polygon class="st1" points="25.4,58.1 28.9,58.1 28.9,37.4 25.4,38 	"/>
	<path class="st1" d="M70.2,37.2c0.5,1.3,0,3.4-1.3,5.2c-2,2.9-7.3,8.8-7.3,8.8l7.6-0.3c4.6-5.6,6.3-8.9,6.6-13.2
		c0.2-2.2-0.5-4.4-1.8-5.9c-1.4-1.7-3.5-2.3-5.8-1.9V36C69.2,36,69.9,36.4,70.2,37.2z"/>
	<path class="st1" d="M65.7,41.4c-0.2-3.7,0.7-4.6,1.6-5.1l0-6.2c-4.5,1.2-6.7,5.2-6.4,11.8L65.7,41.4z"/>
	<polygon class="st1" points="60.7,52.3 60.7,52.3 60.7,52.3 60.7,58.1 76.1,58.1 76.1,58.1 76.1,51.7 	"/>
	<polygon class="st1" points="52.7,58.1 59.3,58.1 59.3,52.3 52.7,52.6 	"/>
	<polygon class="st1" points="47.3,58.1 51.9,58.1 51.9,33.4 47.3,34.2 	"/>
	<polygon class="st1" points="52.7,38.8 59.3,37.9 59.3,32.2 52.7,33.3 	"/>
	<polygon class="st1" points="29.5,58.1 34.5,58.1 34.5,53.2 29.5,53.4 	"/>
	<polygon class="st1" points="29.5,41.9 34.5,41.2 34.5,36.5 29.5,37.3 	"/>
	<polygon class="st1" points="35.8,58.1 39.7,58.1 39.7,35.5 35.8,36.2 	"/>
	<polygon class="st1" points="40.4,58.1 46.1,58.1 46.1,52.8 40.4,53 	"/>
</g>
</svg>
