<svg width="90" height="90" viewBox="0 0 90 90" fill="none" xmlns="http://www.w3.org/2000/svg">
<mask id="mask0_1798_6440" style="mask-type:alpha" maskUnits="userSpaceOnUse" x="0" y="0" width="90" height="90">
<circle cx="45" cy="45" r="45" fill="#C4C4C4"/>
</mask>
<g mask="url(#mask0_1798_6440)">
<rect x="-2.25" y="-2.25" width="93.375" height="93.375" fill="#00BA64"/>
</g>
<g clip-path="url(#clip0_1798_6440)">
<path fill-rule="evenodd" clip-rule="evenodd" d="M45 11.25C26.3898 11.25 11.25 26.3898 11.25 45C11.25 63.6102 26.3898 78.75 45 78.75C63.6087 78.75 78.75 63.6102 78.75 45C78.75 26.3898 63.6087 11.25 45 11.25Z" fill="white"/>
<path d="M62.0318 20.792C59.4559 27.3986 53.5918 28.7733 45.0973 28.7733C44.1856 28.7733 43.2826 28.759 42.411 28.7461C41.5682 28.7346 40.7712 28.7217 39.99 28.7217C39.2962 28.7217 38.5967 28.7303 37.9072 28.7604C39.097 25.8391 40.9963 23.8538 43.6997 22.6497C47.4682 20.9726 52.3676 20.9554 56.6908 20.9425C58.5744 20.9353 60.3776 20.9282 62.0318 20.792Z" fill="#008F32"/>
<path d="M64.678 22.9123C60.868 31.2118 52.3764 32.0432 45.0974 32.0432C43.4992 32.0432 41.9683 32.0045 40.5506 31.9959L38.7173 39.1659C48.1062 31.5114 60.5225 39.1 59.1952 50.6505C58.3007 58.4297 52.7548 63.517 46.8878 64.979C40.4961 66.573 33.415 64.1878 30.24 57.6743C29.9031 56.9863 29.3169 55.6073 29.0932 54.8705L35.8332 53.139C35.9522 53.5274 36.1543 53.903 36.3664 54.2456C40.8789 61.5231 50.0227 57.8836 51.0548 50.3337C52.1055 42.6534 41.329 38.5625 36.418 47.5386L30.4407 44.9914L30.3375 44.9455L33.2201 33.3735C33.3978 32.5507 33.997 30.2529 34.1002 29.8759C37.3584 17.8953 47.8983 17.7061 56.3527 17.6746C52.8566 16.2196 49.0236 15.4141 45 15.4141C28.6589 15.4141 15.4141 28.6589 15.4141 45C15.4141 61.341 28.6589 74.5859 45 74.5859C61.341 74.5859 74.5859 61.341 74.5859 45C74.5859 36.2159 70.7558 28.3307 64.678 22.9123Z" fill="#EB2316"/>
</g>
<defs>
<clipPath id="clip0_1798_6440">
<rect width="67.5" height="67.5" fill="white" transform="translate(11.25 11.25)"/>
</clipPath>
</defs>
</svg>
