<svg width="386" height="94" viewBox="0 0 386 94" fill="none" xmlns="http://www.w3.org/2000/svg">
<path d="M364.37 24.5031C370.564 24.5031 375.563 26.3505 379.366 30.0996C383.17 33.7945 385.072 39.3367 385.072 46.6177V75.2525H370.564V48.8454C370.564 44.8789 369.695 41.9448 367.956 39.9887C366.217 38.0326 363.718 37.0546 360.403 37.0546C356.763 37.0546 353.829 38.1956 351.655 40.4234C349.482 42.7055 348.395 46.02 348.395 50.5298V75.2525H333.887V25.2638H347.743V31.132C349.645 29.0129 352.036 27.3829 354.915 26.2418C357.795 25.0464 360.947 24.5031 364.37 24.5031Z" fill="#1E2738"/>
<path d="M296.885 64.0628C300.58 64.0628 303.677 62.8131 306.013 60.3137C308.404 57.8142 309.599 54.4454 309.599 50.2072C309.599 45.9691 308.404 42.6546 306.013 40.1008C303.623 37.6014 300.58 36.3516 296.885 36.3516C293.19 36.3516 290.093 37.6014 287.702 40.1008C285.311 42.6002 284.062 45.9691 284.062 50.2072C284.062 54.4454 285.257 57.7599 287.702 60.3137C290.147 62.8131 293.19 64.0628 296.885 64.0628ZM296.885 75.9623C291.614 75.9623 286.887 74.8756 282.703 72.6478C278.519 70.4744 275.259 67.3773 272.923 63.5195C270.586 59.6073 269.391 55.2061 269.391 50.2072C269.391 45.2627 270.586 40.8072 272.923 36.895C275.259 32.9828 278.519 29.94 282.703 27.7666C286.887 25.5932 291.614 24.4521 296.885 24.4521C302.156 24.4521 306.883 25.5389 311.012 27.7666C315.142 29.94 318.402 33.0372 320.793 36.895C323.129 40.8072 324.324 45.2084 324.324 50.2072C324.324 55.1518 323.129 59.6073 320.793 63.5195C318.456 67.4316 315.196 70.4744 311.012 72.6478C306.883 74.8756 302.156 75.9623 296.885 75.9623Z" fill="#1E2738"/>
<path d="M259.671 25.2669H245.163V75.2556H259.671V25.2669Z" fill="#1E2738"/>
<path d="M204.301 60.9096C208.159 60.9096 211.31 59.7686 213.755 57.5408C216.201 55.2587 217.45 52.3246 217.45 48.6841C217.45 45.0436 216.201 42.0552 213.755 39.8274C211.31 37.5453 208.159 36.4586 204.301 36.4586C200.443 36.4586 197.292 37.5996 194.847 39.8274C192.347 42.1095 191.152 45.0436 191.152 48.6841C191.152 52.3246 192.402 55.313 194.847 57.5408C197.292 59.7686 200.443 60.9096 204.301 60.9096ZM231.686 25.2654V66.8865C231.686 76.0693 229.295 82.8612 224.514 87.3167C219.732 91.7723 212.777 94 203.595 94C198.759 94 194.195 93.4023 189.848 92.2613C185.501 91.0659 181.915 89.3815 179.089 87.1537L188.055 78.8947C189.467 79.6554 191.098 80.3074 192.836 80.9051C196.042 81.9375 199.302 82.4265 202.508 82.4265C207.507 82.4265 211.202 81.2855 213.592 79.0577C215.983 76.7756 217.179 73.3525 217.179 68.7883V66.6692C213.375 70.7987 208.159 72.9178 201.367 72.9178C196.803 72.9178 192.565 71.8854 188.761 69.875C184.958 67.8646 181.915 65.0391 179.687 61.3986C177.459 57.7581 176.318 53.52 176.318 48.7384C176.318 43.9569 177.459 39.7731 179.687 36.0782C181.915 32.4377 184.958 29.6123 188.761 27.6019C192.565 25.5915 196.748 24.5591 201.367 24.5591C208.594 24.5591 214.136 26.9498 217.885 31.7314V25.2654H231.686Z" fill="#1E2738"/>
<path d="M144.537 35.4805C141.276 35.4805 138.505 36.4042 136.278 38.2517C134.05 40.0991 132.691 42.6528 132.202 45.8586H156.816C156.327 42.7072 154.969 40.1534 152.741 38.306C150.459 36.4042 147.742 35.4805 144.537 35.4805ZM170.455 50.4228C170.455 50.5858 170.346 51.8899 170.183 54.335H132.365C133.072 57.4321 134.648 59.8772 137.201 61.6703C139.755 63.4634 142.907 64.3871 146.656 64.3871C149.264 64.3871 151.546 64.0067 153.556 63.246C154.371 62.92 155.186 62.5397 155.947 62.105L163.934 70.7987C159.479 74.3305 153.556 76.0692 146.275 76.0692C140.624 76.0692 135.626 74.9825 131.333 72.7548C126.986 70.5814 123.672 67.4842 121.281 63.6264C118.945 59.7142 117.749 55.313 117.749 50.3142C117.749 45.424 118.89 41.0228 121.227 37.0563C123.563 33.1441 126.715 30.047 130.79 27.8736C134.865 25.7001 139.375 24.5591 144.428 24.5591C149.318 24.5591 153.774 25.5915 157.74 27.7105C161.707 29.8296 164.804 32.8181 167.086 36.7846C169.368 40.7511 170.455 45.2066 170.455 50.4228Z" fill="#1E2738"/>
<path d="M26.7331 35.4789C23.473 35.4789 20.7019 36.4026 18.4741 38.25C16.2463 40.0974 14.888 42.6512 14.3989 45.857H39.013C38.524 42.7055 37.1656 40.1517 34.9378 38.3043C32.71 36.4026 29.9933 35.4789 26.7331 35.4789ZM52.7056 50.4212C52.7056 50.5842 52.5969 51.8882 52.4339 54.3333H14.5619C15.2683 57.4305 16.844 59.8756 19.3978 61.6686C21.9516 63.4617 25.1031 64.3854 28.8522 64.3854C31.4603 64.3854 33.7424 64.0051 35.7528 63.2444C36.5679 62.9184 37.3829 62.538 38.1436 62.1033L46.1853 70.6883C41.7298 74.2202 35.8072 75.9589 28.5262 75.9589C22.8753 75.9589 17.9308 74.8722 13.5839 72.6444C9.23705 70.471 5.92258 67.3739 3.53182 63.516C1.19538 59.6039 0 55.2027 0 50.2582C0 45.3679 1.14105 40.9668 3.47748 37.0003C5.81391 33.0881 8.96538 29.991 13.0405 27.8175C17.1157 25.6441 21.6256 24.5031 26.6788 24.5031C31.569 24.5031 36.0245 25.5354 39.991 27.6545C43.9575 29.7736 47.0546 32.7621 49.3367 36.7286C51.5645 40.6407 52.7056 45.2049 52.7056 50.4212Z" fill="#1E2738"/>
<path d="M108.018 6.30399H93.5109V75.2559H108.018V6.30399Z" fill="#1E2738"/>
<path d="M65.6975 55.3168C67.5993 57.2186 70.2074 58.414 73.0872 58.414C75.967 58.414 78.5751 57.2186 80.4768 55.3168C82.3786 53.4151 83.5196 50.7527 83.5196 47.8185C83.5196 44.8844 82.3242 42.222 80.4768 40.3202C78.5751 38.4185 75.967 37.2231 73.0872 37.2231C70.2074 37.2231 67.5993 38.4185 65.6975 40.3202C63.7958 42.222 62.6547 44.8844 62.6547 47.8185C62.6004 50.7527 63.7958 53.4151 65.6975 55.3168Z" fill="#2864D9"/>
<path d="M246.032 15.5943C247.662 17.2244 249.889 18.2568 252.389 18.2568C254.888 18.2568 257.116 17.2244 258.746 15.5943C260.376 13.9643 261.354 11.6822 261.354 9.12838C261.354 6.62895 260.322 4.34685 258.746 2.66245C257.116 1.03238 254.888 0 252.389 0C249.889 0 247.662 1.03238 246.032 2.66245C244.401 4.29251 243.423 6.57461 243.423 9.12838C243.423 11.6822 244.401 13.9643 246.032 15.5943Z" fill="#1E2738"/>
</svg>
