<svg xmlns="http://www.w3.org/2000/svg" width="24" height="24" viewBox="0 0 24 24">
  <path fill="none" stroke="#00AEEF" stroke-width="2" d="M19.979 9.554A8 8 0 1 0 4.022 9.55c.002.044.002.044.006.087.028.354.077.698.15 1.043.488 2.45 1.958 5.138 4.11 7.873A39.72 39.72 0 0 0 12 22.637a39.72 39.72 0 0 0 3.712-4.084c2.152-2.735 3.622-5.424 4.113-7.885.07-.332.12-.676.147-1.03l.007-.083zm0 0v-.003.003z"/>
  <path fill="none" stroke="#00AEEF" stroke-width="2" d="M15.125 9a3.125 3.125 0 1 0-6.25 0 3.125 3.125 0 0 0 6.25 0z"/>
</svg>
