<svg width="443" height="512" viewBox="0 0 443 512" fill="none" xmlns="http://www.w3.org/2000/svg">
<path opacity="0.4" d="M474.92 387.703H457.981C456.441 387.703 455.263 386.524 455.263 384.981C455.263 384.528 455.354 384.074 455.626 383.62L461.514 373.368C463.144 370.555 463.144 367.198 461.514 364.385L436.06 320.107L397.11 387.613H384.157C382.617 387.613 381.439 386.433 381.439 384.891C381.439 384.437 381.53 383.983 381.802 383.53L424.647 309.31C426.277 306.497 426.277 303.14 424.647 300.327L399.103 256.14L251.092 512.643L244.389 501.029C243.121 498.761 243.121 496.039 244.389 493.771L387.69 245.434C389.32 242.621 389.32 239.264 387.69 236.451L362.236 192.173L214.135 448.585L207.432 436.972C206.164 434.703 206.164 431.981 207.432 429.713L350.823 181.285C352.453 178.472 352.453 175.115 350.823 172.303L325.369 128.025L175.457 387.703H162.504C160.964 387.703 159.786 386.524 159.786 384.981C159.786 384.528 159.877 384.074 160.148 383.62L313.956 117.318C315.587 114.505 315.587 111.148 313.956 108.336L288.503 64.0577L101.633 387.703H88.6794C87.1396 387.703 85.962 386.524 85.962 384.981C85.962 384.528 86.0526 384.074 86.3243 383.62L276.999 53.2604C278.629 50.4477 278.629 47.0906 276.999 44.2779L251.545 0L0 436.427H150.909L251.092 610L351.276 436.427H503L474.92 387.703Z" fill="white"/>
</svg>
