<svg width="651" height="650" viewBox="0 0 651 650" fill="none" xmlns="http://www.w3.org/2000/svg">
<mask id="mask0" style="mask-type:alpha" maskUnits="userSpaceOnUse" x="0" y="0" width="651" height="650">
<rect x="0.90625" width="650" height="650" rx="42" fill="#F0F0F0"/>
</mask>
<g mask="url(#mask0)">
<path opacity="0.4" d="M588.882 587.915C555.716 597.918 524.16 568.267 532.079 534.544L628.127 125.563C636.047 91.839 677.504 79.3353 702.749 103.056L1008.91 390.726C1034.16 414.447 1024.26 456.601 991.094 466.604L588.882 587.915Z" fill="white"/>
<path opacity="0.4" d="M702.142 757.013C702.142 791.654 664.642 813.305 634.642 795.984L270.818 585.93C240.817 568.61 240.817 525.309 270.817 507.988L634.641 297.934C664.641 280.614 702.141 302.264 702.141 336.905L702.142 757.013Z" fill="white"/>
</g>
</svg>
