<svg version="1.1" id="Layer_1" xmlns="http://www.w3.org/2000/svg" xmlns:xlink="http://www.w3.org/1999/xlink" x="0px" y="0px"
	 viewBox="0 0 638.5 883.5" style="enable-background:new 0 0 638.5 883.5;" xml:space="preserve">
<style type="text/css">
	.st0{opacity:0.4;fill:#FFFFFF;enable-background:new    ;}
</style>
<path class="st0" d="M301.8,567.8L9.9,338.3c-11.3-8.9-13.2-25.2-4.4-36.5L235,9.9c8.9-11.3,25.2-13.2,36.5-4.4L563.4,235
	c11.3,8.9,13.2,25.2,4.4,36.5L338.3,563.4C329.4,574.7,313.1,576.7,301.8,567.8z"/>
<path class="st0" d="M249.9,868.1L98.1,529.2c-5.9-13.1,0-28.5,13.1-34.4l338.9-151.7c13.1-5.9,28.5,0,34.4,13.1l151.7,338.9
	c5.9,13.1,0,28.5-13.1,34.4L284.2,881.2C271.1,887,255.7,881.2,249.9,868.1z"/>
</svg>
